<?xml version="1.0" encoding="UTF-8"?>
<!-- Generator: Adobe Illustrator 27.2.0, SVG Export Plug-In . SVG Version: 6.00 Build 0)  -->
<svg version="1.1" id="Layer_1" xmlns="http://www.w3.org/2000/svg" xmlns:xlink="http://www.w3.org/1999/xlink" x="0px" y="0px" viewBox="0 0 402.7 66.3" style="enable-background:new 0 0 402.7 66.3;" xml:space="preserve">
<style type="text/css">
	.st0{fill:#19190D;}
	.st1{fill:#222222;}
</style>
<g>
	<g>
		<g>
			<g>
				<g>
					<g>
						<path class="st0" d="M211.8,38.3c-2.8,0-5-2.3-5-5.3l0,0c0-3,2.1-5.3,5-5.3c1.8,0,2.9,0.7,4,1.7l0.6-0.6        c-1.2-1.1-2.5-1.9-4.6-1.9c-3.4,0-5.9,2.8-5.9,6.1l0,0c0,3.4,2.5,6,5.8,6c2.1,0,3.4-0.8,4.7-2l-0.5-0.5        C214.7,37.7,213.5,38.3,211.8,38.3z"/>
					</g>
					<g>
						<path class="st0" d="M222.6,32.6c-2.8-0.6-3.4-1.3-3.4-2.6l0,0c0-1.2,1.1-2.2,2.9-2.2c1.3,0,2.4,0.4,3.5,1.3l0.6-0.7        c-1.2-1-2.3-1.4-4-1.4c-2.2,0-3.8,1.3-3.8,3.1l0,0c0,1.8,1.1,2.7,4,3.3c2.7,0.5,3.3,1.3,3.3,2.5l0,0c0,1.3-1.2,2.3-3,2.3        c-1.7,0-2.9-0.6-4.2-1.7l-0.6,0.7c1.4,1.3,2.9,1.9,4.7,1.9c2.3,0,3.9-1.3,3.9-3.2l0,0C226.5,34.1,225.3,33.2,222.6,32.6z"/>
					</g>
					<g>
						<polygon class="st0" points="236.3,27.2 236.3,32.6 228.8,32.6 228.8,27.2 227.9,27.2 227.9,38.9 228.8,38.9 228.8,33.4         236.3,33.4 236.3,38.9 237.2,38.9 237.2,27.2       "/>
					</g>
					<g>
						<g>
							<path class="st0" d="M169.8,26.8c-3.6,0-6.3,2.7-6.3,6.1l0,0c0,3.4,2.6,6.1,6.3,6.1c3.6,0,6.3-2.7,6.3-6.1l0,0         C176,29.5,173.4,26.8,169.8,26.8z M173.3,32.9c0,2-1.4,3.7-3.5,3.7s-3.6-1.7-3.6-3.7l0,0c0-2,1.4-3.7,3.5-3.7         S173.3,30.9,173.3,32.9L173.3,32.9z"/>
						</g>
					</g>
					<g>
						<path class="st0" d="M185.7,27c-0.8,0-1.5,0.5-1.8,1.2l-2.6,7.1l-2.6-7.1c-0.3-0.7-1-1.2-1.8-1.2h-1.6l4.8,11.9h2.3l4.8-11.9        C187.2,27,185.7,27,185.7,27z"/>
					</g>
					<g>
						<path class="st0" d="M159.8,27.8L159.8,27.8v6.5l-4.9-6.4c-0.4-0.5-1.1-0.9-1.8-0.9h-1.2v11.8h2.6v-7.5l5.1,6.7        c0.4,0.5,1,0.8,1.6,0.8h1.1V27h-2.5C159.8,27,159.8,27.8,159.8,27.8z"/>
					</g>
					<g>
						<g>
							<path class="st0" d="M188.9,27l-5,11.9h1.6c0.6,0,1.2-0.4,1.4-0.9l0.7-1.7h5l0.7,1.7c0.2,0.6,0.8,0.9,1.4,0.9h1.7L191.3,27         H188.9z M188.5,34l1.6-3.8l1.6,3.8H188.5z"/>
						</g>
					</g>
					<g>
						<polygon class="st0" points="196.9,37.9 197.4,38.9 197.8,38.9 197.8,33.6 204.5,33.6 204.5,32.8 197.8,32.8 197.8,28         205.2,28 205.2,27.2 196.9,27.2       "/>
					</g>
				</g>
				<g>
					<path class="st0" d="M152.4,43.9v0.8h1.1V45h-1.1v0.9h-0.3v-2.3h1.5v0.3H152.4z"/>
					<path class="st0" d="M155.3,45.3h-1.2l-0.2,0.5h-0.3l1-2.2h0.3l1,2.2h-0.3L155.3,45.3z M155.2,45l-0.5-1.1l-0.5,1.1H155.2z"/>
					<path class="st0" d="M156.5,45.7c-0.2-0.1-0.3-0.2-0.4-0.4c-0.1-0.2-0.2-0.4-0.2-0.6c0-0.2,0.1-0.4,0.2-0.6       c0.1-0.2,0.2-0.3,0.4-0.4c0.2-0.1,0.4-0.1,0.6-0.1c0.2,0,0.3,0,0.5,0.1c0.1,0.1,0.3,0.1,0.4,0.3l-0.2,0.2       c-0.2-0.2-0.4-0.3-0.6-0.3s-0.3,0-0.4,0.1c-0.1,0.1-0.2,0.2-0.3,0.3s-0.1,0.3-0.1,0.4c0,0.2,0,0.3,0.1,0.4       c0.1,0.1,0.2,0.2,0.3,0.3s0.3,0.1,0.4,0.1c0.2,0,0.4-0.1,0.6-0.3l0.2,0.2c-0.1,0.1-0.2,0.2-0.4,0.3c-0.1,0.1-0.3,0.1-0.5,0.1       C156.9,45.9,156.7,45.8,156.5,45.7z"/>
					<path class="st0" d="M158.5,45.6c-0.2-0.2-0.2-0.4-0.2-0.7v-1.3h0.3v1.2c0,0.5,0.2,0.7,0.6,0.7c0.2,0,0.4-0.1,0.5-0.2       c0.1-0.1,0.2-0.3,0.2-0.5v-1.2h0.3v1.2c0,0.3-0.1,0.6-0.2,0.7c-0.2,0.2-0.4,0.2-0.7,0.2C158.9,45.9,158.7,45.8,158.5,45.6z"/>
					<path class="st0" d="M160.7,43.6h0.3v2h1.2v0.3h-1.5V43.6z"/>
					<path class="st0" d="M162.5,43.6h0.9c0.2,0,0.4,0,0.6,0.1c0.2,0.1,0.3,0.2,0.4,0.4s0.1,0.4,0.1,0.6s0,0.4-0.1,0.6       c-0.1,0.2-0.2,0.3-0.4,0.4c-0.2,0.1-0.4,0.1-0.6,0.1h-0.9V43.6z M163.5,45.6c0.2,0,0.3,0,0.5-0.1c0.1-0.1,0.2-0.2,0.3-0.3       s0.1-0.3,0.1-0.4c0-0.2,0-0.3-0.1-0.4c-0.1-0.1-0.2-0.2-0.3-0.3s-0.3-0.1-0.5-0.1h-0.6v1.6H163.5z"/>
					<path class="st0" d="M166.4,45.3h-1.2l-0.2,0.5h-0.3l1-2.2h0.3l1,2.2h-0.3L166.4,45.3z M166.3,45l-0.4-1l-0.5,1.1L166.3,45z"/>
					<path class="st0" d="M167.3,43.6h0.9c0.2,0,0.4,0,0.6,0.1c0.2,0.1,0.3,0.2,0.4,0.4s0.1,0.4,0.1,0.6s0,0.4-0.1,0.6       c-0.1,0.2-0.2,0.3-0.4,0.4c-0.2,0.1-0.4,0.1-0.6,0.1h-0.9V43.6z M168.2,45.6c0.2,0,0.3,0,0.5-0.1c0.1-0.1,0.2-0.2,0.3-0.3       s0.1-0.3,0.1-0.4c0-0.2,0-0.3-0.1-0.4c-0.1-0.1-0.2-0.2-0.3-0.3s-0.3-0.1-0.5-0.1h-0.6v1.6H168.2z"/>
					<path class="st0" d="M171.4,45.6v0.3h-1.6v-2.3h1.5v0.3h-1.2v0.7h1.1v0.3h-1.1v0.7H171.4z"/>
					<path class="st0" d="M172.7,43.6h0.9c0.2,0,0.4,0,0.6,0.1c0.2,0.1,0.3,0.2,0.4,0.4c0.1,0.2,0.1,0.4,0.1,0.6s0,0.4-0.1,0.6       c-0.1,0.2-0.2,0.3-0.4,0.4c-0.2,0.1-0.4,0.1-0.6,0.1h-0.9V43.6z M173.6,45.6c0.2,0,0.3,0,0.5-0.1c0.1-0.1,0.2-0.2,0.3-0.3       s0.1-0.3,0.1-0.4c0-0.2,0-0.3-0.1-0.4c-0.1-0.1-0.2-0.2-0.3-0.3s-0.3-0.1-0.5-0.1H173v1.6H173.6z"/>
					<path class="st0" d="M176.8,45.6v0.3h-1.6v-2.3h1.5v0.3h-1.2v0.7h1.1v0.3h-1.1v0.7H176.8z"/>
					<path class="st0" d="M178.4,45.7c-0.2-0.1-0.3-0.2-0.4-0.4c-0.1-0.2-0.1-0.4-0.1-0.6c0-0.2,0.1-0.4,0.2-0.6       c0.1-0.2,0.2-0.3,0.4-0.4c0.2-0.1,0.4-0.1,0.6-0.1c0.2,0,0.3,0,0.5,0.1c0.1,0.1,0.3,0.1,0.4,0.3l-0.2,0.2       c-0.2-0.2-0.4-0.3-0.6-0.3s-0.3,0-0.4,0.1c-0.1,0.1-0.2,0.2-0.3,0.3s-0.1,0.3-0.1,0.4c0,0.2,0,0.3,0.1,0.4       c0.1,0.1,0.2,0.2,0.3,0.3s0.3,0.1,0.4,0.1c0.2,0,0.4-0.1,0.6-0.3l0.2,0.2c-0.1,0.1-0.2,0.2-0.4,0.3c-0.1,0.1-0.3,0.1-0.5,0.1       C178.8,45.9,178.6,45.8,178.4,45.7z"/>
					<path class="st0" d="M180.3,43.6h0.3v2.2h-0.3V43.6z"/>
					<path class="st0" d="M182.8,45.6v0.3h-1.6v-2.3h1.5v0.3h-1.2v0.7h1.1v0.3h-1.1v0.7H182.8z M182.3,43.5l-0.3-0.2l-0.3,0.2h-0.3       l0.4-0.4h0.3l0.4,0.4H182.3z"/>
					<path class="st0" d="M185.1,43.6v2.2h-0.2l-1.3-1.6v1.6h-0.3v-2.2h0.3l1.3,1.6v-1.6H185.1z"/>
					<path class="st0" d="M186.1,45.7c-0.2-0.1-0.3-0.2-0.4-0.4c-0.1-0.2-0.2-0.4-0.2-0.6s0.1-0.4,0.2-0.6c0.1-0.2,0.2-0.3,0.4-0.4       c0.2-0.1,0.4-0.1,0.6-0.1s0.3,0,0.5,0.1c0.1,0.1,0.3,0.1,0.4,0.3l-0.2,0.2c-0.2-0.2-0.4-0.3-0.6-0.3s-0.3,0-0.4,0.1       c-0.1,0.1-0.2,0.2-0.3,0.3s-0.2,0.3-0.2,0.4c0,0.2,0,0.3,0.1,0.4c0.1,0.1,0.2,0.2,0.3,0.3s0.3,0.1,0.4,0.1       c0.2,0,0.4-0.1,0.6-0.3l0.2,0.2c-0.1,0.1-0.2,0.2-0.4,0.3c-0.1,0.1-0.3,0.1-0.5,0.1C186.5,45.9,186.3,45.8,186.1,45.7z"/>
					<path class="st0" d="M187.9,43.6h0.3v2.2h-0.3V43.6z"/>
					<path class="st0" d="M190.3,45.3h-1.2l-0.2,0.5h-0.3l1-2.2h0.3l1,2.2h-0.3L190.3,45.3z M190.2,45l-0.5-1.1l-0.5,1.1H190.2z"/>
					<path class="st0" d="M191.3,45.8c-0.2-0.1-0.3-0.1-0.4-0.2l0.1-0.2c0.1,0.1,0.2,0.1,0.3,0.2c0.1,0,0.3,0.1,0.4,0.1       c0.2,0,0.3,0,0.4-0.1c0.1-0.1,0.1-0.1,0.1-0.2c0-0.1,0-0.1-0.1-0.2c0,0-0.1-0.1-0.2-0.1c-0.1,0-0.2-0.1-0.3-0.1       c-0.2,0-0.3-0.1-0.4-0.1c-0.1,0-0.2-0.1-0.3-0.2c-0.1-0.1-0.1-0.2-0.1-0.3s0-0.2,0.1-0.3s0.2-0.2,0.3-0.2       c0.1-0.1,0.3-0.1,0.5-0.1c0.1,0,0.3,0,0.4,0.1c0.1,0,0.2,0.1,0.3,0.1l-0.1,0.3c-0.1-0.1-0.2-0.1-0.3-0.1s-0.2,0-0.3,0       c-0.2,0-0.3,0-0.4,0.1c-0.1,0.1-0.1,0.1-0.1,0.3c0,0.1,0,0.1,0.1,0.2c0.1,0,0.1,0.1,0.2,0.1c0.1,0,0.2,0.1,0.3,0.1       c0.2,0,0.3,0.1,0.4,0.1c0.1,0,0.2,0.1,0.3,0.2c0.1,0.1,0.1,0.2,0.1,0.3s0,0.2-0.1,0.3s-0.2,0.2-0.3,0.2       c-0.1,0.1-0.3,0.1-0.5,0.1C191.6,45.9,191.4,45.8,191.3,45.8z"/>
					<path class="st0" d="M194,45.8c-0.2-0.1-0.3-0.1-0.4-0.2l0.1-0.2c0.1,0.1,0.2,0.1,0.3,0.2c0.1,0,0.3,0.1,0.4,0.1       c0.2,0,0.3,0,0.4-0.1c0.1-0.1,0.1-0.1,0.1-0.2c0-0.1,0-0.1-0.1-0.2c0,0-0.1-0.1-0.2-0.1c-0.1,0-0.2-0.1-0.3-0.1       c-0.2,0-0.3-0.1-0.4-0.1c-0.1,0-0.2-0.1-0.3-0.2c-0.1-0.1-0.1-0.2-0.1-0.3s0-0.2,0.1-0.3s0.2-0.2,0.3-0.2       c0.1-0.1,0.3-0.1,0.5-0.1c0.1,0,0.3,0,0.4,0.1c0.1,0,0.2,0.1,0.3,0.1l-0.1,0.3c-0.1-0.1-0.2-0.1-0.3-0.1s-0.2,0-0.3,0       c-0.2,0-0.3,0-0.4,0.1c-0.1,0.1-0.1,0.1-0.1,0.3c0,0.1,0,0.1,0.1,0.2c0.1,0,0.1,0.1,0.2,0.1c0.1,0,0.2,0.1,0.3,0.1       c0.2,0,0.3,0.1,0.4,0.1c0.1,0,0.2,0.1,0.3,0.2c0.1,0.1,0.1,0.2,0.1,0.3s0,0.2-0.1,0.3s-0.2,0.2-0.3,0.2       c-0.1,0.1-0.3,0.1-0.5,0.1C194.3,45.9,194.1,45.8,194,45.8z"/>
					<path class="st0" d="M196.1,45.7c-0.2-0.1-0.3-0.2-0.4-0.4c-0.1-0.2-0.2-0.4-0.2-0.6s0.1-0.4,0.2-0.6c0.1-0.2,0.2-0.3,0.4-0.4       c0.2-0.1,0.4-0.1,0.6-0.1s0.4,0,0.6,0.1c0.2,0.1,0.3,0.2,0.4,0.4c0.1,0.2,0.2,0.4,0.2,0.6s-0.1,0.4-0.2,0.6       c-0.1,0.2-0.2,0.3-0.4,0.4c-0.2,0.1-0.4,0.1-0.6,0.1C196.5,45.9,196.3,45.8,196.1,45.7z M197.1,45.5c0.1-0.1,0.2-0.2,0.3-0.3       s0.1-0.3,0.1-0.4c0-0.2,0-0.3-0.1-0.4c-0.1-0.1-0.2-0.2-0.3-0.3s-0.3-0.1-0.4-0.1c-0.1,0-0.3,0-0.4,0.1       c-0.1,0.1-0.2,0.2-0.3,0.3s-0.1,0.3-0.1,0.4c0,0.2,0,0.3,0.1,0.4c0.1,0.1,0.2,0.2,0.3,0.3s0.3,0.1,0.4,0.1S197,45.5,197.1,45.5       z"/>
					<path class="st0" d="M198.7,45.7c-0.2-0.1-0.3-0.2-0.4-0.4c-0.1-0.2-0.2-0.4-0.2-0.6s0.1-0.4,0.2-0.6c0.1-0.2,0.2-0.3,0.4-0.4       c0.2-0.1,0.4-0.1,0.6-0.1s0.3,0,0.5,0.1c0.1,0.1,0.3,0.1,0.4,0.3l-0.3,0.2c-0.2-0.2-0.4-0.3-0.6-0.3s-0.3,0-0.4,0.1       c-0.1,0.1-0.2,0.2-0.3,0.3s-0.1,0.3-0.1,0.4c0,0.2,0,0.3,0.1,0.4c0.1,0.1,0.2,0.2,0.3,0.3s0.3,0.1,0.4,0.1       c0.2,0,0.4-0.1,0.6-0.3l0.2,0.2c-0.1,0.1-0.2,0.2-0.4,0.3c-0.1,0.1-0.3,0.1-0.5,0.1C199,45.9,198.8,45.8,198.7,45.7z"/>
					<path class="st0" d="M200.5,43.6h0.3v2.2h-0.3V43.6z"/>
					<path class="st0" d="M202.8,45.3h-1.2l-0.2,0.5h-0.3l1-2.2h0.3l1,2.2h-0.3L202.8,45.3z M202.7,45l-0.5-1.1l-0.5,1.1H202.7z"/>
					<path class="st0" d="M203.7,43.6h0.3v2.2h-0.3V43.6z"/>
					<path class="st0" d="M204.7,45.8c-0.2-0.1-0.3-0.1-0.4-0.2l0.1-0.2c0.1,0.1,0.2,0.1,0.3,0.2c0.1,0,0.3,0.1,0.4,0.1       c0.2,0,0.3,0,0.4-0.1c0.1-0.1,0.1-0.1,0.1-0.2c0-0.1,0-0.1-0.1-0.2c0,0-0.1-0.1-0.2-0.1c-0.1,0-0.2-0.1-0.3-0.1       c-0.2,0-0.3-0.1-0.4-0.1c-0.1,0-0.2-0.1-0.3-0.2c-0.1-0.1-0.1-0.2-0.1-0.3s0-0.2,0.1-0.3s0.2-0.2,0.3-0.2       c0.3-0.3,0.5-0.3,0.7-0.3c0.1,0,0.3,0,0.4,0.1c0.1,0,0.2,0.1,0.3,0.1l-0.1,0.3c-0.1-0.1-0.2-0.1-0.3-0.1s-0.2,0-0.3,0       c-0.2,0-0.3,0-0.4,0.1c-0.1,0.1-0.1,0.1-0.1,0.3c0,0.1,0,0.1,0.1,0.2c0.1,0,0.1,0.1,0.2,0.1c0.1,0,0.2,0.1,0.3,0.1       c0.2,0,0.3,0.1,0.4,0.1c0.1,0,0.2,0.1,0.3,0.2c0.1,0.1,0.1,0.2,0.1,0.3s0,0.2-0.1,0.3s-0.2,0.2-0.3,0.2       c-0.1,0.1-0.3,0.1-0.5,0.1C205,45.9,204.9,45.8,204.7,45.8z"/>
					<path class="st0" d="M208.9,45.6v0.3h-1.6v-2.3h1.5v0.3h-1.2v0.7h1.1v0.3h-1.1v0.7H208.9z"/>
					<path class="st0" d="M212,43.6v2.2h-0.3v-1h-1.3v1h-0.3v-2.2h0.3v0.9h1.3v-0.9H212z"/>
					<path class="st0" d="M212.8,45.6c-0.2-0.2-0.2-0.4-0.2-0.7v-1.3h0.3v1.2c0,0.5,0.2,0.7,0.6,0.7c0.2,0,0.4-0.1,0.5-0.2       c0.1-0.1,0.2-0.3,0.2-0.5v-1.2h0.3v1.2c0,0.3-0.1,0.6-0.2,0.7c-0.2,0.2-0.4,0.2-0.7,0.2C213.2,45.9,213,45.8,212.8,45.6z"/>
					<path class="st0" d="M217.1,45.8v-1.6l-0.8,1.4h-0.1l-0.8-1.3v1.6h-0.3v-2.3h0.3l0.9,1.5l0.9-1.5h0.3v2.2       C217.5,45.8,217.1,45.8,217.1,45.8z"/>
					<path class="st0" d="M219.4,45.3h-1.2l-0.2,0.5h-0.3l1-2.2h0.2l1,2.2h-0.3L219.4,45.3z M219.3,45l-0.5-1.1l-0.5,1.1H219.3z"/>
					<path class="st0" d="M222.1,43.6v2.2h-0.3l-1.3-1.6v1.6h-0.3v-2.2h0.3l1.3,1.6v-1.6H222.1z"/>
					<path class="st0" d="M224.1,45.3h-1.2l-0.2,0.5h-0.3l1-2.2h0.3l1,2.2h-0.3L224.1,45.3z M224,45l-0.5-1.1L223,45H224z"/>
					<path class="st0" d="M225.1,45.8c-0.2-0.1-0.3-0.1-0.4-0.2l0.1-0.2c0.1,0.1,0.2,0.1,0.3,0.2c0.1,0,0.3,0.1,0.4,0.1       c0.2,0,0.3,0,0.4-0.1c0.1-0.1,0.1-0.1,0.1-0.2c0-0.1,0-0.1-0.1-0.2c0,0-0.1-0.1-0.2-0.1c-0.1,0-0.2-0.1-0.3-0.1       c-0.2,0-0.3-0.1-0.4-0.1c-0.1,0-0.2-0.1-0.3-0.2c-0.1-0.1-0.1-0.2-0.1-0.3s0-0.2,0.1-0.3s0.2-0.2,0.3-0.2       c0.1-0.1,0.3-0.1,0.5-0.1c0.1,0,0.3,0,0.4,0.1c0.1,0,0.2,0.1,0.3,0.1l-0.1,0.3c-0.1-0.1-0.2-0.1-0.3-0.1s-0.2,0-0.3,0       c-0.2,0-0.3,0-0.4,0.1c-0.1,0.1-0.1,0.1-0.1,0.3c0,0.1,0,0.1,0.1,0.2c0.1,0,0.1,0.1,0.2,0.1c0.1,0,0.2,0.1,0.3,0.1       c0.2,0,0.3,0.1,0.4,0.1c0.1,0,0.2,0.1,0.3,0.2c0.1,0.1,0.1,0.2,0.1,0.3s0,0.2-0.1,0.3s-0.2,0.2-0.3,0.2       c-0.1,0.1-0.3,0.1-0.5,0.1C225.4,45.9,225.3,45.8,225.1,45.8z"/>
					<path class="st0" d="M152.2,49.4c-0.2-0.2-0.3-0.5-0.3-0.8v-1.2h0.6v1.2c0,0.4,0.1,0.5,0.4,0.5s0.4-0.2,0.4-0.5v-1.2h0.6v1.2       c0,0.3-0.1,0.6-0.3,0.8s-0.4,0.3-0.8,0.3C152.6,49.6,152.4,49.5,152.2,49.4z"/>
					<path class="st0" d="M156.5,47.4v2.2H156l-1-1.2v1.2h-0.6v-2.2h0.5l1,1.2v-1.2H156.5z"/>
					<path class="st0" d="M156.9,47.4h0.6v2.2h-0.6V47.4z"/>
					<path class="st0" d="M160.2,47.4l-0.9,2.2h-0.6l-0.9-2.2h0.7l0.6,1.4l0.6-1.4C159.7,47.4,160.2,47.4,160.2,47.4z"/>
					<path class="st0" d="M162.1,49.1v0.5h-1.8v-2.2h1.7v0.5h-1.1v0.4h1v0.5h-1v0.4h1.2L162.1,49.1L162.1,49.1z"/>
					<path class="st0" d="M163.4,49h-0.3v0.6h-0.6v-2.2h1c0.2,0,0.4,0,0.5,0.1s0.3,0.2,0.3,0.3c0.1,0.1,0.1,0.3,0.1,0.4       c0,0.2,0,0.3-0.1,0.4c-0.1,0.1-0.2,0.2-0.3,0.3l0.5,0.7h-0.7L163.4,49z M163.7,48c-0.1-0.1-0.2-0.1-0.3-0.1h-0.3v0.6h0.3       c0.1,0,0.2,0,0.3-0.1s0.1-0.1,0.1-0.2S163.7,48,163.7,48z"/>
					<path class="st0" d="M165,49.6c-0.2,0-0.3-0.1-0.4-0.2l0.2-0.5c0.1,0.1,0.2,0.1,0.3,0.2c0.1,0,0.3,0.1,0.4,0.1       c0.2,0,0.4-0.1,0.4-0.2c0-0.1,0-0.1-0.1-0.1s-0.2-0.1-0.3-0.1c-0.2,0-0.3-0.1-0.4-0.1c-0.1,0-0.2-0.1-0.3-0.2       c-0.1-0.1-0.1-0.2-0.1-0.4c0-0.1,0-0.3,0.1-0.4c0.1-0.1,0.2-0.2,0.3-0.3s0.3-0.1,0.5-0.1c0.1,0,0.3,0,0.4,0       c0.1,0,0.3,0.1,0.4,0.1l-0.2,0.5c-0.2-0.1-0.4-0.2-0.6-0.2c-0.1,0-0.2,0-0.3,0.1c-0.1,0-0.1,0.1-0.1,0.1c0,0.1,0,0.1,0.1,0.1       s0.2,0.1,0.3,0.1c0.2,0,0.3,0.1,0.4,0.1s0.2,0.1,0.3,0.2c0.1,0.1,0.1,0.2,0.1,0.4c0,0.1,0,0.3-0.1,0.4       c-0.1,0.1-0.2,0.2-0.3,0.3s-0.3,0.1-0.5,0.1S165.2,49.6,165,49.6z"/>
					<path class="st0" d="M166.8,47.4h0.6v2.2h-0.6V47.4z"/>
					<path class="st0" d="M167.8,47.4h1c0.2,0,0.5,0,0.6,0.1c0.2,0.1,0.3,0.2,0.4,0.4c0.1,0.2,0.2,0.4,0.2,0.6       c0,0.2-0.1,0.4-0.2,0.6c-0.1,0.2-0.2,0.3-0.4,0.4c-0.1,0-0.3,0.1-0.5,0.1h-1L167.8,47.4L167.8,47.4z M168.8,49.1       c0.2,0,0.3-0.1,0.5-0.2c0.1-0.1,0.2-0.3,0.2-0.4c0-0.2-0.1-0.3-0.2-0.4c-0.1-0.1-0.3-0.2-0.5-0.2h-0.4v1.2       C168.4,49.1,168.8,49.1,168.8,49.1z"/>
					<path class="st0" d="M171.8,49.2h-0.9l-0.2,0.4h-0.6l1-2.2h0.6l1,2.2h-0.6L171.8,49.2z M171.7,48.7l-0.3-0.7l-0.3,0.7H171.7z"/>
					<path class="st0" d="M172.8,47.4h1c0.2,0,0.5,0,0.6,0.1c0.2,0.1,0.3,0.2,0.4,0.4c0.1,0.2,0.2,0.4,0.2,0.6       c0,0.2-0.1,0.4-0.2,0.6c-0.1,0.2-0.2,0.3-0.4,0.4c-0.1,0-0.3,0.1-0.5,0.1h-1L172.8,47.4L172.8,47.4z M173.8,49.1       c0.2,0,0.3-0.1,0.5-0.2c0.1-0.1,0.2-0.3,0.2-0.4c0-0.2-0.1-0.3-0.2-0.4c-0.1-0.1-0.3-0.2-0.5-0.2h-0.4v1.2       C173.4,49.1,173.8,49.1,173.8,49.1z"/>
					<path class="st0" d="M177.2,49.1v0.5h-1.8v-2.2h1.7v0.5H176v0.4h1v0.5h-1v0.4h1.2V49.1z"/>
					<path class="st0" d="M180.5,47.4v2.2H180l-1-1.2v1.2h-0.6v-2.2h0.5l1,1.2v-1.2H180.5z"/>
					<path class="st0" d="M181.4,49.5c-0.2-0.1-0.3-0.2-0.4-0.4c-0.1-0.2-0.2-0.4-0.2-0.6c0-0.2,0.1-0.4,0.2-0.6       c0.1-0.2,0.3-0.3,0.4-0.4c0.2-0.1,0.4-0.1,0.6-0.1s0.4,0,0.6,0.1c0.2,0.1,0.3,0.2,0.4,0.4c0.1,0.2,0.2,0.4,0.2,0.6       c0,0.2-0.1,0.4-0.2,0.6c-0.1,0.2-0.3,0.3-0.4,0.4c-0.1,0.1-0.3,0.1-0.5,0.1C181.9,49.6,181.6,49.6,181.4,49.5z M182.4,49       c0.1-0.1,0.2-0.1,0.2-0.2c0.1-0.1,0.1-0.2,0.1-0.3s0-0.2-0.1-0.3s-0.1-0.2-0.2-0.2c-0.1-0.1-0.2-0.1-0.3-0.1s-0.2,0-0.3,0.1       s-0.2,0.1-0.2,0.2c-0.1,0.1-0.1,0.2-0.1,0.3s0,0.2,0.1,0.3s0.1,0.2,0.2,0.2c0.1,0.1,0.2,0.1,0.3,0.1S182.3,49.1,182.4,49z"/>
					<path class="st0" d="M185.7,47.4l-0.9,2.2h-0.6l-0.9-2.2h0.7l0.6,1.4l0.6-1.4C185.2,47.4,185.7,47.4,185.7,47.4z"/>
					<path class="st0" d="M187.3,49.2h-0.9l-0.2,0.4h-0.6l1-2.2h0.6l1,2.2h-0.6L187.3,49.2z M187.1,48.7l-0.3-0.7l-0.3,0.7H187.1z"/>
					<path class="st0" d="M189.2,47.4h1c0.2,0,0.5,0,0.6,0.1c0.2,0.1,0.3,0.2,0.4,0.4c0.1,0.2,0.2,0.4,0.2,0.6       c0,0.2-0.1,0.4-0.2,0.6c-0.1,0.2-0.2,0.3-0.4,0.4c-0.2,0.1-0.4,0.1-0.6,0.1h-1V47.4z M190.2,49.1c0.2,0,0.3-0.1,0.5-0.2       c0.1-0.1,0.2-0.3,0.2-0.4c0-0.2-0.1-0.3-0.2-0.4c-0.1-0.1-0.3-0.2-0.5-0.2h-0.4v1.2C189.8,49.1,190.2,49.1,190.2,49.1z"/>
					<path class="st0" d="M193.5,49.1v0.5h-1.8v-2.2h1.7v0.5h-1.1v0.4h1v0.5h-1v0.4h1.2L193.5,49.1L193.5,49.1z"/>
					<path class="st0" d="M194.8,47.4h0.6v1.7h1v0.5h-1.7L194.8,47.4z"/>
					<path class="st0" d="M196.7,47.4h0.6v2.2h-0.6V47.4z"/>
					<path class="st0" d="M198,49.6c-0.2,0-0.3-0.1-0.4-0.2l0.2-0.5c0.1,0.1,0.2,0.1,0.3,0.2c0.1,0,0.3,0.1,0.4,0.1       c0.2,0,0.4-0.1,0.4-0.2c0-0.1,0-0.1-0.1-0.1s-0.2-0.1-0.3-0.1c-0.2,0-0.3-0.1-0.4-0.1c-0.1,0-0.2-0.1-0.3-0.2       c-0.1-0.1-0.1-0.2-0.1-0.4c0-0.1,0-0.3,0.1-0.4c0.1-0.1,0.2-0.2,0.3-0.3s0.3-0.1,0.5-0.1c0.1,0,0.3,0,0.4,0       c0.1,0,0.3,0.1,0.4,0.1l-0.2,0.5c-0.2-0.1-0.4-0.2-0.6-0.2c-0.1,0-0.2,0-0.3,0.1c-0.1,0-0.1,0.1-0.1,0.1c0,0.1,0,0.1,0.1,0.1       s0.2,0.1,0.3,0.1c0.2,0,0.3,0.1,0.4,0.1c0.1,0,0.2,0.1,0.3,0.2c0.1,0.1,0.1,0.2,0.1,0.4c0,0.1,0,0.3-0.1,0.4       c-0.1,0.1-0.2,0.2-0.3,0.3s-0.3,0.1-0.5,0.1S198.1,49.6,198,49.6z"/>
					<path class="st0" d="M201.7,48.6c0.1,0.1,0.1,0.2,0.1,0.3c0,0.2-0.1,0.3-0.2,0.4c-0.2,0.2-0.4,0.3-0.7,0.3h-1.2v-2.2h1.1       c0.3,0,0.5,0.1,0.6,0.2c0.1,0.1,0.2,0.2,0.2,0.4c0,0.1,0,0.2-0.1,0.3s-0.1,0.1-0.2,0.2C201.6,48.5,201.7,48.5,201.7,48.6z        M200.4,47.8v0.4h0.4c0.2,0,0.3-0.1,0.3-0.2c0-0.1-0.1-0.2-0.3-0.2H200.4z M201.2,48.9c0-0.1-0.1-0.2-0.3-0.2h-0.5v0.4h0.5       C201.1,49.1,201.2,49.1,201.2,48.9z"/>
					<path class="st0" d="M202.6,49.5c-0.2-0.1-0.3-0.2-0.4-0.4c-0.1-0.2-0.2-0.4-0.2-0.6c0-0.2,0.1-0.4,0.2-0.6       c0.1-0.2,0.3-0.3,0.4-0.4c0.2-0.1,0.4-0.1,0.6-0.1s0.4,0,0.6,0.1c0.2,0.1,0.3,0.2,0.4,0.4c0.1,0.2,0.2,0.4,0.2,0.6       c0,0.2-0.1,0.4-0.2,0.6c-0.1,0.2-0.3,0.3-0.4,0.4c-0.1,0.1-0.3,0.1-0.5,0.1S202.8,49.6,202.6,49.5z M203.6,49       c0.1-0.1,0.2-0.1,0.2-0.2c0.1-0.1,0.1-0.2,0.1-0.3s0-0.2-0.1-0.3s-0.1-0.2-0.2-0.2c-0.1-0.1-0.2-0.1-0.3-0.1s-0.2,0-0.3,0.1       s-0.2,0.1-0.2,0.2c-0.1,0.1-0.1,0.2-0.1,0.3s0,0.2,0.1,0.3s0.1,0.2,0.2,0.2c0.1,0.1,0.2,0.1,0.3,0.1S203.5,49.1,203.6,49z"/>
					<path class="st0" d="M206.2,49.2h-0.9l-0.2,0.4h-0.6l1-2.2h0.6l1,2.2h-0.6L206.2,49.2z M206.1,48.7l-0.3-0.7l-0.3,0.7H206.1z"/>
				</g>
			</g>
			<g>
				<g>
					<path class="st0" d="M126.7,22.9c-0.1,0-0.1,0.1-0.1,0.2v4.3v14.5c0,0.5,0.5,1,1.1,1h4.4c0.5,0,0.9-0.4,0.9-0.8v-7.4       c0-0.1,0.1-0.1,0.2-0.1l3.5,4.6c1.8,2.3,4.3,3.7,7,3.7h0.1c0.1,0,0.1-0.1,0.1-0.2v5.5c0,0.7-0.6,1.3-1.4,1.3h-10.1h-8.5       c-0.7,0-1.4-0.6-1.4-1.3V24.3c0-0.7,0.6-1.3,1.4-1.3L126.7,22.9"/>
				</g>
				<g>
					<g>
						<path class="st0" d="M146.6,16.1h-18.8c-0.7,0-1.3,0.6-1.3,1.3v5.7c0-0.1,0.1-0.2,0.1-0.2h0.5c2.4,0,4.7,1.2,6.3,3.3l3.8,5        c0.1,0.1,0.2,0,0.2-0.1V24c0-0.6,0.5-1.1,1.1-1.1h4.2c0.6,0,1.1,0.4,1.1,1v14.5v4.3c0,0.1-0.1,0.2-0.1,0.2h2.9        c0.7,0,1.3-0.6,1.3-1.3V17.4C147.9,16.7,147.3,16.1,146.6,16.1z"/>
					</g>
				</g>
			</g>
		</g>
	</g>
	<g>
		<g>
			<g>
				<path class="st1" d="M338.4,32.1v-4.9h3.2v0.7h-2.4v1.4h2.2V30h-2.2v2.2L338.4,32.1L338.4,32.1z"/>
				<path class="st1" d="M344.9,31.5L344.9,31.5c-0.2,0.4-0.5,0.7-1.1,0.7c-0.7,0-1.2-0.5-1.2-1.4v-2.3h0.8v2.2      c0,0.6,0.3,0.9,0.8,0.9c0.4,0,0.8-0.2,0.8-0.6v-2.5h0.8v3.7h-0.9L344.9,31.5L344.9,31.5z"/>
				<path class="st1" d="M346.9,32.1v-3.7h0.8V29l0,0c0.2-0.4,0.5-0.7,1.1-0.7c0.7,0,1.2,0.5,1.2,1.4V32h-0.8v-2.2      c0-0.6-0.3-0.9-0.8-0.9c-0.4,0-0.8,0.2-0.8,0.6V32L346.9,32.1L346.9,32.1z"/>
				<path class="st1" d="M353.5,31.5L353.5,31.5c-0.3,0.4-0.6,0.7-1.1,0.7c-0.9,0-1.4-0.7-1.4-1.9c0-1.2,0.6-1.9,1.4-1.9      c0.5,0,0.9,0.3,1.1,0.7l0,0v-2.2h0.8v5.2h-0.8V31.5z M353.5,30.9v-1.2c0-0.4-0.4-0.7-0.8-0.7c-0.6,0-0.9,0.4-0.9,1v0.6      c0,0.6,0.3,1,0.9,1C353.1,31.6,353.5,31.4,353.5,30.9z"/>
				<path class="st1" d="M358.3,32.1c-0.4,0-0.7-0.2-0.7-0.6l0,0c-0.1,0.4-0.5,0.7-1.1,0.7c-0.7,0-1.2-0.4-1.2-1.1s0.5-1.1,1.6-1.1      h0.7v-0.3c0-0.5-0.3-0.7-0.8-0.7s-0.7,0.2-0.9,0.5l-0.5-0.4c0.2-0.4,0.7-0.7,1.5-0.7c0.9,0,1.5,0.5,1.5,1.3v1.8h0.5v0.6      C358.9,32.1,358.3,32.1,358.3,32.1z M357.5,31v-0.5h-0.7c-0.6,0-0.8,0.2-0.8,0.5v0.1c0,0.3,0.3,0.5,0.7,0.5      C357.2,31.7,357.5,31.4,357.5,31z"/>
				<path class="st1" d="M362.7,29.3l-0.6,0.3c-0.1-0.3-0.4-0.6-0.8-0.6c-0.6,0-0.9,0.4-0.9,1v0.6c0,0.6,0.3,1,0.9,1      c0.5,0,0.7-0.2,0.9-0.6l0.6,0.3c-0.2,0.5-0.7,0.8-1.4,0.9l-0.1,0.3l0,0c0.1,0,0.2,0,0.3,0c0.3,0,0.5,0.2,0.5,0.5      c0,0.4-0.4,0.6-0.8,0.6s-0.7-0.2-0.8-0.3l0.3-0.3c0.1,0.1,0.2,0.2,0.4,0.2c0.2,0,0.3-0.1,0.3-0.2c0-0.1-0.1-0.2-0.5-0.3h-0.2      l0.1-0.5c-0.9-0.1-1.4-0.8-1.4-1.9c0-1.2,0.7-1.9,1.7-1.9C362,28.4,362.5,28.8,362.7,29.3z"/>
				<path class="st1" d="M366.8,32.1c-0.4,0-0.7-0.2-0.7-0.6l0,0c-0.1,0.4-0.5,0.7-1.1,0.7c-0.7,0-1.2-0.4-1.2-1.1s0.5-1.1,1.6-1.1      h0.7v-0.3c0-0.5-0.3-0.7-0.8-0.7s-0.7,0.2-0.9,0.5l-0.5-0.4c0.2-0.4,0.7-0.7,1.5-0.7c0.9,0,1.5,0.5,1.5,1.3v1.8h0.5v0.6      C367.4,32.1,366.8,32.1,366.8,32.1z M365.3,27.7c-0.2-0.1-0.4-0.2-0.5-0.2c-0.2,0-0.3,0.1-0.4,0.2l-0.3-0.4      c0.1-0.2,0.4-0.4,0.7-0.4c0.2,0,0.4,0.1,0.6,0.2s0.4,0.2,0.5,0.2c0.2,0,0.3-0.1,0.4-0.2l0.3,0.4c-0.1,0.2-0.4,0.4-0.7,0.4      C365.6,27.9,365.5,27.8,365.3,27.7z M366,31v-0.5h-0.7c-0.6,0-0.8,0.2-0.8,0.5v0.1c0,0.3,0.3,0.5,0.7,0.5      C365.7,31.7,366,31.4,366,31z"/>
				<path class="st1" d="M367.9,30.3c0-1.2,0.7-1.9,1.7-1.9c1.1,0,1.7,0.7,1.7,1.9c0,1.2-0.7,1.9-1.7,1.9S367.9,31.5,367.9,30.3z       M370.6,30.6V30c0-0.7-0.4-1-0.9-1c-0.6,0-0.9,0.3-0.9,1v0.6c0,0.7,0.4,1,0.9,1S370.6,31.3,370.6,30.6z"/>
				<path class="st1" d="M338.4,37h0.8v0.6l0,0c0.2-0.4,0.6-0.7,1.1-0.7c0.9,0,1.4,0.7,1.4,1.9c0,1.3-0.6,1.9-1.4,1.9      c-0.5,0-0.9-0.3-1.1-0.7l0,0v2h-0.8V37z M340.9,39.1v-0.6c0-0.6-0.3-1-0.9-1c-0.4,0-0.8,0.2-0.8,0.7v1.2c0,0.4,0.4,0.7,0.8,0.7      C340.6,40.1,340.9,39.7,340.9,39.1z"/>
				<path class="st1" d="M345.5,40.6c-0.4,0-0.7-0.2-0.7-0.6l0,0c-0.1,0.4-0.5,0.7-1.1,0.7c-0.7,0-1.2-0.4-1.2-1.1s0.5-1.1,1.6-1.1      h0.7v-0.3c0-0.5-0.3-0.7-0.8-0.7s-0.7,0.2-0.9,0.5l-0.5-0.4c0.2-0.4,0.7-0.7,1.5-0.7c0.9,0,1.5,0.5,1.5,1.3V40h0.5v0.6H345.5z       M344.8,39.5V39h-0.7c-0.6,0-0.8,0.2-0.8,0.5v0.1c0,0.3,0.3,0.5,0.7,0.5C344.4,40.1,344.8,39.9,344.8,39.5z"/>
				<path class="st1" d="M346.8,40h1v-2.4h-1V37h1.7v1l0,0c0.1-0.5,0.5-1,1.2-1h0.4v0.7h-0.7c-0.6,0-1,0.4-1,0.9V40h1.3v0.6h-3.1V40      H346.8z"/>
				<path class="st1" d="M354,40.6c-0.4,0-0.7-0.2-0.7-0.6l0,0c-0.1,0.4-0.5,0.7-1.1,0.7c-0.7,0-1.2-0.4-1.2-1.1s0.5-1.1,1.6-1.1      h0.7v-0.3c0-0.5-0.3-0.7-0.8-0.7s-0.7,0.2-0.9,0.5l-0.5-0.4c0.2-0.4,0.7-0.7,1.5-0.7c0.9,0,1.5,0.5,1.5,1.3V40h0.5v0.6H354z       M353.3,39.5V39h-0.7c-0.6,0-0.8,0.2-0.8,0.5v0.1c0,0.3,0.3,0.5,0.7,0.5C352.9,40.1,353.3,39.9,353.3,39.5z"/>
				<path class="st1" d="M362.5,40.6c-0.4,0-0.7-0.2-0.7-0.6l0,0c-0.1,0.4-0.5,0.7-1.1,0.7c-0.7,0-1.2-0.4-1.2-1.1s0.5-1.1,1.6-1.1      h0.7v-0.3c0-0.5-0.3-0.7-0.8-0.7s-0.7,0.2-0.9,0.5l-0.5-0.4c0.2-0.4,0.7-0.7,1.5-0.7c0.9,0,1.5,0.5,1.5,1.3V40h0.5v0.6H362.5z       M361.8,39.5V39h-0.7c-0.6,0-0.8,0.2-0.8,0.5v0.1c0,0.3,0.3,0.5,0.7,0.5C361.4,40.1,361.8,39.9,361.8,39.5z"/>
				<path class="st1" d="M367.9,38.2c0-1.6,0.6-2.6,1.9-2.6c1,0,1.4,0.6,1.6,1.2l-0.7,0.2c-0.1-0.5-0.4-0.8-0.9-0.8      c-0.7,0-1,0.6-1,1.5v0.9c0,0.9,0.3,1.5,1,1.5c0.6,0,0.8-0.4,0.9-0.8l0.7,0.2c-0.2,0.7-0.7,1.2-1.6,1.2      C368.5,40.7,367.9,39.8,367.9,38.2z"/>
				<path class="st1" d="M372.5,40h1.2v-2.4h-1.2V37h2v3h1.2v0.6h-3.2V40z M373.6,35.9L373.6,35.9c0-0.3,0.1-0.5,0.5-0.5      s0.5,0.2,0.5,0.4v0.1c0,0.2-0.1,0.4-0.5,0.4C373.7,36.3,373.6,36.1,373.6,35.9z"/>
				<path class="st1" d="M376.5,38.8c0-1.2,0.7-1.9,1.7-1.9s1.7,0.7,1.7,1.8V39h-2.6v0.1c0,0.6,0.4,1,1,1c0.5,0,0.8-0.2,1-0.6      l0.5,0.4c-0.2,0.4-0.8,0.8-1.5,0.8C377.1,40.7,376.5,40,376.5,38.8z M378.5,35.2l0.8,1.1l-0.4,0.3l-0.8-0.8l-0.8,0.8l-0.4-0.3      l0.8-1.1H378.5z M377.2,38.5L377.2,38.5h1.8v-0.1c0-0.6-0.4-0.9-0.9-0.9S377.2,37.9,377.2,38.5z"/>
				<path class="st1" d="M380.9,40.6v-3.7h0.8v0.7l0,0c0.2-0.4,0.5-0.7,1.1-0.7c0.7,0,1.2,0.5,1.2,1.4v2.3h-0.8v-2.2      c0-0.6-0.3-0.9-0.8-0.9c-0.4,0-0.8,0.2-0.8,0.6v2.5C381.6,40.6,380.9,40.6,380.9,40.6z"/>
				<path class="st1" d="M385,38.8c0-1.2,0.7-1.9,1.7-1.9c0.8,0,1.2,0.4,1.4,0.9l-0.6,0.3c-0.1-0.3-0.4-0.6-0.8-0.6      c-0.6,0-0.9,0.4-0.9,1v0.6c0,0.6,0.3,1,0.9,1c0.5,0,0.7-0.2,0.9-0.6l0.6,0.3c-0.2,0.5-0.7,0.9-1.5,0.9      C385.7,40.7,385,40,385,38.8z"/>
				<path class="st1" d="M389.5,40h1.2v-2.4h-1.2V37h2v3h1.2v0.6h-3.2V40z M390.6,35.9L390.6,35.9c0-0.3,0.1-0.5,0.5-0.5      s0.5,0.2,0.5,0.4v0.1c0,0.2-0.1,0.4-0.5,0.4C390.7,36.3,390.6,36.1,390.6,35.9z"/>
				<path class="st1" d="M396.5,40.6c-0.4,0-0.7-0.2-0.7-0.6l0,0c-0.1,0.4-0.5,0.7-1.1,0.7c-0.7,0-1.2-0.4-1.2-1.1s0.5-1.1,1.6-1.1      h0.7v-0.3c0-0.5-0.3-0.7-0.8-0.7s-0.7,0.2-0.9,0.5l-0.5-0.4c0.2-0.4,0.7-0.7,1.5-0.7c0.9,0,1.5,0.5,1.5,1.3V40h0.5v0.6H396.5z       M395.7,39.5V39H395c-0.6,0-0.8,0.2-0.8,0.5v0.1c0,0.3,0.3,0.5,0.7,0.5C395.4,40.1,395.7,39.9,395.7,39.5z"/>
				<path class="st1" d="M338.2,47.3c0-1.2,0.7-1.9,1.7-1.9s1.7,0.7,1.7,1.8v0.3H339v0.1c0,0.6,0.4,1,1,1c0.5,0,0.8-0.2,1-0.6      l0.5,0.4c-0.2,0.4-0.8,0.8-1.5,0.8C338.9,49.2,338.2,48.5,338.2,47.3z M339,46.9L339,46.9h1.8v-0.1c0-0.6-0.4-0.9-0.9-0.9      C339.4,46,339,46.4,339,46.9z"/>
				<path class="st1" d="M349.8,49.1c-0.4,0-0.7-0.2-0.7-0.6l0,0c-0.1,0.4-0.5,0.7-1.1,0.7c-0.7,0-1.2-0.4-1.2-1.1      c0-0.7,0.5-1.1,1.6-1.1h0.7v-0.3c0-0.5-0.3-0.7-0.8-0.7s-0.7,0.2-0.9,0.5l-0.5-0.4c0.2-0.4,0.7-0.7,1.5-0.7      c0.9,0,1.5,0.5,1.5,1.3v1.8h0.5v0.6H349.8z M349,48v-0.5h-0.7c-0.6,0-0.8,0.2-0.8,0.5v0.1c0,0.3,0.3,0.5,0.7,0.5      C348.7,48.6,349,48.4,349,48z"/>
				<path class="st1" d="M357.3,44.8v4.3h-0.8v-4.3H355v-0.7h3.9v0.7H357.3z"/>
				<path class="st1" d="M359.5,47.3c0-1.2,0.7-1.9,1.7-1.9s1.7,0.7,1.7,1.8v0.3h-2.6v0.1c0,0.6,0.4,1,1,1c0.5,0,0.8-0.2,1-0.6      l0.5,0.4c-0.2,0.4-0.8,0.8-1.5,0.8C360.1,49.2,359.5,48.5,359.5,47.3z M360.2,46.9L360.2,46.9h1.8v-0.1c0-0.6-0.4-0.9-0.9-0.9      C360.6,46,360.2,46.4,360.2,46.9z"/>
				<path class="st1" d="M363.8,47.3c0-1.2,0.7-1.9,1.7-1.9c0.8,0,1.2,0.4,1.4,0.9l-0.6,0.3c-0.1-0.3-0.4-0.6-0.8-0.6      c-0.6,0-0.9,0.4-0.9,1v0.6c0,0.6,0.3,1,0.9,1c0.5,0,0.7-0.2,0.9-0.6l0.6,0.3c-0.2,0.5-0.7,0.9-1.5,0.9      C364.5,49.2,363.8,48.5,363.8,47.3z"/>
				<path class="st1" d="M368.1,49.1v-3.7h0.8V46l0,0c0.2-0.4,0.5-0.7,1.1-0.7c0.7,0,1.2,0.5,1.2,1.4V49h-0.8v-2.2      c0-0.6-0.3-0.9-0.8-0.9c-0.4,0-0.8,0.2-0.8,0.6V49L368.1,49.1L368.1,49.1L368.1,49.1z"/>
				<path class="st1" d="M372.2,47.3c0-1.2,0.7-1.9,1.7-1.9c1.1,0,1.7,0.7,1.7,1.9s-0.7,1.9-1.7,1.9      C372.8,49.2,372.2,48.5,372.2,47.3z M374.8,47.6V47c0-0.7-0.4-1-0.9-1c-0.6,0-0.9,0.3-0.9,1v0.6c0,0.7,0.4,1,0.9,1      C374.5,48.6,374.8,48.3,374.8,47.6z"/>
				<path class="st1" d="M376.6,48.5h1.2v-4h-1.2v-0.6h2v4.6h1.2v0.6h-3.2V48.5z"/>
				<path class="st1" d="M380.7,47.3c0-1.2,0.7-1.9,1.7-1.9c1.1,0,1.7,0.7,1.7,1.9s-0.7,1.9-1.7,1.9      C381.3,49.2,380.7,48.5,380.7,47.3z M383.3,47.6V47c0-0.7-0.4-1-0.9-1c-0.6,0-0.9,0.3-0.9,1v0.6c0,0.7,0.4,1,0.9,1      C383,48.6,383.3,48.3,383.3,47.6z"/>
				<path class="st1" d="M386.6,50.6c-1.3,0-1.7-0.3-1.7-0.9c0-0.4,0.2-0.6,0.6-0.7v-0.1c-0.2-0.1-0.4-0.3-0.4-0.5      c0-0.4,0.3-0.5,0.7-0.6l0,0c-0.4-0.2-0.7-0.6-0.7-1.1c0-0.8,0.6-1.3,1.5-1.3c0.3,0,0.5,0,0.7,0.1v-0.1c0-0.3,0.2-0.5,0.5-0.5      h0.7v0.6h-0.8v0.2c0.3,0.2,0.5,0.6,0.5,1c0,0.8-0.6,1.3-1.5,1.3c-0.2,0-0.3,0-0.5,0s-0.4,0.2-0.4,0.4s0.2,0.3,0.6,0.3h0.8      c1,0,1.4,0.4,1.4,1C388.6,50.3,387.9,50.6,386.6,50.6z M387.1,49.2h-1.2c-0.2,0.1-0.3,0.2-0.3,0.4c0,0.3,0.2,0.5,0.8,0.5h0.6      c0.6,0,0.9-0.2,0.9-0.5C387.8,49.3,387.7,49.2,387.1,49.2z M387.3,46.8v-0.2c0-0.4-0.2-0.7-0.7-0.7s-0.7,0.3-0.7,0.7v0.2      c0,0.4,0.2,0.7,0.7,0.7S387.3,47.1,387.3,46.8z"/>
				<path class="st1" d="M389.5,48.5h1.2v-2.4h-1.2v-0.6h2v3h1.2v0.6h-3.2V48.5z M390.6,44.4L390.6,44.4c0-0.3,0.1-0.5,0.5-0.5      s0.5,0.2,0.5,0.4v0.1c0,0.2-0.1,0.4-0.5,0.4C390.7,44.8,390.6,44.6,390.6,44.4z"/>
				<path class="st1" d="M396.5,49.1c-0.4,0-0.7-0.2-0.7-0.6l0,0c-0.1,0.4-0.5,0.7-1.1,0.7c-0.7,0-1.2-0.4-1.2-1.1      c0-0.7,0.5-1.1,1.6-1.1h0.7v-0.3c0-0.5-0.3-0.7-0.8-0.7s-0.7,0.2-0.9,0.5l-0.5-0.4c0.2-0.4,0.7-0.7,1.5-0.7      c0.9,0,1.5,0.5,1.5,1.3v1.8h0.5v0.6H396.5z M395.7,48v-0.5H395c-0.6,0-0.8,0.2-0.8,0.5v0.1c0,0.3,0.3,0.5,0.7,0.5      C395.4,48.6,395.7,48.4,395.7,48z"/>
			</g>
		</g>
		<g>
			<path class="st1" d="M296.8,34h5.5v2.4h-5.5v10.5h5.5v2.4h-12.6v-2.4h4.5V36.4h-4.5V34h3.5c0.5,0,1-0.4,1-1v-1.4     c0-0.6,0.2-1.2,0.7-1.6l2.5-2.5c0.4-0.4,1-0.7,1.6-0.7h3.3v2.3h-5.5V34z"/>
			<path class="st1" d="M309.7,26.8h5.7v2.4h-7.9v11.4h7.9V43h-5.7c-0.6,0-1.2-0.2-1.6-0.7l-2.6-2.6c-0.4-0.4-0.7-1-0.7-1.6v-6.5     c0-0.6,0.2-1.2,0.7-1.6l2.6-2.6C308.6,27,309.1,26.8,309.7,26.8z"/>
			<path class="st1" d="M322.4,38.4v-9.2h-4.5v-2.4h3.5c0.5,0,1-0.4,1-1V23h2.7v3.8h5.7v2.4h-5.7v11.4h5.7V43h-4.1     c-0.7,0-1.3-0.3-1.7-0.8l-2.1-2.3C322.6,39.4,322.4,38.9,322.4,38.4z"/>
			<rect x="304.9" y="46.9" class="st1" width="25.9" height="2.4"/>
		</g>
	</g>
</g>
<g>
	<path class="st0" d="M9,40.8c0,0.3,0.2,0.6,0.6,0.7c0.3,0.1,0.6,0,0.8-0.3s0.2-0.7,0.2-1c0-0.4-0.2-0.7-0.5-0.9   c-0.7-0.3-1.7-0.2-2,0.6C8,40.2,8,40.4,8,40.7s0,0.6,0.1,0.9c0.2,0.8,0.7,1.5,1.5,1.7c0,0,0-0.3,0-0.4c-0.6-0.1-1.1-0.6-1.4-1.2   C8.1,41.4,8,41.1,8,40.8c0-0.1,0-0.2,0-0.2c0-0.1,0,0.3,0,0.1v-0.1c0-0.1,0-0.3,0.1-0.4c0.3-0.7,1.1-0.9,1.7-0.7   c0.3,0.1,0.6,0.2,0.8,0.5c0,0.1,0.1,0.2,0.1,0.3v0.1c0,0.1,0-0.3,0,0c0,0.2-0.1,0.4-0.2,0.5c-0.2,0.2-0.5,0.3-0.7,0.3   C9.2,41,9,40.7,9,40.4C9,40.5,8.9,40.6,9,40.8L9,40.8z"/>
	<path class="st0" d="M10,43c0.4-0.1,0.6-0.4,0.7-0.7c0-0.3,0-0.7-0.2-0.9c-0.2-0.3-0.7-0.3-1-0.2S8.9,41.7,8.9,42s0,0.7,0.2,1   c0.3,0.3,0.7,0.4,1.1,0.4c0.9,0,1.8-0.4,2.8-0.5c0.5,0,1,0,1.3,0.3c0.1,0.1,0.2,0.2,0.3,0.4c0.1,0.1,0.1,0.2,0.2,0.2l0.1,0.1   c0,0,0-0.3,0-0.4c-0.1,0-0.2-0.2-0.2-0.3c-0.1-0.1-0.2-0.2-0.2-0.3c-0.2-0.3-0.6-0.5-0.9-0.5c-0.8-0.1-1.7,0.2-2.5,0.4   c-0.6,0.1-1.7,0.3-2.1-0.4c0-0.1-0.1-0.1-0.1-0.2v-0.1c0,0,0,0.3,0,0.2c0,0,0,0,0-0.1C9,42.1,9,42,9.1,41.8   c0.2-0.3,0.6-0.4,0.9-0.4c0.2,0,0.3,0.1,0.5,0.2c0.1,0.1,0.1,0.1,0.1,0.2v0.1c0,0.1,0,0.3,0,0c0-0.2,0-0.1,0,0V42   c0,0.1-0.1,0.2-0.1,0.2c-0.1,0.2-0.3,0.2-0.5,0.3C10,42.7,10,43,10,43L10,43z"/>
	<g>
		<g>
			<path class="st0" d="M16.5,17.4L16.5,17.4c-2.6,2.4-3.9,6.6-3.9,6.6c-0.6,3,1.1,2.7,1.1,2.7c1.5-0.2-0.1-2.8-0.1-2.8     c-0.2-0.3,0-0.7,0-0.7h0.5c0.3,0,0.1-1.8,0.2-1.8c0.1,0,0.3-0.1,0.3-0.1l0.3-0.7c0.2-0.3,0.4-0.1,0.4-0.1c0.1,5-0.7,6.1-0.7,6.1     c-1.4,1.9-2.4,0-2.4,0C11,22.7,15.4,18.5,16.5,17.4L16.5,17.4c0.1-0.1,0.2-0.2,0.2-0.2c0.1-0.6,0.1-1,0.1-1s-10.7,5.5-3.5,21.6     c0,0-0.7,0.3,0.6,2.6c0,0,2.1,5.9,0.4,10.8c0,0-1.5,1.1-1.4,1.6l1.1,0.4c2.5-2.3,2.6-8.1,2.5-11.1l-0.2-0.3     c0-0.1-0.1-0.1-0.1-0.2c-1-2-4.6-9.5-3.7-11.9c0-0.1,0.6-1.9,1.8-1.8c0,0,1.4,0.1,1.1,2.1c0,0-0.6,4.6-0.5,5.5     c0,0-0.3-0.8-0.3-1.1c0,0-0.5-0.5-0.3-1c0,0-0.5-0.4-0.3-0.8c0,0-0.2-0.4,0-0.8c0,0-0.4-0.7,0.6-1.1c0,0,0.7-2.2-0.2-2.2     c0,0-1-0.1-1.4,1.5c0,0-1,1.2,3.3,11.5c0.1,0.3,0.2,0.5,0.3,0.5c-0.1-1.2-0.2-2-0.2-2c-1-8.2,0-19.5,0.4-22.9     C16.7,17.3,16.6,17.4,16.5,17.4z"/>
			<path class="st0" d="M16.8,17.2C16.8,17.2,16.7,17.2,16.8,17.2L16.8,17.2C16.7,17.2,16.7,17.2,16.8,17.2z"/>
			<path class="st0" d="M16.5,42.1L16.5,42.1L16.5,42.1L16.5,42.1z"/>
		</g>
	</g>
	<path class="st0" d="M14,52.8c-0.9,1.8-2.1,3.4-3.6,4.7c-0.7,0.6-1.5,1.2-2.4,1.6c-0.6,0.3-1.3,0.4-2,0.4c-1.4,0-3-0.3-3.9-1.4   c-0.2-0.3-0.4-0.6-0.5-0.9c-0.1-0.2-0.1-0.4-0.1-0.6c0-0.1,0-0.2,0-0.3s0,0,0-0.1s0-0.1,0-0.2c0.1-0.8,0.4-1.7,1-2.2   c0.3-0.3,0.6-0.5,1-0.5c0.3,0,0.6,0.1,0.9,0.2c0.6,0.3,1.2,0.7,1.9,0.7c0.2,0,0.4-0.1,0.5-0.1c0,0,0-0.3,0-0.4   c-0.4,0.1-0.5,0.4-0.5,0.7c0,0.2,0,0.3,0,0.5V55v0.1c0-0.1,0-0.1,0-0.1c0,0.1,0,0.2,0,0.3c-0.1,0.3-0.4,0.6-0.7,0.7   c-0.4,0.1-0.6-0.1-0.7-0.5c0,0.1,0,0.2,0,0.3s0,0.3,0,0.4l0,0c0,0.1,0,0.1,0,0v0.1c0,0.1,0,0.2-0.1,0.3c-0.1,0.2-0.4,0.5-0.7,0.3   c-0.2-0.1-0.3-0.4-0.3-0.6c0-0.1,0-0.1,0-0.2c0-0.1,0,0,0,0c0,0.1-0.1,0.2-0.2,0.3c-0.2,0.2-0.5,0.3-0.7,0.2   c-0.1,0-0.2-0.1-0.3-0.2c0,0,0-0.1-0.1-0.1c-0.1-0.1,0,0.4,0,0.2c0-0.4,0.1-0.7,0.1-1.1c0-0.1,0-0.4,0-0.5   c-0.1-0.1-0.2,0.3-0.2,0.3c0,0.1,0,0.3,0,0.4c0,0,0.1-0.4,0.2-0.3v0.1c0,0.2,0-0.1,0,0s0,0.1,0,0.2c0,0.2,0,0.4,0,0.6   c0,0.2,0,0.4,0,0.5c0,0.2,0.3,0.3,0.5,0.4c0.3,0,0.5-0.1,0.7-0.3c0-0.1,0.1-0.1,0.1-0.2v-0.1c0,0,0-0.1,0,0s0,0.3,0.1,0.4   c0.1,0.2,0.2,0.5,0.5,0.5c0.4,0,0.6-0.4,0.6-0.7c0-0.4,0-0.7,0-1.1c0,0.1,0,0.2,0,0.3c0.1,0.3,0.3,0.6,0.7,0.5   c0.3-0.1,0.6-0.4,0.7-0.7c0-0.1,0-0.3,0-0.5c0-0.1,0-0.2,0-0.3c0,0,0-0.2,0-0.3v0.1v-0.1v-0.1c0-0.1,0-0.2,0.1-0.2   C6.7,54.1,6.8,54.1,7,54c0-0.1,0-0.2,0-0.4c-0.7,0.3-1.4,0-2-0.3s-1.3-0.6-1.9-0.2c-0.7,0.5-1.1,1.3-1.3,2.1   c-0.1,0.8-0.1,1.6,0.1,2.4c0.5,1.5,2,2.1,3.4,2.3c0.7,0.1,1.5,0,2.3-0.2s1.6-0.7,2.2-1.2c1.7-1.2,3-2.9,4-4.7   c0.1-0.2,0.3-0.5,0.4-0.7C14.1,53.1,14,52.9,14,52.8L14,52.8z"/>
	<path class="st0" d="M4.9,57c1.4,0.6,2.9,0.4,4.2-0.3c0.6-0.3,1.1-0.7,1.6-1.1c0.5-0.4,1-0.8,1.4-1.2c0.5-0.5,0.9-1.2,1.2-1.8   c0-0.1,0-0.3,0-0.4c-0.5,1.2-1.4,2.1-2.4,2.9c-0.5,0.4-1.1,0.7-1.6,1.1c-0.6,0.4-1.3,0.7-2,0.8c-0.8,0.1-1.7,0-2.4-0.3   C4.9,56.6,4.8,57,4.9,57L4.9,57z"/>
	<path class="st0" d="M7.9,39.8c-0.2-0.1-0.3-0.2-0.4-0.3c0-0.1-0.1-0.1-0.1-0.2v-0.1v-0.1c0,0,0,0.3,0,0.1c0-0.4,0.2-0.7,0.3-1   c0.1-0.3,0.2-0.6,0.2-0.9c0-0.3,0-0.7-0.2-1c-0.1-0.2-0.3-0.3-0.5-0.5c-0.1-0.1-0.2-0.2-0.3-0.3c0-0.1-0.1-0.1-0.1-0.2   c0-0.1,0-0.3,0,0c0,0,0,0,0,0.1c0-0.1,0.1-0.3,0.2-0.3c0.2,0,0.3,0.1,0.4,0.3c-0.1-0.1,0.1-0.3,0-0.4c-0.1-0.1-0.3-0.4-0.5-0.2   c-0.1,0.1-0.1,0.4-0.1,0.6c0,0.6,0.5,0.8,0.9,1.2c0.1,0.1,0.1,0.2,0.2,0.3c0,0.1,0,0.2,0.1,0.2c0.1,0.1,0-0.2,0-0.1v0.1   c0,0.2-0.1,0.4-0.2,0.6c-0.2,0.4-0.3,0.8-0.4,1.3c0,0.2,0,0.4,0,0.6c0.1,0.2,0.3,0.4,0.5,0.5C7.8,40.1,7.9,39.8,7.9,39.8L7.9,39.8z   "/>
	<path class="st0" d="M7.4,35.4c0-0.2,0.1-0.4,0.3-0.5c0.2-0.1,0.4-0.1,0.5,0c0.4,0.1,0.9,0.5,1.1,0.9c0.1,0.1,0.1,0.2,0.2,0.3   c0,0.1,0,0.1,0.1,0.2v0.1l0,0c0,0.2,0-0.4,0-0.2c0,0.1,0,0.2,0,0.4c0-0.3,0-0.6-0.1-0.8S9.2,35.3,9,35.2c-0.2-0.2-0.4-0.4-0.7-0.5   c-0.2-0.1-0.4-0.2-0.6-0.1c-0.3,0.1-0.4,0.3-0.4,0.5C7.4,35.1,7.4,35.3,7.4,35.4L7.4,35.4z"/>
	<path class="st0" d="M9.3,35.3c0-0.1,0,0.2,0,0.2s0,0,0-0.1C9.3,35.3,9.3,35.3,9.3,35.3C9.4,35.2,9.4,35.2,9.3,35.3   c0.2-0.2,0.3-0.2,0.3-0.2c0.3,0,0.5,0.2,0.7,0.3c0.2,0.2,0.4,0.3,0.6,0.5c0.2,0.3,0.3,0.6,0.4,0.9c0,0.1,0,0.2,0.1,0.3   c0,0.1,0,0.1,0,0.2c0,0.1,0,0.1,0-0.1v0.1c0,0.2-0.1,0.4-0.2,0.6c0,0,0,0.1,0,0.2c0,0,0,0.1,0,0.2c0.2-0.4,0.2-0.9,0.2-1.3   c0-0.4-0.1-0.9-0.4-1.3c-0.1-0.2-0.4-0.4-0.6-0.6c-0.2-0.2-0.5-0.4-0.8-0.4c-0.1,0-0.2,0.1-0.3,0.2c-0.1,0.2,0,0.4,0,0.6   C9.3,35.5,9.3,35.4,9.3,35.3L9.3,35.3z"/>
	<path class="st0" d="M11.3,36.7c0.2-0.3,0.4-0.4,0.7-0.2c0.2,0.2,0.4,0.6,0.5,0.9c0.3,1,0.1,2.1-0.4,3c0,0.1,0,0.3,0,0.4   c0.3-0.6,0.5-1.2,0.5-1.9c0-0.5,0.1-1-0.1-1.5c-0.1-0.4-0.2-0.7-0.5-1c0-0.2-0.1-0.4-0.3-0.4s-0.3,0.2-0.4,0.3   C11.2,36.4,11.4,36.6,11.3,36.7L11.3,36.7z"/>
	<path class="st0" d="M12.6,39c0.2-0.2,0.7-0.4,1-0.2v-0.1v-0.1v-0.1c0,0,0,0,0-0.1c-0.3-0.2-0.7-0.1-1,0.2v0.1v0.1   C12.6,38.9,12.6,38.9,12.6,39L12.6,39L12.6,39z"/>
	<path class="st0" d="M8.5,35.4c-0.1,0.1-0.2,0.2-0.3,0.4c0,0.1,0,0.3,0,0.4c0,0.3,0.3,0.5,0.5,0.7C8.8,37,8.9,37.1,9,37.2   s0.2,0.3,0.2,0.5c0,0.1,0.1,0.2,0.1,0.3s0,0.1,0,0.2v-0.1c0,0,0,0.1,0,0.2c0,0.2-0.1,0.4-0.3,0.6c-0.1,0.1,0.1,0.3,0,0.4   c0.2-0.3,0.3-0.7,0.3-1.1c0-0.4,0-0.8-0.2-1.1s-0.5-0.4-0.7-0.7c-0.1-0.1-0.1-0.1-0.1-0.2c0-0.1,0-0.1-0.1-0.2c0.1,0.2,0,0.3,0,0.2   v-0.1c0.1-0.1,0.1-0.2,0.2-0.2C8.6,35.7,8.5,35.5,8.5,35.4L8.5,35.4z"/>
	<path class="st0" d="M6.1,12.9c0.1-0.1,0.2-0.1,0.3-0.1h0.1v0.1V13c0,0.1,0-0.3,0-0.2l0,0c0,0,0,0,0,0.1s0,0.1-0.1,0.2   c-0.1,0.2-0.4,0.4-0.6,0.4c-0.3,0.1-0.6,0-0.8-0.1c0-0.1-0.2-0.2-0.3-0.4c0-0.1-0.1-0.2-0.1-0.2c0-0.1,0,0.2,0,0.2s0,0,0-0.1v-0.1   c0.1-0.4,0.5-0.6,0.9-0.6v-0.4c-0.4,0-0.8,0.2-0.9,0.6c0,0.1,0,0.2,0,0.3s0,0.3,0,0.4c0,0.2,0.2,0.4,0.3,0.5   c0.2,0.2,0.6,0.3,0.9,0.2s0.6-0.2,0.7-0.5c0-0.1,0-0.2,0.1-0.2c0-0.1,0-0.3,0-0.4v-0.1v-0.1c0,0,0,0-0.1,0s-0.3,0-0.4,0.1v0.2   C6.1,12.8,6.1,12.8,6.1,12.9L6.1,12.9L6.1,12.9z"/>
	<path class="st0" d="M4.9,13.2c-0.2,0-0.4,0-0.5,0.2c0,0.1-0.1,0.2-0.1,0.2c0,0.2,0,0.3,0,0.5s0.1,0.4,0.2,0.6   c0.1,0.2,0.2,0.3,0.4,0.4c0.3,0.1,0.8,0.2,1,0C5.9,15,6,14.9,6,14.7c0-0.1,0-0.3,0-0.4c0-0.1,0-0.1,0-0.2c0-0.1-0.1-0.2-0.2-0.2   S5.6,14,5.5,14.1v0.1v0.1v0.1c0,0,0,0,0,0.1c0.1-0.1,0.2-0.2,0.3-0.2c0.1,0,0.2,0.1,0.2,0.1c-0.1,0.1,0,0.2,0,0.3   c0,0.2,0-0.4,0-0.2v0.1c0,0.1,0,0.1-0.1,0.1c-0.2,0.3-0.5,0.2-0.8,0.2c-0.2-0.1-0.3-0.1-0.5-0.3c-0.1-0.1-0.2-0.3-0.3-0.5   c0-0.1,0-0.2-0.1-0.3c0-0.1,0,0.4,0,0.3l0,0c0,0,0,0,0-0.1v-0.1c0.1-0.2,0.3-0.2,0.5-0.2C4.9,13.6,4.9,13.2,4.9,13.2L4.9,13.2z"/>
	<path class="st0" d="M7.9,15.3c0.8,0.7,1.8,1.1,2.8,1.3s2,0.4,3,0.7c0.6,0.2,1.1,0.4,1.6,0.7c-0.1,0,0.1-0.3,0-0.4   c-1.8-1.1-3.9-1-5.8-1.8c-0.6-0.2-1.1-0.5-1.6-0.9C7.9,15,7.8,15.2,7.9,15.3L7.9,15.3z"/>
	<path class="st0" d="M9.9,12.8c0.9-0.6,1.4-1.7,1.6-2.7c0.1-0.5,0.1-0.9,0-1.4c0-0.1,0-0.2,0-0.3s0,0.1,0,0.1s0-0.1,0-0.2   c0-0.1,0.1-0.3,0.1-0.4c0.1-0.1,0.1-0.3,0.3-0.3c0.1,0,0.2,0.2,0.2,0.3c0.1,0.1,0.1-0.3,0-0.1v0.1C12.1,8,12,8,11.9,8.1   c0,0,0,0.3,0,0.4c0.1-0.1,0.2-0.2,0.2-0.3c0-0.2,0-0.3,0-0.5c0-0.1-0.1-0.3-0.2-0.3c-0.2,0-0.3,0.2-0.3,0.3c-0.2,0.5-0.1,1-0.1,1.5   c0,0.1,0,0.2,0,0.3c0,0.2,0,0,0,0v0.2c0,0.2,0,0.3-0.1,0.4c-0.1,0.3-0.2,0.6-0.3,0.9c-0.3,0.6-0.7,1.2-1.3,1.6   C9.8,12.5,9.9,12.8,9.9,12.8L9.9,12.8z"/>
	<path class="st0" d="M14.3,6.9c-0.4,0.3-0.4,0.8-0.4,1.2c0,0.1,0,0.2,0,0.3v0.1c0,0,0-0.1,0,0s0,0.2,0,0.3c0,0.3-0.1,0.5-0.2,0.8   c-0.2,0.5-0.5,1-1,1.3c-0.4,0.3-0.9,0.5-1.4,0.7s-1,0.5-1.4,1c-0.1,0.1,0.1,0.3,0,0.4c0.6-0.8,1.7-1,2.6-1.5   c0.5-0.3,0.9-0.7,1.1-1.2c0.2-0.5,0.3-1,0.3-1.5s-0.1-1.1,0.4-1.4C14.4,7.2,14.2,6.9,14.3,6.9L14.3,6.9z"/>
	<path class="st0" d="M7.8,11.4L7.8,11.4c0-0.2,0,0.3,0,0.2C7.8,11.5,7.8,11.5,7.8,11.4c0,0,0-0.1,0.1-0.1c0-0.1,0.1-0.2,0.2-0.3   c0.2-0.2,0.4-0.3,0.7-0.4v-0.2v-0.2c-0.3,0.1-0.6,0.3-0.7,0.5C8,10.8,8,11,7.9,11.1C7.8,11.3,7.8,11.4,7.8,11.4c0,0.1,0,0.3,0,0.4   c0-0.1,0-0.1,0-0.2S7.8,11.5,7.8,11.4L7.8,11.4z"/>
	<path class="st0" d="M13.3,7.8c-0.5,0.2-0.4,1-0.4,1.5c0,0.3-0.1,0.6-0.4,0.9c-0.2,0.3-0.6,0.4-0.9,0.5c0,0,0,0.3,0,0.4   c0.6-0.3,1.2-0.6,1.3-1.4c0-0.5-0.1-1.3,0.4-1.5C13.4,8.1,13.3,7.8,13.3,7.8L13.3,7.8z"/>
	<path class="st0" d="M10,11.8L10,11.8c0,0,0,0.3,0,0.2C10,12,10,12,10,11.8C10,11.9,10.1,11.9,10,11.8c0.1,0,0.1,0,0.2-0.1   c0.1-0.1,0.2-0.1,0.3-0.2c0-0.1,0-0.2,0-0.3s0-0.2,0-0.4c-0.1-0.2-0.2-0.3-0.4-0.5c-0.2-0.1-0.4-0.2-0.7-0.2v0.4   c0.2,0,0.4,0.1,0.6,0.2c0.2,0.1,0.4,0.2,0.5,0.4v0.1c0,0.2,0-0.4,0-0.2c0,0,0,0,0,0.1s-0.1,0.1-0.1,0.1c-0.1,0.1-0.2,0.1-0.3,0.2   C10,11.5,10,11.5,10,11.6c0,0.2,0,0.3,0,0.5C10,12,10,11.9,10,11.8L10,11.8z"/>
	<path class="st0" d="M5.3,12.3c0.2-0.3,0.2-0.7,0.2-1.1c0-0.1,0-0.2,0-0.3v-0.1c0,0,0,0.1,0,0s0-0.1,0-0.2c0.1-0.2,0.2-0.3,0.4-0.5   c0.1,0,0.3-0.1,0.5-0.2C6.6,9.7,6.8,9.6,7,9.5c0.4-0.2,1-0.4,1.4-0.2c0.5,0.2,0.9,0.6,1,1.1c0-0.1,0-0.2,0-0.4c0-0.4-0.4-0.8-0.8-1   c-0.5-0.3-1-0.2-1.4,0S6.3,9.5,6,9.8c-0.4,0.2-0.6,0.5-0.6,1c0,0.2,0,0.4,0,0.6c0,0.1,0,0.1,0,0.2c0,0.1,0-0.1,0-0.1v0.1   c0,0.1-0.1,0.2-0.2,0.4C5.2,12,5.3,12.2,5.3,12.3L5.3,12.3z"/>
	<path class="st0" d="M12.6,7.6c0.2,0,0.3-0.1,0.3-0.3V7.2c0-0.1,0-0.2,0-0.4c0-0.1,0-0.2-0.1-0.2c-0.1-0.1-0.3-0.2-0.4-0.2   c-0.2,0-0.3,0.1-0.4,0.3c-0.1,0.2-0.1,0.5-0.1,0.7v0.2V7.4c0,0.2,0,0,0,0V7.3c0-0.1,0-0.2,0.1-0.2c0.1-0.1,0.2-0.3,0.3-0.3   s0.3,0,0.4,0.1c0.1,0,0.1,0.1,0.1,0.2l0,0l0,0l0,0c0,0.1,0,0,0-0.1V6.9l0,0l0,0c0,0,0,0,0,0.1s-0.1,0.3-0.3,0.2v0.2   C12.6,7.5,12.6,7.6,12.6,7.6L12.6,7.6z"/>
	<path class="st0" d="M14.3,7.1c0,0.1,0,0.1,0.1,0.2c0.1,0,0.2,0,0.2,0c0.2-0.1,0.2-0.3,0.2-0.5c0-0.3,0-0.5-0.2-0.8   c-0.1-0.1-0.4-0.2-0.6-0.2c-0.1,0-0.2,0-0.3,0.1s-0.2,0.2-0.2,0.3c0,0.1,0,0.1,0,0.2s0,0.1,0,0.2c0-0.2,0.2-0.4,0.4-0.4   s0.4,0,0.6,0.1c0.2,0.1,0.3,0.2,0.3,0.4v0.1c0-0.4,0-0.4,0-0.3l0,0v0.1c0,0.1-0.1,0.1-0.1,0.2c-0.2,0.2-0.4,0.2-0.4,0l0,0v0.1   C14.3,7,14.3,7,14.3,7.1L14.3,7.1z"/>
	<path class="st0" d="M13.3,7.1c0.1,0,0.1,0.1,0.2,0L13.6,7c0-0.1,0-0.1,0-0.2s0-0.3,0-0.4c0-0.4-0.5-0.5-0.8-0.4   c-0.2,0.1-0.3,0.3-0.3,0.4c0,0,0,0,0,0.1v0.1v0.1c0,0,0,0,0,0.1c0-0.1,0.1-0.3,0.2-0.4c0.1-0.1,0.3-0.1,0.5-0.1s0.3,0.1,0.4,0.3   c0,0,0,0.1,0,0.2c0,0.2,0-0.4,0-0.3l0,0v0.1c0,0.1,0,0.1-0.1,0.1s-0.1,0-0.2,0v0.2C13.3,7,13.3,7,13.3,7.1L13.3,7.1L13.3,7.1z"/>
	<path class="st0" d="M9.3,13.1c0.3,0,1.3-0.1,1.3,0.4c0-0.1,0-0.2,0-0.3c0,0.3-0.5,0.4-0.7,0.5c-0.3,0.1-0.7,0.2-1,0.4   c-0.5,0.2-0.8,0.4-1.1,0.8c-0.3,0.4-0.7,0.4-1,0c0.1,0.1-0.1,0.3,0,0.4c0.2,0.2,0.4,0.3,0.6,0.3c0.3-0.1,0.4-0.3,0.6-0.5   c0.3-0.4,0.9-0.6,1.4-0.8c0.4-0.1,0.8-0.2,1.1-0.4c0.1-0.1,0.2-0.2,0.2-0.3c0-0.2,0-0.4-0.1-0.5c-0.2-0.3-0.8-0.2-1.2-0.3   C9.3,12.7,9.3,13.1,9.3,13.1L9.3,13.1z"/>
	<path class="st0" d="M9.3,13.1c0-0.2,0.2-0.3,0.4-0.4c0.1,0,0.2-0.1,0.3-0.1s0.1-0.1,0.2-0.2c0,0,0,0,0-0.1s0-0.2,0-0.3   s0-0.1,0-0.2v0.1V12v0.1c0,0,0,0,0,0.1c0,0,0,0,0,0.1l0,0l0,0l0,0c0,0.1,0,0,0-0.3v0.1c0,0.1-0.1,0.1-0.2,0.1   c-0.2,0.1-0.3,0.1-0.5,0.3c-0.1,0.1-0.1,0.1-0.1,0.2c0,0.1,0,0.1,0,0.2C9.3,12.9,9.3,13,9.3,13.1C9.3,13,9.3,13.1,9.3,13.1   L9.3,13.1z"/>
	<path class="st0" d="M5.6,15.4c0,0.6,0,1.2,0.4,1.7c0.3,0.5,0.9,0.8,1.4,1c1.3,0.5,2.8,0.5,4.1,0.4c0.6,0,1.1-0.1,1.7-0.1   c0.5,0,0.9,0,1.3,0.3c-0.1,0,0.1-0.3,0-0.4C14.2,18,13.8,18,13.4,18c-0.4,0-0.9,0-1.3,0.1c-0.8,0.1-1.6,0.1-2.4,0.1   c-1.1-0.1-2.4-0.2-3.3-0.9C6.2,17,6,16.8,5.9,16.6c-0.1-0.1-0.1-0.3-0.2-0.4c0-0.1,0-0.2-0.1-0.3v-0.1v-0.1c0,0.1,0,0.2,0,0.1   C5.6,15.7,5.6,15.5,5.6,15.4L5.6,15.4z"/>
	<path class="st0" d="M11.5,43.5c0-0.1-0.1-0.1-0.1-0.2v-0.1c0-0.1,0.3-0.1,0,0.2c0.1-0.1,0.1-0.1,0.2-0.2c0.2-0.1,0.4-0.1,0.6-0.1   c0.7,0.1,0.8,0.8,0.8,1.4c0,0.7-0.1,1.3-0.1,2c0,0.8,0.2,1.7,0.5,2.5c0.4,0.9,1,1.8,1.1,2.8c0-0.1,0-0.2,0-0.3   c-0.1-1-0.6-1.8-1-2.6c-0.2-0.4-0.3-0.9-0.4-1.3c0-0.2-0.1-0.5-0.1-0.7c0-0.1,0-0.3,0-0.4c0,0,0-0.3,0-0.1c0,0.1,0-0.1,0-0.1   c0-0.7,0.1-1.4,0-2.1c0-0.3-0.1-0.7-0.3-1c-0.2-0.2-0.4-0.3-0.7-0.3c-0.2,0-0.5,0.1-0.6,0.3s0,0.5,0.1,0.7   C11.5,43.8,11.6,43.6,11.5,43.5L11.5,43.5z"/>
	<path class="st0" d="M5.5,58.9c1.4,0.2,2.9-0.1,4.1-0.9c1.2-0.7,2.1-1.8,2.9-2.9c0.4-0.7,0.9-1.3,1.2-2c0.1-0.1,0-0.3,0-0.4   c-1.3,2.4-3,4.9-5.7,5.7c-0.8,0.2-1.6,0.3-2.5,0.2V58.9L5.5,58.9z"/>
	<path class="st0" d="M7,35.6c-0.2-0.1-0.5-0.1-0.7,0s-0.2,0.3-0.2,0.5s0,0.4,0.1,0.6c0.1,0.2,0.4,0.3,0.6,0.4   c0.2,0.1,0.4,0.2,0.6,0.3c0.1,0.1,0.1,0.1,0.2,0.2v0.1c0.1,0.1,0-0.2,0-0.1l-0.1,0.2c-0.1,0.3-0.3,0.5-0.4,0.7C7,38.8,7,39,7,39.3   c0,0.5,0.2,1.3,0.8,1.3v-0.4c-0.5,0-0.7-0.6-0.8-1c0-0.2,0,0,0,0v-0.1C7,39,7,39,7,38.9c0-0.1,0.1-0.2,0.2-0.3   c0.1-0.2,0.3-0.4,0.3-0.7c0-0.4,0-0.7-0.3-0.9c-0.4-0.2-0.8-0.3-1-0.7c0,0,0-0.1-0.1-0.1v-0.1c0,0-0.1,0.3,0,0.1   c0-0.1,0.1-0.2,0.1-0.2c0.2-0.1,0.5-0.1,0.8,0C6.9,36,7,35.6,7,35.6L7,35.6z"/>
	<g>
		<path class="st0" d="M9.1,42.8"/>
	</g>
	<g>
		<path class="st0" d="M7.5,40.4"/>
	</g>
	<path class="st0" d="M7.9,11.5c0-0.2,0.3-0.2,0.4-0.2s0.2,0,0.3,0s0.1,0,0.2-0.1c0,0,0,0,0-0.1s0-0.2,0-0.3s0-0.1,0-0.2   c0,0,0,0,0,0.1v0.1v0.1c0,0,0,0,0,0.1v0.1l0,0l0,0l0,0c0,0.1,0,0,0-0.3v0.1C8.8,11,8.7,11,8.6,11c-0.2,0-0.3,0-0.5,0   C8,11,8,11.1,7.9,11.1c0,0.1,0,0.1,0,0.2S7.9,11.4,7.9,11.5L7.9,11.5L7.9,11.5z"/>
	<path class="st0" d="M8.4,9.6c-0.3,0-0.6,0-0.8,0.1C7.4,9.8,7.2,10,7.1,10.3c0,0,0,0,0,0.1v0.1v0.1c0,0,0,0,0,0.1   c0.1-0.2,0.3-0.5,0.5-0.6C7.9,10,8.1,9.9,8.4,9.9V9.6L8.4,9.6z"/>
	<path class="st0" d="M12.2,44.9c0,0,0-0.1-0.1-0.1C12.2,45,12.1,45.1,12.2,44.9c0,0,0.1-0.1,0.2-0.1c0.1-0.1,0.4-0.1,0.5,0   S13,44.9,13,45c0,0.1-0.1,0.2,0-0.2v0.1c0,0.1-0.1,0.2-0.1,0.2c-0.2,0.3-0.5,0.5-0.7,0.9c-0.3,0.6-0.3,1.2-0.3,1.9   c0.1,0.7,0.3,1.3,0.8,1.9c0.6,0.7,1.3,1.2,1.6,2.1c0-0.1,0-0.3,0-0.4c-0.3-0.8-1-1.3-1.5-2c-0.5-0.6-0.8-1.2-0.9-2v-0.1   c0,0.1,0,0,0-0.1s0-0.2,0.1-0.3c0-0.2,0.1-0.4,0.2-0.6c0.2-0.3,0.5-0.6,0.7-0.9C13,45.2,13,45,13,44.7c0-0.2-0.1-0.3-0.3-0.4   c-0.2,0-0.4,0.1-0.5,0.2C12.1,44.7,12.1,44.8,12.2,44.9c-0.1,0.2-0.1,0.3,0,0.4C12.1,45.1,12.2,44.9,12.2,44.9L12.2,44.9z"/>
	<path class="st0" d="M13.9,8.1C14,8,14.1,7.9,14.3,7.8c0.2,0,0.3,0.1,0.4,0.2c0,0.1,0.1,0.2,0.1,0.3l0,0c0,0.1,0-0.1,0,0   c0,0,0,0,0,0.1v0.1c-0.1,0.1-0.1,0.3-0.3,0.3c-0.1,0-0.1,0-0.2,0c-0.1,0-0.1-0.1-0.1-0.2v0.1c0,0.1,0,0.2,0.1,0.2c0,0,0.1,0,0.2,0   c0.1-0.1,0.2-0.2,0.3-0.3c0-0.1,0-0.2,0-0.3s0-0.2,0-0.3c-0.1-0.2-0.2-0.3-0.3-0.3c-0.2,0-0.4,0.1-0.5,0.3C13.8,8,13.9,8,13.9,8.1   L13.9,8.1L13.9,8.1z"/>
	<path class="st0" d="M14.4,8.3C14,8.4,14,8.8,14,9.1c0,0.2,0,0.4,0,0.6c0,0.1,0,0.2,0,0.3v0.1c0-0.1,0,0,0,0c0,0.1,0,0.1,0,0.2   c-0.1,0.5-0.3,0.9-0.8,1.2s-1,0.3-1.5,0.4C11.1,12,10.5,12,10,12.4c-0.1,0.1,0.1,0.3,0,0.4c0.9-0.7,2-0.4,3-0.8   c0.5-0.2,0.8-0.6,0.9-1.1c0.1-0.4,0.1-0.8,0-1.2c0-0.1,0-0.2,0-0.3V9.3v0.1c0-0.1,0-0.1,0-0.2c0-0.2,0.1-0.4,0.3-0.4   C14.4,8.7,14.4,8.3,14.4,8.3L14.4,8.3z"/>
	<g>
		<path class="st0" d="M20.3,25.3c0-1.1,0-2.2-0.1-3.3c-0.1-1-0.2-1.9-0.3-2.7c-0.1-0.9-0.3-1.7-0.4-2.5L18,16.7v-0.3    c0.3,0,0.7,0.1,1.2,0.1c0.4,0,0.9,0.1,1.5,0.1s1.4,0,2.2,0c0.9,0,1.7,0,2.6-0.1c0.9,0,1.8-0.1,2.8-0.2c-0.2,0.4-0.4,1-0.6,1.7    s-0.3,1.4-0.3,2.1c-0.1-0.6-0.4-1-0.7-1.5c-0.3-0.4-0.7-0.8-1.2-1c-0.5-0.3-1-0.5-1.5-0.6c-0.6-0.1-1.1-0.2-1.7-0.2    c-0.1,0.9-0.1,1.8-0.2,2.8c0,1,0,1.9,0,2.8c0,1,0,2,0.1,3.1c0.6,0,1.2-0.1,1.9-0.1c0.5-0.1,1.1-0.2,1.7-0.3    c0.6-0.2,1.2-0.4,1.7-0.6c-0.1,0.5-0.1,0.9-0.1,1.3s0,0.8,0,1.2c0,0.4,0,0.8,0,1.1L27.3,28c0-0.4-0.1-0.8-0.4-1    c-0.3-0.3-0.7-0.4-1.2-0.6c-0.5-0.1-1-0.2-1.6-0.2s-1.2,0-1.7,0c0,0.4,0,0.9-0.1,1.4c0,0.5,0,1,0,1.5s0,1,0,1.5s0,1,0.1,1.5    c0.1,1.1,0.1,2.2,0.2,3.4c1.1,0.1,2.2,0.1,3.1,0.1c0.4,0,0.8,0,1.2-0.1c0.4-0.1,0.8-0.1,1.1-0.2c0.3-0.1,0.6-0.2,0.8-0.4    c0.2-0.2,0.4-0.4,0.5-0.6l0.1,0.1c-0.2,0.4-0.3,0.8-0.5,1.2c-0.1,0.3-0.2,0.7-0.4,1c-0.1,0.3-0.2,0.6-0.3,0.8    c-1.3,0-2.5,0-3.6-0.1s-2.3-0.1-3.5-0.1c-0.4,0-0.8,0-1.1,0c-0.3,0-0.6,0.1-0.8,0.1c-0.3,0-0.5,0.1-0.6,0.1v-0.3l1.2-0.2    c0.1-1.5,0.2-3,0.3-4.4c0-0.6,0.1-1.2,0.1-1.9c0-0.7,0.1-1.3,0.1-1.9s0-1.2,0.1-1.8C20.3,26.3,20.3,25.8,20.3,25.3z"/>
	</g>
	<g>
		<g>
			<path class="st0" d="M47.4,37.3c-0.2,0-0.4-0.1-0.6-0.1c-0.2,0-0.5-0.1-0.8-0.1s-0.7,0-1,0c-0.4,0-0.8,0-1.1,0s-0.6,0-0.8,0.1     c-0.2,0-0.4,0.1-0.6,0.1v-0.2l0.8-0.1c0-1.5,0-3.2,0-5c0-1.5-0.1-3.3-0.1-5.3c-0.1-2-0.1-4.1-0.2-6.3c-0.2,0.7-0.4,1.7-0.6,2.8     c-0.3,1.1-0.6,2.4-1,3.9c-0.4,1.4-0.9,3-1.4,4.7c-0.5,1.7-1.2,3.4-1.9,5.3c-0.3-0.5-0.5-1.2-0.8-2s-0.6-1.6-0.9-2.6     c-0.3-0.9-0.6-1.9-0.9-2.9c-0.3-1-0.6-2-0.9-3.1c-0.3-1-0.6-2-0.8-3c-0.3-1-0.5-1.9-0.8-2.7c0,0.8-0.1,1.7-0.1,2.6s0,1.8,0,2.7     c0,0.9,0,1.8,0.1,2.7c0,0.9,0.1,1.7,0.1,2.6c0.1,1.9,0.2,3.8,0.3,5.7l1.3,0.1v0.3c-0.2,0-0.5-0.1-0.7-0.1s-0.5-0.1-0.7-0.1     c-0.3,0-0.6-0.1-0.9-0.1c-0.4,0-0.7,0-1,0s-0.5,0-0.7,0.1c-0.2,0-0.4,0.1-0.6,0.1v-0.2l1-0.1c0.2-0.5,0.3-1.5,0.5-2.9     c0.1-0.6,0.2-1.3,0.3-2.2c0.1-0.9,0.2-1.9,0.3-3c0.1-1.2,0.2-2.5,0.3-3.9c0.1-1.5,0.2-3.1,0.3-5c-0.3-0.9-0.6-1.7-0.8-2.2     c-0.2-0.6-0.4-0.9-0.5-0.9c-0.3-0.1-0.5-0.1-0.6-0.1s-0.1,0-0.1,0v-0.2c0.2,0,0.4,0.1,0.6,0.1s0.4,0,0.6,0.1c0.2,0,0.4,0,0.6,0     c0.2,0,0.4,0,0.7,0s0.5,0,0.8-0.1c0.3,0,0.5-0.1,0.8-0.1c0.1,0.6,0.2,1.3,0.4,2.1c0.2,0.8,0.3,1.7,0.6,2.6     c0.2,0.9,0.4,1.8,0.7,2.8c0.2,1,0.5,1.9,0.7,2.8c0.6,2.1,1.2,4.4,1.8,6.7c0.4-1.5,0.8-3.1,1.3-4.8c0.4-1.4,0.8-3,1.3-4.8     s0.9-3.6,1.4-5.5c0-0.3,0-0.6-0.1-0.9c0-0.3,0-0.6-0.1-0.9c0.1,0,0.2,0.1,0.4,0.1c0.1,0,0.3,0,0.5,0.1c0.2,0,0.4,0,0.7,0     s0.6,0,0.9,0c0.3,0,0.5,0,0.7-0.1c0.2,0,0.5-0.1,0.6-0.1V17l-1,0.2c-0.1,0.7-0.1,1.5-0.1,2.4s0,2,0,3c0,1.1,0.1,2.2,0.1,3.3     c0.1,1.1,0.1,2.3,0.2,3.3c0.2,2.6,0.4,5.2,0.7,8l0.9,0.2v-0.1H47.4z"/>
		</g>
	</g>
	<g>
		<path class="st0" d="M27.8,40.4c0-0.1,0-0.3,0-0.4c0-0.1,0-0.2,0-0.3s0-0.2,0-0.3h-0.1l0,0h0.1h0.1H28c0.1,0,0.1,0,0.1,0h0.1h0.1    l0,0h-0.1c0,0.1,0,0.2,0,0.3s0,0.2,0,0.3s0,0.2,0,0.4s0,0.3,0,0.5s0,0.3,0,0.5s0,0.3,0,0.5h0.1l0,0h-0.1h-0.1H28    c-0.1,0-0.1,0-0.1,0h-0.1h-0.1l0,0h0.1c0-0.1,0-0.2,0-0.4c0-0.1,0-0.3,0-0.4C27.8,40.8,27.8,40.6,27.8,40.4z"/>
		<path class="st0" d="M30.3,39.3c0,0.1,0,0.2,0,0.3s0,0.2,0,0.4c0,0.1,0,0.3,0,0.4c0,0.1,0,0.3,0,0.4c0,0.3,0,0.7,0,1    c-0.1-0.2-0.3-0.4-0.4-0.5c-0.1-0.2-0.2-0.4-0.4-0.5c-0.1-0.2-0.2-0.3-0.3-0.5c-0.1-0.2-0.2-0.3-0.3-0.4c0,0.1,0,0.2,0,0.4    c0,0.1,0,0.3,0,0.4c0,0.1,0,0.3,0,0.4c0,0.1,0,0.3,0,0.4c0,0.1,0,0.2,0,0.3s0,0.1,0,0.1h0.2l0,0H29h-0.1h-0.1c-0.1,0-0.1,0-0.1,0    h-0.1h-0.1l0,0h0.1c0,0,0-0.1,0-0.2c0-0.1,0-0.2,0-0.3s0-0.3,0-0.4c0-0.1,0-0.3,0-0.4c0-0.1,0-0.3,0-0.4c0-0.1,0-0.3,0-0.4    c-0.1-0.1-0.1-0.2-0.2-0.2c0-0.1-0.1-0.1-0.1-0.1h-0.1l0,0c0.1,0,0.1,0,0.2,0s0.1,0,0.2,0s0.1,0,0.2,0c0,0.1,0.1,0.1,0.1,0.2    c0,0.1,0.1,0.2,0.2,0.3s0.1,0.2,0.2,0.3s0.1,0.2,0.2,0.3c0.2,0.2,0.3,0.5,0.5,0.7c0-0.3,0-0.5,0-0.8c0-0.1,0-0.2,0-0.3    s0-0.2,0-0.3s0-0.2,0-0.3s0-0.1,0-0.2h-0.2l0,0h0.1H30h0.1C30.2,39.3,30.2,39.3,30.3,39.3C30.3,39.3,30.4,39.3,30.3,39.3    c0.1,0,0.1,0,0.2-0.1l0,0L30.3,39.3z"/>
		<path class="st0" d="M30.9,40c0-0.1,0-0.2,0.1-0.3s0.1-0.2,0.2-0.2c0.1-0.1,0.2-0.1,0.3-0.1c0.1,0,0.2,0,0.2,0c0.1,0,0.1,0,0.1,0    h0.1c0,0,0,0,0.1,0l0,0l0,0c-0.1,0.1-0.1,0.2-0.1,0.3s0,0.2,0,0.3l0,0c0-0.1,0-0.1,0-0.2c0-0.1-0.1-0.1-0.1-0.1s-0.1-0.1-0.2-0.1    s-0.1,0-0.2,0h-0.1c0,0-0.1,0-0.1,0.1l-0.1,0.1v0.1c0,0.1,0,0.1,0,0.2c0,0.1,0.1,0.1,0.1,0.2c0,0.1,0.1,0.1,0.2,0.1    s0.1,0.1,0.2,0.1s0.1,0.1,0.2,0.1s0.1,0.1,0.2,0.2c0,0.1,0.1,0.1,0.1,0.2c0,0.1,0,0.1,0,0.2c0,0.1,0,0.2,0,0.3S32,41.6,32,41.7    c0,0.1-0.1,0.1-0.1,0.1c-0.1,0-0.1,0.1-0.2,0.1s-0.1,0-0.2,0s-0.1,0-0.1,0c-0.1,0-0.1,0-0.1,0h-0.1h-0.1H31l0,0l0,0l0,0l0.1-0.1    c0-0.1,0-0.1,0-0.2c0-0.1,0-0.2,0-0.3l0,0c0,0.1,0,0.1,0.1,0.2c0,0.1,0.1,0.1,0.2,0.2c0.1,0.1,0.1,0.1,0.2,0.1s0.2,0,0.2,0h0.1H32    l0.1-0.1c0,0,0-0.1,0-0.2c0-0.1,0-0.1,0-0.2c0-0.1-0.1-0.1-0.1-0.2c-0.1,0-0.1-0.1-0.2-0.1s-0.1-0.1-0.2-0.1s-0.1-0.1-0.2-0.1    s-0.1-0.1-0.2-0.2c-0.1-0.1-0.1-0.1-0.1-0.2C30.9,40.2,30.9,40.1,30.9,40z"/>
		<path class="st0" d="M33.1,40.4c0-0.1,0-0.2,0-0.3s0-0.2,0-0.2c0-0.1,0-0.1,0-0.2c-0.1,0-0.2,0-0.3,0s-0.1,0-0.2,0    c0,0-0.1,0-0.1,0.1l-0.1,0.1l0,0c0,0,0.1-0.1,0.1-0.2c0-0.1,0-0.1,0.1-0.2c0-0.1,0-0.1,0-0.2l0,0l0,0c0.2,0,0.4,0,0.6,0    c0.2,0,0.3,0,0.4,0c0.1,0,0.2,0,0.3,0s0.1,0,0.1-0.1l0,0c0,0,0,0.1-0.1,0.1c0,0,0,0.1-0.1,0.1c0,0.1,0,0.1-0.1,0.2l0,0v-0.1    c0,0,0,0-0.1-0.1h-0.1c-0.1,0-0.2,0-0.3,0c0,0.1,0,0.2,0,0.2c0,0.1,0,0.2,0,0.3s0,0.2,0,0.3c0,0.2,0,0.4,0,0.5c0,0.2,0,0.3,0,0.4    c0,0.1,0,0.3,0,0.4h0.2l0,0h-0.1h-0.1h-0.1c-0.1,0-0.1,0-0.2,0h-0.1h-0.1l0,0h0.2c0-0.1,0-0.2,0-0.4c0-0.1,0-0.3,0-0.4    C33.1,40.8,33.1,40.6,33.1,40.4z"/>
		<path class="st0" d="M34.3,40.4c0-0.1,0-0.3,0-0.4c0-0.1,0-0.2,0-0.3s0-0.2,0-0.3h-0.1l0,0h0.1h0.1h0.1c0.1,0,0.1,0,0.1,0h0.1h0.1    l0,0h-0.1c0,0.1,0,0.2,0,0.3s0,0.2,0,0.3s0,0.2,0,0.4s0,0.3,0,0.5s0,0.3,0,0.5s0,0.3,0,0.5h0.1l0,0h-0.1h-0.1h-0.1    c-0.1,0-0.1,0-0.1,0h-0.1h-0.1l0,0h0.1c0-0.1,0-0.2,0-0.4c0-0.1,0-0.3,0-0.4C34.3,40.8,34.3,40.6,34.3,40.4z"/>
		<path class="st0" d="M35.7,40.4c0-0.1,0-0.2,0-0.3s0-0.2,0-0.2c0-0.1,0-0.1,0-0.2c-0.1,0-0.2,0-0.3,0s-0.1,0-0.2,0    c0,0-0.1,0-0.1,0.1S35,39.9,35,39.9l0,0c0,0,0.1-0.1,0.1-0.2c0-0.1,0-0.1,0.1-0.2c0-0.1,0-0.1,0-0.2l0,0l0,0c0.2,0,0.4,0,0.6,0    c0.2,0,0.3,0,0.4,0c0.1,0,0.2,0,0.3,0s0.1,0,0.1-0.1l0,0c0,0,0,0.1-0.1,0.1c0,0,0,0.1-0.1,0.1c0,0.1,0,0.1-0.1,0.2l0,0v-0.1    c0,0,0,0-0.1-0.1h-0.1c-0.1,0-0.2,0-0.3,0c0,0.1,0,0.2,0,0.2c0,0.1,0,0.2,0,0.3s0,0.2,0,0.3c0,0.2,0,0.4,0,0.5c0,0.2,0,0.3,0,0.4    c0,0.1,0,0.3,0,0.4H36l0,0h-0.1h-0.1h-0.1c-0.1,0-0.1,0-0.2,0h-0.1h-0.1l0,0h0.2c0-0.1,0-0.2,0-0.4c0-0.1,0-0.3,0-0.4    C35.7,40.8,35.7,40.6,35.7,40.4z"/>
		<path class="st0" d="M38.5,41.8L38.5,41.8h-0.2h-0.1h-0.1v-0.1v-0.1c0,0,0-0.1,0-0.2c0,0,0,0.1-0.1,0.1l-0.1,0.1    c-0.1,0-0.1,0.1-0.2,0.1c-0.1,0-0.2,0-0.2,0c-0.2,0-0.3,0-0.3-0.1c-0.1-0.1-0.1-0.1-0.1-0.3c0-0.1,0-0.3,0-0.4c0-0.2,0-0.4,0-0.6    c0-0.2,0-0.3,0-0.4c0-0.1,0-0.2,0-0.3s0-0.2,0-0.3h-0.2l0,0H37h0.1h0.1c0.1,0,0.1,0,0.1,0h0.1h0.1l0,0h-0.1c0,0.1,0,0.3,0,0.4    c0,0.1,0,0.1,0,0.2c0,0.1,0,0.1,0,0.2c0,0.1,0,0.1,0,0.2c0,0.1,0,0.1,0,0.2c0,0.1,0,0.2,0,0.3s0,0.2,0,0.3s0,0.2,0,0.2    c0,0.1,0.1,0.1,0.1,0.2c0,0,0.1,0.1,0.2,0.1c0.1,0,0.1,0,0.2,0c0.1,0,0.1,0,0.2,0c0,0,0.1,0,0.1-0.1l0.1-0.1v-0.1    c0-0.1,0-0.3,0-0.5s0-0.4,0-0.5c0-0.2,0-0.3,0-0.4c0-0.1,0-0.2,0-0.3s0-0.1,0-0.2h-0.2l0,0h0.1h0.1h0.1c0.1,0,0.1,0,0.1,0h0.1h0.1    l0,0h-0.1c0,0.1,0,0.2,0,0.4c0,0.1,0,0.3,0,0.4c0,0.2,0,0.4,0,0.6c0,0.1,0,0.2,0,0.4c0,0.1,0,0.2,0,0.3S38.6,41.7,38.5,41.8    C38.6,41.8,38.6,41.8,38.5,41.8L38.5,41.8L38.5,41.8z"/>
		<path class="st0" d="M39.5,40.4c0-0.1,0-0.2,0-0.3s0-0.2,0-0.2c0-0.1,0-0.1,0-0.2c-0.1,0-0.2,0-0.3,0s-0.1,0-0.2,0    c0,0-0.1,0-0.1,0.1l-0.1,0.1l0,0c0,0,0.1-0.1,0.1-0.2c0-0.1,0-0.1,0.1-0.2c0-0.1,0-0.1,0-0.2l0,0l0,0c0.2,0,0.4,0,0.6,0    c0.2,0,0.3,0,0.4,0c0.1,0,0.2,0,0.3,0s0.1,0,0.1-0.1l0,0c0,0,0,0.1-0.1,0.1c0,0,0,0.1-0.1,0.1c0,0.1,0,0.1-0.1,0.2l0,0v-0.1    c0,0,0,0-0.1-0.1h-0.1c-0.1,0-0.2,0-0.3,0c0,0.1,0,0.2,0,0.2c0,0.1,0,0.2,0,0.3s0,0.2,0,0.3c0,0.2,0,0.4,0,0.5c0,0.2,0,0.3,0,0.4    c0,0.1,0,0.3,0,0.4h0.2l0,0h-0.1h-0.1h-0.1c-0.1,0-0.1,0-0.2,0h-0.1h-0.1l0,0h0.2c0-0.1,0-0.2,0-0.4c0-0.1,0-0.3,0-0.4    C39.5,40.8,39.5,40.6,39.5,40.4z"/>
		<path class="st0" d="M40.5,40.6c0-0.2,0-0.4,0.1-0.5c0-0.2,0.1-0.3,0.2-0.4c0.1-0.1,0.2-0.2,0.3-0.3s0.2-0.1,0.3-0.1    s0.3,0,0.4,0.1c0.1,0.1,0.2,0.2,0.3,0.3s0.1,0.2,0.2,0.4c0,0.1,0.1,0.3,0.1,0.5s0,0.4-0.1,0.6c0,0.2-0.1,0.3-0.2,0.4    c-0.1,0.1-0.2,0.2-0.3,0.2c-0.1,0.1-0.2,0.1-0.3,0.1s-0.2,0-0.3-0.1c-0.1,0-0.2-0.1-0.2-0.1c-0.1-0.1-0.1-0.1-0.2-0.2    c0-0.1-0.1-0.2-0.1-0.3s0-0.2,0-0.3C40.5,40.8,40.5,40.7,40.5,40.6z M41.4,41.8c0.1,0,0.2,0,0.2-0.1c0.1-0.1,0.1-0.1,0.1-0.3    c0-0.1,0.1-0.2,0.1-0.4c0-0.1,0-0.3,0-0.5c0-0.1,0-0.1,0-0.2c0-0.1,0-0.2,0-0.3s0-0.2-0.1-0.3c0-0.1-0.1-0.2-0.1-0.2    c0-0.1-0.1-0.1-0.1-0.2c-0.1,0-0.1-0.1-0.2-0.1c-0.1,0-0.2,0-0.2,0.1C41,39.4,41,39.5,41,39.6s-0.1,0.2-0.1,0.4c0,0.1,0,0.3,0,0.5    c0,0.1,0,0.1,0,0.2c0,0.1,0,0.2,0,0.3s0,0.2,0.1,0.3c0,0.1,0.1,0.2,0.1,0.2c0,0.1,0.1,0.1,0.1,0.2C41.2,41.7,41.3,41.8,41.4,41.8z    "/>
		<path class="st0" d="M44.3,40.3c0-0.1,0-0.2,0-0.3s0-0.2,0-0.3s0-0.2,0-0.2c0-0.1,0-0.1,0-0.1h-0.1l0,0h0.1h0.1h0.1h0.1h0.1h0.1    h0.1c0.1,0,0.3,0,0.4,0.1c0.1,0.1,0.2,0.1,0.3,0.2c0.1,0.1,0.2,0.2,0.2,0.4c0.1,0.1,0.1,0.3,0.1,0.5s0,0.3,0,0.5    c0,0.1-0.1,0.2-0.1,0.3c-0.1,0.1-0.1,0.2-0.2,0.2c-0.1,0.1-0.1,0.1-0.2,0.2c-0.1,0-0.1,0.1-0.2,0.1c-0.1,0-0.1,0-0.2,0    c-0.1,0-0.2,0-0.3,0s-0.2,0-0.2,0h-0.1h-0.1h-0.1l0,0h0.1c0-0.1,0-0.2,0-0.4c0-0.1,0-0.3,0-0.5C44.3,40.7,44.3,40.5,44.3,40.3z     M44.9,41.8c0.1,0,0.1,0,0.2-0.1c0.1,0,0.1-0.1,0.2-0.2c0-0.1,0.1-0.1,0.1-0.2c0-0.1,0.1-0.2,0.1-0.3s0-0.2,0-0.3s0-0.2,0-0.3    s0-0.3-0.1-0.4c0-0.1-0.1-0.3-0.2-0.4c-0.1-0.1-0.1-0.2-0.2-0.3c-0.1-0.1-0.2-0.1-0.3-0.1h-0.1h-0.1c0,0.1,0,0.1,0,0.2    c0,0.1,0,0.1,0,0.2c0,0.1,0,0.2,0,0.3s0,0.2,0,0.3s0,0.2,0,0.3s0,0.2,0,0.3s0,0.2,0,0.3s0,0.2,0,0.3    C44.6,41.7,44.7,41.8,44.9,41.8z"/>
		<path class="st0" d="M46.4,40.4c0-0.1,0-0.3,0-0.4c0-0.1,0-0.2,0-0.3s0-0.2-0.1-0.3h-0.2l0,0h0.1c0,0,0.1,0,0.2,0    c0.1,0,0.2,0,0.3,0s0.2,0,0.3,0s0.2,0,0.3,0c0,0.1-0.1,0.1-0.1,0.2c0,0.1,0,0.2,0,0.2c0-0.1,0-0.1-0.1-0.2c0-0.1-0.1-0.1-0.1-0.1    c-0.1,0-0.1-0.1-0.2-0.1c-0.1,0-0.1,0-0.2,0c0,0.1,0,0.2,0,0.3s0,0.2,0,0.3s0,0.2,0,0.4c0.1,0,0.1,0,0.2,0c0.1,0,0.1,0,0.2,0    c0.1,0,0.1,0,0.2-0.1c0,0.1,0,0.1,0,0.2c0,0.1,0,0.1,0,0.1v0.1l0,0c0-0.1,0-0.1-0.1-0.1L47,40.5c-0.1,0-0.1,0-0.2,0    c-0.1,0-0.1,0-0.2,0c0,0.1,0,0.1,0,0.2c0,0.1,0,0.1,0,0.2c0,0.1,0,0.1,0,0.2c0,0.1,0,0.1,0,0.2c0,0.1,0,0.3,0,0.4    c0.1,0,0.3,0,0.4,0h0.1h0.1h0.1c0,0,0,0,0.1-0.1l0,0c0,0.1,0,0.1-0.1,0.1v0.1v0.1c-0.2,0-0.3,0-0.4,0c-0.1,0-0.3,0-0.4,0    c-0.1,0-0.1,0-0.1,0h-0.1h-0.1l0,0h0.1c0-0.2,0-0.4,0-0.5s0-0.1,0-0.2c0-0.1,0-0.2,0-0.2c0-0.1,0-0.1,0-0.2    C46.4,40.5,46.4,40.4,46.4,40.4z"/>
		<path class="st0" d="M18.6,43.7c0-0.1,0-0.3,0-0.4c0-0.1,0-0.2,0-0.3s0-0.2-0.1-0.3h-0.2l0,0h0.1c0,0,0.1,0,0.2,0s0.2,0,0.3,0    c0.1,0,0.2,0,0.3,0c0.1,0,0.2,0,0.3,0c0,0.1-0.1,0.1-0.1,0.2c0,0.1,0,0.2,0,0.2c0-0.1,0-0.1-0.1-0.2c0-0.1-0.1-0.1-0.1-0.1    c-0.1,0-0.1-0.1-0.2-0.1s-0.1,0-0.2,0c0,0.1,0,0.2,0,0.3s0,0.2,0,0.3s0,0.2,0,0.4c0.1,0,0.1,0,0.2,0s0.1,0,0.2,0s0.1,0,0.2-0.1    c0,0.1,0,0.1,0,0.2c0,0.1,0,0.1,0,0.1V44l0,0c0-0.1,0-0.1-0.1-0.1l-0.1-0.1c-0.1,0-0.1,0-0.2,0s-0.1,0-0.2,0c0,0.1,0,0.1,0,0.2    c0,0.1,0,0.1,0,0.2c0,0.1,0,0.1,0,0.2c0,0.1,0,0.1,0,0.2c0,0.1,0,0.3,0,0.4c0.1,0,0.3,0,0.4,0h0.1h0.1h0.1c0,0,0,0,0.1-0.1l0,0    c0,0.1,0,0.1-0.1,0.1v0.1v0.1c-0.2,0-0.3,0-0.4,0s-0.3,0-0.4,0s-0.1,0-0.1,0h-0.1h-0.1l0,0h0.1c0-0.2,0-0.4,0-0.5s0-0.1,0-0.2    c0-0.1,0-0.2,0-0.2c0-0.1,0-0.1,0-0.2C18.6,43.8,18.6,43.8,18.6,43.7z"/>
		<path class="st0" d="M20,43.3c0-0.1,0-0.2,0.1-0.3s0.1-0.2,0.2-0.2c0.1-0.1,0.2-0.1,0.3-0.1c0.1,0,0.2,0,0.2,0c0.1,0,0.1,0,0.1,0    H21c0,0,0,0,0.1,0l0,0l0,0C21,42.8,21,42.9,21,43s0,0.2,0,0.3l0,0c0-0.1,0-0.1,0-0.2c0-0.1-0.1-0.1-0.1-0.1s-0.1-0.1-0.2-0.1    s-0.1,0-0.2,0h-0.1c0,0-0.1,0-0.1,0.1l-0.1,0.1v0.1c0,0.1,0,0.1,0,0.2c0,0.1,0.1,0.1,0.1,0.2c0,0.1,0.1,0.1,0.2,0.1    s0.1,0.1,0.2,0.1s0.1,0.1,0.2,0.1s0.1,0.1,0.2,0.2c0,0.1,0.1,0.1,0.1,0.2c0,0.1,0,0.1,0,0.2c0,0.1,0,0.2,0,0.3s-0.1,0.1-0.1,0.2    c0,0-0.1,0-0.1,0c-0.1,0-0.1,0.1-0.2,0.1s-0.1,0-0.2,0s-0.1,0-0.1,0c-0.1,0-0.1,0-0.1,0h-0.1h-0.1h-0.1l0,0l0,0l0,0l0.1-0.1    c0-0.1,0-0.1,0-0.2c0-0.1,0-0.2,0-0.3l0,0c0,0.1,0,0.1,0.1,0.2c0,0.1,0.1,0.1,0.2,0.2c0.1,0.1,0.1,0.1,0.2,0.1s0.2,0,0.2,0H21h0.1    l0.1-0.1c0,0,0-0.1,0-0.2c0-0.1,0-0.1,0-0.2c0-0.1-0.1-0.1-0.1-0.2c-0.1,0-0.1-0.1-0.2-0.1s-0.1-0.1-0.2-0.1S20.6,44,20.5,44    s-0.1-0.1-0.2-0.2c-0.1-0.1-0.1-0.1-0.1-0.2C20,43.5,20,43.4,20,43.3z"/>
		<path class="st0" d="M22.2,43.7c0-0.1,0-0.2,0-0.3s0-0.2,0-0.2c0-0.1,0-0.1,0-0.2c-0.1,0-0.2,0-0.3,0c-0.1,0-0.1,0-0.2,0    c0,0-0.1,0-0.1,0.1l-0.1,0.1l0,0c0,0,0.1-0.1,0.1-0.2c0-0.1,0-0.1,0.1-0.2c0-0.1,0-0.1,0-0.2l0,0l0,0c0.2,0,0.4,0,0.6,0    s0.3,0,0.4,0s0.2,0,0.3,0c0.1,0,0.1,0,0.1-0.1l0,0c0,0,0,0.1-0.1,0.1c0,0,0,0.1-0.1,0.1c0,0.1,0,0.1-0.1,0.2l0,0v-0.1    c0,0,0,0-0.1-0.1h-0.1c-0.1,0-0.2,0-0.3,0c0,0.1,0,0.2,0,0.2c0,0.1,0,0.2,0,0.3s0,0.2,0,0.3c0,0.2,0,0.4,0,0.5c0,0.2,0,0.3,0,0.4    c0,0.1,0,0.3,0,0.4h0.2l0,0h-0.1h-0.1h-0.1c-0.1,0-0.1,0-0.2,0h-0.1h-0.1l0,0H22c0-0.1,0-0.2,0-0.4c0-0.1,0-0.3,0-0.4    C22.2,44.1,22.2,43.9,22.2,43.7z"/>
		<path class="st0" d="M25.1,45.2H25h-0.1h-0.1h-0.1v-0.1V45c0,0,0-0.1,0-0.2c0,0,0,0.1-0.1,0.1L24.5,45c-0.1,0-0.1,0.1-0.2,0.1    s-0.2,0-0.2,0c-0.2,0-0.3,0-0.3-0.1c-0.1-0.1-0.1-0.1-0.1-0.3c0-0.1,0-0.3,0-0.4c0-0.2,0-0.4,0-0.6c0-0.2,0-0.3,0-0.4    c0-0.1,0-0.2,0-0.3s0-0.2,0-0.3h-0.2l0,0h0.1h0.1h0.1c0.1,0,0.1,0,0.1,0H24h0.1l0,0H24c0,0.1,0,0.3,0,0.4c0,0.1,0,0.1,0,0.2    c0,0.1,0,0.1,0,0.2c0,0.1,0,0.1,0,0.2c0,0.1,0,0.1,0,0.2c0,0.1,0,0.2,0,0.3s0,0.2,0,0.3s0,0.2,0,0.2c0,0.1,0.1,0.1,0.1,0.2    c0,0,0.1,0.1,0.2,0.1s0.1,0,0.2,0s0.1,0,0.2,0c0,0,0.1,0,0.1-0.1l0.1-0.1v-0.1c0-0.1,0-0.3,0-0.5s0-0.4,0-0.5c0-0.2,0-0.3,0-0.4    c0-0.1,0-0.2,0-0.3s0-0.1,0-0.2h-0.2l0,0h0.1h0.1H25c0.1,0,0.1,0,0.1,0h0.1h0.1l0,0h-0.1c0,0.1,0,0.2,0,0.4c0,0.1,0,0.3,0,0.4    c0,0.2,0,0.4,0,0.6c0,0.1,0,0.2,0,0.4c0,0.1,0,0.2,0,0.3s0,0.2,0,0.2c0,0.1,0,0.1,0,0.1L25.1,45.2L25.1,45.2z"/>
		<path class="st0" d="M25.6,43.6c0-0.1,0-0.2,0-0.3s0-0.2,0-0.3s0-0.2,0-0.2c0-0.1,0-0.1,0-0.1h-0.1l0,0h0.1h0.1h0.1h0.1H26h0.1    h0.1c0.1,0,0.3,0,0.4,0.1s0.2,0.1,0.3,0.2c0.1,0.1,0.2,0.2,0.2,0.4c0.1,0.1,0.1,0.3,0.1,0.5s0,0.3,0,0.5c0,0.1-0.1,0.2-0.1,0.3    c-0.1,0.1-0.1,0.2-0.2,0.2c-0.1,0.1-0.1,0.1-0.2,0.2c-0.1,0-0.1,0.1-0.2,0.1s-0.1,0-0.2,0s-0.2,0-0.3,0c-0.1,0-0.2,0-0.2,0h-0.1    h-0.1h-0.1l0,0h0.1c0-0.1,0-0.2,0-0.4c0-0.1,0-0.3,0-0.5C25.6,44.1,25.6,43.9,25.6,43.6z M26.1,45.1c0.1,0,0.1,0,0.2-0.1    c0.1,0,0.1-0.1,0.2-0.2c0-0.1,0.1-0.1,0.1-0.2c0-0.1,0.1-0.2,0.1-0.3s0-0.2,0-0.3s0-0.2,0-0.3s0-0.3-0.1-0.4    c0-0.1-0.1-0.3-0.2-0.4c-0.1-0.1-0.1-0.2-0.2-0.3s-0.2-0.1-0.3-0.1h-0.1h-0.1c0,0.1,0,0.1,0,0.2c0,0.1,0,0.1,0,0.2    c0,0.1,0,0.2,0,0.3s0,0.2,0,0.3s0,0.2,0,0.3s0,0.2,0,0.3s0,0.2,0,0.3s0,0.2,0,0.3C25.9,45.1,26,45.1,26.1,45.1z"/>
		<path class="st0" d="M27.4,44c0-0.2,0-0.4,0.1-0.5c0-0.2,0.1-0.3,0.2-0.4c0.1-0.1,0.2-0.2,0.3-0.3c0.1-0.1,0.2-0.1,0.3-0.1    c0.1,0,0.3,0,0.4,0.1s0.2,0.2,0.3,0.3c0.1,0.1,0.1,0.2,0.2,0.4c0,0.1,0.1,0.3,0.1,0.5s0,0.4-0.1,0.6c0,0.2-0.1,0.3-0.2,0.4    c-0.1,0.1-0.2,0.2-0.3,0.2c-0.1,0.1-0.2,0.1-0.3,0.1c-0.1,0-0.2,0-0.3-0.1c-0.1,0-0.2-0.1-0.2-0.1c-0.1-0.1-0.1-0.1-0.2-0.2    c0-0.1-0.1-0.2-0.1-0.3s0-0.2,0-0.3C27.4,44.1,27.4,44.1,27.4,44z M28.3,45.1c0.1,0,0.2,0,0.2-0.1c0.1-0.1,0.1-0.1,0.1-0.3    c0-0.1,0.1-0.2,0.1-0.4c0-0.1,0-0.3,0-0.5c0-0.1,0-0.1,0-0.2c0-0.1,0-0.2,0-0.3s0-0.2-0.1-0.3c0-0.1-0.1-0.2-0.1-0.2    c0-0.1-0.1-0.1-0.1-0.2c-0.1,0-0.1-0.1-0.2-0.1s-0.2,0-0.2,0.1c-0.1,0.1-0.1,0.2-0.1,0.3s-0.1,0.2-0.1,0.4c0,0.1,0,0.3,0,0.5    c0,0.1,0,0.1,0,0.2c0,0.1,0,0.2,0,0.3s0,0.2,0.1,0.3c0,0.1,0.1,0.2,0.1,0.2c0,0.1,0.1,0.1,0.1,0.2C28.2,45.1,28.2,45.1,28.3,45.1z    "/>
		<path class="st0" d="M29.5,43.3c0-0.1,0-0.2,0.1-0.3s0.1-0.2,0.2-0.2c0.1-0.1,0.2-0.1,0.3-0.1c0.1,0,0.2,0,0.2,0    c0.1,0,0.1,0,0.1,0h0.1c0,0,0,0,0.1,0l0,0l0,0c-0.1,0.1-0.1,0.2-0.1,0.3s0,0.2,0,0.3l0,0c0-0.1,0-0.1,0-0.2c0-0.1-0.1-0.1-0.1-0.1    s-0.1-0.1-0.2-0.1s-0.1,0-0.2,0h-0.1c0,0-0.1,0-0.1,0.1l-0.1,0.1v0.1c0,0.1,0,0.1,0,0.2c0,0.1,0.1,0.1,0.1,0.2    c0,0.1,0.1,0.1,0.2,0.1s0.1,0.1,0.2,0.1s0.1,0.1,0.2,0.1s0.1,0.1,0.2,0.2c0,0.1,0.1,0.1,0.1,0.2c0,0.1,0,0.1,0,0.2    c0,0.1,0,0.2,0,0.3s-0.1,0.1-0.1,0.2c0,0.1-0.1,0.1-0.1,0.1c-0.1,0-0.1,0.1-0.2,0.1s-0.1,0-0.2,0s-0.1,0-0.1,0c-0.1,0-0.1,0-0.1,0    h-0.1h-0.1h-0.1l0,0l0,0l0,0l0.1-0.1c0-0.1,0-0.1,0-0.2c0-0.1,0-0.2,0-0.3l0,0c0,0.1,0,0.1,0.1,0.2c0,0.1,0.1,0.1,0.2,0.2    c0.1,0.1,0.1,0.1,0.2,0.1s0.2,0,0.2,0h0.1h0.1l0.1-0.1c0,0,0-0.1,0-0.2c0-0.1,0-0.1,0-0.2c0-0.1-0.1-0.1-0.1-0.2    c-0.1,0-0.1-0.1-0.2-0.1s-0.1-0.1-0.2-0.1s-0.1-0.1-0.2-0.1s-0.1-0.1-0.2-0.2c-0.1-0.1-0.1-0.1-0.1-0.2    C29.5,43.5,29.5,43.4,29.5,43.3z"/>
		<path class="st0" d="M34.7,45.2L34.7,45.2c-0.1,0-0.1,0-0.2,0h-0.1h-0.1h-0.1h-0.1l0,0h0.1c0-0.2,0-0.4,0-0.6c0-0.2,0-0.4,0-0.6    c0-0.2,0-0.5,0-0.8c0,0.1,0,0.2-0.1,0.3c0,0.1-0.1,0.3-0.1,0.5s-0.1,0.4-0.2,0.6c-0.1,0.2-0.1,0.4-0.2,0.6c0-0.1-0.1-0.1-0.1-0.2    c0-0.1-0.1-0.2-0.1-0.3s-0.1-0.2-0.1-0.4c0-0.1-0.1-0.2-0.1-0.4c0-0.1-0.1-0.2-0.1-0.4c0-0.1-0.1-0.2-0.1-0.3c0,0.1,0,0.2,0,0.3    s0,0.2,0,0.3s0,0.2,0,0.3s0,0.2,0,0.3c0,0.2,0,0.5,0,0.7h0.2l0,0h-0.1H33h-0.1h-0.1h-0.1h-0.1l0,0h0.1c0-0.1,0-0.2,0.1-0.4    c0-0.1,0-0.2,0-0.3s0-0.2,0-0.4c0-0.1,0-0.3,0-0.5s0-0.4,0-0.6c0-0.1-0.1-0.2-0.1-0.3s0-0.1-0.1-0.1h-0.1l0,0l0,0c0,0,0,0,0.1,0    c0,0,0,0,0.1,0c0,0,0,0,0.1,0h0.1H33h0.1c0,0.1,0,0.2,0,0.3s0,0.2,0.1,0.3c0,0.1,0.1,0.2,0.1,0.3s0.1,0.2,0.1,0.3    c0.1,0.3,0.1,0.5,0.2,0.8c0-0.2,0.1-0.4,0.2-0.6c0-0.2,0.1-0.4,0.2-0.6c0.1-0.2,0.1-0.4,0.2-0.7v-0.1v-0.1l0,0c0,0,0,0,0.1,0h0.1    h0.1h0.1h0.1l0,0h-0.1c0,0.1,0,0.2,0,0.3s0,0.2,0,0.4c0,0.1,0,0.3,0,0.4s0,0.3,0,0.4c0,0.3,0,0.6,0.1,1L34.7,45.2L34.7,45.2z"/>
		<path class="st0" d="M35.3,43.7c0-0.1,0-0.3,0-0.4c0-0.1,0-0.2,0-0.3s0-0.2-0.1-0.3H35l0,0h0.1c0,0,0.1,0,0.2,0c0.1,0,0.2,0,0.3,0    s0.2,0,0.3,0s0.2,0,0.3,0c0,0.1-0.1,0.1-0.1,0.2c0,0.1,0,0.2,0,0.2c0-0.1,0-0.1-0.1-0.2c0-0.1-0.1-0.1-0.1-0.1    c-0.1,0-0.1-0.1-0.2-0.1c-0.1,0-0.1,0-0.2,0c0,0.1,0,0.2,0,0.3s0,0.2,0,0.3s0,0.2,0,0.4c0.1,0,0.1,0,0.2,0c0.1,0,0.1,0,0.2,0    c0.1,0,0.1,0,0.2-0.1c0,0.1,0,0.1,0,0.2c0,0.1,0,0.1,0,0.1V44l0,0c0-0.1,0-0.1-0.1-0.1l-0.1-0.1c-0.1,0-0.1,0-0.2,0    c-0.1,0-0.1,0-0.2,0c0,0.1,0,0.1,0,0.2c0,0.1,0,0.1,0,0.2c0,0.1,0,0.1,0,0.2c0,0.1,0,0.1,0,0.2c0,0.1,0,0.3,0,0.4    c0.1,0,0.3,0,0.4,0H36h0.1h0.1c0,0,0,0,0.1-0.1l0,0c0,0.1,0,0.1-0.1,0.1v0.1v0.1c-0.2,0-0.3,0-0.4,0c-0.1,0-0.3,0-0.4,0    c-0.1,0-0.1,0-0.1,0h-0.1h-0.1l0,0h0.1c0-0.2,0-0.4,0-0.5s0-0.1,0-0.2c0-0.1,0-0.2,0-0.2c0-0.1,0-0.1,0-0.2    C35.3,43.8,35.3,43.8,35.3,43.7z"/>
		<path class="st0" d="M36.8,43.6c0-0.1,0-0.2,0-0.3s0-0.2,0-0.3s0-0.2,0-0.2c0-0.1,0-0.1,0-0.1h-0.1l0,0h0.1h0.1H37h0.1h0.1h0.1    h0.1c0.1,0,0.3,0,0.4,0.1c0.1,0.1,0.2,0.1,0.3,0.2c0.1,0.1,0.2,0.2,0.2,0.4c0.1,0.1,0.1,0.3,0.1,0.5s0,0.3,0,0.5    c0,0.1-0.1,0.2-0.1,0.3c-0.1,0.1-0.1,0.2-0.2,0.2C38,45,37.9,45,37.8,45.1c-0.1,0-0.1,0.1-0.2,0.1c-0.1,0-0.1,0-0.2,0    c-0.1,0-0.2,0-0.3,0s-0.2,0-0.2,0h-0.1h-0.1h-0.1l0,0h0.1c0-0.1,0-0.2,0-0.4c0-0.1,0-0.3,0-0.5C36.8,44.1,36.8,43.9,36.8,43.6z     M37.4,45.1c0.1,0,0.1,0,0.2-0.1c0.1,0,0.1-0.1,0.2-0.2c0-0.1,0.1-0.1,0.1-0.2c0-0.1,0.1-0.2,0.1-0.3s0-0.2,0-0.3s0-0.2,0-0.3    s0-0.3-0.1-0.4c0-0.1-0.1-0.3-0.2-0.4c-0.1-0.1-0.1-0.2-0.2-0.3c-0.1-0.1-0.2-0.1-0.3-0.1h-0.1H37c0,0.1,0,0.1,0,0.2    c0,0.1,0,0.1,0,0.2c0,0.1,0,0.2,0,0.3s0,0.2,0,0.3s0,0.2,0,0.3s0,0.2,0,0.3s0,0.2,0,0.3s0,0.2,0,0.3    C37.2,45.1,37.3,45.1,37.4,45.1z"/>
		<path class="st0" d="M38.9,43.7c0-0.1,0-0.3,0-0.4c0-0.1,0-0.2,0-0.3s0-0.2,0-0.3h-0.1l0,0h0.1H39h0.1c0.1,0,0.1,0,0.1,0h0.1h0.1    l0,0h-0.1c0,0.1,0,0.2,0,0.3s0,0.2,0,0.3s0,0.2,0,0.4s0,0.3,0,0.5s0,0.3,0,0.5s0,0.3,0,0.5h0.1l0,0h-0.1h-0.1h-0.1    c-0.1,0-0.1,0-0.1,0h-0.1h-0.1l0,0h0.1c0-0.1,0-0.2,0-0.4c0-0.1,0-0.3,0-0.4C38.9,44.1,38.9,43.9,38.9,43.7z"/>
		<path class="st0" d="M39.9,43.7c0-0.1,0-0.3,0-0.4c0-0.1,0-0.2,0-0.3s0-0.2-0.1-0.3h-0.2l0,0h0.1c0,0,0.1,0,0.2,0    c0.1,0,0.2,0,0.3,0s0.2,0,0.3,0s0.2,0,0.3,0c0,0.1-0.1,0.1-0.1,0.2c0,0.1,0,0.2,0,0.2c0-0.1,0-0.1-0.1-0.2c0-0.1-0.1-0.1-0.1-0.1    c-0.1,0-0.1-0.1-0.2-0.1c-0.1,0-0.1,0-0.2,0c0,0.1,0,0.2,0,0.3s0,0.2,0,0.3s0,0.2,0,0.4c0.1,0,0.1,0,0.2,0c0.1,0,0.1,0,0.2,0    c0.1,0,0.1,0,0.2-0.1c0,0.1,0,0.1,0,0.2c0,0.1,0,0.1,0,0.1V44l0,0c0-0.1,0-0.1-0.1-0.1l-0.1-0.1c-0.1,0-0.1,0-0.2,0    c-0.1,0-0.1,0-0.2,0c0,0.1,0,0.1,0,0.2c0,0.1,0,0.1,0,0.2c0,0.1,0,0.1,0,0.2c0,0.1,0,0.1,0,0.2c0,0.1,0,0.3,0,0.4    c0.1,0,0.3,0,0.4,0h0.1h0.1h0.1c0,0,0,0,0.1-0.1l0,0c0,0.1,0,0.1-0.1,0.1v0.1v0.1c-0.2,0-0.3,0-0.4,0c-0.1,0-0.3,0-0.4,0    c-0.1,0-0.1,0-0.1,0h-0.1h-0.1l0,0h0.1c0-0.2,0-0.4,0-0.5s0-0.1,0-0.2c0-0.1,0-0.2,0-0.2c0-0.1,0-0.1,0-0.2    C39.9,43.8,39.9,43.8,39.9,43.7z"/>
		<path class="st0" d="M41.3,42.7L41.3,42.7L41.3,42.7c0.1,0,0.1,0,0.2,0s0.1,0,0.1,0c0.1,0,0.1,0,0.2,0h0.1H42l0,0h-0.1v0.1    c0,0.1,0,0.1,0,0.2c0,0.1,0,0.2,0.1,0.3c0,0.1,0,0.2,0.1,0.3c0,0.1,0.1,0.2,0.1,0.3s0.1,0.2,0.1,0.3s0.1,0.2,0.1,0.3    s0.1,0.2,0.1,0.2c0-0.1,0.1-0.2,0.1-0.3s0.1-0.2,0.1-0.4c0-0.1,0.1-0.3,0.1-0.4c0-0.1,0.1-0.3,0.1-0.4c0-0.1,0-0.2,0-0.3    s0-0.2,0-0.2h-0.1l0,0h0.1H43h0.1h0.1h0.1c0,0,0,0,0.1,0l0,0h-0.1c-0.1,0.4-0.2,0.7-0.3,1.1c0,0.1-0.1,0.3-0.1,0.4    c0,0.1-0.1,0.3-0.1,0.4c0,0.1-0.1,0.2-0.1,0.3s-0.1,0.2-0.1,0.3c0-0.1-0.1-0.1-0.1-0.2c0-0.1-0.1-0.2-0.1-0.3s-0.1-0.3-0.1-0.4    c0-0.1-0.1-0.3-0.1-0.4c0-0.1-0.1-0.3-0.1-0.4c0-0.1-0.1-0.2-0.1-0.3s-0.1-0.2-0.1-0.3s0-0.1-0.1-0.1L41.3,42.7z"/>
		<path class="st0" d="M43.7,42.6L43.7,42.6h0.2H44c0.1,0,0.1,0,0.2,0c0.1,0,0.1,0,0.1,0h0.1l0,0h-0.2c0.1,0.4,0.2,0.9,0.2,1.2    c0,0.2,0.1,0.3,0.1,0.4c0,0.1,0.1,0.3,0.1,0.4c0,0.1,0.1,0.2,0.1,0.3s0.1,0.1,0.1,0.1l0,0l0,0l0,0l0,0h-0.1h-0.1h-0.1    c-0.1,0-0.1,0-0.1,0h-0.1c0,0,0,0-0.1,0l0,0h0.1l-0.2-1h-0.6c0,0,0,0,0,0.1c0,0,0,0.1,0,0.2c0,0.1,0,0.2,0,0.2c0,0.1,0,0.2,0,0.2    c0,0.1,0,0.1,0,0.2c0,0.1,0,0.1,0.1,0.1h0.1l0,0l0,0l0,0h-0.1h-0.1h-0.1h-0.1h-0.1h-0.1l0,0h0.1c0.1-0.5,0.3-0.9,0.4-1.2    c0-0.2,0.1-0.3,0.1-0.4c0-0.1,0.1-0.3,0.1-0.4C43.8,42.9,43.8,42.8,43.7,42.6C43.8,42.6,43.8,42.6,43.7,42.6    C43.8,42.7,43.8,42.7,43.7,42.6C43.7,42.7,43.7,42.7,43.7,42.6C43.7,42.7,43.7,42.7,43.7,42.6L43.7,42.6z M43.7,43.9h0.5l-0.3-1    L43.7,43.9z"/>
		<path class="st0" d="M45.4,43.7c0-0.1,0-0.3,0-0.4c0-0.1,0-0.2,0-0.3s0-0.2,0-0.3h-0.1l0,0h0.1h0.1h0.1c0.1,0,0.1,0,0.1,0h0.1h0.1    l0,0h-0.1c0,0.1,0,0.2,0,0.3s0,0.2,0,0.3s0,0.2,0,0.4s0,0.3,0,0.5s0,0.3,0,0.5s0,0.3,0,0.5h0.1l0,0h-0.1h-0.1h-0.1    c-0.1,0-0.1,0-0.1,0h-0.1h-0.1l0,0h0.1c0-0.1,0-0.2,0-0.4c0-0.1,0-0.3,0-0.4C45.4,44.1,45.4,43.9,45.4,43.7z"/>
		<path class="st0" d="M46.2,43.3c0-0.1,0-0.2,0.1-0.3s0.1-0.2,0.2-0.2c0.1-0.1,0.2-0.1,0.3-0.1s0.2,0,0.2,0c0.1,0,0.1,0,0.1,0h0.1    c0,0,0,0,0.1,0l0,0l0,0c-0.1,0.1-0.1,0.2-0.1,0.3s0,0.2,0,0.3l0,0c0-0.1,0-0.1,0-0.2c0-0.1-0.1-0.1-0.1-0.1s-0.1-0.1-0.2-0.1    c-0.1,0-0.1,0-0.2,0h-0.1c0,0-0.1,0-0.1,0.1l-0.1,0.1v0.1c0,0.1,0,0.1,0,0.2c0,0.1,0.1,0.1,0.1,0.2c0,0.1,0.1,0.1,0.2,0.1    c0.1,0,0.1,0.1,0.2,0.1c0.1,0,0.1,0.1,0.2,0.1c0.1,0,0.1,0.1,0.2,0.2c0,0.1,0.1,0.1,0.1,0.2c0,0.1,0,0.1,0,0.2c0,0.1,0,0.2,0,0.3    s-0.1,0.1-0.1,0.2c0,0.1-0.1,0.1-0.1,0.1c-0.1,0-0.1,0.1-0.2,0.1c-0.1,0-0.1,0-0.2,0c-0.1,0-0.1,0-0.1,0c-0.1,0-0.1,0-0.1,0h-0.1    h-0.1h-0.1l0,0l0,0l0,0l0.1-0.1c0-0.1,0-0.1,0-0.2c0-0.1,0-0.2,0-0.3l0,0c0,0.1,0,0.1,0.1,0.2c0,0.1,0.1,0.1,0.2,0.2    c0.1,0.1,0.1,0.1,0.2,0.1c0.1,0,0.2,0,0.2,0h0.1h0.1l0.1-0.1c0,0,0-0.1,0-0.2c0-0.1,0-0.1,0-0.2c0-0.1-0.1-0.1-0.1-0.2    c-0.1,0-0.1-0.1-0.2-0.1c-0.1,0-0.1-0.1-0.2-0.1c-0.1,0-0.1-0.1-0.2-0.1c-0.1,0-0.1-0.1-0.2-0.2c-0.1-0.1-0.1-0.1-0.1-0.2    C46.2,43.5,46.2,43.4,46.2,43.3z"/>
	</g>
	<g>
		<path class="st0" d="M29.8,48.1c0-0.1,0-0.3,0-0.4c0-0.1,0-0.2,0-0.3s0-0.2,0-0.3h-0.2l0,0h0.1c0.1,0,0.2,0,0.4,0    c0.1,0,0.2,0,0.3,0c0.1,0,0.2,0,0.3,0c0,0.1,0,0.1-0.1,0.2c0,0.1,0,0.2,0,0.2c0-0.1,0-0.1-0.1-0.2l-0.1-0.1    c-0.1,0-0.1-0.1-0.2-0.1s-0.1,0-0.2,0c0,0.1,0,0.2,0,0.3s0,0.2,0,0.3s0,0.2,0,0.4c0.1,0,0.1,0,0.2,0s0.1,0,0.2,0s0.1,0,0.2-0.1    c0,0.1,0,0.1,0,0.2v0.1v0.1l0,0c0,0,0-0.1-0.1-0.1l-0.1-0.1c-0.1,0-0.1,0-0.2,0s-0.1,0-0.2,0c0,0,0,0.1,0,0.2c0,0.1,0,0.1,0,0.2    c0,0.1,0,0.1,0,0.2c0,0.1,0,0.1,0,0.2c0,0.2,0,0.3,0,0.5h0.2l0,0h-0.1H30h-0.1h-0.1h-0.1h-0.1l0,0h0.1c0-0.2,0-0.3,0-0.5    c0-0.1,0-0.1,0-0.2c0-0.1,0-0.1,0-0.2c0-0.1,0-0.1,0-0.2C29.8,48.2,29.8,48.1,29.8,48.1z"/>
		<path class="st0" d="M31.4,48.3c0-0.2,0-0.4,0.1-0.5c0-0.2,0.1-0.3,0.2-0.4c0.1-0.1,0.2-0.2,0.3-0.2c0.1-0.1,0.2-0.1,0.3-0.1h0.2    h0.1l0,0l0,0v0.1v0.1v0.1v0.1l0,0v-0.1c0,0,0-0.1-0.1-0.1l-0.1-0.1c-0.1,0-0.1,0-0.2,0c-0.1,0-0.2,0.1-0.3,0.2    c-0.1,0.2-0.1,0.4-0.1,0.7c0,0.1,0,0.2,0,0.3s0,0.2,0,0.3s0,0.2,0.1,0.3c0,0.1,0.1,0.2,0.1,0.2c0,0.1,0.1,0.1,0.2,0.1    c0.1,0,0.1,0.1,0.2,0.1c0.1,0,0.1,0,0.1,0s0.1,0,0.1-0.1c0,0,0-0.1,0.1-0.1l0,0c0,0.1-0.1,0.1-0.1,0.1s-0.1,0.1-0.2,0.1    c-0.1,0-0.1,0-0.2,0h-0.1c-0.1,0-0.1,0-0.2-0.1l-0.1-0.1c0-0.1-0.1-0.1-0.1-0.2s-0.1-0.2-0.1-0.3C31.4,48.6,31.4,48.5,31.4,48.3z"/>
		<path class="st0" d="M33.3,47.7c0-0.1,0-0.2,0.1-0.3c0-0.1,0.1-0.1,0.2-0.2c0.1,0,0.2-0.1,0.2-0.1c0.1,0,0.2,0,0.2,0    c0.1,0,0.1,0,0.1,0h0.1c0,0,0,0,0.1,0l0,0l0,0c-0.1,0.1-0.1,0.2-0.1,0.3s0,0.2,0,0.3l0,0c0-0.1,0-0.1,0-0.2l-0.1-0.1    c0,0-0.1-0.1-0.2-0.1c-0.1,0-0.1,0-0.2,0c0,0,0,0-0.1,0h-0.1l-0.1,0.1v0.1c0,0.1,0,0.1,0,0.2c0,0.1,0.1,0.1,0.1,0.2    c0,0,0.1,0.1,0.2,0.1c0.1,0,0.1,0.1,0.2,0.1c0.1,0,0.1,0.1,0.2,0.1c0.1,0,0.1,0.1,0.2,0.1c0,0.1,0.1,0.1,0.1,0.2    c0,0.1,0,0.1,0,0.2c0,0.1,0,0.2,0,0.2c0,0.1-0.1,0.1-0.1,0.2l-0.1,0.1c-0.1,0-0.1,0.1-0.2,0.1c-0.1,0-0.1,0-0.2,0    c-0.1,0-0.1,0-0.1,0h-0.1h-0.1h-0.1c0,0,0,0-0.1,0l0,0l0,0l0,0l0.1-0.1c0,0,0-0.1,0-0.2c0-0.1,0-0.2,0-0.3l0,0    c0,0.1,0,0.1,0.1,0.2c0,0.1,0.1,0.1,0.1,0.2c0.1,0,0.1,0.1,0.2,0.1c0.1,0,0.1,0,0.2,0h0.1h0.1l0.1-0.1c0,0,0-0.1,0-0.2    c0-0.1,0-0.1,0-0.2c0-0.1-0.1-0.1-0.1-0.2c0,0-0.1-0.1-0.2-0.1c-0.1,0-0.1-0.1-0.2-0.1c-0.1,0-0.1-0.1-0.2-0.1    c-0.1,0-0.1-0.1-0.2-0.1c0-0.1-0.1-0.1-0.1-0.2C33.3,47.9,33.3,47.8,33.3,47.7z"/>
		<path class="st0" d="M35.4,48.2c0-0.1,0-0.2,0-0.4c0-0.1,0-0.2,0-0.3s0-0.2,0-0.3h-0.1l0,0c0,0,0,0,0.1,0c0,0,0,0,0.1,0h0.1    c0.1,0,0.1,0,0.1,0h0.1h0.1l0,0h-0.1c0,0,0,0.1,0,0.2c0,0.1,0,0.2,0,0.3s0,0.3,0,0.5h0.8c0-0.2,0-0.3,0-0.4c0-0.1,0-0.2,0-0.3    s0-0.2,0-0.2h-0.1l0,0h0.1h0.1h0.1h0.1H37h0.1l0,0h-0.2c0,0.1,0,0.2,0,0.3s0,0.2,0,0.3s0,0.3,0,0.4c0,0.2,0,0.4,0,0.6    c0,0.2,0,0.3,0,0.4c0,0.1,0,0.2,0,0.3H37l0,0c0,0,0,0-0.1,0h-0.1h-0.1h-0.1h-0.1h-0.1l0,0h0.1c0-0.1,0-0.2,0-0.3s0-0.2,0-0.4    c0-0.1,0-0.3,0-0.5h-0.8c0,0.2,0,0.3,0,0.5c0,0.1,0,0.3,0,0.4c0,0.1,0,0.2,0,0.3h0.2l0,0h-0.1h-0.1h-0.1h-0.1h-0.1h-0.1l0,0h0.1    c0-0.1,0-0.2,0-0.3s0-0.2,0-0.4C35.4,48.5,35.4,48.3,35.4,48.2z"/>
	</g>
	<g>
		<path class="st0" d="M20,47.1c0,0.1,0,0.1,0,0.2c0,0.1,0,0.2,0,0.3s0,0.2,0,0.4c0,0.1,0,0.3,0,0.4c0,0.3,0,0.6,0,0.9    c-0.1-0.2-0.2-0.3-0.4-0.5c-0.1-0.2-0.2-0.3-0.3-0.5c-0.1-0.2-0.2-0.3-0.3-0.5s-0.2-0.3-0.2-0.4c0,0.1,0,0.2,0,0.3s0,0.3,0,0.4    c0,0.1,0,0.3,0,0.4c0,0.1,0,0.2,0,0.3s0,0.2,0,0.3s0,0.1,0,0.1H19l0,0h-0.1h-0.1h-0.1c-0.1,0-0.1,0-0.1,0h-0.1h-0.1l0,0h0.1    c0,0,0-0.1,0-0.2c0-0.1,0-0.2,0-0.3s0-0.2,0-0.4c0-0.1,0-0.3,0-0.4c0-0.1,0-0.3,0-0.4c0-0.1,0-0.2,0-0.3c-0.1-0.1-0.1-0.2-0.1-0.2    l-0.1-0.1h-0.1l0,0c0.1,0,0.1,0,0.2,0c0,0,0.1,0,0.2,0s0.1,0,0.1,0c0,0.1,0.1,0.1,0.1,0.2c0,0.1,0.1,0.2,0.1,0.3    c0.1,0.1,0.1,0.2,0.2,0.3s0.1,0.2,0.2,0.3c0.1,0.2,0.3,0.4,0.5,0.7c0-0.3,0-0.5,0-0.7c0-0.1,0-0.2,0-0.3s0-0.2,0-0.3s0-0.2,0-0.2    c0-0.1,0-0.1,0-0.2h-0.2l0,0h0.1h0.1h0.1C19.9,47.1,19.9,47.1,20,47.1C20,47.1,20.1,47.1,20,47.1c0.1,0,0.1,0,0.2,0l0,0H20z"/>
		<path class="st0" d="M20.9,48.3c0-0.2,0-0.3,0.1-0.5c0-0.2,0.1-0.3,0.2-0.4c0.1-0.1,0.2-0.2,0.3-0.3c0.1-0.1,0.2-0.1,0.3-0.1    c0.1,0,0.2,0,0.3,0.1c0.1,0.1,0.2,0.1,0.3,0.2c0.1,0.1,0.1,0.2,0.2,0.4c0,0.1,0.1,0.3,0.1,0.4c0,0.2,0,0.4-0.1,0.5    c0,0.2-0.1,0.3-0.2,0.4c-0.1,0.1-0.2,0.2-0.3,0.2c-0.1,0.1-0.2,0.1-0.3,0.1c-0.1,0-0.2,0-0.3-0.1c-0.1,0-0.2-0.1-0.2-0.1    c-0.1-0.1-0.1-0.1-0.1-0.2c0-0.1-0.1-0.2-0.1-0.2c0-0.1,0-0.2,0-0.3C20.9,48.5,20.9,48.4,20.9,48.3z M21.7,49.4    c0.1,0,0.2,0,0.2-0.1c0.1-0.1,0.1-0.1,0.1-0.2c0-0.1,0.1-0.2,0.1-0.4c0-0.1,0-0.3,0-0.4c0-0.1,0-0.1,0-0.2c0-0.1,0-0.2,0-0.2    c0-0.1,0-0.2-0.1-0.2c0-0.1-0.1-0.2-0.1-0.2c0-0.1-0.1-0.1-0.1-0.2c-0.1,0-0.1-0.1-0.2-0.1s-0.1,0-0.2,0.1s-0.1,0.1-0.1,0.3    c0,0.1-0.1,0.2-0.1,0.4c0,0.1,0,0.3,0,0.4c0,0.1,0,0.1,0,0.2c0,0.1,0,0.2,0,0.2c0,0.1,0,0.2,0.1,0.2c0,0.1,0.1,0.2,0.1,0.2    c0,0.1,0.1,0.1,0.1,0.2C21.6,49.4,21.7,49.4,21.7,49.4z"/>
		<path class="st0" d="M23.2,47.1L23.2,47.1C23.2,47.1,23.3,47.1,23.2,47.1c0.1,0,0.1,0,0.2,0h0.1c0.1,0,0.1,0,0.1,0h0.1h0.1l0,0    h-0.1v0.1c0,0.1,0,0.1,0,0.2c0,0.1,0,0.2,0.1,0.3c0,0.1,0,0.2,0.1,0.3c0,0.1,0.1,0.2,0.1,0.3s0.1,0.2,0.1,0.3s0.1,0.2,0.1,0.3    s0,0.1,0.1,0.2c0-0.1,0.1-0.2,0.1-0.3s0.1-0.2,0.1-0.4c0-0.1,0.1-0.3,0.1-0.4c0-0.1,0-0.3,0.1-0.4c0-0.1,0-0.2,0-0.3s0-0.2,0-0.2    h-0.1l0,0c0,0,0,0,0.1,0h0.1h0.1H25h0.1c0,0,0,0,0.1,0l0,0h-0.1c-0.1,0.4-0.2,0.7-0.3,1c0,0.1-0.1,0.3-0.1,0.4    c0,0.1-0.1,0.3-0.1,0.4c0,0.1-0.1,0.2-0.1,0.3s-0.1,0.2-0.1,0.2c0-0.1-0.1-0.1-0.1-0.2c0-0.1-0.1-0.2-0.1-0.3s-0.1-0.2-0.1-0.4    c0-0.1-0.1-0.3-0.1-0.4c0-0.1-0.1-0.3-0.1-0.4c0-0.1-0.1-0.2-0.1-0.3s-0.1-0.2-0.1-0.2S23.3,47.1,23.2,47.1L23.2,47.1z"/>
		<path class="st0" d="M25.8,47.1C25.9,47.1,25.9,47.1,25.8,47.1c0.1,0,0.2,0,0.2,0h0.1c0.1,0,0.1,0,0.1,0h0.1h0.1l0,0h-0.2    c0.1,0.4,0.1,0.8,0.2,1.1c0,0.1,0.1,0.3,0.1,0.4c0,0.1,0.1,0.3,0.1,0.4c0,0.1,0.1,0.2,0.1,0.3s0.1,0.1,0.1,0.1l0,0l0,0l0,0l0,0    h-0.1h-0.1h-0.1h-0.1h-0.1c0,0,0,0-0.1,0l0,0h0.1l-0.2-1h-0.5c0,0,0,0,0,0.1c0,0,0,0.1,0,0.2c0,0.1,0,0.1,0,0.2c0,0.1,0,0.2,0,0.2    c0,0.1,0,0.1,0,0.2c0,0,0,0.1,0.1,0.1h0.1l0,0l0,0l0,0h-0.1h-0.1h-0.1h-0.1h-0.1h-0.1l0,0h0.1c0.1-0.4,0.2-0.8,0.3-1.1    c0-0.1,0.1-0.3,0.1-0.4c0-0.1,0.1-0.3,0.1-0.4C25.8,47.4,25.8,47.3,25.8,47.1C25.8,47.1,25.8,47.1,25.8,47.1    C26,47.1,25.9,47.1,25.8,47.1C25.9,47.1,25.9,47.1,25.8,47.1L25.8,47.1L25.8,47.1z M25.9,48.2h0.5l-0.3-0.9L25.9,48.2z"/>
	</g>
	<path class="st0" d="M39.6,47c0,0.4,0,0.8-0.1,1.2c0,0.2,0,0.7,0,1.3h-0.1c0-0.5,0-1,0-1.5c0-0.2,0-0.5,0-1.1L39.6,47z"/>
	<path class="st0" d="M42.4,48.1c0-0.1,0-0.3,0-0.4c0-0.1,0-0.2,0-0.3s0-0.2,0-0.3h-0.2l0,0h0.1c0.1,0,0.2,0,0.4,0   c0.1,0,0.2,0,0.3,0s0.2,0,0.3,0c0,0.1,0,0.1-0.1,0.2c0,0.1,0,0.2,0,0.2c0-0.1,0-0.1-0.1-0.2L43,47.2c-0.1,0-0.1-0.1-0.2-0.1   c-0.1,0-0.1,0-0.2,0c0,0.1,0,0.2,0,0.3s0,0.2,0,0.3s0,0.2,0,0.4c0.1,0,0.1,0,0.2,0c0.1,0,0.1,0,0.2,0c0.1,0,0.1,0,0.2-0.1   c0,0.1,0,0.1,0,0.2v0.1v0.1l0,0c0,0,0-0.1-0.1-0.1L43,48.2c-0.1,0-0.1,0-0.2,0c-0.1,0-0.1,0-0.2,0c0,0,0,0.1,0,0.2   c0,0.1,0,0.1,0,0.2c0,0.1,0,0.1,0,0.2c0,0.1,0,0.1,0,0.2c0,0.2,0,0.3,0,0.5h0.2l0,0h-0.1h-0.1h-0.1h-0.1h-0.1h-0.1l0,0h0.1   c0-0.2,0-0.3,0-0.5c0-0.1,0-0.1,0-0.2c0-0.1,0-0.1,0-0.2c0-0.1,0-0.1,0-0.2C42.4,48.2,42.4,48.1,42.4,48.1z"/>
	<path class="st0" d="M44,48.3c0-0.2,0-0.4,0.1-0.5c0-0.2,0.1-0.3,0.2-0.4c0.1-0.1,0.2-0.2,0.3-0.2c0.1-0.1,0.2-0.1,0.3-0.1h0.2h0.1   l0,0l0,0v0.1v0.1v0.1v0.1l0,0v-0.1c0,0,0-0.1-0.1-0.1L45,47.2c-0.1,0-0.1,0-0.2,0c-0.1,0-0.2,0.1-0.3,0.2c-0.1,0.2-0.1,0.4-0.1,0.7   c0,0.1,0,0.2,0,0.3s0,0.2,0,0.3s0,0.2,0.1,0.3c0,0.1,0.1,0.2,0.1,0.2c0,0.1,0.1,0.1,0.2,0.1c0.1,0,0.1,0.1,0.2,0.1   c0.1,0,0.1,0,0.1,0s0.1,0,0.1-0.1c0,0,0-0.1,0.1-0.1l0,0c0,0.1-0.1,0.1-0.1,0.1s-0.1,0.1-0.2,0.1s-0.1,0-0.2,0h-0.1   c-0.1,0-0.1,0-0.2-0.1l-0.1-0.1c0-0.1-0.1-0.1-0.1-0.2s-0.1-0.2-0.1-0.3C44,48.6,44,48.5,44,48.3z"/>
	<path class="st0" d="M46.5,48.1c0-0.1,0-0.2,0-0.3s0-0.2,0-0.2c0-0.1,0-0.1,0-0.2c-0.1,0-0.2,0-0.2,0c-0.1,0-0.1,0-0.2,0   c0,0-0.1,0-0.1,0.1l-0.1,0.1l0,0l0.1-0.1c0-0.1,0-0.1,0-0.2c0-0.1,0-0.1,0-0.2l0,0l0,0c0.2,0,0.4,0,0.6,0c0.2,0,0.3,0,0.4,0   c0.1,0,0.2,0,0.2,0c0.1,0,0.1,0,0.1-0.1l0,0c0,0,0,0.1-0.1,0.1v0.1c0,0.1,0,0.1,0,0.2l0,0v-0.1c0,0,0,0-0.1-0.1H47   c-0.1,0-0.1,0-0.3,0c0,0.1,0,0.1,0,0.2c0,0.1,0,0.2,0,0.2c0,0.1,0,0.2,0,0.3c0,0.2,0,0.3,0,0.5s0,0.3,0,0.4c0,0.1,0,0.3,0,0.4h0.2   l0,0h-0.1h-0.1h-0.1c-0.1,0-0.1,0-0.2,0s-0.1,0-0.1,0h-0.1l0,0h0.2c0-0.1,0-0.2,0-0.3s0-0.3,0-0.4C46.5,48.5,46.5,48.3,46.5,48.1z"/>
</g>
</svg>