<?xml version="1.0" encoding="UTF-8" standalone="no"?>
<svg
   id="Layer_1"
   data-name="Layer 1"
   viewBox="0 0 135.11673 397.68757"
   version="1.1"
   sodipodi:docname="logo-capa_5.svg"
   inkscape:export-filename="LOGO-IEM.png"
   inkscape:export-xdpi="250.02"
   inkscape:export-ydpi="250.02"
   width="135.11673"
   height="397.68756"
   inkscape:version="1.4 (e7c3feb, 2024-10-09)"
   xmlns:inkscape="http://www.inkscape.org/namespaces/inkscape"
   xmlns:sodipodi="http://sodipodi.sourceforge.net/DTD/sodipodi-0.dtd"
   xmlns="http://www.w3.org/2000/svg"
   xmlns:svg="http://www.w3.org/2000/svg">
  <defs
     id="defs619" />
  <sodipodi:namedview
     id="namedview617"
     pagecolor="#ffffff"
     bordercolor="#666666"
     borderopacity="1.0"
     inkscape:showpageshadow="2"
     inkscape:pageopacity="0.0"
     inkscape:pagecheckerboard="0"
     inkscape:deskcolor="#d1d1d1"
     showgrid="false"
     inkscape:zoom="2.24"
     inkscape:cx="36.160714"
     inkscape:cy="200.66964"
     inkscape:window-width="1920"
     inkscape:window-height="1011"
     inkscape:window-x="0"
     inkscape:window-y="0"
     inkscape:window-maximized="1"
     inkscape:current-layer="Layer_1" />
  <path
     d="m 82.32673,251.74049 a 4.91,4.91 0 0 0 3.83,4.54 4.74,4.74 0 0 0 5.11,-2.06 c 1.2,-2.05 1.2,-4.47 1.12,-6.77 a 6.84,6.84 0 0 0 -3.57,-6.12 c -4.46,-2.11 -11.46,-1 -13.68,3.8 a 13.15,13.15 0 0 0 -0.87,5.49 26.76,26.76 0 0 0 0.59,6.25 c 1.28,5.3 4.68,10.22 10.28,11.38 -0.14,0 0.17,-2.34 0,-2.37 -4.32,-0.9 -7.44,-4.08 -9.16,-8 a 20.63,20.63 0 0 1 -1.56,-5.77 c -0.06,-0.52 -0.05,-1 -0.12,-1.56 -0.09,-0.72 -0.09,1.73 0,0.78 0,-0.27 0,-0.55 0.06,-0.82 a 10.38,10.38 0 0 1 0.59,-2.52 c 1.73,-4.48 7.09,-5.76 11.4,-5 a 6.76,6.76 0 0 1 5.3,3.51 7.55,7.55 0 0 1 0.6,1.73 5,5 0 0 0 0.13,0.77 c 0.23,0.61 0.22,-2.1 0,-0.32 a 8.18,8.18 0 0 1 -1.17,3.36 4.8,4.8 0 0 1 -5,1.87 4.92,4.92 0 0 1 -3.83,-4.55 c 0.08,0.78 -0.07,1.59 0,2.38 z"
     style="fill:#821917"
     id="path458" />
  <path
     d="m 89.32673,267.03049 a 5.56,5.56 0 0 0 4.52,-4.92 c 0.21,-2 0.26,-4.52 -1,-6.22 -1.58,-2.08 -4.57,-2.33 -6.85,-1.35 a 6.66,6.66 0 0 0 -3.91,5.57 c -0.17,2.15 -0.22,4.63 1.13,6.45 1.68,2.27 4.77,2.83 7.43,2.82 6.35,0 12.28,-2.92 18.56,-3.47 3.15,-0.28 6.39,0.16 8.86,2.28 a 20.81,20.81 0 0 1 2.24,2.46 c 0.48,0.56 1,1.11 1.44,1.66 0.22,0.24 0.52,0.71 0.84,0.84 -0.26,-0.1 0.3,-2.25 0,-2.37 -0.61,-0.25 -1.22,-1.27 -1.63,-1.75 l -1.64,-1.92 a 10,10 0 0 0 -6.21,-3.5 c -5.53,-0.84 -11.19,1.49 -16.52,2.64 -4.29,0.92 -11.39,2 -13.86,-2.84 a 6.09,6.09 0 0 1 -0.53,-1.5 2.78,2.78 0 0 0 -0.1,-0.68 c 0.11,0.1 -0.21,2.28 0,1 0,-0.15 0,-0.3 0.06,-0.45 a 6.94,6.94 0 0 1 1.29,-2.94 6.57,6.57 0 0 1 6.2,-2.41 4.89,4.89 0 0 1 3,1.68 5.24,5.24 0 0 1 0.84,1.47 4.44,4.44 0 0 1 0.21,0.71 c 0.09,0.4 0.14,1.75 0.12,0.19 -0.02,-1.56 0,-0.39 -0.13,0 a 6.29,6.29 0 0 1 -0.22,0.74 5.41,5.41 0 0 1 -0.87,1.53 5.74,5.74 0 0 1 -3.31,1.92 c -0.18,0 0.14,2.34 0,2.37 z"
     style="fill:#821917"
     id="path460" />
  <path
     d="m 132.80673,95.780485 -0.09,0.08 c -17.6,16.150005 -26.07,44.250005 -26.07,44.250005 -3.8,20.19 7.47,17.79 7.47,17.79 9.94,-1.35 -0.52,-18.82 -0.52,-18.82 -1.44,-2.22 0.21,-4.59 0.21,-4.59 l 3.15,-0.12 c 1.8,-0.3 0.52,-11.88 1.42,-11.78 0.69056,0.009 1.37428,-0.13771 2,-0.43 l 1.9,-4.89 c 1.55,-2 2.71,-0.87 2.71,-0.87 0.9,33.71 -4.56,40.71 -4.56,40.71 -9.41,13 -16.17,-0.25 -16.17,-0.25 -8,-25.8 20.89,-54.13 28.46,-61.000005 l 25.09,13.759285 c 0.84,-0.76 -4.85,-26.239999 -4.66,-26.399999 0.44,-4.22 -18.03,4.590714 -18.03,4.590714 0,0 -71.47,36.960005 -23.29,144.160005 0,0 -4.41,2 4.3,17.65 0,0 13.88,39.43 2.56,72.08 0,0 -10.26,7.21 -9.44,10.38 l 7.39,3 c 16.93,-15.32 17.45,-53.86 16.38,-74.44 l -1.17,-2.07 -0.56,-1.34 c -6.85,-13.66 -30.85,-63.53 -24.47,-79.34 0.12,-0.41 4.1,-12.62 11.76,-12.17 0,0 9.18,0.77 7,14.32 0,0 -3.9,30.65 -3.65,36.66 -0.91666,-2.40411 -1.63571,-4.87898 -2.15,-7.4 0,0 -3.44,-3.39 -2.06,-6.77 0,0 -3,-2.47 -2,-5.39 -0.67612,-1.62931 -0.67612,-3.46069 0,-5.09 0,0 -2.84,-4.77 4,-7.54 0,0 4.69,-14.79 -1.23,-14.79 0,0 -6.46,-0.36 -9.65,10.32 0,0 -6.68,7.72 22.36,77.19 1,1.9 1.57,3.09 1.73,3.4 -0.42,-8.11 18.56286,-3.61857 18.56286,-3.61857 -6.75,-54.74 30.04071,-163.782144 0.67428,-158.583578 -0.44,0.43 -18.83714,-3.127857 -19.35714,-2.647857 z"
     style="fill:#821917"
     id="path462"
     sodipodi:nodetypes="ccccccccccccccccccccccccccccccccccccccccc" />
  <path
     d="m 134.48673,94.310485 -0.09,0.07 v 0 z"
     style="fill:#821917"
     id="path464" />
  <path
     d="m 133.06673,260.69049 v -0.09 0 z"
     style="fill:#821917"
     id="path466" />
  <path
     d="m 116.22673,332.52049 c -6.15,11.84 -14.07,22.91 -24.14,31.72 a 68.5,68.5 0 0 1 -15.74,10.71 34.05,34.05 0 0 1 -13.4,2.84 c -9.07,0.26 -20.11,-2 -26,-9.51 a 18.31,18.31 0 0 1 -3,-6.1 25.39,25.39 0 0 1 -0.87,-4.14 c -0.1,-0.77 -0.14,-1.53 -0.2,-2.3 -0.06,-0.77 0,0.21 0,-0.44 0,-0.65 0.06,-1 0.11,-1.49 0.51,-5.43 2.48,-11.06 6.48,-14.9 a 10.84,10.84 0 0 1 6.38,-3.32 12.46,12.46 0 0 1 6,1.28 c 4,1.76 8,4.59 12.59,4.37 a 10.75,10.75 0 0 0 3.49,-0.8 c 0.26,-0.1 -0.23,-2.3 0,-2.37 -2.37,0.72 -3.26,2.5 -3.38,4.86 -0.06,1.11 0,2.22 0,3.33 0,0.25 0,0.49 0,0.74 0,0.25 0,0.37 0,0.56 0,-0.56 0,-0.68 0,-0.38 -0.13,0.64 -0.1,1.3 -0.26,1.94 a 6.63,6.63 0 0 1 -4.44,4.48 c -2.43,0.66 -4,-1 -4.53,-3.21 a 9.19,9.19 0 0 1 0,2 c 0,0.92 0.07,1.85 0.12,2.77 v 0.33 c 0,0.54 0,0.45 0,-0.28 0,0 -0.07,0.88 -0.08,0.94 a 6.07,6.07 0 0 1 -0.5,1.77 c -0.73,1.5 -3,3 -4.69,2.27 -1.55,-0.69 -2.06,-2.83 -2.34,-4.33 -0.08,-0.44 -0.12,-0.87 -0.19,-1.31 -0.11,-0.78 0,-0.23 -0.18,0.26 a 5.11,5.11 0 0 1 -1.4,2.25 5.39,5.39 0 0 1 -4.73,1.53 3.35,3.35 0 0 1 -2,-1.33 c -0.16,-0.24 -0.25,-0.55 -0.42,-0.78 -0.42,-0.59 -0.08,2.69 0,1.5 0.15,-2.48 0.34,-5 0.35,-7.45 0,-0.49 0.29,-2.8 -0.21,-3.23 -0.5,-0.43 -1.26,1.86 -1.4,2.16 -0.25,0.71 0.26,1.69 0,2.38 0.1,-0.27 0.76,-2.52 1.32,-2.2 0.19,0.11 0.17,0.62 0.2,0.8 0.18,1.24 0.06,-1 0,-0.31 0,0.38 0,0.76 -0.05,1.14 -0.07,1.33 -0.18,2.66 -0.25,4 a 14.68,14.68 0 0 0 0,3.44 3.28,3.28 0 0 0 3.12,2.4 5.72,5.72 0 0 0 4.62,-2.3 4.43,4.43 0 0 0 0.68,-1.22 3.28,3.28 0 0 0 0.18,-0.61 c 0,-0.18 0,-0.81 0.1,-0.25 0.21,0.95 0.24,1.92 0.52,2.86 0.43,1.48 1.29,3.29 3.08,3.22 2.65,-0.1 4,-2.6 4.21,-4.93 0.21,-2.33 -0.11,-4.75 -0.13,-7.12 v 2 c 0.55,2.22 2.11,3.88 4.53,3.21 a 6.61,6.61 0 0 0 4.44,-4.48 13.2,13.2 0 0 0 0.3,-3 v -1.71 a 6.55,6.55 0 0 1 0,-1.82 v 0.53 c 0,-0.25 0,-0.49 0,-0.74 a 6.15,6.15 0 0 1 0.1,-0.75 5.08,5.08 0 0 1 0.53,-1.58 4.39,4.39 0 0 1 2.71,-2 v -2.31 c -4.77,1.89 -9.18,-0.18 -13.45,-2.32 -4.27,-2.14 -8.53,-3.83 -12.79,-1 -4.81,3.17 -7.43,8.82 -8.4,14.33 a 34.49,34.49 0 0 0 0.73,15.81 c 3.11,9.83 13.38,14 22.88,15.06 a 41.35,41.35 0 0 0 15.07,-1 c 5.49,-1.47 10.45,-4.74 15,-8.09 11.16,-8.26 20,-19.35 26.87,-31.36 0.85,-1.5 1.68,-3 2.48,-4.56 0.33,-0.63 -0.32,-1.76 0,-2.38 z"
     style="fill:#821917"
     id="path468" />
  <path
     d="m 54.92673,360.16049 c 9.26,4.12 19.58,3 28.23,-2.06 a 128.73,128.73 0 0 0 11,-7.37 64,64 0 0 0 9.39,-8.24 46.44,46.44 0 0 0 8,-12.21 c 0.3,-0.66 -0.3,-1.73 0,-2.38 a 51.48,51.48 0 0 1 -16.13,19.48 c -3.43,2.61 -7,5 -10.67,7.32 a 34.86,34.86 0 0 1 -13.59,5.41 29.2,29.2 0 0 1 -16.23,-2.28 c 0.28,0.13 -0.31,2.24 0,2.38 z"
     style="fill:#821917"
     id="path470" />
  <path
     d="m 75.12673,245.11049 a 6.39,6.39 0 0 1 -2.73,-2 4.53,4.53 0 0 1 -0.63,-1.31 c -0.07,-0.22 -0.09,-0.44 -0.15,-0.66 0,0 0,-0.34 0,-0.34 0,0 -0.16,2.15 0,0.6 a 29.29,29.29 0 0 1 2.03,-6.87 19.69,19.69 0 0 0 1.66,-6.24 c 0.07,-2.32 0.07,-4.67 -1.49,-6.57 a 34.57,34.57 0 0 0 -3.43,-3.08 9.61,9.61 0 0 1 -1.69,-1.91 6,6 0 0 1 -0.59,-1.22 c -0.21,-0.63 -0.24,-2 -0.26,0.27 v 0.33 c 0.07,-0.84 0.35,-1.94 1.29,-2.19 1.17,-0.33 2.15,0.94 2.73,1.76 -0.37,-0.52 0.37,-1.84 0,-2.38 -0.71,-1 -2.23,-2.65 -3.43,-1.3 -0.84,1 -0.61,2.64 -0.6,3.8 0,4 3.45,5.41 5.8,8 a 6.61,6.61 0 0 1 1.26,2.1 c 0.16,0.45 0.16,1 0.35,1.43 0.35,0.76 -0.1,-1 0,-0.87 a 2.43,2.43 0 0 1 -0.09,0.69 22.8,22.8 0 0 1 -1.28,4.27 c -1,2.72 -2.3,5.5 -2.39,8.44 a 13.13,13.13 0 0 0 0.24,4.2 5.65,5.65 0 0 0 3.36,3.4 c -0.28,-0.13 0.31,-2.24 0,-2.38 z"
     style="fill:#821917"
     id="path472" />
  <path
     d="m 71.87673,215.70049 a 4,4 0 0 1 1.91,-3.21 4.84,4.84 0 0 1 3.59,0 15.26,15.26 0 0 1 7.49,5.74 11.37,11.37 0 0 1 1.29,2.31 8.77,8.77 0 0 1 0.35,1.1 6,6 0 0 1 0.12,0.61 c 0,0.08 0,0.16 0,0.24 0.15,1.07 0.1,-2.55 0,-1.44 -0.06,0.79 0.06,1.59 0,2.38 a 11.71,11.71 0 0 0 -0.55,-5.39 13.47,13.47 0 0 0 -3,-4.29 16.16,16.16 0 0 0 -4.35,-3.11 6.77,6.77 0 0 0 -4.18,-0.76 c -1.67,0.38 -2.43,1.89 -2.66,3.47 -0.12,0.78 0.11,1.61 0,2.38 z"
     style="fill:#821917"
     id="path474" />
  <path
     d="m 84.81673,214.90049 c -0.07,-0.93 -0.05,1.45 0,1.29 0.05,-0.16 0,-0.31 0,-0.46 a 3.63,3.63 0 0 1 0.13,-0.57 2.17,2.17 0 0 1 0.47,-0.82 2,2 0 0 1 1.65,-0.48 10,10 0 0 1 4.58,2.25 18.7,18.7 0 0 1 3.75,3.52 15.2,15.2 0 0 1 2.42,6 22,22 0 0 1 0.4,2.27 c 0.05,0.46 0.08,0.91 0.12,1.36 0.04,0.45 -0.25,0.49 0,-0.79 a 7,7 0 0 0 0,0.8 8.57,8.57 0 0 1 -1.2,3.81 c -0.14,0.21 0,0.93 0,1.18 0,0.25 0.15,1 0,1.19 1.56,-2.43 1.39,-5.72 1.24,-8.48 a 20.4,20.4 0 0 0 -2.38,-8.86 14.75,14.75 0 0 0 -4,-4.11 c -1.35,-1.11 -3.35,-2.61 -5.35,-2.53 a 1.84,1.84 0 0 0 -1.75,1.44 13.36,13.36 0 0 0 -0.12,4.28 c 0,-0.56 0.05,-1.57 0,-2.29 z"
     style="fill:#821917"
     id="path476" />
  <path
     d="m 98.05673,224.63049 c 1.14,-1.77 2.82,-2.92 4.65,-1.33 1.66,1.44 2.63,3.76 3.33,5.78 2.22,6.44 0.44,13.82 -2.44,20 -0.31,0.66 0.3,1.74 0,2.38 a 35.38,35.38 0 0 0 3.35,-12.59 38.15,38.15 0 0 0 -0.36,-10.24 16.86,16.86 0 0 0 -3.1,-6.85 3.83,3.83 0 0 0 -2.48,-1.67 c -1.36,-0.09 -2.3,1.13 -3,2.14 -0.37,0.57 0.35,1.83 0,2.38 z"
     style="fill:#821917"
     id="path478" />
  <path
     d="m 106.98673,240.03049 c 1.64,-1.62 4.38,-2.59 6.47,-1.23 a 3.44,3.44 0 0 1 0,-0.35 v -1.68 a 1.33,1.33 0 0 0 0,-0.35 c -2.09,-1.35 -4.83,-0.38 -6.47,1.23 a 1.42,1.42 0 0 0 0,0.35 v 1.68 c 0,0.06 0,0.32 0,0.35 z"
     style="fill:#821917"
     id="path480" />
  <path
     d="m 79.57673,216.11049 a 4.1,4.1 0 0 0 -1.78,2.67 15.63,15.63 0 0 0 0,2.65 c 0.12,2 1.7,3.5 3,4.82 0.77,0.76 1.58,1.48 2.29,2.3 a 7.5,7.5 0 0 1 1.56,3.08 14.15,14.15 0 0 1 0.45,2.15 c 0,0.35 0.07,0.7 0.09,1 v -0.53 c 0.1,0.1 -0.11,0.87 -0.14,1.06 a 10.51,10.51 0 0 1 -1.74,4.15 c -0.38,0.54 0.37,1.86 0,2.38 a 12.47,12.47 0 0 0 2,-7.48 c 0,-2.49 -0.09,-5.54 -1.61,-7.63 -1.27,-1.74 -3.1,-3 -4.45,-4.68 a 7.78,7.78 0 0 1 -0.9,-1.33 c -0.2,-0.39 -0.24,-0.9 -0.44,-1.25 0.84,1.47 -0.3,2 0.08,1.1 a 5.17,5.17 0 0 1 0.28,-0.64 5.55,5.55 0 0 1 1.4,-1.5 c 0.39,-0.32 -0.38,-2.07 0,-2.37 z"
     style="fill:#821917"
     id="path482" />
  <path
     d="m 63.24673,65.690485 a 4.47,4.47 0 0 1 2,-0.72 1.83,1.83 0 0 1 1,0.09 c 0.18,0.11 0.23,0.52 0.28,0.73 0.05,0.21 0.08,0.52 0.11,0.78 0.08,0.57 0,-1.91 0,-1.67 0,0.08 0,0.15 0,0.22 0,0.07 0,0.24 -0.05,0.36 a 4.68,4.68 0 0 1 -0.45,1.25 6.18,6.18 0 0 1 -4.17,2.92 6.77,6.77 0 0 1 -7.73,-3.38 4.73,4.73 0 0 1 -0.52,-1.55 c -0.13,-1 -0.05,1.64 0,1.52 0.05,-0.12 0,-0.28 0,-0.42 a 4.13,4.13 0 0 1 0.19,-0.77 c 0.84,-2.47 3.47,-3.81 5.94,-4 0.07,0 0,-2.37 0,-2.37 -2.47,0.17 -5.1,1.5 -5.94,4 a 5.43,5.43 0 0 0 -0.25,1.7 18.31,18.31 0 0 0 0.05,2.67 5.83,5.83 0 0 0 2,3.47 6.85,6.85 0 0 0 5.94,1.59 6.18,6.18 0 0 0 4.71,-3.35 4.61,4.61 0 0 0 0.29,-1.57 24.37,24.37 0 0 0 0,-3 5.25,5.25 0 0 0 -0.14,-0.87 2,2 0 0 0 -0.15,-0.54 c -0.11,-0.18 -0.25,-0.19 -0.47,-0.22 a 4.1,4.1 0 0 0 -2.65,0.72 4.7,4.7 0 0 0 0,1.19 v 0.84 a 2,2 0 0 1 0,0.34 z"
     style="fill:#821917"
     id="path484" />
  <path
     d="m 54.92673,67.630485 a 3.43,3.43 0 0 0 -3.28,1.48 3.76,3.76 0 0 0 -0.44,1.61 20.49,20.49 0 0 0 0,3.23 9,9 0 0 0 1.3,3.86 6.42,6.42 0 0 0 2.57,2.62 c 1.89,0.92 5,1.64 6.55,-0.31 a 3.86,3.86 0 0 0 0.75,-2.23 25.16,25.16 0 0 0 0,-2.88 4.83,4.83 0 0 0 -0.25,-1.14 2.21,2.21 0 0 0 -1.38,-1.5 c -0.86,-0.21 -1.61,0.52 -2.09,1.14 a 1.41,1.41 0 0 0 0,0.35 v 1.65 a 1.4,1.4 0 0 1 0,0.35 2.54,2.54 0 0 1 1.76,-1.18 1.65,1.65 0 0 1 1.34,0.8 4,4 0 0 1 0.62,1.87 c 0.11,1.06 0.13,-2.76 0,-1.48 a 3.82,3.82 0 0 1 -0.11,0.57 3.42,3.42 0 0 1 -0.42,1 c -1.2,1.81 -3.53,1.67 -5.32,1.13 a 6.24,6.24 0 0 1 -3.13,-1.9 9.25,9.25 0 0 1 -2.22,-5.35 11.18,11.18 0 0 0 0,1.77 2.83,2.83 0 0 1 0,-0.29 4,4 0 0 1 0.09,-0.48 2.86,2.86 0 0 1 0.3,-0.8 3.4,3.4 0 0 1 3.33,-1.51 c 0,0 0,-2.38 0,-2.38 z"
     style="fill:#821917"
     id="path486" />
  <path
     d="m 75.01673,81.310485 c 5.49,4.52 12.06,7 18.92,8.67 6.56,1.55 13.29,2.41 19.75,4.4 a 42.28,42.28 0 0 1 10.53,4.79 c -0.34,-0.22 0.38,-2.13 0,-2.37 -11.7,-7.55 -26.18,-6.8 -38.83,-11.8 a 38.73,38.73 0 0 1 -10.37,-6.07 c 0.38,0.31 -0.4,2 0,2.38 z"
     style="fill:#821917"
     id="path488" />
  <path
     d="m 88.50673,65.110485 c 6,-4.12 9.55,-11.09 10.81,-18.16 a 35.16,35.16 0 0 0 0.1,-9.11 13.85,13.85 0 0 0 -0.14,-1.84 c -0.15,-0.69 0.06,0.54 0,0.48 a 4.74,4.74 0 0 1 0.1,-1.1 9.93,9.93 0 0 1 0.74,-2.51 c 0.34,-0.78 1,-2 2,-1.84 1,0.16 1.22,1.14 1.53,1.88 0.36,0.95 0.4,-1.85 0,-0.9 a 5.74,5.74 0 0 1 -0.26,0.69 2.55,2.55 0 0 1 -1.3,1.1 c -0.3,0.13 0.27,2.26 0,2.38 a 2.63,2.63 0 0 0 1.64,-2.3 12.28,12.28 0 0 0 -0.08,-3.26 c -0.15,-0.75 -0.61,-1.77 -1.46,-1.94 -1.11,-0.22 -1.8,1.17 -2.14,2 -1.28,3.06 -0.85,6.77 -0.57,10 0,0.68 0.09,1.36 0.15,2 0.1,1.18 0,-0.3 0,-0.3 0,0 -0.11,1 -0.12,1.09 -0.14,1 -0.33,2 -0.57,3 a 32.39,32.39 0 0 1 -2,5.82 24.65,24.65 0 0 1 -8.46,10.46 c -0.38,0.26 0.35,2.14 0,2.38 z"
     style="fill:#821917"
     id="path490" />
  <path
     d="m 118.07673,25.330485 c -2.69,1.91 -2.75,5.1 -2.75,8.1 0,0.67 0,1.34 0,2 0,0.26 0,0.54 0,0.8 0,-0.16 0.12,-0.52 0,-0.24 a 10.28,10.28 0 0 0 -0.25,2.12 29.15,29.15 0 0 1 -1.28,5.37 18.26,18.26 0 0 1 -6.7,8.87 53.81,53.81 0 0 1 -9.16,4.61 c -3.57,1.59 -7,3.46 -9.43,6.61 -0.39,0.51 0.37,1.89 0,2.38 4.3,-5.6 11.49,-6.87 17.27,-10.36 a 18.44,18.44 0 0 0 7.39,-8.19 25.59,25.59 0 0 0 2.2,-10 c 0,-3.43 -0.47,-7.35 2.71,-9.6 0.38,-0.27 -0.36,-2.12 0,-2.37 z"
     style="fill:#821917"
     id="path492" />
  <path
     d="m 74.64673,55.620485 c 0,-0.12 0,-0.24 0,-0.36 -0.1,-1 -0.09,2.27 0,1.43 q 0,-0.33 0.09,-0.66 a 6.43,6.43 0 0 1 0.38,-1.2 7.59,7.59 0 0 1 1.4,-2.15 9.44,9.44 0 0 1 4.35,-2.7 7.63,7.63 0 0 0 0,-1.18 9.56,9.56 0 0 1 0,-1.19 9.28,9.28 0 0 0 -5,3.53 6.71,6.71 0 0 0 -1.22,2.74 13.25,13.25 0 0 0 -0.08,2 13.62,13.62 0 0 0 0.08,2.11 7.89,7.89 0 0 1 0,-1.19 7.75,7.75 0 0 0 0,-1.18 z"
     style="fill:#821917"
     id="path494" />
  <path
     d="m 111.50673,31.390485 c -3.66,1.45 -2.75,6.74 -2.94,9.84 a 8.93,8.93 0 0 1 -2.55,5.88 18.28,18.28 0 0 1 -6,3.63 c -0.3,0.13 0.27,2.26 0,2.37 4.21,-1.78 8.17,-4.32 8.55,-9.3 0.24,-3.14 -0.77,-8.52 3,-10 0.28,-0.11 -0.26,-2.27 0,-2.37 z"
     style="fill:#821917"
     id="path496" />
  <path
     d="m 89.53673,58.110485 c 0,-0.08 0,-0.16 0,-0.24 0,-0.08 -0.09,2.08 0,1.63 0,-0.12 0,-0.24 0.09,-0.36 a 2.25,2.25 0 0 1 0.3,-0.6 3.46,3.46 0 0 1 0.94,-0.85 5.63,5.63 0 0 0 2,-1.52 3.27,3.27 0 0 0 0.23,-1.7 7.72,7.72 0 0 0 -0.22,-2.36 6.25,6.25 0 0 0 -2.73,-3 9.07,9.07 0 0 0 -4.5,-1.71 c 0,0 0,2.38 0,2.38 a 8.51,8.51 0 0 1 4,1.33 7.33,7.33 0 0 1 3.07,2.92 3.93,3.93 0 0 1 0.26,0.8 c 0.21,1 0.22,-2.46 0,-1.65 a 3.37,3.37 0 0 1 -0.09,0.34 2.05,2.05 0 0 1 -0.72,0.88 14,14 0 0 0 -2.13,1.53 2.32,2.32 0 0 0 -0.56,1.4 14.16,14.16 0 0 0 0,3.12 c -0.12,-0.77 0.11,-1.6 0,-2.38 z"
     style="fill:#821917"
     id="path498" />
  <path
     d="m 57.64673,61.610485 c 1.51,-2 1.21,-4.94 1.11,-7.32 0,-0.72 -0.09,-1.43 -0.13,-2.15 0,-0.17 0,-0.35 0,-0.53 0,0.26 -0.1,0.57 0.07,0.06 0.11,-0.34 0.15,-0.71 0.28,-1.06 a 7.49,7.49 0 0 1 2.55,-3.16 32,32 0 0 1 3.63,-2.28 c 1.44,-0.84 2.84,-1.74 4.31,-2.52 2.94,-1.56 6.35,-2.62 9.58,-1.27 3.23,1.35 6,4.09 6.65,7.53 -0.14,-0.77 0.14,-1.61 0,-2.38 a 10.56,10.56 0 0 0 -5.58,-7 c -3.11,-1.7 -6.46,-1.27 -9.58,0.21 a 62.11,62.11 0 0 0 -8.2,4.77 c -2.37,1.6 -3.71,3.51 -3.74,6.4 0,1.42 0,2.83 0.1,4.24 0,0.48 0.05,1 0.09,1.44 0.05,0.63 0,-0.7 0,-0.7 -0.13,0.22 -0.06,0.71 -0.11,1 a 5.38,5.38 0 0 1 -1,2.37 c -0.39,0.52 0.37,1.88 0,2.38 z"
     style="fill:#821917"
     id="path500" />
  <path
     d="m 106.58673,30.190485 c 1.14,0.26 1.81,-0.68 2,-1.69 a 4.41,4.41 0 0 0 0.09,-0.73 c 0,-0.79 0,-1.58 0,-2.37 a 2.84,2.84 0 0 0 -0.34,-1.49 3.43,3.43 0 0 0 -2.94,-1.41 3,3 0 0 0 -2.68,1.85 12,12 0 0 0 -0.58,5 c 0,0.09 0,1.19 0,1.19 0,0 0,-1.18 0,-1.19 0,1.14 0,0.24 0,-0.06 a 8.65,8.65 0 0 1 0.09,-0.89 6.22,6.22 0 0 1 0.44,-1.64 3,3 0 0 1 2.32,-1.82 3.74,3.74 0 0 1 2.79,0.8 2.35,2.35 0 0 1 0.87,1.13 2.5,2.5 0 0 1 0,0.29 0.53,0.53 0 0 1 0,0.13 v 0.08 c 0,0.39 0,0.09 0,-0.91 v -1 a 1,1 0 0 1 0,0.17 c 0,0 0,0.09 0,0.13 a 3.1,3.1 0 0 1 -0.08,0.42 c -0.23,1 -0.9,1.87 -2,1.61 0,0 0,1.1 0,1.19 a 7.77,7.77 0 0 0 0,1.19 z"
     style="fill:#821917"
     id="path502" />
  <path
     d="m 117.87673,26.840485 a 1.18,1.18 0 0 0 0.77,1.18 1.89,1.89 0 0 0 1.45,-0.16 c 1.2,-0.58 1.45,-2 1.47,-3.23 0,-1.78 0.16,-3.67 -1.22,-5 a 6.28,6.28 0 0 0 -3.9,-1.52 3.32,3.32 0 0 0 -2.24,0.5 3.45,3.45 0 0 0 -1.29,2.32 7.87,7.87 0 0 0 0,1.19 9.31,9.31 0 0 1 0,1.18 3.06,3.06 0 0 1 2.56,-2.78 6.94,6.94 0 0 1 3.87,0.79 4,4 0 0 1 2.09,2.89 4.6,4.6 0 0 1 0.06,0.52 c -0.21,-2.95 0.05,-2.4 0,-1.7 a 2.17,2.17 0 0 1 0,0.25 3.83,3.83 0 0 1 -0.27,1 2.36,2.36 0 0 1 -0.93,1.16 c -0.91,0.55 -2.3,0.48 -2.36,-0.83 0,-0.15 0,0.2 0,0.12 0,0.24 0,0.47 0,0.71 0,0.49 0,1 0,1.46 z"
     style="fill:#821917"
     id="path504" />
  <path
     d="m 111.64673,27.000485 a 1.44,1.44 0 0 0 1.24,0.18 1.37,1.37 0 0 0 0.63,-0.77 3.9,3.9 0 0 0 0.13,-1.3 21.34,21.34 0 0 0 0,-2.77 c -0.26,-2.41 -3.09,-3.56 -5.2,-2.68 a 4.36,4.36 0 0 0 -2.23,2.93 1.39,1.39 0 0 0 0,0.35 v 1.67 a 1.38,1.38 0 0 1 0,0.35 4.83,4.83 0 0 1 1.59,-2.56 3.94,3.94 0 0 1 3.09,-0.55 3.46,3.46 0 0 1 2.49,1.85 3.24,3.24 0 0 1 0.26,1.07 c 0.08,1 0.07,-2.54 0,-1.7 v 0.31 a 3,3 0 0 1 -0.14,0.59 1.36,1.36 0 0 1 -0.65,0.83 1.4,1.4 0 0 1 -1.21,-0.18 6.8,6.8 0 0 1 0,1.19 v 0.84 a 1.33,1.33 0 0 0 0,0.35 z"
     style="fill:#821917"
     id="path506" />
  <path
     d="m 84.38673,66.650485 c 2.09,0.08 8.36,-0.44 8.43,2.85 v -2.21 c -0.17,1.93 -3.08,2.82 -4.59,3.39 -2.26,0.82 -4.51,1.48 -6.72,2.44 -3,1.32 -5.48,2.85 -7.28,5.67 -1.8,2.82 -4.81,2.68 -6.87,0.24 0.38,0.45 -0.4,1.9 0,2.37 a 4.43,4.43 0 0 0 4.12,1.89 c 1.94,-0.38 2.6,-2.16 3.7,-3.54 2.16,-2.73 5.85,-4.25 9.06,-5.39 2.44,-0.87 5.18,-1.36 7.32,-2.9 a 2.62,2.62 0 0 0 1.27,-2.27 c 0,-1 0.22,-2.36 -0.45,-3.22 -1.63,-2.09 -5.66,-1.6 -8,-1.7 0,0 -0.05,2.37 0,2.38 z"
     style="fill:#821917"
     id="path508" />
  <path
     d="m 84.38673,66.650485 c 0.16,-1.26 1.59,-1.92 2.6,-2.41 0.6,-0.29 1.21,-0.56 1.78,-0.89 a 2.55,2.55 0 0 0 1.11,-1 1.24,1.24 0 0 0 0.09,-0.38 20.6,20.6 0 0 0 0,-2.08 2,2 0 0 0 -0.24,-1.07 1.92,1.92 0 0 1 0,0.35 v 1.68 a 1,1 0 0 0 0,0.35 1.77,1.77 0 0 1 0.16,0.34 0.75,0.75 0 0 1 0,0.16 c 0,0 0,0 0,0.08 v 0 c 0,0.75 0,0 0,-2.17 a 1.33,1.33 0 0 1 -0.21,0.54 3.49,3.49 0 0 1 -1.17,0.91 22.36,22.36 0 0 0 -3.27,1.76 2.24,2.24 0 0 0 -0.93,1.43 9.45,9.45 0 0 0 0,1.19 v 0.84 c 0,0.11 0,0.24 0,0.35 z"
     style="fill:#821917"
     id="path510" />
  <path
     d="m 60.05673,82.360485 c -0.19,4 0,7.93 2.35,11.28 2.23,3.19 5.73,5.22 9.32,6.540005 8.58,3.18 18.48,3.42 27.5,2.67 3.8,-0.31 7.61,-0.79 11.43,-0.83 3,0 6.26,0.25 8.65,2.28 -0.38,-0.32 0.4,-2 0,-2.38 -2,-1.71 -4.64,-2.180005 -7.21,-2.270005 a 69.91,69.91 0 0 0 -8.68,0.450005 110.24,110.24 0 0 1 -16,0.55 c -7.42,-0.41 -15.94,-1.500005 -22,-6.250005 a 14.18,14.18 0 0 1 -3.77,-4.36 12.73,12.73 0 0 1 -1.11,-2.77 13.73,13.73 0 0 1 -0.34,-1.67 c 0,-0.23 -0.06,-0.45 -0.09,-0.68 -0.03,-0.23 0,-0.53 -0.05,-0.8 0,0.93 0,1.1 0,0.53 0,-0.72 0,-1.73 0,-2.29 z"
     style="fill:#821917"
     id="path512" />
  <path
     d="m 99.58673,270.31049 a 5.82,5.82 0 0 1 -0.69,-1.08 c -0.08,-0.18 -0.12,-0.39 -0.21,-0.57 -0.32,-0.67 1.72,-0.8 0,1.52 0.39,-0.5 0.39,-0.95 1,-1.34 a 5.65,5.65 0 0 1 4,-0.42 c 4.36,0.95 5.29,5.5 5.51,9.37 0.25,4.37 -0.44,8.8 -0.36,13.19 a 46.15,46.15 0 0 0 3.42,16.52 c 2.54,6.22 6.59,11.83 7,18.73 0,-0.56 0,-1.57 0,-2.29 -0.43,-6.51 -4,-11.8 -6.54,-17.62 a 47.62,47.62 0 0 1 -2.93,-8.93 46.11,46.11 0 0 1 -0.75,-4.66 c -0.09,-0.86 -0.16,-1.72 -0.2,-2.59 0,-0.16 0,-1.9 0,-0.92 0,0.98 0,-0.65 0,-0.79 0.21,-4.72 0.71,-9.49 0.23,-14.22 -0.22,-2.15 -0.67,-4.75 -2.19,-6.41 a 6.47,6.47 0 0 0 -4.57,-1.92 c -1.37,0 -3.36,0.34 -3.7,1.93 a 6.05,6.05 0 0 0 0.94,4.87 c -0.37,-0.48 0.4,-1.87 0,-2.37 z"
     style="fill:#821917"
     id="path514" />
  <path
     d="m 59.24673,373.11049 a 42.19,42.19 0 0 0 27.3,-6.16 c 7.85,-4.94 14.08,-12.09 19.3,-19.68 a 152.2,152.2 0 0 0 8.22,-13.58 c 0.34,-0.62 -0.33,-1.77 0,-2.38 -8.6,15.8 -20.12,32.93 -38.42,38.15 a 43,43 0 0 1 -16.44,1.26 c 0.06,0 -0.11,2.36 0,2.37 z"
     style="fill:#821917"
     id="path516" />
  <path
     d="m 68.98673,217.43049 c -1.46,-0.5 -3.22,-0.74 -4.55,0.24 a 3.56,3.56 0 0 0 -1.25,3.14 6.93,6.93 0 0 0 0.66,3.87 7.69,7.69 0 0 0 3.88,2.91 13.28,13.28 0 0 1 3.8,2 3.77,3.77 0 0 1 1.12,1.44 4.27,4.27 0 0 0 0.13,0.48 c 0.52,0.88 -0.26,-1.12 0.06,-1 0.32,0.12 -0.38,1.45 -0.44,1.61 -0.68,1.68 -1.8,3.14 -2.5,4.81 a 11.81,11.81 0 0 0 -0.71,4.82 c 0,3.11 1.24,8.52 5.26,8.43 0,0 0,-2.37 0,-2.37 -3.19,0.07 -4.87,-3.85 -5.18,-6.53 -0.15,-1.22 0.22,0.11 0,0.25 0,0 0.12,-0.69 0.12,-0.67 a 8.21,8.21 0 0 1 0.33,-1.1 16.12,16.12 0 0 1 1.11,-2.29 12.51,12.51 0 0 0 2,-4.58 c 0.25,-2.42 0.23,-4.9 -2,-6.3 -2.23,-1.4 -5.47,-1.78 -7,-4.42 a 6.05,6.05 0 0 1 -0.41,-1 c 0,0 -0.13,-0.47 -0.12,-0.47 0.28,0 -0.38,1.89 0.06,0.93 a 3.86,3.86 0 0 1 1,-1.52 c 1.32,-1.13 3.19,-0.9 4.72,-0.37 -0.23,-0.08 0.26,-2.29 0,-2.38 z"
     style="fill:#821917"
     id="path518" />
  <path
     d="m 83.39673,266.83049 c 0,0 0,-2.38 0,-2.38 z"
     style="fill:#821917"
     id="path520" />
  <path
     d="m 72.89673,250.20049 c 0,0 0,-2.38 0,-2.38 z"
     style="fill:#821917"
     id="path522" />
  <path
     d="m 75.58673,56.110485 c 0.24,-1.26 1.81,-1.25 2.81,-1.27 a 11.35,11.35 0 0 0 1.85,-0.11 1.44,1.44 0 0 0 1.15,-0.74 1.67,1.67 0 0 0 0.09,-0.4 22.64,22.64 0 0 0 0,-2.33 3.84,3.84 0 0 0 -0.26,-1.33 1.34,1.34 0 0 1 0,0.35 v 1.68 a 2,2 0 0 0 0,0.35 5.22,5.22 0 0 1 0.18,0.56 c 0,0.09 0,0.17 0.05,0.25 0.05,0.08 0,0.08 0,0.12 a 0.13,0.13 0 0 1 0,0.06 c 0,0.76 0.05,0.06 0,-2.08 a 1.12,1.12 0 0 1 -0.21,0.61 1.74,1.74 0 0 1 -1.21,0.55 21.74,21.74 0 0 0 -3.43,0.28 1.39,1.39 0 0 0 -1,1.07 5.91,5.91 0 0 0 0,1.19 c 0,0.28 0,0.56 0,0.84 a 2,2 0 0 1 0,0.35 z"
     style="fill:#821917"
     id="path524" />
  <path
     d="m 78.76673,43.400485 a 9.79,9.79 0 0 0 -5.31,1 8.24,8.24 0 0 0 -3.32,3.93 1.36,1.36 0 0 0 0,0.35 c 0,0.28 0,0.56 0,0.84 0,0.28 0,0.56 0,0.84 0,0.08 0,0.27 0,0.34 a 8.21,8.21 0 0 1 3.32,-3.92 9.79,9.79 0 0 1 5.31,-1 c 0,0 0.05,-2.38 0,-2.38 z"
     style="fill:#821917"
     id="path526" />
  <path
     d="m 103.81673,279.11049 c -0.16,-0.26 -0.21,-0.57 -0.36,-0.82 0.91,1.56 -0.4,2.28 0.2,1.21 a 2.86,2.86 0 0 1 1.21,-1.05 3.57,3.57 0 0 1 3.33,-0.06 2.41,2.41 0 0 1 0.94,1.37 c 0.23,0.55 -1,1.12 0,-1.26 -0.09,0.22 -0.09,0.5 -0.17,0.73 a 5.89,5.89 0 0 1 -0.92,1.59 c -1.48,2 -3.3,3.54 -4.56,5.69 -2.21,3.77 -2.3,8.31 -2,12.55 a 22,22 0 0 0 5.34,12.43 c 3.81,4.53 8.52,8.14 10.88,13.74 -0.28,-0.67 0.29,-1.7 0,-2.38 -2.23,-5.3 -6.55,-8.84 -10.28,-13 a 22.36,22.36 0 0 1 -6,-13.44 c 0,-0.25 0,-0.5 0,-0.74 0,1 0,-0.31 0,-0.43 a 15.06,15.06 0 0 1 0.36,-2.3 14.41,14.41 0 0 1 1.43,-3.69 c 1.27,-2.3 3.18,-3.94 4.74,-6 1.2,-1.59 1.21,-3.23 1.13,-5.14 a 2.27,2.27 0 0 0 -2.1,-2.4 3.56,3.56 0 0 0 -3.51,1.6 5.35,5.35 0 0 0 -0.17,2.22 3.33,3.33 0 0 0 0.4,2 c -0.35,-0.56 0.37,-1.81 0,-2.38 z"
     style="fill:#821917"
     id="path528" />
  <path
     d="m 115.10673,33.560485 a 5,5 0 0 1 3.05,-1.87 2.56,2.56 0 0 1 2.49,1.26 4.92,4.92 0 0 1 0.64,1.75 v 0.24 c 0,0.53 0,-0.83 0,-0.29 0,0.11 0,0.23 0,0.35 a 4.24,4.24 0 0 1 -0.25,0.86 4.06,4.06 0 0 1 -1.91,2.25 1.19,1.19 0 0 1 -1.1,0 1.84,1.84 0 0 1 -0.66,-1.37 c 0,0.3 0,0.63 0,0.94 a 1.91,1.91 0 0 0 0.59,1.32 1.06,1.06 0 0 0 1,0.07 4,4 0 0 0 2,-2.32 4.84,4.84 0 0 0 0.29,-1.73 6.31,6.31 0 0 0 -0.27,-2.11 2.93,2.93 0 0 0 -2.27,-2.15 c -1.45,-0.18 -2.76,0.84 -3.66,1.87 0,0.06 0,0.39 0,0.47 0,0.08 0.06,0.41 0,0.47 z"
     style="fill:#821917"
     id="path530" />
  <path
     d="m 118.64673,34.780485 c -2.3,0.54 -2.27,3.56 -2.28,5.44 0,1.32 0,2.64 0.08,4 0,0.58 0.08,1.17 0.11,1.76 0,0.15 0,1 0,0.39 0,-0.61 0,0 0,0.11 0,0.38 0,0.76 -0.08,1.14 a 10.07,10.07 0 0 1 -5,8 c -3.08,1.82 -6.73,2 -10.2,2.35 -4,0.33 -8,0.85 -11.12,3.51 -0.4,0.34 0.38,2.06 0,2.38 5.72,-4.82 13.59,-2.36 20,-5.21 a 10.13,10.13 0 0 0 6.14,-7.36 31.81,31.81 0 0 0 0.26,-7.86 c 0,-0.69 -0.09,-1.38 -0.13,-2.07 a 2.5,2.5 0 0 0 0,-0.56 c 0.1,0.12 -0.08,1 0,0.34 0.05,-0.42 0.07,-0.84 0.15,-1.26 a 3,3 0 0 1 2.07,-2.77 c 0.2,0 -0.15,-2.33 0,-2.37 z"
     style="fill:#821917"
     id="path532" />
</svg>
