<?xml version="1.0" encoding="iso-8859-1"?>
<!-- Uploaded to: SVG Repo, www.svgrepo.com, Generator: SVG Repo Mixer Tools -->
<svg fill="#000000" height="800px" width="800px" version="1.1" id="Layer_1" xmlns="http://www.w3.org/2000/svg" xmlns:xlink="http://www.w3.org/1999/xlink" 
	 viewBox="0 0 512 512" xml:space="preserve">
<g>
	<g>
		<path d="M430.245,384.094l-1.687-0.753l-52.636-20.821h0c25.07-0.791,48.719-4.801,70.683-12.395
			c3.377-1.187,6.35-2.326,9.069-3.488c23.522-10.12,31.652-39.397,16.979-60.247c-2.564-3.653-14.128-19.498-16.018-22.125
			c-7.504-10.432-13.774-19.572-19.761-28.979c-23.856-37.485-37.952-71.505-39.638-102.242c-0.072-1.315-0.121-2.621-0.146-3.918
			c-0.355-16.536-4.695-39.796-16.94-63.488C359.35,25.389,322.151,0.45,267.714,0c-4.217,0.019-7.811,0.224-11.711,0.619
			c-3.875-0.395-7.438-0.6-11.424-0.619c-54.716,0.45-91.915,25.389-112.716,65.637c-12.245,23.692-16.585,46.952-16.939,63.441
			c-0.026,1.344-0.075,2.65-0.147,3.965C113.091,163.78,98.995,197.8,75.14,235.285c-5.987,9.407-12.257,18.546-19.761,28.979
			c-1.89,2.627-13.454,18.472-16.033,22.147c-14.657,20.829-6.527,50.106,16.945,60.204c2.768,1.183,5.741,2.322,9.014,3.473
			c22.092,7.639,45.791,11.653,70.907,12.435l-52.756,20.817c-32.189,15.99-51.46,47.164-51.46,81.256v26.069
			c0,11.782,9.551,21.333,21.333,21.333h405.333c11.782,0,21.333-9.551,21.333-21.333v-26.069
			C479.997,430.5,460.743,399.329,430.245,384.094z M337.252,347.223c0.058,0.02,0.105,0.031,0.155,0.044
			c0.001,0.006,0.003,0.012,0.004,0.018l0,0L337.252,347.223z M437.33,469.333H74.663v-4.736c0-17.927,10.135-34.322,26.174-42.334
			l89.62-35.364c11.273-5.546,18.437-14.004,23.592-24.389c9.733-19.622-4.667-42.51-26.447-42.51h-42.133
			c-24.049,0-46.188-3.309-66.117-10.199c-1.193-0.42-2.329-0.836-3.392-1.245c3.973-5.521,12.294-16.927,14.056-19.377
			c7.939-11.037,14.643-20.809,21.119-30.985c27.434-43.108,44.076-83.272,46.245-122.813c0.1-1.817,0.167-3.628,0.202-5.433
			c0.048-2.241,0.489-7.024,1.68-13.406c2.008-10.761,5.428-21.491,10.505-31.315c13.811-26.722,36.969-42.248,74.886-42.561
			c2.792,0.015,5.451,0.202,8.859,0.602c1.646,0.193,3.309,0.194,4.955,0.002c3.448-0.402,6.104-0.589,9.174-0.603
			c37.639,0.313,60.796,15.838,74.607,42.561c5.077,9.823,8.497,20.554,10.505,31.315c1.191,6.382,1.632,11.164,1.681,13.452
			c0.034,1.758,0.101,3.569,0.201,5.386c2.169,39.541,18.811,79.705,46.245,122.813c6.476,10.176,13.181,19.948,21.119,30.985
			c1.763,2.452,10.096,13.874,14.056,19.377c-1.075,0.413-2.243,0.841-3.496,1.282C412.734,316.691,390.595,320,366.546,320h-42.133
			c-21.78,0-36.18,22.888-26.45,42.504c5.158,10.391,12.322,18.849,21.901,23.639l92.054,36.499
			c15.6,8.137,25.412,24.296,25.412,41.956V469.333z"/>
	</g>
</g>
</svg>