<?xml version="1.0" encoding="iso-8859-1"?>
<!-- Uploaded to: SVG Repo, www.svgrepo.com, Generator: SVG Repo Mixer Tools -->
<svg fill="#000000" height="800px" width="800px" version="1.1" id="Layer_1" xmlns="http://www.w3.org/2000/svg" xmlns:xlink="http://www.w3.org/1999/xlink" 
	 viewBox="0 0 512 512" xml:space="preserve">
<g>
	<g>
		<path d="M422.957,200.348c0-36.824-29.959-66.783-66.783-66.783c-3.088,0-6.148,0.22-9.169,0.637
			c0.193-1.173,0.39-2.346,0.61-3.518l6.109-32.584c20.698-6.154,35.841-25.343,35.841-48.012C389.565,22.469,367.096,0,339.478,0
			H172.522c-27.618,0-50.087,22.469-50.087,50.087c0,22.669,15.143,41.858,35.841,48.011l6.109,32.584
			c0.22,1.172,0.417,2.345,0.61,3.518c-3.021-0.415-6.082-0.635-9.169-0.635c-36.824,0-66.783,29.959-66.783,66.783
			c0,26.724,15.786,49.821,38.517,60.487c-24.879,29.921-38.517,67.478-38.517,106.469c0,29.018,7.624,57.618,22.048,82.707
			c13.943,24.252,33.955,44.834,57.868,59.52c2.628,1.614,5.652,2.469,8.737,2.469h156.606c3.084,0,6.108-0.855,8.737-2.469
			c23.914-14.685,43.925-35.268,57.868-59.52c14.423-25.089,22.047-53.689,22.047-82.707c0-38.991-13.638-76.548-38.517-106.469
			C407.17,250.169,422.957,227.072,422.957,200.348z M356.174,166.957c18.412,0,33.391,14.979,33.391,33.391
			c0,15.826-11.071,29.107-25.874,32.528c-10.864-19.17-17.207-41.165-18.529-64.03
			C348.675,167.613,352.384,166.957,356.174,166.957z M197.206,124.53l-4.567-24.356h126.722l-4.567,24.356
			c-10.537,56.198,4.661,113.694,40.656,153.804c9.018,10.049,16.372,21.29,21.915,33.319H134.634
			c5.543-12.029,12.897-23.269,21.915-33.319C192.543,238.225,207.743,180.728,197.206,124.53z M155.826,50.087
			c0-9.206,7.49-16.696,16.696-16.696h166.957c9.206,0,16.696,7.49,16.696,16.696s-7.49,16.696-16.696,16.696H172.522
			C163.316,66.783,155.826,59.293,155.826,50.087z M122.435,200.348c0-18.412,14.979-33.391,33.391-33.391
			c3.79,0,7.499,0.657,11.011,1.889c-1.322,22.864-7.664,44.86-18.529,64.03C133.506,229.455,122.435,216.174,122.435,200.348z
			 M329.441,478.609H182.559c-24.804-16.382-42.975-39.828-52.517-66.783H381.96C372.415,438.781,354.245,462.227,329.441,478.609z
			 M387.686,345.043c1.239,7.308,1.879,14.751,1.879,22.261c0,3.74-0.168,7.451-0.472,11.13H122.907
			c-0.304-3.68-0.472-7.391-0.472-11.13c0-7.51,0.64-14.953,1.879-22.261H387.686z"/>
	</g>
</g>
</svg>