<?xml version="1.0" encoding="UTF-8" standalone="no"?>
<svg
   id="Layer_1"
   data-name="Layer 1"
   viewBox="0 0 116.41559 59.539437"
   version="1.1"
   sodipodi:docname="bg-documentacao.svg"
   inkscape:export-filename="LOGO-IEM.png"
   inkscape:export-xdpi="250.02"
   inkscape:export-ydpi="250.02"
   width="116.41559"
   height="59.539436"
   inkscape:version="1.3.1 (9b9bdc1480, 2023-11-25, custom)"
   xmlns:inkscape="http://www.inkscape.org/namespaces/inkscape"
   xmlns:sodipodi="http://sodipodi.sourceforge.net/DTD/sodipodi-0.dtd"
   xmlns="http://www.w3.org/2000/svg"
   xmlns:svg="http://www.w3.org/2000/svg">
  <defs
     id="defs619" />
  <sodipodi:namedview
     id="namedview617"
     pagecolor="#ffffff"
     bordercolor="#666666"
     borderopacity="1.0"
     inkscape:showpageshadow="2"
     inkscape:pageopacity="0.0"
     inkscape:pagecheckerboard="0"
     inkscape:deskcolor="#d1d1d1"
     showgrid="false"
     inkscape:zoom="4.48"
     inkscape:cx="65.625"
     inkscape:cy="26.116071"
     inkscape:window-width="1920"
     inkscape:window-height="1043"
     inkscape:window-x="1920"
     inkscape:window-y="0"
     inkscape:window-maximized="1"
     inkscape:current-layer="Layer_1" />
  <path
     d="m 41.925592,19.188408 a 4.91,4.91 0 0 1 4.54,3.83 4.74,4.74 0 0 1 -2.06,5.11 c -2.05,1.2 -4.47,1.2 -6.77,1.12 a 6.84,6.84 0 0 1 -6.12,-3.57 c -2.11,-4.46 -1,-11.46 3.8,-13.68 a 13.15,13.15 0 0 1 5.49,-0.87 26.76,26.76 0 0 1 6.25,0.59 c 5.3,1.28 10.22,4.68 11.38,10.28 0,-0.14 -2.34,0.17 -2.37,0 -0.9,-4.32 -4.08,-7.44 -8,-9.16 a 20.63,20.63 0 0 0 -5.77,-1.56 c -0.52,-0.06 -1,-0.05 -1.56,-0.12 -0.72,-0.09 1.73,-0.09 0.78,0 -0.27,0 -0.55,0 -0.82,0.06 a 10.38,10.38 0 0 0 -2.52,0.59 c -4.48,1.73 -5.76,7.09 -5,11.4 a 6.76,6.76 0 0 0 3.51,5.3 7.55,7.55 0 0 0 1.73,0.6 5,5 0 0 1 0.77,0.13 c 0.61,0.23 -2.1,0.22 -0.32,0 a 8.18,8.18 0 0 0 3.36,-1.17 4.8,4.8 0 0 0 1.87,-5 4.92,4.92 0 0 0 -4.55,-3.83 c 0.78,0.08 1.59,-0.07 2.38,0 z"
     style="fill:#b3b3b3"
     id="path458" />
  <path
     d="m 57.215592,26.188408 a 5.56,5.56 0 0 1 -4.92,4.52 c -2,0.21 -4.52,0.26 -6.22,-1 -2.08,-1.58 -2.33,-4.57 -1.35,-6.85 a 6.66,6.66 0 0 1 5.57,-3.91 c 2.15,-0.17 4.63,-0.22 6.45,1.13 2.27,1.68 2.83,4.77 2.82,7.43 0,6.35 -2.92,12.28 -3.47,18.56 -0.28,3.15 0.16,6.39 2.28,8.86 a 20.81,20.81 0 0 0 2.46,2.24 c 0.56,0.48 1.11,1 1.66,1.44 0.24,0.22 0.71,0.52 0.84,0.84 -0.1,-0.26 -2.25,0.3 -2.37,0 -0.25,-0.61 -1.27,-1.22 -1.75,-1.63 l -1.92,-1.64 a 10,10 0 0 1 -3.5,-6.21 c -0.84,-5.53 1.49,-11.19 2.64,-16.52 0.92,-4.29 2,-11.39 -2.84,-13.86 a 6.09,6.09 0 0 0 -1.5,-0.53 2.78,2.78 0 0 1 -0.68,-0.1 c 0.1,0.11 2.28,-0.21 1,0 -0.15,0 -0.3,0 -0.45,0.06 a 6.94,6.94 0 0 0 -2.94,1.29 6.57,6.57 0 0 0 -2.41,6.2 4.89,4.89 0 0 0 1.68,3 5.24,5.24 0 0 0 1.47,0.84 4.44,4.44 0 0 0 0.71,0.21 c 0.4,0.09 1.75,0.14 0.19,0.12 -1.56,-0.02 -0.39,0 0,-0.13 a 6.29,6.29 0 0 0 0.74,-0.22 5.41,5.41 0 0 0 1.53,-0.87 5.74,5.74 0 0 0 1.92,-3.31 c 0,-0.18 2.34,0.14 2.37,0 z"
     style="fill:#b3b3b3"
     id="path460" />
  <path
     d="m 50.875592,69.928408 h -0.09 v 0 z"
     style="fill:#b3b3b3"
     id="path466" />
  <path
     d="m 35.295592,11.988408 a 6.39,6.39 0 0 0 -2,-2.73 4.53,4.53 0 0 0 -1.31,-0.63 c -0.22,-0.07 -0.44,-0.09 -0.66,-0.15 0,0 -0.34,0 -0.34,0 0,0 2.15,-0.16 0.6,0 a 29.29,29.29 0 0 0 -6.87,2.03 19.69,19.69 0 0 1 -6.24,1.66 c -2.320001,0.07 -4.670001,0.07 -6.570001,-1.49 a 34.57,34.57 0 0 1 -3.0799998,-3.43 9.61,9.61 0 0 0 -1.91,-1.69 6,6 0 0 0 -1.22,-0.59 c -0.63,-0.21 -2,-0.24 0.27,-0.26 h 0.33 c -0.84,0.07 -1.94,0.35 -2.19,1.29 -0.33,1.17 0.94,2.15 1.76,2.73 -0.52,-0.37 -1.84,0.37 -2.38,0 -1,-0.71 -2.65000004,-2.23 -1.3,-3.43 1,-0.84 2.64,-0.61 3.8,-0.6 4,0 5.4099998,3.45 7.9999998,5.8 a 6.61,6.61 0 0 0 2.1,1.26 c 0.450001,0.16 1.000001,0.16 1.430001,0.35 0.76,0.35 -1,-0.1 -0.87,0 a 2.43,2.43 0 0 0 0.69,-0.09 22.8,22.8 0 0 0 4.27,-1.28 c 2.72,-1 5.5,-2.3 8.44,-2.39 a 13.13,13.13 0 0 1 4.2,0.24 5.65,5.65 0 0 1 3.4,3.36 c -0.13,-0.28 -2.24,0.31 -2.38,0 z"
     style="fill:#b3b3b3"
     id="path472" />
  <path
     d="m 5.8855912,8.738408 a 4,4 0 0 0 -3.21,1.91 4.84,4.84 0 0 0 0,3.59 15.26,15.26 0 0 0 5.74,7.49 11.37,11.37 0 0 0 2.3099998,1.29 8.77,8.77 0 0 0 1.1,0.35 6,6 0 0 0 0.61,0.12 c 0.08,0 0.16,0 0.24,0 1.07,0.15 -2.55,0.1 -1.44,0 0.79,-0.06 1.59,0.06 2.38,0 a 11.71,11.71 0 0 1 -5.3899998,-0.55 13.47,13.47 0 0 1 -4.29,-3 16.16,16.16 0 0 1 -3.11000004,-4.35 6.77,6.77 0 0 1 -0.76,-4.18 c 0.38,-1.67 1.89000004,-2.43 3.47000004,-2.66 0.78,-0.12 1.61,0.11 2.38,0 z"
     style="fill:#b3b3b3"
     id="path474" />
  <path
     d="m 5.0855912,21.678408 c -0.93,-0.07 1.45,-0.05 1.29,0 -0.16,0.05 -0.31,0 -0.46,0 a 3.63,3.63 0 0 0 -0.57,0.13 2.17,2.17 0 0 0 -0.82,0.47 2,2 0 0 0 -0.48,1.65 10,10 0 0 0 2.25,4.58 18.7,18.7 0 0 0 3.52,3.75 15.2,15.2 0 0 0 5.9999998,2.42 22,22 0 0 0 2.270001,0.4 c 0.46,0.05 0.91,0.08 1.36,0.12 0.45,0.04 0.49,-0.25 -0.79,0 a 7,7 0 0 1 0.8,0 8.57,8.57 0 0 0 3.81,-1.2 c 0.21,-0.14 0.93,0 1.18,0 0.25,0 1,0.15 1.19,0 -2.43,1.56 -5.72,1.39 -8.48,1.24 a 20.4,20.4 0 0 1 -8.8600008,-2.38 14.75,14.75 0 0 1 -4.11,-4 c -1.11,-1.35 -2.61,-3.35 -2.53,-5.35 a 1.84,1.84 0 0 1 1.44,-1.75 13.36,13.36 0 0 1 4.28,-0.12 c -0.56,0 -1.57,0.05 -2.29,0 z"
     style="fill:#b3b3b3"
     id="path476" />
  <path
     d="m 14.815591,34.918408 c -1.77,1.14 -2.92,2.82 -1.33,4.65 1.44,1.66 3.760001,2.63 5.780001,3.33 6.44,2.22 13.82,0.44 20,-2.44 0.66,-0.31 1.74,0.3 2.38,0 a 35.38,35.38 0 0 1 -12.59,3.35 38.15,38.15 0 0 1 -10.24,-0.36 16.86,16.86 0 0 1 -6.850001,-3.1 3.83,3.83 0 0 1 -1.67,-2.48 c -0.09,-1.36 1.13,-2.3 2.14,-3 0.57,-0.37 1.83,0.35 2.38,0 z"
     style="fill:#b3b3b3"
     id="path478" />
  <path
     d="m 30.215592,43.848408 c -1.62,1.64 -2.59,4.38 -1.23,6.47 a 3.44,3.44 0 0 0 -0.35,0 h -1.68 a 1.33,1.33 0 0 1 -0.35,0 c -1.35,-2.09 -0.38,-4.83 1.23,-6.47 a 1.42,1.42 0 0 1 0.35,0 h 1.68 c 0.06,0 0.32,0 0.35,0 z"
     style="fill:#b3b3b3"
     id="path480" />
  <path
     d="m 6.2955912,16.438408 a 4.1,4.1 0 0 1 2.67,-1.78 15.63,15.63 0 0 1 2.6499998,0 c 2,0.12 3.5,1.7 4.820001,3 0.76,0.77 1.48,1.58 2.3,2.29 a 7.5,7.5 0 0 0 3.08,1.56 14.15,14.15 0 0 0 2.15,0.45 c 0.35,0 0.7,0.07 1,0.09 h -0.53 c 0.1,0.1 0.87,-0.11 1.06,-0.14 a 10.51,10.51 0 0 0 4.15,-1.74 c 0.54,-0.38 1.86,0.37 2.38,0 a 12.47,12.47 0 0 1 -7.48,2 c -2.49,0 -5.54,-0.09 -7.63,-1.61 -1.740001,-1.27 -3.000001,-3.1 -4.680001,-4.45 a 7.78,7.78 0 0 0 -1.33,-0.9 c -0.39,-0.2 -0.9,-0.24 -1.2499998,-0.44 1.4699998,0.84 1.9999998,-0.3 1.0999998,0.08 a 5.17,5.17 0 0 0 -0.64,0.28 5.55,5.55 0 0 0 -1.4999998,1.4 c -0.32,0.39 -2.07,-0.38 -2.37,0 z"
     style="fill:#b3b3b3"
     id="path482" />
  <path
     d="m 60.495592,36.448408 a 5.82,5.82 0 0 0 -1.08,-0.69 c -0.18,-0.08 -0.39,-0.12 -0.57,-0.21 -0.67,-0.32 -0.8,1.72 1.52,0 -0.5,0.39 -0.95,0.39 -1.34,1 a 5.65,5.65 0 0 0 -0.42,4 c 0.95,4.36 5.5,5.29 9.37,5.51 4.37,0.25 8.8,-0.44 13.19,-0.36 a 46.15,46.15 0 0 1 16.52,3.42 c 6.219998,2.54 11.829998,6.59 18.729998,7 -0.56,0 -1.57,0 -2.29,0 -6.51,-0.43 -11.8,-4 -17.619998,-6.54 a 47.62,47.62 0 0 0 -8.93,-2.93 46.11,46.11 0 0 0 -4.66,-0.75 c -0.86,-0.09 -1.72,-0.16 -2.59,-0.2 -0.16,0 -1.9,0 -0.92,0 0.98,0 -0.65,0 -0.79,0 -4.72,0.21 -9.49,0.71 -14.22,0.23 -2.15,-0.22 -4.75,-0.67 -6.41,-2.19 a 6.47,6.47 0 0 1 -1.92,-4.57 c 0,-1.37 0.34,-3.36 1.93,-3.7 a 6.05,6.05 0 0 1 4.87,0.94 c -0.48,-0.37 -1.87,0.4 -2.37,0 z"
     style="fill:#b3b3b3"
     id="path514" />
  <path
     d="m 7.6155912,5.848408 c -0.5,-1.46 -0.74,-3.22 0.24,-4.55 a 3.56,3.56 0 0 1 3.1399998,-1.25000003 6.93,6.93 0 0 1 3.87,0.66 7.69,7.69 0 0 1 2.910001,3.88000003 13.28,13.28 0 0 0 2,3.8 3.77,3.77 0 0 0 1.44,1.12 4.27,4.27 0 0 1 0.48,0.13 c 0.88,0.52 -1.12,-0.26 -1,0.06 0.12,0.32 1.45,-0.38 1.61,-0.44 1.68,-0.68 3.14,-1.8 4.81,-2.5 a 11.81,11.81 0 0 1 4.82,-0.71 c 3.11,0 8.52,1.24 8.43,5.26 0,0 -2.37,0 -2.37,0 0.07,-3.19 -3.85,-4.87 -6.53,-5.18 -1.22,-0.15 0.11,0.22 0.25,0 0,0 -0.69,0.12 -0.67,0.12 a 8.21,8.21 0 0 0 -1.1,0.33 16.12,16.12 0 0 0 -2.29,1.11 12.51,12.51 0 0 1 -4.58,2 c -2.42,0.25 -4.9,0.23 -6.3,-2 -1.400001,-2.23 -1.780001,-5.47 -4.420001,-7.00000003 a 6.05,6.05 0 0 0 -1,-0.41 c 0,0 -0.47,-0.13 -0.47,-0.12 0,0.28 1.89,-0.38 0.93,0.06 a 3.86,3.86 0 0 0 -1.52,1.00000003 c -1.1299998,1.32 -0.8999998,3.19 -0.3699998,4.72 -0.08,-0.23 -2.29,0.26 -2.38,0 z"
     style="fill:#b3b3b3"
     id="path518" />
  <path
     d="m 57.015592,20.258408 c 0,0 -2.38,0 -2.38,0 z"
     style="fill:#b3b3b3"
     id="path520" />
  <path
     d="m 40.385592,9.758408 c 0,0 -2.38,0 -2.38,0 z"
     style="fill:#b3b3b3"
     id="path522" />
  <path
     d="m 69.295592,40.678408 c -0.26,-0.16 -0.57,-0.21 -0.82,-0.36 1.56,0.91 2.28,-0.4 1.21,0.2 a 2.86,2.86 0 0 0 -1.05,1.21 3.57,3.57 0 0 0 -0.06,3.33 2.41,2.41 0 0 0 1.37,0.94 c 0.55,0.23 1.12,-1 -1.26,0 0.22,-0.09 0.5,-0.09 0.73,-0.17 a 5.89,5.89 0 0 0 1.59,-0.92 c 2,-1.48 3.54,-3.3 5.69,-4.56 3.77,-2.21 8.31,-2.3 12.55,-2 a 22,22 0 0 1 12.429998,5.34 c 4.53,3.81 8.14,8.52 13.74,10.88 -0.67,-0.28 -1.7,0.29 -2.38,0 -5.3,-2.23 -8.84,-6.55 -13,-10.28 a 22.36,22.36 0 0 0 -13.439998,-6 c -0.25,0 -0.5,0 -0.74,0 1,0 -0.31,0 -0.43,0 a 15.06,15.06 0 0 0 -2.3,0.36 14.41,14.41 0 0 0 -3.69,1.43 c -2.3,1.27 -3.94,3.18 -6,4.74 -1.59,1.2 -3.23,1.21 -5.14,1.13 a 2.27,2.27 0 0 1 -2.4,-2.1 3.56,3.56 0 0 1 1.6,-3.51 5.35,5.35 0 0 1 2.22,-0.17 3.33,3.33 0 0 1 2,0.4 c -0.56,-0.35 -1.81,0.37 -2.38,0 z"
     style="fill:#b3b3b3"
     id="path528" />
</svg>
