<?xml version="1.0" encoding="UTF-8" standalone="no"?>
<svg
   id="Layer_1"
   data-name="Layer 1"
   viewBox="0 0 83.717164 52.374616"
   version="1.1"
   sodipodi:docname="logo-capa_2.svg"
   inkscape:export-filename="LOGO-IEM.png"
   inkscape:export-xdpi="250.02"
   inkscape:export-ydpi="250.02"
   width="83.717163"
   height="52.374615"
   inkscape:version="1.4 (e7c3feb, 2024-10-09)"
   xmlns:inkscape="http://www.inkscape.org/namespaces/inkscape"
   xmlns:sodipodi="http://sodipodi.sourceforge.net/DTD/sodipodi-0.dtd"
   xmlns="http://www.w3.org/2000/svg"
   xmlns:svg="http://www.w3.org/2000/svg">
  <defs
     id="defs619" />
  <sodipodi:namedview
     id="namedview617"
     pagecolor="#ffffff"
     bordercolor="#666666"
     borderopacity="1.0"
     inkscape:showpageshadow="2"
     inkscape:pageopacity="0.0"
     inkscape:pagecheckerboard="0"
     inkscape:deskcolor="#d1d1d1"
     showgrid="false"
     inkscape:zoom="1.82"
     inkscape:cx="-85.164835"
     inkscape:cy="-61.813187"
     inkscape:window-width="1920"
     inkscape:window-height="1011"
     inkscape:window-x="0"
     inkscape:window-y="0"
     inkscape:window-maximized="1"
     inkscape:current-layer="Layer_1" />
  <path
     d="m 83.600829,4.62 c -6.15,11.84 -14.07,22.91 -24.14,31.72 a 68.5,68.5 0 0 1 -15.739996,10.71 34.05,34.05 0 0 1 -13.4,2.84 c -9.07,0.26 -20.11,-2 -26,-9.51 a 18.31,18.31 0 0 1 -3,-6.1 25.39,25.39 0 0 1 -0.87000005,-4.14 c -0.1,-0.77 -0.14,-1.53 -0.2,-2.3 -0.06,-0.77 0,0.21 0,-0.44 0,-0.65 0.06,-1 0.11,-1.49 0.51,-5.43 2.48000005,-11.06 6.48000005,-14.9 a 10.84,10.84 0 0 1 6.38,-3.32 12.46,12.46 0 0 1 6,1.28 c 4,1.76 8,4.59 12.59,4.37 a 10.75,10.75 0 0 0 3.49,-0.8 c 0.26,-0.1 -0.23,-2.3 0,-2.37 -2.37,0.72 -3.26,2.5 -3.38,4.86 -0.06,1.11 0,2.22 0,3.33 0,0.25 0,0.49 0,0.74 0,0.25 0,0.37 0,0.56 0,-0.56 0,-0.68 0,-0.38 -0.13,0.64 -0.1,1.3 -0.26,1.94 a 6.63,6.63 0 0 1 -4.44,4.48 c -2.43,0.66 -4,-1 -4.53,-3.21 a 9.19,9.19 0 0 1 0,2 c 0,0.92 0.07,1.85 0.12,2.77 v 0.33 c 0,0.54 0,0.45 0,-0.28 0,0 -0.07,0.88 -0.08,0.94 a 6.07,6.07 0 0 1 -0.5,1.77 c -0.73,1.5 -3,3 -4.69,2.27 -1.55,-0.69 -2.06,-2.83 -2.34,-4.33 -0.08,-0.44 -0.12,-0.87 -0.19,-1.31 -0.11,-0.78 0,-0.23 -0.18,0.26 a 5.11,5.11 0 0 1 -1.4,2.25 5.39,5.39 0 0 1 -4.73,1.53 3.35,3.35 0 0 1 -2,-1.33 c -0.16,-0.24 -0.25,-0.55 -0.42,-0.78 -0.42,-0.59 -0.08,2.69 0,1.5 0.15,-2.48 0.34,-5 0.35,-7.45 0,-0.49 0.29,-2.8 -0.21,-3.23 -0.5,-0.43 -1.26,1.86 -1.4,2.16 -0.25,0.71 0.26,1.69 0,2.38 0.1,-0.27 0.76,-2.52 1.32,-2.2 0.19,0.11 0.17,0.62 0.2,0.8 0.18,1.24 0.06,-1 0,-0.31 0,0.38 0,0.76 -0.05,1.14 -0.07,1.33 -0.18,2.66 -0.25,4 a 14.68,14.68 0 0 0 0,3.44 3.28,3.28 0 0 0 3.12,2.4 5.72,5.72 0 0 0 4.62,-2.3 4.43,4.43 0 0 0 0.68,-1.22 3.28,3.28 0 0 0 0.18,-0.61 c 0,-0.18 0,-0.81 0.1,-0.25 0.21,0.95 0.24,1.92 0.52,2.86 0.43,1.48 1.29,3.29 3.08,3.22 2.65,-0.1 4,-2.6 4.21,-4.93 0.21,-2.33 -0.11,-4.75 -0.13,-7.12 v 2 c 0.55,2.22 2.11,3.88 4.53,3.21 a 6.61,6.61 0 0 0 4.44,-4.48 13.2,13.2 0 0 0 0.3,-3 v -1.71 a 6.55,6.55 0 0 1 0,-1.82 v 0.53 c 0,-0.25 0,-0.49 0,-0.74 a 6.15,6.15 0 0 1 0.1,-0.75 5.08,5.08 0 0 1 0.53,-1.58 4.39,4.39 0 0 1 2.71,-2 v -2.31 c -4.77,1.89 -9.18,-0.18 -13.45,-2.32 -4.27,-2.14 -8.53,-3.83 -12.79,-1 -4.81,3.17 -7.43,8.82 -8.40000005,14.33 A 34.49,34.49 0 0 0 1.320833,37.03 c 3.11,9.83 13.38,14 22.88,15.06 a 41.35,41.35 0 0 0 15.07,-1 c 5.49,-1.47 10.45,-4.74 15,-8.09 11.159996,-8.26 19.999996,-19.35 26.869996,-31.36 0.85,-1.5 1.68,-3 2.48,-4.56 0.33,-0.63 -0.32,-1.76 0,-2.38 z"
     style="fill:#ececec"
     id="path468" />
  <path
     d="m 22.300833,32.26 c 9.26,4.12 19.58,3 28.23,-2.06 a 128.73,128.73 0 0 0 10.999996,-7.37 64,64 0 0 0 9.39,-8.24 46.44,46.44 0 0 0 8,-12.21 c 0.3,-0.66 -0.3,-1.73 0,-2.38 a 51.48,51.48 0 0 1 -16.13,19.48 c -3.43,2.61 -7,5 -10.669996,7.32 a 34.86,34.86 0 0 1 -13.59,5.41 29.2,29.2 0 0 1 -16.23,-2.28 c 0.28,0.13 -0.31,2.24 0,2.38 z"
     style="fill:#ececec"
     id="path470" />
  <path
     d="m 26.620833,45.21 a 42.19,42.19 0 0 0 27.3,-6.16 C 61.770829,34.11 68.000829,26.96 73.220829,19.37 a 152.2,152.2 0 0 0 8.22,-13.58 c 0.34,-0.62 -0.33,-1.77 0,-2.38 -8.6,15.8 -20.12,32.93 -38.419996,38.15 a 43,43 0 0 1 -16.44,1.26 c 0.06,0 -0.11,2.36 0,2.37 z"
     style="fill:#ececec"
     id="path516" />
</svg>
