<?xml version="1.0" encoding="UTF-8" standalone="no"?>
<svg
   id="Layer_1"
   data-name="Layer 1"
   viewBox="0 0 83.345078 86.219453"
   version="1.1"
   sodipodi:docname="logo-capa_1.svg"
   inkscape:export-filename="LOGO-IEM.png"
   inkscape:export-xdpi="250.02"
   inkscape:export-ydpi="250.02"
   width="83.345078"
   height="86.219452"
   inkscape:version="1.4 (e7c3feb, 2024-10-09)"
   xmlns:inkscape="http://www.inkscape.org/namespaces/inkscape"
   xmlns:sodipodi="http://sodipodi.sourceforge.net/DTD/sodipodi-0.dtd"
   xmlns="http://www.w3.org/2000/svg"
   xmlns:svg="http://www.w3.org/2000/svg">
  <defs
     id="defs619" />
  <sodipodi:namedview
     id="namedview617"
     pagecolor="#ffffff"
     bordercolor="#666666"
     borderopacity="1.0"
     inkscape:showpageshadow="2"
     inkscape:pageopacity="0.0"
     inkscape:pagecheckerboard="0"
     inkscape:deskcolor="#d1d1d1"
     showgrid="false"
     inkscape:zoom="1.5877094"
     inkscape:cx="-85.028154"
     inkscape:cy="151.47608"
     inkscape:window-width="1920"
     inkscape:window-height="1011"
     inkscape:window-x="0"
     inkscape:window-y="0"
     inkscape:window-maximized="1"
     inkscape:current-layer="Layer_1" />
  <path
     d="m 83.34508,76.229459 -0.09,0.07 v 0 z"
     style="fill:#ececec"
     id="path464" />
  <path
     d="m 12.105083,47.609461 a 4.47,4.47 0 0 1 2,-0.72 1.83,1.83 0 0 1 1,0.09 c 0.18,0.11 0.23,0.52 0.28,0.73 0.05,0.21 0.08,0.52 0.11,0.78 0.08,0.57 0,-1.91 0,-1.67 0,0.08 0,0.15 0,0.22 0,0.07 0,0.24 -0.05,0.36 a 4.68,4.68 0 0 1 -0.45,1.25 6.18,6.18 0 0 1 -4.17,2.92 6.77,6.77 0 0 1 -7.73,-3.38 4.73,4.73 0 0 1 -0.52,-1.55 c -0.13,-1 -0.05,1.64 0,1.52 0.05,-0.12 0,-0.28 0,-0.42 a 4.13,4.13 0 0 1 0.19,-0.77 c 0.84,-2.47 3.47,-3.81 5.94,-4 0.07,0 0,-2.37 0,-2.37 -2.47,0.17 -5.1,1.5 -5.94,4 a 5.43,5.43 0 0 0 -0.25,1.7 18.31,18.31 0 0 0 0.05,2.67 5.83,5.83 0 0 0 2,3.47 6.85,6.85 0 0 0 5.94,1.59 6.18,6.18 0 0 0 4.71,-3.35 4.61,4.61 0 0 0 0.29,-1.57 24.37,24.37 0 0 0 0,-3 5.25,5.25 0 0 0 -0.14,-0.87 2,2 0 0 0 -0.15,-0.54 c -0.11,-0.18 -0.25,-0.19 -0.47,-0.22 a 4.1,4.1 0 0 0 -2.65,0.72 4.7,4.7 0 0 0 0,1.19 v 0.84 a 2,2 0 0 1 0,0.34 z"
     style="fill:#ececec"
     id="path484" />
  <path
     d="m 3.785083,49.549461 a 3.43,3.43 0 0 0 -3.28,1.48 3.76,3.76 0 0 0 -0.44,1.61 20.49,20.49 0 0 0 0,3.23 9,9 0 0 0 1.3,3.86 6.42,6.42 0 0 0 2.57,2.62 c 1.89,0.92 5,1.64 6.55,-0.31 a 3.86,3.86 0 0 0 0.75,-2.23 25.16,25.16 0 0 0 0,-2.88 4.83,4.83 0 0 0 -0.25,-1.14 2.21,2.21 0 0 0 -1.38,-1.5 c -0.86,-0.21 -1.61,0.52 -2.09,1.14 a 1.41,1.41 0 0 0 0,0.35 v 1.65 a 1.4,1.4 0 0 1 0,0.35 2.54,2.54 0 0 1 1.76,-1.18 1.65,1.65 0 0 1 1.34,0.8 4,4 0 0 1 0.62,1.87 c 0.11,1.06 0.13,-2.76 0,-1.48 a 3.82,3.82 0 0 1 -0.11,0.57 3.42,3.42 0 0 1 -0.42,1 c -1.2,1.81 -3.53,1.67 -5.32,1.13 a 6.24,6.24 0 0 1 -3.13,-1.9 9.25,9.25 0 0 1 -2.22,-5.35 11.18,11.18 0 0 0 0,1.77 2.83,2.83 0 0 1 0,-0.29 4,4 0 0 1 0.09,-0.48 2.86,2.86 0 0 1 0.3,-0.8 3.4,3.4 0 0 1 3.33,-1.51 c 0,0 0,-2.38 0,-2.38 z"
     style="fill:#ececec"
     id="path486" />
  <path
     d="m 23.875083,63.229461 c 5.49,4.519998 12.06,6.999998 18.919996,8.669998 6.56,1.55 13.29,2.41 19.75,4.4 a 42.28,42.28 0 0 1 10.53,4.789995 c -0.34,-0.22 0.38,-2.129996 0,-2.369996 -11.7,-7.549999 -26.18,-6.799999 -38.829996,-11.799999 a 38.73,38.73 0 0 1 -10.37,-6.069998 c 0.38,0.31 -0.4,2 0,2.38 z"
     style="fill:#ececec"
     id="path488" />
  <path
     d="m 37.365079,47.029461 c 6,-4.12 9.55,-11.09 10.81,-18.16 a 35.16,35.16 0 0 0 0.1,-9.11 13.85,13.85 0 0 0 -0.14,-1.84 c -0.15,-0.69 0.06,0.54 0,0.48 a 4.74,4.74 0 0 1 0.1,-1.1 9.93,9.93 0 0 1 0.74,-2.51 c 0.34,-0.78 1,-2 2,-1.84 1,0.16 1.22,1.14 1.53,1.88 0.36,0.95 0.4,-1.85 0,-0.9 a 5.74,5.74 0 0 1 -0.26,0.69 2.55,2.55 0 0 1 -1.3,1.1 c -0.3,0.13 0.27,2.26 0,2.38 a 2.63,2.63 0 0 0 1.64,-2.3 12.28,12.28 0 0 0 -0.08,-3.26 c -0.15,-0.75 -0.61,-1.77 -1.46,-1.94 -1.11,-0.22 -1.8,1.17 -2.14,2 -1.28,3.06 -0.85,6.77 -0.57,10 0,0.68 0.09,1.36 0.15,2 0.1,1.18 0,-0.3 0,-0.3 0,0 -0.11,1 -0.12,1.09 -0.14,1 -0.33,2 -0.57,3 a 32.39,32.39 0 0 1 -2,5.82 24.65,24.65 0 0 1 -8.46,10.46 c -0.379996,0.26 0.35,2.14 0,2.38 z"
     style="fill:#ececec"
     id="path490" />
  <path
     d="m 66.935079,7.249461 c -2.69,1.91 -2.75,5.1 -2.75,8.1 0,0.67 0,1.34 0,2 0,0.26 0,0.54 0,0.8 0,-0.16 0.12,-0.52 0,-0.24 a 10.28,10.28 0 0 0 -0.25,2.12 29.15,29.15 0 0 1 -1.28,5.37 18.26,18.26 0 0 1 -6.7,8.87 53.81,53.81 0 0 1 -9.16,4.61 c -3.57,1.59 -7,3.46 -9.43,6.61 -0.389996,0.51 0.37,1.89 0,2.38 4.3,-5.6 11.49,-6.87 17.27,-10.36 a 18.44,18.44 0 0 0 7.39,-8.19 25.59,25.59 0 0 0 2.2,-10 c 0,-3.43 -0.47,-7.35 2.71,-9.6 0.38,-0.27 -0.36,-2.12 0,-2.37 z"
     style="fill:#ececec"
     id="path492" />
  <path
     d="m 23.505083,37.539461 c 0,-0.12 0,-0.24 0,-0.36 -0.1,-1 -0.09,2.27 0,1.43 q 0,-0.33 0.09,-0.66 a 6.43,6.43 0 0 1 0.38,-1.2 7.59,7.59 0 0 1 1.4,-2.15 9.44,9.44 0 0 1 4.35,-2.7 7.63,7.63 0 0 0 0,-1.18 9.56,9.56 0 0 1 0,-1.19 9.28,9.28 0 0 0 -5,3.53 6.71,6.71 0 0 0 -1.22,2.74 13.25,13.25 0 0 0 -0.08,2 13.62,13.62 0 0 0 0.08,2.11 7.89,7.89 0 0 1 0,-1.19 7.75,7.75 0 0 0 0,-1.18 z"
     style="fill:#ececec"
     id="path494" />
  <path
     d="m 60.365079,13.309461 c -3.66,1.45 -2.75,6.74 -2.94,9.84 a 8.93,8.93 0 0 1 -2.55,5.88 18.28,18.28 0 0 1 -6,3.63 c -0.3,0.13 0.27,2.26 0,2.37 4.21,-1.78 8.17,-4.32 8.55,-9.3 0.24,-3.14 -0.77,-8.52 3,-10 0.28,-0.11 -0.26,-2.27 0,-2.37 z"
     style="fill:#ececec"
     id="path496" />
  <path
     d="m 38.395079,40.029461 c 0,-0.08 0,-0.16 0,-0.24 0,-0.08 -0.09,2.08 0,1.63 0,-0.12 0,-0.24 0.09,-0.36 a 2.25,2.25 0 0 1 0.3,-0.6 3.46,3.46 0 0 1 0.94,-0.85 5.63,5.63 0 0 0 2,-1.52 3.27,3.27 0 0 0 0.23,-1.7 7.72,7.72 0 0 0 -0.22,-2.36 6.25,6.25 0 0 0 -2.73,-3 9.07,9.07 0 0 0 -4.499996,-1.71 c 0,0 0,2.38 0,2.38 a 8.51,8.51 0 0 1 3.999996,1.33 7.33,7.33 0 0 1 3.07,2.92 3.93,3.93 0 0 1 0.26,0.8 c 0.21,1 0.22,-2.46 0,-1.65 a 3.37,3.37 0 0 1 -0.09,0.34 2.05,2.05 0 0 1 -0.72,0.88 14,14 0 0 0 -2.13,1.53 2.32,2.32 0 0 0 -0.56,1.4 14.16,14.16 0 0 0 0,3.12 c -0.12,-0.77 0.11,-1.6 0,-2.38 z"
     style="fill:#ececec"
     id="path498" />
  <path
     d="m 6.505083,43.529461 c 1.51,-2 1.21,-4.94 1.11,-7.32 0,-0.72 -0.09,-1.43 -0.13,-2.15 0,-0.17 0,-0.35 0,-0.53 0,0.26 -0.1,0.57 0.07,0.06 0.11,-0.34 0.15,-0.71 0.28,-1.06 a 7.49,7.49 0 0 1 2.55,-3.16 32,32 0 0 1 3.63,-2.28 c 1.44,-0.84 2.84,-1.74 4.31,-2.52 2.94,-1.56 6.35,-2.62 9.58,-1.27 3.23,1.35 6,4.09 6.65,7.53 -0.14,-0.77 0.14,-1.61 0,-2.38 a 10.56,10.56 0 0 0 -5.58,-7 c -3.11,-1.7 -6.46,-1.27 -9.58,0.21 a 62.11,62.11 0 0 0 -8.2,4.77 c -2.37,1.6 -3.71,3.51 -3.74,6.4 0,1.42 0,2.83 0.1,4.24 0,0.48 0.05,1 0.09,1.44 0.05,0.63 0,-0.7 0,-0.7 -0.13,0.22 -0.06,0.71 -0.11,1 a 5.38,5.38 0 0 1 -1,2.37 c -0.39,0.52 0.37,1.88 0,2.38 z"
     style="fill:#ececec"
     id="path500" />
  <path
     d="m 55.445079,12.109461 c 1.14,0.26 1.81,-0.68 2,-1.69 a 4.41,4.41 0 0 0 0.09,-0.73 c 0,-0.79 0,-1.58 0,-2.37 a 2.84,2.84 0 0 0 -0.34,-1.49 3.43,3.43 0 0 0 -2.94,-1.41 3,3 0 0 0 -2.68,1.85 12,12 0 0 0 -0.58,5 c 0,0.09 0,1.19 0,1.19 0,0 0,-1.18 0,-1.19 0,1.14 0,0.24 0,-0.06 a 8.65,8.65 0 0 1 0.09,-0.89 6.22,6.22 0 0 1 0.44,-1.64 3,3 0 0 1 2.32,-1.82 3.74,3.74 0 0 1 2.79,0.8 2.35,2.35 0 0 1 0.87,1.13 2.5,2.5 0 0 1 0,0.29 0.53,0.53 0 0 1 0,0.13 v 0.08 c 0,0.39 0,0.09 0,-0.91 v -1 a 1,1 0 0 1 0,0.17 c 0,0 0,0.09 0,0.13 a 3.1,3.1 0 0 1 -0.08,0.42 c -0.23,1 -0.9,1.87 -2,1.61 0,0 0,1.1 0,1.19 a 7.77,7.77 0 0 0 0,1.19 z"
     style="fill:#ececec"
     id="path502" />
  <path
     d="m 66.735079,8.759461 a 1.18,1.18 0 0 0 0.77,1.18 1.89,1.89 0 0 0 1.45,-0.16 c 1.2,-0.58 1.45,-2 1.47,-3.23 0,-1.78 0.16,-3.67 -1.22,-5 a 6.28,6.28 0 0 0 -3.9,-1.52000002 3.32,3.32 0 0 0 -2.24,0.5 3.45,3.45 0 0 0 -1.29,2.32000002 7.87,7.87 0 0 0 0,1.19 9.31,9.31 0 0 1 0,1.18 3.06,3.06 0 0 1 2.56,-2.78 6.94,6.94 0 0 1 3.87,0.79 4,4 0 0 1 2.09,2.89 4.6,4.6 0 0 1 0.06,0.52 c -0.21,-2.95 0.05,-2.4 0,-1.7 a 2.17,2.17 0 0 1 0,0.25 3.83,3.83 0 0 1 -0.27,1 2.36,2.36 0 0 1 -0.93,1.16 c -0.91,0.55 -2.3,0.48 -2.36,-0.83 0,-0.15 0,0.2 0,0.12 0,0.24 0,0.47 0,0.71 0,0.49 0,1 0,1.46 z"
     style="fill:#ececec"
     id="path504" />
  <path
     d="m 60.505079,8.919461 a 1.44,1.44 0 0 0 1.24,0.18 1.37,1.37 0 0 0 0.63,-0.77 3.9,3.9 0 0 0 0.13,-1.3 21.34,21.34 0 0 0 0,-2.77 c -0.26,-2.41 -3.09,-3.56000002 -5.2,-2.68 a 4.36,4.36 0 0 0 -2.23,2.93 1.39,1.39 0 0 0 0,0.35 v 1.67 a 1.38,1.38 0 0 1 0,0.35 4.83,4.83 0 0 1 1.59,-2.56 3.94,3.94 0 0 1 3.09,-0.55 3.46,3.46 0 0 1 2.49,1.85 3.24,3.24 0 0 1 0.26,1.07 c 0.08,1 0.07,-2.54 0,-1.7 v 0.31 a 3,3 0 0 1 -0.14,0.59 1.36,1.36 0 0 1 -0.65,0.83 1.4,1.4 0 0 1 -1.21,-0.18 6.8,6.8 0 0 1 0,1.19 v 0.84 a 1.33,1.33 0 0 0 0,0.35 z"
     style="fill:#ececec"
     id="path506" />
  <path
     d="m 33.245083,48.569461 c 2.09,0.08 8.359996,-0.44 8.429996,2.85 v -2.21 c -0.17,1.93 -3.08,2.82 -4.589996,3.39 -2.26,0.82 -4.51,1.48 -6.72,2.44 -3,1.32 -5.48,2.85 -7.28,5.67 -1.8,2.82 -4.81,2.68 -6.87,0.24 0.38,0.45 -0.4,1.9 0,2.37 a 4.43,4.43 0 0 0 4.12,1.89 c 1.94,-0.38 2.6,-2.16 3.7,-3.54 2.16,-2.73 5.85,-4.25 9.06,-5.39 2.44,-0.87 5.179996,-1.36 7.319996,-2.9 a 2.62,2.62 0 0 0 1.27,-2.27 c 0,-1 0.22,-2.36 -0.45,-3.22 -1.63,-2.09 -5.659996,-1.6 -7.999996,-1.7 0,0 -0.05,2.37 0,2.38 z"
     style="fill:#ececec"
     id="path508" />
  <path
     d="m 33.245083,48.569461 c 0.16,-1.26 1.59,-1.92 2.6,-2.41 0.6,-0.29 1.21,-0.56 1.779996,-0.89 a 2.55,2.55 0 0 0 1.11,-1 1.24,1.24 0 0 0 0.09,-0.38 20.6,20.6 0 0 0 0,-2.08 2,2 0 0 0 -0.24,-1.07 1.92,1.92 0 0 1 0,0.35 v 1.68 a 1,1 0 0 0 0,0.35 1.77,1.77 0 0 1 0.16,0.34 0.75,0.75 0 0 1 0,0.16 c 0,0 0,0 0,0.08 v 0 c 0,0.75 0,0 0,-2.17 a 1.33,1.33 0 0 1 -0.21,0.54 3.49,3.49 0 0 1 -1.17,0.91 22.36,22.36 0 0 0 -3.269996,1.76 2.24,2.24 0 0 0 -0.93,1.43 9.45,9.45 0 0 0 0,1.19 v 0.84 c 0,0.11 0,0.24 0,0.35 z"
     style="fill:#ececec"
     id="path510" />
  <path
     d="m 8.915083,64.279461 c -0.19,3.999998 0,7.929998 2.35,11.279998 2.23,3.189999 5.73,5.219995 9.32,6.539995 8.58,3.18 18.479996,3.42 27.499996,2.67 3.8,-0.31 7.61,-0.79 11.43,-0.83 3,0 6.26,0.25 8.65,2.28 -0.38,-0.32 0.4,-2 0,-2.38 -2,-1.71 -4.64,-2.18 -7.21,-2.27 a 69.91,69.91 0 0 0 -8.68,0.45 110.24,110.24 0 0 1 -15.999996,0.55 c -7.42,-0.41 -15.94,-1.5 -22,-6.249995 a 14.18,14.18 0 0 1 -3.77,-4.36 12.73,12.73 0 0 1 -1.11,-2.77 13.73,13.73 0 0 1 -0.34,-1.67 c 0,-0.23 -0.06,-0.45 -0.09,-0.68 -0.03,-0.23 0,-0.529998 -0.05,-0.799998 0,0.929998 0,1.099998 0,0.529998 0,-0.719998 0,-1.729998 0,-2.289998 z"
     style="fill:#ececec"
     id="path512" />
  <path
     d="m 24.445083,38.029461 c 0.24,-1.26 1.81,-1.25 2.81,-1.27 a 11.35,11.35 0 0 0 1.85,-0.11 1.44,1.44 0 0 0 1.15,-0.74 1.67,1.67 0 0 0 0.09,-0.4 22.64,22.64 0 0 0 0,-2.33 3.84,3.84 0 0 0 -0.26,-1.33 1.34,1.34 0 0 1 0,0.35 v 1.68 a 2,2 0 0 0 0,0.35 5.22,5.22 0 0 1 0.18,0.56 c 0,0.09 0,0.17 0.05,0.25 0.05,0.08 0,0.08 0,0.12 a 0.13,0.13 0 0 1 0,0.06 c 0,0.76 0.05,0.06 0,-2.08 a 1.12,1.12 0 0 1 -0.21,0.61 1.74,1.74 0 0 1 -1.21,0.55 21.74,21.74 0 0 0 -3.43,0.28 1.39,1.39 0 0 0 -1,1.07 5.91,5.91 0 0 0 0,1.19 c 0,0.28 0,0.56 0,0.84 a 2,2 0 0 1 0,0.35 z"
     style="fill:#ececec"
     id="path524" />
  <path
     d="m 27.625083,25.319461 a 9.79,9.79 0 0 0 -5.31,1 8.24,8.24 0 0 0 -3.32,3.93 1.36,1.36 0 0 0 0,0.35 c 0,0.28 0,0.56 0,0.84 0,0.28 0,0.56 0,0.84 0,0.08 0,0.27 0,0.34 a 8.21,8.21 0 0 1 3.32,-3.92 9.79,9.79 0 0 1 5.31,-1 c 0,0 0.05,-2.38 0,-2.38 z"
     style="fill:#ececec"
     id="path526" />
  <path
     d="m 63.965079,15.479461 a 5,5 0 0 1 3.05,-1.87 2.56,2.56 0 0 1 2.49,1.26 4.92,4.92 0 0 1 0.64,1.75 v 0.24 c 0,0.53 0,-0.83 0,-0.29 0,0.11 0,0.23 0,0.35 a 4.24,4.24 0 0 1 -0.25,0.86 4.06,4.06 0 0 1 -1.91,2.25 1.19,1.19 0 0 1 -1.1,0 1.84,1.84 0 0 1 -0.66,-1.37 c 0,0.3 0,0.63 0,0.94 a 1.91,1.91 0 0 0 0.59,1.32 1.06,1.06 0 0 0 1,0.07 4,4 0 0 0 2,-2.32 4.84,4.84 0 0 0 0.29,-1.73 6.31,6.31 0 0 0 -0.27,-2.11 2.93,2.93 0 0 0 -2.27,-2.15 c -1.45,-0.18 -2.76,0.84 -3.66,1.87 0,0.06 0,0.39 0,0.47 0,0.08 0.06,0.41 0,0.47 z"
     style="fill:#ececec"
     id="path530" />
  <path
     d="m 67.505079,16.699461 c -2.3,0.54 -2.27,3.56 -2.28,5.44 0,1.32 0,2.64 0.08,4 0,0.58 0.08,1.17 0.11,1.76 0,0.15 0,1 0,0.39 0,-0.61 0,0 0,0.11 0,0.38 0,0.76 -0.08,1.14 a 10.07,10.07 0 0 1 -5,8 c -3.08,1.82 -6.73,2 -10.2,2.35 -4,0.33 -8,0.85 -11.12,3.51 -0.4,0.34 0.38,2.06 0,2.38 5.72,-4.82 13.59,-2.36 20,-5.21 a 10.13,10.13 0 0 0 6.14,-7.36 31.81,31.81 0 0 0 0.26,-7.86 c 0,-0.69 -0.09,-1.38 -0.13,-2.07 a 2.5,2.5 0 0 0 0,-0.56 c 0.1,0.12 -0.08,1 0,0.34 0.05,-0.42 0.07,-0.84 0.15,-1.26 a 3,3 0 0 1 2.07,-2.77 c 0.2,0 -0.15,-2.33 0,-2.37 z"
     style="fill:#ececec"
     id="path532" />
</svg>
