<?xml version="1.0" encoding="UTF-8" standalone="no"?>
<svg
   version="1.1"
   id="Layer_1"
   x="0px"
   y="0px"
   viewBox="0 0 700.45652 2446.7103"
   sodipodi:docname="espada1.svg"
   width="700.45648"
   height="2446.7102"
   inkscape:version="1.3.1 (9b9bdc1480, 2023-11-25, custom)"
   xmlns:inkscape="http://www.inkscape.org/namespaces/inkscape"
   xmlns:sodipodi="http://sodipodi.sourceforge.net/DTD/sodipodi-0.dtd"
   xmlns="http://www.w3.org/2000/svg"
   xmlns:svg="http://www.w3.org/2000/svg">
  <defs
     id="defs4846" />
  <sodipodi:namedview
     id="namedview4846"
     pagecolor="#ffffff"
     bordercolor="#000000"
     borderopacity="0.25"
     inkscape:showpageshadow="2"
     inkscape:pageopacity="0.0"
     inkscape:pagecheckerboard="0"
     inkscape:deskcolor="#d1d1d1"
     showgrid="false"
     inkscape:zoom="0.28"
     inkscape:cx="91.071429"
     inkscape:cy="1214.2857"
     inkscape:window-width="1870"
     inkscape:window-height="1011"
     inkscape:window-x="50"
     inkscape:window-y="32"
     inkscape:window-maximized="1"
     inkscape:current-layer="g1717" />
  <g
     id="g1717"
     transform="translate(-4540.1425,-464.65833)">
    <path
       d="m 5179.8099,580.351 c 14.402,40.39844 -19.3283,72.75803 -54.3048,61.45229 -38.3007,38.80855 -11.8772,95.64722 -10.6911,140.90166 -25.2337,42.2499 -66.2745,88.43793 -52.6902,140.61455 78.9389,48.83662 129.435,132.7098 157.6851,219.2816 7.4736,22.0079 -4.8949,47.4322 18.091,51.1795 15.4871,36.6732 -40.7453,59.9458 -40.3689,11.5987 -3.5914,-22.167 -34.9515,-90.647 -42.5627,-34.1365 -22.291,71.412 -41.2168,143.8185 -68.6167,213.5206 -16.0353,81.997 -50.3512,159.0047 -72.5803,239.1577 -7.5228,30.8239 -26.137,23.6531 -48.0875,34.667 64.3948,-14.2553 9.3959,60.637 7.3221,89.9999 -45.1454,156.1924 -100.96,309.0653 -146.7155,465.0712 -22.791,46.3999 -24.8344,95.9178 -44.0322,144.3215 -13.4415,51.8992 -28.2645,103.7396 -48.6512,153.4251 -19.4898,6.7355 9.623,10.352 -7.3779,29.0464 -19.0885,89.7671 -54.7621,174.9635 -83.3327,261.9489 -17.0332,38.9182 -33.1646,88.2571 -71.647,108.9675 -50.3559,-12.627 -24.0391,-90.1293 -25.664,-127.3853 6.8695,38.8839 -11.9054,88.5394 17.9879,120.0753 30.751,-24.5898 44.6678,-73.7244 63.5371,-110.3882 31.6751,-79.4932 47.4314,-164.8057 76.8872,-244.5841 15.158,-34.3816 13.3095,-79.3572 29.9581,-116.6826 14.5036,-23.8515 11.1304,-54.775 29.2968,-86.6238 -1.8585,-46.3699 25.9701,-88.4052 32.4036,-133.7767 21.1695,-57.3835 27.5121,-120.2513 55.2363,-175.1406 37.3898,-8.1332 -18.8157,-11.665 5.0392,-36.0968 11.644,-18.6844 36.3127,-45.5425 11.3243,-23.3046 -0.6635,-7.0529 36.4616,-22.1665 5.2259,-23.5942 -11.399,-31.3919 22.9615,-65.8392 36.0728,-76.9272 -29.9602,16.6765 -1.8353,-52.009 2.689,-70.6236 18.1935,-41.9728 11.8875,-101.9054 56.5994,-127.6329 8.6253,-5.8662 -37.3271,19.0353 -16.9029,-10.5877 -4.9094,-21.4417 37.7416,-50.0549 15.3762,-51.6791 -3.0398,-27.7516 17.6184,-53.5386 23.0824,-36.4289 -2.999,-19.6078 -0.096,-74.0803 16.8713,-106.546 19.07,-32.851 20.2146,-71.3345 28.7575,-109.7674 14.5423,-48.172 2.6477,36.5449 17.6708,-3.194 1.5107,-17.1129 -10.516,-61.2242 14.4773,-91.8093 4.2176,-24.4552 16.58,-67.0142 28.0952,-58.5767 28.583,15.944 1.4295,-32.2584 -6.17,-9.2211 -6.0825,-49.8827 49.7335,-107.5841 17.1526,-149.3487 -13.4595,-7.2479 -21.5935,1.2352 -25.7577,-14.9833 -13.6479,4.5648 18.4843,26.4646 2.8362,27.0956 -16.5096,-5.4576 -48.1502,17.764 -20.2844,8.8933 13.1865,-17.5107 36.1784,22.5518 9.2219,8.2852 5.7718,33.3856 -41.8464,-27.404 -34.3788,4.8168 57.9747,-4.2561 -49.2951,82.25 13.5916,47.2159 34.0927,-21.3638 -48.6885,36.1927 -0.043,42.0695 -22.3907,-4.2756 14.5886,50.8003 -15.1576,27.7268 8.4809,-23.49 -0.3091,-28.0277 -16.9929,-32.0178 -23.5769,23.1508 23.1269,11.8894 -5.1582,19.7531 -27.0764,-2.9847 -21.0378,19.6677 1.8909,9.8689 43.4552,15.9287 -70.1105,21.7212 -17.9706,32.4058 18.742,-11.7516 45.3774,27.8057 14.7055,6.1557 -28.334,-5.6557 15.4959,46.0766 10.563,21.5444 -10.5915,5.8852 -23.5104,1.1959 -10.4765,17.2815 -10.4131,-1.4912 -51.3536,0.2537 -26.5636,14.4108 29.4395,-1.1423 -30.8594,6.5366 1.3363,26.633 2.7624,22.0911 -47.9611,3.7099 -7.4723,13.8228 10.0498,8.3852 -10.126,25.7563 -9.2078,22.3924 -7.0728,-17.9853 -36.18,2.0182 -5.3133,2.2852 32.7804,20.946 -53.7849,3.0883 -6.5724,13.1704 -21.0983,13.5436 19.6877,0.2977 15.5145,28.2869 8.1617,2.8468 -38.2623,-8.4567 -9.9488,8.7128 -17.4344,29.9693 33.2227,-0.6065 38.6885,-9.2907 2.2816,45.7637 -54.8612,14.5658 -66.808,36.5348 13.5304,18.1562 41.5396,-3.8044 16.0994,21.5096 -13.2438,4.6348 -7.6369,44.6403 -28.5129,64.3224 24.1809,28.85 26.3818,-30.2474 33.5222,-0.3452 -16.6608,19.8207 -28.5858,27.2061 0.1746,9.0746 17.2958,21.1048 -63.4332,13.2801 -31.7922,23.9477 -41.7028,30.5099 49.1203,-19.8398 21.3117,26.0397 -16.0484,17.814 -15.3689,14.1687 -4.0694,-3.9499 5.4511,-24.4467 -34.5094,-2.499 -13.5352,5.4999 -11.7818,-6.2276 -23.0158,-7.7492 -16.0594,10.2147 -25.4671,-12.475 -19.0811,20.9547 5.3768,6.261 12.0702,31.6201 -82.0369,35.5639 -26.0093,30.2853 -15.7151,1.607 -40.8081,28.0302 -9.3721,17.727 12.2398,-22.8619 60.8656,-13.5546 23.354,4.2526 -2.5862,-2.8133 -40.141,11.0953 -38.7355,15.1833 29.2068,-12.3655 -33.56,29.2533 3.1157,10.1255 13.8939,-32.578 51.2598,11.8002 14.361,1.3435 -14.5202,2.3956 16.3321,10.2244 -0.8176,21.1666 18.8644,-14.0753 48.7529,-16.0518 12.4724,-2.2723 -22.3644,35.7381 -19.7256,-21.2516 -28.9547,-11.0104 -42.2976,47.5303 -13.2842,-43.9652 1.7018,-61.4636 34.3187,-15.5474 8.2891,-71.0958 31.1194,-105.8728 2.5058,-43.2527 25.0715,-81.8599 28.0189,-124.5534 8.1209,-56.2387 29.8176,-109.4641 35.2302,-166.1734 7.9295,-18.8035 19.9637,-28.2396 16.1841,-40.3499 15.0232,9.949 -4.12,-22.1965 14.0772,-29.6791 -29.8713,16.6331 5.0353,-38.9782 1.015,-55.06 0.841,-10.9804 15.5087,-40.7477 1.6052,-21.7806 -0.8718,-27.2362 28.6436,-67.1131 19.6763,-83.81062 -13.4635,10.57852 -34.0935,37.87922 -49.5569,13.56902 14.1116,45.8229 -22.5771,89.6196 -7.1006,135.5863 -14.4602,-13.3051 -12.7659,16.1387 -18.4113,23.93 9.5326,6.9993 -14.4404,23.3791 9.5953,12.7601 -9.2298,34.7932 -35.0974,-1.7925 -18.4493,-22.9746 10.5345,-47.7349 18.7089,-95.217 26.8058,-143.1219 20.8015,-51.74754 -56.1192,-29.27864 -53.9802,-27.98249 -4.4947,5.02545 -18.3753,11.26955 -28.2683,8.19139 22.3267,14.3688 -6.0866,36.4814 6.6442,43.7539 14.7531,-14.2548 8.777,-46.7574 19.8039,-32.1654 11.8034,-10.52646 8.2432,14.6565 -1.8024,13.3371 8.785,19.7348 -18.7415,58.9069 -20.6133,49.6401 41.3461,3.5282 2.3389,17.2626 -8.5681,17.8244 32.4488,12.6848 2.1734,-1.2883 -8.1223,13.3693 4.0152,33.2552 -3.9147,68.67 -23.1949,81.5985 17.01,8.4437 -18.1291,13.3823 4.1452,30.0646 25.1493,6.9116 -28.533,0.1696 -5.6487,15.4996 0.3419,9.2293 -27.4065,20.4218 -2.7157,18.1557 -15.1386,3.7596 -2.0567,29.7085 -1.5794,19.6307 -8.6346,5.0372 -19.0428,22.6274 0.9643,11.1964 -27.4364,16.4773 -6.5577,8.1862 8.6112,14.3153 -38.6845,-0.9633 -7.0264,72.6353 -51.1489,73.1133 10.8177,-15.4277 0.3381,-17.9838 13.5205,-40.8407 2.5775,-16.9601 1.3863,-55.066 8.9459,-83.7532 5.3545,-25.6675 6.1225,-41.7965 7.6472,-79.7566 6.2345,-37.1534 27.8388,-65.0977 16.2227,-94.0404 3.8112,-17.6807 21.4949,-82.56012 -9.8226,-55.5861 -13.5634,12.9295 7.5418,65.7901 -10.4116,51.1508 -5.6899,24.4169 -33.2874,5.2043 -40.8986,31.7069 16.0548,-2.0425 64.7899,11.2042 23.0515,16.2211 36.1572,-17.3171 -54.7214,-5.7858 -23.7877,21.167 3.2272,-20.4176 7.0323,-6.9202 17.6243,-3.6421 9.9665,-38.2321 9.8735,40.3262 -4.8067,16.4075 -3.6744,-25.3403 -31.7495,25.2798 -6.45,6.4469 14.6897,20.1444 -43.854,14.5992 -4.9954,29.7212 -10.1073,-1.5907 -26.9997,29.8708 -9.8587,46.9979 -9.4222,-0.082 -18.3328,22.2378 -0.5088,10.1203 -24.1847,13.6147 2.2614,12.8234 -9.7082,17.89 -14.167,20.0735 -1.1369,52.4518 -5.7839,58.1573 19.622,-22.8914 2.6637,20.9191 5.4921,7.8042 -37.1195,-5.5533 -6.7801,77.4891 -10.2302,58.6298 -28.538,22.8237 2.9234,48.0819 -23.0626,66.6479 1.2318,57.2141 -15.0361,115.355 -20.4906,172.9487 -20.9271,156.484 -37.75,313.8108 -69.1179,468.6813 13.4596,-111.0934 31.7932,-221.5721 45.1686,-332.7112 16.3739,-123.8846 32.3002,-247.8365 50.5192,-371.4677 15.8619,-10.5487 -7.0203,-54.484 9.166,-76.3533 10.7037,-84.0464 20.1398,-168.2866 33.818,-251.9219 -33.8555,-26.3337 -60.127,48.8725 -99.8627,40.2414 -36.4033,-42.8305 41.3936,-74.3747 64.6229,-102.40359 63.1167,-52.03906 140.7978,-88.32843 221.6197,-101.51991 17.2346,0.28878 54.5977,-51.93998 22.3206,-27.36399 -1.7145,-22.91756 6.9778,-42.99002 12.5872,-18.40165 19.1586,-9.7569 8.3113,-40.34797 -6.814,-30.96624 3.6965,23.81243 -24.3384,-27.12482 -17.045,-42.87684 -3.8757,-45.4095 53.7015,-76.59922 54.8083,-126.079 2.3129,38.65809 -17.1908,78.0505 -46.8963,100.39908 11.8983,15.97187 44.7534,-40.32008 55.7194,-57.95148 6.921,-23.32688 15.5425,-78.6596 -15.2222,-80.0448 -7.4407,12.73316 11.7779,35.49018 -12.1755,14.86242 -51.3658,3.25345 -32.8901,-54.78023 -21.4721,-76.76228 -6.4161,-42.58133 43.8271,-71.35445 79.6882,-80.47786 63.5553,-10.36406 122.3035,51.68602 112.2256,114.55242 z m -579.615,2284.5585 c -18.67,13.9887 -4.6125,30.4203 0,0 z m 11.4566,-11.9927 c -14.0221,3.9997 4.6303,10.6394 0,0 z m 18.5021,-44.4628 c -8.3462,2.7308 3.4446,14.523 0,0 z m 9.3626,-30.6396 c -13.2855,14.4206 5.8535,23.7779 0,0 z m 17.3074,-53.8123 c -5.4744,44.4513 16.4458,-45.7311 0.5045,-2.3725 z m 10.885,-38.6974 c 8.536,36.5643 9.8868,-15.6629 0,0 z m 15.1819,-49.8207 c 2.833,18.4296 10.6551,-8.7826 0,0 z m 13.1724,-45.9102 c -6.8355,14.1717 -1.6711,-7.3223 3.4668,-2.013 z m -8.8082,60.8957 c -16.1278,5.2504 12.2603,7.882 0,0 z m 170.4674,-572.2931 c -3.4731,-15.4739 -15.8102,16.2397 0,0 z m -22.3016,48.159 c -14.7154,14.227 20.1023,-8.7024 0,0 z m 6.7924,-19.517 c -5.4564,-12.7313 -13.1709,11.0143 0,0 z m -10.4189,59.0885 c 13.0081,9.8915 -7.0585,-28.7399 0,0 z m -43.3216,147.2137 c 16.3502,-6.248 -12.8733,-10.6083 0,0 z m -12.6527,32.5982 c -8.9065,9.8005 9.9519,13.5874 0,0 z m -6.2678,42.4566 c 0.2707,-17.1233 -13.9092,15.189 0,0 z m -21.6649,45.1234 c -17.2774,11.1649 27.6038,-11.7925 0,0 z m 8.0268,-14.4253 c 15.2398,3.9683 -10.0458,-22.4115 0,0 z m 12.4372,-84.9307 c 2.9174,23.2609 6.409,-19.9075 0,0 z m 7.302,-19.5285 c -12.7027,9.652 20.0486,6.2486 0,0 z m 12.5324,-23.2774 c -15.3775,21.0563 16.7674,-2.3758 0,0 z m 13.6914,-62.6747 c -14.0221,3.9997 4.6305,10.6394 0,0 z m 0.4249,14.2909 c -13.2388,2.1506 15.3293,3.6941 0,0 z m 23.91,-103.9271 c -10.5034,11.4526 21.3348,-9.5062 0,0 z m 16.1156,-42.4463 c 1.0889,-10.9897 -16.1337,12.5929 0,0 z m -0.1953,-28.2633 c 12.7865,9.5902 19.3884,-7.8955 0,0 z m 15.719,-21.1924 c -26.5079,7.9958 26.0756,6.7864 0,0 z m 4.0029,-41.1297 c -13.7635,3.9638 23.8876,35.808 12.7973,6.3181 -2.5764,-1.98 -13.9416,0.7153 -12.7973,-6.3181 z m 16.2978,-23.3243 c -7.3252,17.7423 15.657,-10.9746 0,0 z m 101.221,-271.1423 c -7.8114,-17.0285 -5.0683,12.0123 0,0 z m -9.7478,10.3646 c -23.6391,18.2456 9.3087,9.5861 1.6542,-0.4262 z m -4.7109,32.4753 c -4.2438,-15.2599 5.9545,4.1641 -1.2916,3.9791 z m -4.2101,8.9042 c -8.346,2.7309 3.4449,14.5229 0,0 z m -27.0438,62.9604 c -5.9446,15.6941 23.0803,-14.1154 0,0 z m 12.8583,-14.1826 c -7.5513,-13.4758 -17.6709,12.3388 0,0 z m -19.153,29.7257 c -5.1901,16.769 18.6092,-13.9355 0,0 z m -9.6311,59.2276 c 17.4612,-11.5852 3.6804,-57.1802 0.8277,-16.7865 l -1.052,8.3776 z m -5.4552,10.2076 c 10.0097,-8.8754 -1.1255,6.2206 -3.3889,0.497 z m -9.7541,51.2854 c -7.8397,-9.0809 -8.77,12.0368 0,0 z m -4.1033,-14.7365 c -20.1157,7.2333 11.4585,10.3503 0,0 z m -3.9855,41.0314 c -8.7208,-8.0784 -9.8519,11.1349 0,0 z m -9.7358,14.327 c 13.9463,-4.318 -6.3724,-11.0135 0,0 z m 8.6981,-61.4227 c 28.7709,-3.5377 17.388,-20.9258 0,0 z m -1.4143,-6.9512 c 9.0851,-7.8088 -12.0686,-8.8364 0,0 z m -10.1874,16.8875 c 20.2982,-8.4099 -17.3074,-7.1543 0,0 z m -1.3349,-18.9192 c -0.2191,17.7024 4.9137,-17.3659 0,0 z m 5.9349,-19.262 c 11.2208,19.9942 37.119,4.8806 7.7956,-3.2384 -3.1704,-5.4654 -11.6331,-3.3842 -7.7956,3.2384 z m 17.9579,-0.4893 c -0.6891,-16.3853 -11.1956,2.3391 0,0 z m -0.2287,-19.4349 c -53.9692,14.7401 21.472,0.651 0,0 z m 13.973,-36.6301 c 0.8434,14.8538 29.5775,-20.1255 2.2278,-6.5882 -7.9905,-20.9012 -9.9772,2.8561 -2.2278,6.5882 z m -16.7619,18.47 c 16.5033,-3.5809 6.5929,-16.8379 0,0 z m -0.7328,-20.0315 c -1.1039,26.4895 12.5024,-10.6662 0,0 z m 25.8742,-18.8942 c -9.5997,-16.6471 -23.2247,9.8415 0,0 z m -2.5098,-51.4169 c 7.7074,7.9274 33.515,-8.5658 11.0584,13.012 22.851,9.063 23.1044,-40.9108 -5.1705,-17.6429 12.2588,2.3266 -3.1666,6.5706 -5.8879,4.6309 z m 20.2891,-22.9251 c 32.2917,1.7338 -29.9143,-6.1146 -2.2715,1.0608 z m 5.1077,-11.6907 c 46.914,-16.7724 -35.9588,-7.0168 -6.7669,3.5789 z m 10.9584,-53.51 c -22.0977,-2.3157 -22.4307,47.7895 1.3014,27.7476 -35.5668,-11.6119 19.1314,-4.26 3.9594,-25.0224 z m 12.3322,-5.4412 c 8.9464,23.779 28.3939,-14.6179 12.0737,-20.2875 13.4554,15.3426 -37.8161,20.3294 -12.0737,20.2875 z m -16.2986,-23.8933 c 4.1841,9.1767 13.9171,-11.5645 0,0 z m 82.0544,-465.9297 c 8.2798,13.3207 3.2007,-11.8426 0,0 z m -77.2278,140.829 c 19.9752,-5.5041 -12.5104,-3.2181 0,0 z m 39.2438,64.7991 c 16.2628,-6.1516 -12.8413,-10.7288 0,0 z m -97.2346,237.0161 c 8.1415,-6.1714 -9.7636,-7.0452 0,0 z m -10.6139,30.8252 c 26.5294,14.3922 -17.686,-22.8548 0,0 z m -36.8339,20.0078 c 14.501,-5.5862 -11.4989,-9.8213 0,0 z m 51.3519,-95.4327 c -8.1415,6.1713 9.7635,7.0452 0,0 z m 0.6568,17.5812 c 14.5013,-5.5862 -11.4987,-9.8212 0,0 z m -7.7789,5.5333 c 9.0564,-5.5496 -10.8056,-8.6136 0,0 z m -1.7567,-10.7687 c 14.47,-5.5571 -11.3713,-9.8147 0,0 z m 49.8016,-203.5442 c -26.5356,-21.6887 -1.3497,11.7018 0,0 z m -20.0184,93.9512 c 14.5011,-5.5863 -11.4989,-9.8214 0,0 z m -3.6347,-19.1219 c -20.8899,-0.3326 20.4987,14.089 0,0 z m 7.8011,-4.5155 c -6.1515,-16.2626 -10.7288,12.8412 0,0 z m -17.5673,16.7032 c 13.1185,8.0504 2.0194,-7.2595 0,0 z m -4.1293,7.2937 c 22.0317,17.9425 5.3503,-7.3547 0,0 z m 7.1071,36.2856 c 29.6226,3.1886 2.0658,-20.4786 0,0 z m -12.8147,35.8188 c 14.4701,-5.5571 -11.3712,-9.8148 0,0 z m 1.1281,-11.5802 c -4.1446,-7.7909 -14.2642,3.1882 0,0 z m -15.8528,16.1933 c 6.1893,8.1492 7.0071,-9.7713 0,0 z m 13.4199,-56.5284 c 13.164,13.2519 25.6359,-2.1547 0,0 z m 16.1124,-64.888 c 3.4829,26.07 32.636,-16.3697 -1.7029,-2.299 l -1.5681,1.0577 z m 7.9427,-36.9824 c 19.9998,11.8485 5.19,-6.7001 0,0 z m 7.8173,-21.875 c 16.2868,-1.8514 3.4821,-15.2582 0,0 z m 10.078,-10.5095 c 35.8892,13.5959 8.2759,-11.9659 -7.4558,-6.6063 z m -53.2906,-307.6274 c -19.4825,-15.3937 -31.0537,2.1049 0,0 z m -71.6208,221.3256 c 16.2625,-6.1515 -12.8412,-10.7288 0,0 z m -42.3093,-195.4159 c 18.5229,-2.9283 -9.0112,-10.614 0,0 z m -46.2166,322.5752 c 14.5011,-5.5861 -11.499,-9.8212 0,0 z m 28.1369,-200.4595 c 18.4047,-2.9319 -8.8993,-10.626 0,0 z m 398.3937,-646.94819 c -14.262,7.62031 4.2087,16.98717 0,0 z m 13.9851,7.6447 c -28.1419,16.52289 10.3468,46.07612 0,0 z m -4.5301,41.23981 c -3.7424,-21.9262 -43.9134,5.87617 0,0 z m -71.2294,120.05497 c -7.7605,-18.95342 7.1252,3.49275 -0.8512,6.048 z m -3.131,-20.2513 c -8.2968,-13.30255 -3.1381,11.81521 0,0 z m 9.189,52.69621 c 12.9458,7.92317 2.2293,-6.98241 0,0 z m -24.4387,9.60218 c -6.2315,-8.02973 -17.0715,3.01119 0,0 z m 126.5898,322.68442 c -17.2278,-25.8415 -13.2613,8.3838 0.7246,8.5589 z m -19.6486,7.1973 c 12.6471,27.5751 12.7211,-22.9881 0,0 z m 25.1947,11.4489 c -8.2426,-13.3197 -3.2515,11.6587 0,0 z m 8.0608,22.2376 c -9.035,5.4801 10.7472,8.6991 0,0 z m -67.2489,0.7335 c 15.1736,-46.4689 -23.0176,11.5929 0,0 z m -35.7643,130.2688 c -5.4936,-11.0303 -12.3833,9.3626 0,0 z m -1.8897,-8.8629 c -8.7708,-8.1105 -9.8262,11.2305 0,0 z m -9.7837,45.6953 c 1.0724,-10.9449 -16.2666,12.5953 0,0 z m -1.3347,-17.193 c 23.1261,-17.8459 -20.0812,12.4728 0,0 z m -27.0063,81.7524 c 13.3281,-10.4498 -13.5382,-13.0065 0,0 z m -3.305,-20.9929 c -20.3133,-9.1689 5.5849,18.7138 0,0 z m 4.0066,-15.2357 c -3.0985,-18.1196 -9.6657,10.0139 0,0 z m -34.0773,97.6664 c 8.1889,-20.8046 -23.9766,24.59 -0.082,0.08 z m 0.3252,5.6421 c -3.2127,17.2124 10.7671,-9.0719 0,0 z m -6.6877,22.3787 c 6.6977,17.2105 11.0911,2.1057 10.6055,-4.8603 13.756,-10.7448 -17.5738,-0.1737 -10.6055,4.8603 z m 23.1145,-34.9167 c -1.8629,-27.7582 -9.5187,24.5751 0,0 z m -32.2611,121.3415 c -15.2143,-19.8101 -21.009,53.6099 -1.7964,6.9771 z m -6.0902,-14.9851 c -10.6023,11.3876 21.5003,-9.4199 0,0 z m -8.4031,15.9835 c -9.4478,11.055 10.419,13.9581 0,0 z m -41.0831,82.1135 c 19.9997,11.8489 5.1901,-6.7001 0,0 z m -2.1501,-7.3857 c 17.7142,9.0741 5.2828,-5.7413 0,0 z m 3.5497,-8.6144 c 4.4403,13.5758 48.6736,-13.7309 12.0539,-2.8412 -3.1336,-5.1256 -10.0904,-6.3519 -12.0539,2.8412 z m 7.9681,-20.4267 c 17.357,-4.2841 28.8257,-4.0031 28.0978,10.2855 11.6294,-21.3309 2.57,-31.0934 -15.46,-16.4907 -2.898,0.8293 -24.9284,1.8114 -12.6378,6.2052 z m 1.2198,-17.8595 c -9.095,19.8327 45.2708,-12.3121 4.9298,0.6916 l -2.544,-0.3573 z m 14.257,-35.3615 c 24.7751,-0.5237 36.9708,-36.6244 12.109,-9.3378 -2.2826,4.5459 -6.5323,9.3543 -12.109,9.3378 z m 8.6857,-26.7989 c 17.2947,3.9734 52.5919,-15.617 14.2169,-7.9162 -1.5738,0.6992 -28.5148,9.2299 -14.2169,7.9162 z m 23.4115,-22.7807 c 29.2482,-2.2814 18.0194,-12.309 -1.8675,-11.6545 -6.3031,9.8218 -39.7961,26.244 -3.9538,14.3654 1.9532,-0.8738 3.8779,-1.8146 5.8213,-2.7109 z m -15.4368,-33.3879 c -8.1415,6.1713 9.7636,7.0453 0,0 z m 6.3766,-10.2483 c -13.7238,20.7285 15.2101,29.3148 7.8729,15.0188 -7.0292,-1.2852 2.8844,-15.2641 -7.8729,-15.0188 z m 12.7001,-25.3803 c 15.3083,-2.4697 35.1873,-17.9617 11.0319,-16.2758 -2.9221,10.781 -20.8352,2.5551 -11.0319,16.2758 z M 5041.8,1413.136 c 19.9766,27.1417 23.6878,-35.4432 5.0558,-12.6497 -4.545,1.6946 -20.5375,12.9056 -5.0558,12.6497 z m 8.9127,-17.7215 c 6.1426,-17.4646 -23.3608,10.1816 0,0 z m 4.2153,-12.965 c -22.7555,-8.8885 12.5857,12.6265 0,0 z m 10.3454,-47.7286 c 28.911,19.2797 30.9897,-72.9615 13.6617,-23.3341 23.3351,23.2731 -27.6196,-2.9058 -13.6617,23.3341 z m -7.6023,-15.0489 c -16.1674,5.3779 12.4784,7.7528 0,0 z m 7.7122,-26.4628 c 13.3418,-4.1045 40.6559,-5.0177 16.8505,-12.3978 -6.7029,2.2528 -12.9295,6.3382 -16.8505,12.3978 z m 19.6454,-27.9126 c -16.3855,0.6891 2.339,11.1954 0,0 z m 13.2677,-26.2955 c -10.5474,-3.4714 -27.5271,27.1346 -1.4226,4.7662 l 1.7219,-2.6953 z m -6.9633,37.7646 c 21.516,-0.1757 33.1193,-34.1502 9.127,-7.9232 8.4816,4.2483 -12.2278,3.2756 -9.127,7.9232 z m 14.1922,-44.2073 c 4.4502,12.458 24.6428,22.3522 10.5851,1.5872 34.5619,0.8073 17.4992,-98.9325 21.4086,-75.8824 -3.9825,23.8171 -20.1271,70.9766 -15.0856,63.4786 -9.9759,9.3402 -12.6707,-6.177 -16.9081,10.8166 z m 30.7198,-121.8162 c 16.2624,-6.1514 -12.8415,-10.7287 0,0 z m -8.4751,41.1534 c 18.2457,4.6492 7.8995,-19.3864 0,0 z m 16.6651,-48.442 c 8.1702,-4.3289 -10.0044,-13.5181 0,0 z m -26.2811,90.3083 c 26.424,-16.8515 -25.7388,3.7134 0,0 z m 4.4729,-35.1575 c 34.3721,15.1885 -25.9777,-17.2289 0,0 z m -2.6786,-15.9066 c -8.1493,6.1892 9.7713,7.007 0,0 z m 12.5868,-50.0751 c -5.378,-16.1673 -7.7528,12.4785 0,0 z m -13.3419,35.929 c -3.6254,-10.9179 -7.7605,10.3443 0,0 z m -22.0447,61.1002 c 17.7142,9.0741 5.2829,-5.7413 0,0 z m -40.0976,-163.0398 c 15.6751,16.5129 22.6595,-13.4172 0,0 z m -11.7544,36.7167 c 23.8152,-9.1448 10.8887,-28.1256 0,0 z m 3.4437,-21.8337 c 19.6546,-0.093 23.2876,-11.0655 -4.6959,-5.7067 l 0.4391,2.2083 z m -0.5299,-18.8788 c 7.776,-26.12979 -51.114,17.2124 0,0 z m -34.5808,58.4836 c 22.9939,8.237 -1.7787,-6.9184 0,0 z m -2.2581,7.6237 c 5.6256,14.514 9.7444,-11.4798 0,0 z m 16.5047,-34.8638 c -17.7153,-0.2016 17.4462,4.9037 0,0 z m 9.3928,-23.3232 c -8.28,-13.3208 -3.2006,11.8427 0,0 z m -10.7953,18.608 c 7.0553,-9.0074 -21.0953,-10.9134 0,0 z m 3.3428,43.2374 c -13.5929,-3.2972 14.1164,14.6113 -10.3809,5.7473 7.7291,24.3185 46.5601,-2.4667 10.3809,-5.7473 z m 25.9866,0.6221 c -12.1271,-17.6623 -20.8219,11.6381 0,0 z m -23.0498,82.3485 c 7.0245,-18.7179 -15.5731,-8.2598 0,0 z m -15.2447,-27.5661 c 2.8453,23.2338 25.7711,-13.2555 0,0 z m -3.6012,14.0888 c -14.7823,-13.9773 -10.1311,4.6703 0,0 z m -10.4296,-16.8674 c 2.6112,15.3789 13.2015,-15.8648 0,0 z m -2.8512,34.0218 c 21.803,-1.6474 -18.8614,-7.4857 0,0 z m -20.5622,57.2999 c -8.3665,-14.6609 -7.9553,12.2055 0,0 z m -3.6347,22.917 c 21.4485,-3.8185 -26.1461,-7.841 0,0 z m 7.1407,-12.8553 c -24.9493,-4.2485 21.5325,12.2724 0,0 z m 13.3182,3.3638 c -16.2626,6.1514 12.8413,10.7286 0,0 z m -0.6399,22.6327 c 11.4446,-14.1035 -17.543,9.4178 0,0 z m -9.7673,-3.3469 c 37.1361,-15.1947 -52.6059,3.0639 -10.7834,0.809 l 5.4731,0.4242 z m -22.3825,48.0432 c -11.8529,-16.4678 -14.8526,10.0466 0,0 z m -12.2548,19.9754 c 21.6963,-4.74 -17.4942,-3.4758 0,0 z m -3.0257,-12.2108 c 6.2481,16.3502 10.6083,-12.8735 0,0 z m 22.1675,-12.8458 c 29.0419,1.5498 -35.9604,-12.798 -7.8923,-2.643 z m -3.3098,-15.2058 c -5.3778,-16.167 -7.7527,12.4787 0,0 z m -2.922,-17.9804 c 21.7257,-2.4837 -10.6432,-7.666 0,0 z m 7.928,-58.2076 c -8.3692,19.3821 13.2171,-3.6105 0,0 z m 3.0284,-9.1126 c 4.4032,9.7472 30.8278,11.1822 9.6252,2.6722 z m 18.8954,-47.8459 c 9.7174,11.9739 18.6783,-1.9994 0,0 z m 24.3172,-49.2251 c -3.6048,37.1928 46.8242,-12.2826 2.8716,-2.5517 -16.9896,-3.2408 -22.7197,-3.9238 -2.8716,2.5517 z m -62.176,-52.7989 c 13.9676,-4.3484 -6.382,-10.9881 0,0 z m -86.5999,-60.5579 c -16.2626,6.1515 12.8412,10.7287 0,0 z m -13.7522,42.8631 c 28.0702,-36.3459 -11.9419,-16.3772 0,0 z m 5.5624,-33.8482 c -16.3857,0.689 2.3388,11.1953 0,0 z m 12.7734,43.8848 c 32.1598,28.6667 -7.9564,-46.7109 -4.2675,-11.754 l 1.5376,6.0586 z m -17.7771,49.5659 c -13.231,2.2264 15.3901,3.5748 0,0 z m 0.059,46.3139 c 11.0368,-16.3777 -28.9228,-0.6467 0,0 z m -34.0088,48.3285 c -9.0853,7.8089 12.0684,8.8363 0,0 z m 12.9006,-41.4901 c -2.505,14.9927 19.5508,-13.4853 0,0 z m 13.3003,-42.029 c 19.3064,11.2827 5.18,-6.6198 0,0 z m -1.6272,-38.5684 c 35.6963,8.5506 -3.2429,-17.5294 -1.9409,0.095 z m -27.0614,-21.0184 c 13.118,-3.8946 -10.5231,-7.8506 0,0 z m -35.8912,8.9028 c 24.4249,21.3311 37.1657,-31.4457 5.6971,-10.7527 21.146,1.9675 6.1097,7.1991 -5.6971,10.7527 z m 15.1796,-23.3185 c 26.8958,-23.2205 -37.0888,15.2808 -0.7586,3.2157 l 0.59,-2.5005 z m 4.9508,-15.9831 c -13.2012,2.1286 15.2281,3.7138 0,0 z m -60.0867,17.1264 c 31.586,-8.1967 -17.1288,-7.9585 13.6216,-22.9489 -15.3692,-6.7457 -54.9362,40.4224 -13.6216,22.9489 z m -16.9534,16.1006 c 11.4105,-14.1348 -17.5413,9.4869 0,0 z m 261.1913,-182.11136 c -33.2545,15.77915 18.6049,31.79546 0,0 z m -17.7285,25.10287 c -106.4311,8.33586 -201.4891,68.8403 -277.0128,140.81849 -27.4799,15.9128 -30.6954,65.3665 8.0362,33.0572 17.068,-10.9071 -30.9082,-20.8568 1.2034,-24.2715 16.1235,28.2188 13.4837,-41.3309 40.4884,-39.4086 28.2568,-20.15888 68.0992,-56.46769 84.9586,-48.48213 1.5392,-20.7085 63.5666,-37.31058 22.5046,-10.94681 11.6902,28.14487 -35.3225,-1.74863 -7.6625,25.3778 -17.8253,15.55735 -41.9624,11.1795 -26.4352,-5.95963 -25.9074,-21.05295 -4.5167,40.53247 -34.0907,39.32037 -28.2607,26.7154 37.211,-8.3595 47.2675,-16.18152 42.8495,-27.05228 67.738,-32.0606 123.2943,-26.87324 28.5078,2.21568 16.4115,50.52496 43.7922,24.81398 49.4401,-15.28062 87.4613,28.42118 119.1542,59.08068 44.4664,47.8806 71.8655,108.1894 97.4169,167.5411 22.3591,27.1587 -6.4157,-30.4912 14.7825,-1.5569 20.3713,-30.4876 -33.3071,-10.5559 -13.8501,-39.1198 -13.2133,-21.7557 -19.8301,-47.5578 -43.6769,-67.1774 -3.7714,-24.0578 14.5724,11.2228 11.884,-14.9128 -29.9898,-15.2494 3.1537,-6.3434 13.5845,2.8048 -19.1753,-33.6507 -30.2875,-84.8973 -70.334,-98.96474 -11.4268,-38.47162 -59.8787,-72.31065 -92.8732,-78.97177 -10.1474,20.13363 -31.5078,19.44074 -10.7801,1.83209 -3.8168,-8.74986 29.1805,-43.10366 28.6258,-12.62522 1.4572,-55.90601 -55.8541,-15.2991 -80.2776,-9.19448 z m -196.4902,104.26389 c 17.2637,-3.3545 16.1648,-22.65511 0,0 z M 5059.122,837.49872 c -8.1893,-7.85105 -6.7346,10.43848 0,0 z m -15.2486,27.16485 c -6.2784,-27.17028 -7.6176,22.50123 0,0 z m -15.0269,-1.7357 c -8.4132,2.7494 3.5585,14.5152 0,0 z m -17.8698,10.35402 c -17.7151,-0.20162 17.4463,4.90362 0,0 z m -3.3174,-28.40758 c -9.4719,31.82822 70.7492,5.52319 23.6871,-10.10395 -9.5527,-5.97568 -24.5159,-3.54324 -23.6871,10.10395 z m 4.7159,-38.2624 c 10.6244,14.89321 37.1508,16.16718 24.7066,22.8987 29.8848,7.64541 13.024,-13.23376 -3.8515,-14.77776 18.7951,2.84397 47.4092,5.73203 13.6391,-2.91821 -6.9492,-1.11477 -39.1225,-9.74024 -34.4942,-5.20273 z M 4993.3675,756.043 c 7.465,24.84225 17.1332,-4.44095 0,0 z m 22.3467,-16.16512 c 2.7153,15.39922 13.1216,-16.00832 0,0 z m 2.3008,8.83382 c -15.5789,10.30918 -20.528,36.55817 0.2696,44.06647 -51.9177,1.35241 86.1884,28.86134 34.4027,7.44539 -23.2967,3.04939 -31.8878,-6.19237 -3.9768,-5.11443 12.4888,-10.54042 28.547,-17.40431 30.1786,-16.04742 -4.8827,-11.90597 25.6686,1.1191 4.6821,-12.04045 -27.9665,-2.2482 -33.0802,-48.15998 -65.5562,-18.30956 z m 65.2217,-0.17711 c -9.0697,-12.10696 -23.693,-5.78894 -3.2382,-0.066 -31.0808,-9.55371 7.7819,18.41191 3.2382,0.066 z m -10.62,-12.33151 c 17.6188,9.0366 5.3361,-5.71309 0,0 z m -1.0671,-8.92089 c -17.7025,-0.21901 17.3661,4.91358 0,0 z m -27.5914,-1.31111 c -17.6931,-0.2569 17.2289,4.9315 0,0 z m -11.6758,-22.46883 c 24.3739,7.53861 30.3553,10.08093 3.3397,9.17433 10.8878,18.54579 71.6224,3.42888 21.42,-5.08662 -8.2146,-1.5877 -16.4877,-2.84419 -24.7597,-4.08771 z m 47.8239,-13.80519 c -18.5258,-11.92858 2.4988,54.8105 0,0 z m -25.0653,2.78982 c -13.835,7.91346 9.8307,14.62501 0,0 z m -8.6146,-45.5885 c 28.1591,-13.54787 44.806,42.5732 21.3765,12.2301 -44.4516,0.01 -6.5703,49.12779 14.6597,15.78951 8.3063,-19.51572 44.9374,-60.03603 38.044,-56.3438 -17.6984,-4.2132 -82.8941,14.84281 -31.7944,6.3105 23.9027,-5.17643 -8.5625,28.4851 -17.4796,20.36321 -8.021,2.61339 -16.5416,1.93938 -24.8062,1.65048 z m 68.139,-58.76049 c -24.0613,32.01989 37.6679,-13.75439 3.3057,-4.20999 l -2.669,1.5329 z m 12.1627,-15.42219 c -9.0548,-13.52861 -6.7444,15.69038 0,0 z m -28.9996,36.62054 c -32.7414,-7.12225 -8.1186,15.08714 5.1986,6.22056 -1.646,-1.22518 -6.4343,-2.98411 -5.1986,-6.22056 z m 14.998,3.05075 c 5.5219,9.0527 8.6617,-10.80703 0,0 z m -55.0683,30.70392 c 19.2893,11.28689 5.3113,-6.52343 0,0 z m -25.9169,-39.60205 c 11.8277,-7.36359 48.065,15.27613 21.3639,12.45971 43.0416,17.52901 -8.2144,-21.44218 -5.6941,-23.45979 -6.0561,1.5561 -14.0605,3.80008 -15.6698,11.00008 z m -49.1719,-15.98135 c -17.3602,5.5281 34.2868,33.41117 35.1888,7.88407 34.0201,-16.5212 88.665,28.99968 92.5966,-31.37342 -10.2065,-28.15039 -53.0362,-2.98739 -66.264,-1.23567 -22.8061,-5.867 -35.5709,35.0086 -7.9336,11.63168 19.4267,13.09824 -50.5136,23.41249 -53.5879,13.09351 z m 109.2113,-50.40142 c 19.9983,14.61948 30.7498,-3.852 1.0719,-0.19204 z m -4.9117,4.82028 c -24.8495,-3.30531 37.0056,16.42093 2.3574,0.78233 z m -39.2908,-26.52568 c -28.1993,-4.6248 -41.9464,73.91431 -12.7044,28.89559 0.1041,-25.03499 29.2592,-27.30119 7.8086,-9.43678 -3.7425,37.5504 35.4755,-17.64981 4.8958,-19.45881 z m 3.9385,-4.48423 c 31.4573,34.19321 5.1955,-19.86766 0,0 z m 14.5552,25.71825 c 17.7143,9.07394 5.2829,-5.74155 0,0 z m -68.066,40.49567 c 20.2469,-10.80551 -17.1855,-19.7459 0,0 z m 0.8941,-26.95427 c 6.8979,15.70537 6.9958,-10.28103 0,0 z m 4.6099,-9.44305 c 5.5862,14.50112 9.8211,-11.49886 0,0 z m 14.7049,-21.77719 c -24.4509,16.35392 8.3054,24.4986 0,0 z m 10.4516,-32.78319 c -8.5819,16.25211 13.2002,-10.6847 0,0 z m 13.511,16.09059 c -27.5943,6.85424 -19.2138,26.90602 0,0 z m 65.7766,-8.50726 c -13.9829,-22.08623 -83.8528,11.92807 -33.5422,0.65568 11.1502,-3.14384 22.4947,3.26278 33.5422,-0.65568 z m -35.3812,10.61738 c 6.1713,8.14149 7.0451,-9.76357 0,0 z m 40.0232,2.79241 c -14.9543,-1.70774 -36.9284,-7.54393 -18.4715,6.08859 -18.0494,-1.21694 -47.0339,-6.02993 -10.9316,3.12767 0.4081,7.73082 -23.8519,19.19673 3.318,17.06591 -0.4375,-9.52266 39.141,3.27214 6.2533,-9.36109 1.7581,-7.91427 26.5902,-8.07797 19.8318,-16.92108 z m 23.1532,-5.7671 c -19.1257,-17.01502 -8.2943,9.15738 0,0 z m 8.5603,30.34758 c -3.8566,-9.94631 -34.8431,-22.1669 -13.3033,-4.42108 -21.7665,-11.3379 -18.2441,3.34591 0.2206,5.92716 -41.6048,-11.21598 36.4076,34.84721 1.1915,25.7898 -13.7545,-29.6631 -9.5264,12.35264 4.3879,13.35213 -12.6315,4.16268 11.9512,8.9249 2.059,23.56877 12.2082,10.90361 -26.8303,-13.83758 -8.9418,9.86972 11.3342,41.4152 35.1732,-46.9836 10.137,-65.84927 -3.9116,-3.99174 0.6142,-8.07132 4.2491,-8.23723 z m 7.2651,7.17042 c -9.0851,7.80887 12.0685,8.8363 0,0 z m 7.5826,-2.11532 c 13.1885,-4.006 -10.7097,-7.73709 0,0 z"
       id="path1299" />
    <path
       d="m 5066.3785,567.15333 c 19.956,-30.25633 21.7356,18.20726 -0.2592,1.66007 z"
       id="path1300" />
    <path
       d="m 5089.0702,575.5208 c 1.8679,-20.63779 21.5043,3.9023 0,0 z"
       id="path1301" />
    <path
       d="m 5083.9496,578.07048 c 26.7281,8.59635 -4.5086,18.89929 0,0 z"
       id="path1302" />
    <path
       d="m 5052.6218,577.21751 c 11.6284,8.82751 -9.7548,8.16977 0,0 z"
       id="path1303" />
    <path
       d="m 5069.3124,587.36991 c -17.1863,8.72979 3.8978,-20.14777 0,0 z"
       id="path1304" />
    <path
       d="m 5063.1328,680.00421 c -26.2709,-16.69963 16.7713,-25.81611 0,0 z"
       id="path1305" />
    <path
       d="m 5068.6119,714.581 c 16.8586,13.3717 -16.744,-3.20548 0,0 z"
       id="path1306" />
    <path
       d="m 5034.9555,756.8792 c -25.2721,11.29333 6.0693,-24.3314 0,0 z"
       id="path1307" />
    <path
       d="m 5045.6897,757.0457 c -16.3784,-9.01125 12.0159,-6.97722 0,0 z"
       id="path1308" />
    <path
       d="m 5050.6546,760.56133 c 18.7163,-3.71821 -1.1765,21.60329 0,0 z"
       id="path1309" />
    <path
       d="m 5019.4783,766.33529 c -13.1778,-11.34248 15.7363,-5.68976 0,0 z"
       id="path1310" />
    <path
       d="m 5042.2334,771.46461 c -15.2046,18.08581 -5.003,-23.68874 0,0 z"
       id="path1311" />
    <path
       d="m 5054.9389,784.06218 c -19.3109,5.15267 8.8629,-17.02557 0,0 z"
       id="path1312" />
    <path
       d="m 5026.0084,776.52398 c 8.0457,18.77929 -19.6691,-11.69696 0,0 z"
       id="path1313" />
    <path
       d="m 5034.4264,785.21783 c 30.2048,-2.54572 -19.3963,12.84177 0,0 z"
       id="path1314" />
    <path
       d="m 5061.2965,805.59339 c 16.7158,5.86945 -18.0712,-1.35907 0,0 z"
       id="path1315" />
    <polygon
       points=""
       id="polygon1315" />
    <path
       d="m 5032.4302,842.03423 c -10.1239,26.57188 -24.5341,-22.26616 0,0 z"
       id="path1316" />
    <path
       d="m 5006.0386,889.77691 c 24.4554,-5.69428 -4.6957,19.96324 0,0 z"
       id="path1317" />
    <path
       d="m 5023.9911,891.62228 c 2.4682,19.74937 -7.202,3.00074 0,0 z"
       id="path1318" />
    <path
       d="m 5001.7082,908.00169 c 37.6488,0.31481 -27.7128,36.63105 -26.2979,5.10155 -15.8442,-2.96037 -57.6663,5.89577 -19.6269,-5.81262 13.7576,-17.25814 54.212,27.5956 44.7765,5.4848 -6.1874,0.83133 -17.547,-1.30723 1.1483,-4.77373 z"
       id="path1319" />
    <path
       d="m 5031.3715,935.57161 c 5.7945,-29.73498 53.0937,34.84971 18.686,2.79869 -9.4294,-7.58946 -29.126,21.08079 -18.686,-2.79869 z"
       id="path1320" />
    <path
       d="m 4912.6041,918.08222 c 26.5811,-25.07469 21.1195,13.57975 0,0 z"
       id="path1321" />
    <path
       d="m 4943.5012,945.56486 c 3.675,-14.33766 32.6818,-42.05465 31.159,-10.0672 28.7045,-29.29461 56.3293,28.65081 12.9868,19.9704 -30.7797,7.10464 -4.401,-9.83033 10.7611,-9.70808 8.6521,-19.3094 -19.6735,8.34894 -33.6169,-6.59997 -8.1503,7.33182 -42.6467,34.64998 -21.29,6.40485 z"
       id="path1322" />
    <path
       d="m 4899.4904,927.955 c -0.1136,-23.08129 14.4184,1.81438 0,0 z"
       id="path1323" />
    <path
       d="m 5033.6867,963.90399 c 14.48,-16.80459 64.0897,-12.88023 22.1069,3.05673 -8.128,9.07579 -25.0011,25.85082 -22.1069,-3.05673 z"
       id="path1324" />
    <path
       d="m 4940.6907,938.46899 c -35.6347,-2.74354 8.8985,-18.84019 0,0 z"
       id="path1325" />
    <path
       d="m 4887.8544,939.81448 c -2.6533,34.78936 -43.4834,16.18951 -17.9446,7.13454 1.6113,-12.00128 32.7741,-37.7969 17.9446,-7.13454 z m -9.077,3.67987 c -13.8554,3.93299 4.3738,10.62856 0,0 z"
       id="path1326" />
    <path
       d="m 5040.0749,954.16541 c -8.7446,16.90627 -11.1298,-13.75735 0,0 z"
       id="path1327" />
    <path
       d="m 5052.5915,983.38274 c 21.7602,-12.08045 45.6095,-31.32998 20.0187,0.43144 2.0709,26.75232 -43.8636,-3.9253 -20.0187,-0.43144 z"
       id="path1328" />
    <path
       d="m 4924.0769,939.39819 c -3.9978,14.29063 -4.8603,-21.00293 0,0 z"
       id="path1329" />
    <path
       d="m 4960.3698,943.76676 c 33.3773,-9.8718 -15.0893,16.73647 0,0 z"
       id="path1330" />
    <path
       d="m 4992.7948,962.5832 c 45.8778,-19.40444 25.9902,19.06187 0.7973,25.42464 -16.5345,1.37498 -16.9958,-37.14707 -0.7973,-25.42464 z m 14.3041,10.4425 c 15.1483,-11.64245 -10.3037,-21.31258 0,0 z m -13.4508,1.99451 c 27.247,-8.23632 -23.5185,-7.09945 0,0 z"
       id="path1331" />
    <path
       d="m 4912.3753,938.95962 c 9.0458,7.10884 -12.2811,3.74481 0,0 z"
       id="path1332" />
    <path
       d="m 5104.0197,977.93029 c -11.6226,-5.01302 12.1677,-4.33505 0,0 z"
       id="path1333" />
    <path
       d="m 4902.0549,956.02678 c -14.2746,-12.90379 5.8552,-24.29152 0,0 z"
       id="path1334" />
    <path
       d="m 5087.1801,980.13972 c -1.4486,21.29508 55.4848,6.2618 16.8878,17.25713 -17.0778,2.35968 -35.8933,-19.31858 -16.8878,-17.25713 z"
       id="path1335" />
    <path
       d="m 4924.8833,948.06994 c 8.8794,7.02153 -18.7872,1.9069 0,0 z"
       id="path1336" />
    <path
       d="m 5091.6349,980.2144 c 31.4874,-7.45013 -0.5139,19.9623 0,0 z"
       id="path1337" />
    <path
       d="m 5077.9953,998.82868 c 25.4488,6.75872 83.9615,14.02982 75.1447,39.62382 -10.3829,-27.2758 -56.9299,-5.0953 -19.618,-8.3505 12.8913,6.792 -2.1619,35.0834 14.4062,18.601 -20.5949,-6.5408 42.6697,8.9668 -0.3144,8.0828 -4.1326,33.7742 -53.1668,-42.4213 -29.7238,-42.5729 -15.4994,8.7531 -40.6013,7.8032 -39.8947,-15.38422 z m 53.0595,20.42402 c 16.3523,-0.693 -2.2706,-11.1584 0,0 z m -4.0061,18.6883 c 7.5073,18.2803 8.1328,-9.6906 0,0 z"
       id="path1338" />
    <path
       d="m 5158.7977,1067.5032 c 4.1995,-14.6378 22.1772,30.5367 0,0 z"
       id="path1339" />
    <path
       d="m 5160.6182,1078.4861 c 8.1592,29.2947 -14.4503,8.9256 -5.7093,-4.8713 z"
       id="path1340" />
    <path
       d="m 5193.9998,1142.5562 c 15.1894,11.4374 -9.2376,9.8218 0,0 z"
       id="path1341" />
    <path
       d="m 5025.7195,1115.6257 c 14.1034,5.9485 -2.3824,-5.3182 -4.6083,0.6612 z"
       id="path1342" />
    <path
       d="m 5070.6897,1325.3202 c 21.5734,-6.1992 -14.7079,11.2342 0,0 z"
       id="path1343" />
    <path
       d="m 4939.7033,1751.4484 c -11.7147,-10.2503 14.12,-5.2307 0,0 z"
       id="path1344" />
    <path
       d="m 5021.5541,613.47343 c 16.6339,10.26398 14.7987,59.78177 5.9043,18.06237 -0.486,-6.03819 -8.7258,-11.33251 -5.9043,-18.06237 z"
       id="path1345" />
    <path
       d="m 4924.9372,1001.897 c -3.1133,17.4078 -22.1078,4.6658 0,0 z"
       id="path1346" />
    <path
       d="m 4942.2986,1003.6383 c -17.3499,20.4966 -17.5493,-0.4848 0,0 z"
       id="path1347" />
    <path
       d="m 4938.3498,1017.9704 c -14.2903,-3.9447 21.0594,-4.9529 0,0 z"
       id="path1348" />
    <path
       d="m 4927.0374,1025.1146 c -5.2356,15.512 -17.859,12.8293 0,0 z"
       id="path1349" />
    <path
       d="m 4930.0049,1036.5028 c -2.3188,-13.6462 23.8874,-4.9591 0,0 z"
       id="path1350" />
    <path
       d="m 4932.8669,1039.8507 c 10.5268,10.5502 -32.5682,22.6751 -1.978,3.1386 l 1.3698,-2.1734 z"
       id="path1351" />
    <path
       d="m 4929.2675,1066.0233 c -17.1079,1.7564 -8.9069,-7.589 0,0 z"
       id="path1352" />
    <path
       d="m 5093.8071,1104.3779 c -16.2005,26.1029 0.5173,-27.3522 0,0 z"
       id="path1353" />
    <path
       d="m 4929.6277,1073.1948 c -19.5662,1.3074 -10.5432,-7.5096 0,0 z"
       id="path1354" />
    <path
       d="m 5067.2527,1104.6714 c 27.6561,5.433 -3.5455,50.8559 -6.4976,13.8212 -9.1382,-3.9761 -0.759,-28.0439 6.4976,-13.8212 z m 2.5037,8.2601 c 10.9568,-12.8534 -27.9229,10.2936 0,0 z"
       id="path1355" />
    <path
       d="m 4919.786,1076.0289 c 17.9367,13.9232 -23.1573,-3.8951 0,0 z"
       id="path1356" />
    <path
       d="m 4917.7137,1086.63 c 16.7099,5.8484 -17.9991,-1.3221 0,0 z"
       id="path1357" />
    <path
       d="m 4827.888,1073.7362 c 10.2893,11.9926 -16.5392,0.5103 0,0 z"
       id="path1358" />
    <path
       d="m 4921.0343,1097.1668 c -13.5146,10.7094 -4.6274,-12.6845 0,0 z"
       id="path1359" />
    <path
       d="m 4824.3392,1089.2556 c -20.2187,14.0426 -59.4433,-8.7477 -17.88,0.2914 -0.01,-12.102 12.4179,-10.6082 17.88,-0.2914 z"
       id="path1360" />
    <path
       d="m 4899.5146,1100.5818 c -16.4524,11.9843 -28.009,-7.876 -2.164,-0.4466 z"
       id="path1361" />
    <path
       d="m 4920.2767,1106.0705 c -12.1635,3.2378 -5.3083,-8.6554 0,0 z"
       id="path1362" />
    <path
       d="m 4924.3917,1119.5904 c 3.0027,11.4056 -8.4133,6.707 0,0 z"
       id="path1363" />
    <path
       d="m 5052.0755,1146.9785 c 4.8826,-15.8218 15.6824,17.299 0,0 z"
       id="path1364" />
    <path
       d="m 5079.4068,1151.4931 c -12.1082,3.1341 -5.4628,-8.5366 0,0 z"
       id="path1365" />
    <path
       d="m 4881.5253,1123.7094 c 16.5816,17.4112 -17.6797,-5.8629 0,0 z"
       id="path1366" />
    <path
       d="m 4899.2643,1134.2498 c 6.2012,16.4798 -16.573,-25.7217 0,0 z"
       id="path1367" />
    <path
       d="m 5053.9489,1162.8448 c -23.5193,-9.1214 40.0099,1.2359 0,0 z"
       id="path1368" />
    <path
       d="m 4890.9519,1137.0488 c 15.1618,6.2518 -6.0267,9.7205 0,0 z"
       id="path1369" />
    <path
       d="m 4811.5608,1135.2352 c -5.8875,-13.3954 11.6575,-3.1243 0,0 z"
       id="path1370" />
    <path
       d="m 5060.7165,1173.9894 c 13.4597,-10.7001 4.6878,12.6018 0,0 z"
       id="path1371" />
    <path
       d="m 5079.0343,1180.6719 c -15.2489,-6.3732 6.1423,-9.6047 0,0 z"
       id="path1372" />
    <path
       d="m 4871.4364,1140.6142 c 11.8084,8.5544 -7.99,8.4141 0,0 z"
       id="path1373" />
    <path
       d="m 4968.1453,1162.8453 c -12.0072,13.6212 -0.4004,-17.1848 0,0 z"
       id="path1374" />
    <path
       d="m 4892.3562,1153.8479 c 6.2487,16.4354 -16.5992,-25.5393 0,0 z"
       id="path1375" />
    <path
       d="m 4887.4736,1159.0797 c 12.7278,26.2552 -20.9941,-29.7854 0,0 z"
       id="path1376" />
    <path
       d="m 4808.3749,1178.6413 c 6.1475,33.7752 -24.8646,10.2439 -8.5761,-9.3843 -1.3941,-25.2104 7.0693,9.9562 10.8307,-14.6177 -0.7188,5.3103 -13.2607,22.9981 -2.2546,24.002 z"
       id="path1377" />
    <path
       d="m 4875.9061,1165.3664 c 11.2338,-9.435 4.9111,21.9225 0,0 z"
       id="path1378" />
    <path
       d="m 5030.7003,1191.0361 c -0.9363,14.8592 -18.983,1.6369 0,0 z"
       id="path1379" />
    <path
       d="m 4894.8908,1176.3296 c 8.4786,-11.4557 8.4741,9.503 0,0 z"
       id="path1380" />
    <path
       d="m 4872.1617,1189.4826 c -14.5308,-16.4812 18.4072,-17.7449 0,0 z"
       id="path1381" />
    <path
       d="m 5067.0715,1216.844 c -13.3787,10.6825 -4.7851,-12.5478 0,0 z"
       id="path1382" />
    <path
       d="m 4856.6645,1181.7743 c 15.7954,16.2189 -14.1846,-6.7279 0,0 z"
       id="path1383" />
    <path
       d="m 4897.9278,1187.3239 c 15.9233,5.1004 -12.2891,1.2236 0,0 z"
       id="path1384" />
    <path
       d="m 4781.901,1173.8718 c 15.9015,5.1448 -12.2773,1.1537 0,0 z"
       id="path1385" />
    <polygon
       points=""
       id="polygon1385" />
    <path
       d="m 4946.5856,1214.283 c 4.7392,24.9212 -34.2962,63.8771 -16.1697,18.0948 -8.205,-6.9607 13.6287,-14.8868 0.9712,-31.67 7.7907,-0.3389 13.1515,6.9202 15.1985,13.5752 z"
       id="path1386" />
    <path
       d="m 5064.2815,1233.8175 c -15.8762,-7.6757 -2.3156,-18.5381 0,0 z"
       id="path1387" />
    <path
       d="m 4896.1393,1197.4676 c 15.9232,5.1002 -12.2891,1.2234 0,0 z"
       id="path1388" />
    <path
       d="m 5029.5356,1231.0417 c -30.3737,2.6875 11.8656,-16.0964 3.7254,1.6695 l -2.3441,-1.0506 z"
       id="path1389" />
    <path
       d="m 5057.9158,1237.6705 c -2.8201,14.9724 -13.6536,-19.4239 0,0 z"
       id="path1390" />
    <path
       d="m 4777.605,1190.1734 c 21.2855,-8.9505 -9.507,10.0897 0,0 z"
       id="path1391" />
    <path
       d="m 4870.455,1206.6469 c -33.6213,16.3801 -15.2311,-17.4984 0,0 z"
       id="path1392" />
    <path
       d="m 4885.6384,1209.2228 c 29.586,-11.9053 1.7746,11.2312 0,0 z"
       id="path1393" />
    <path
       d="m 4796.236,1198.5358 c -9.6246,14.7122 22.3389,23.3447 3.8869,42.8457 1.8267,28.9853 -32.6155,10.1998 -2.9925,4.1522 10.6784,-23.8753 -44.8282,-48.1787 -0.8944,-46.9979 z"
       id="path1394" />
    <path
       d="m 4888.8724,1220.2518 c 30.7205,-4.6235 -15.0255,9.3335 0,0 z"
       id="path1395" />
    <path
       d="m 4873.9678,1223.0055 c -12.7063,12.1702 6.2269,-15.7006 0,0 z"
       id="path1396" />
    <path
       d="m 5026.8566,1251.9948 c -3.884,-12.3283 13.7206,14.0979 0,0 z"
       id="path1397" />
    <path
       d="m 4853.2064,1224.4218 c 15.9333,6.8952 -13.7873,4.0382 0,0 z"
       id="path1398" />
    <path
       d="m 4874.641,1231.8569 c 8.8275,-11.6283 8.1696,9.7549 0,0 z"
       id="path1399" />
    <path
       d="m 5053.4012,1265.0017 c -13.1952,-3.6583 14.5105,-7.9161 0,0 z"
       id="path1400" />
    <path
       d="m 4855.5426,1236.5112 c 14.421,11.2606 -29.2487,2.5861 -6.196,0.5357 z"
       id="path1401" />
    <path
       d="m 4894.2515,1244.4536 c -22.001,3.999 -2.6034,-7.9923 0,0 z"
       id="path1402" />
    <path
       d="m 4789.1265,1229.065 c 15.8114,16.2076 -14.1214,-6.6604 0,0 z"
       id="path1403" />
    <path
       d="m 5037.409,1278.5303 c -16.3821,29.4643 -8.1592,-29.6753 0,0 z"
       id="path1404" />
    <path
       d="m 4858.5737,1248.1139 c 22.8789,-14.8027 -8.2882,16.1585 0,0 z"
       id="path1405" />
    <path
       d="m 4883.6051,1250.6998 c 5.908,-10.8446 11.148,9.9354 0,0 z"
       id="path1406" />
    <path
       d="m 4847.2661,1247.7447 c 8.4086,15.3584 -17.3456,7.6087 0,0 z"
       id="path1407" />
    <path
       d="m 4865.6655,1256.2693 c 15.3617,-15.4802 1.7716,17.1972 0,0 z"
       id="path1408" />
    <path
       d="m 4926.2483,1265.1237 c 5.994,-11.4629 8.1139,14.7554 0,0 z"
       id="path1409" />
    <path
       d="m 4912.1487,1266.1917 c 30.7052,-4.6025 -14.9854,9.2968 0,0 z"
       id="path1410" />
    <path
       d="m 4852.349,1264.9892 c 4.7501,-5.9975 20.5132,9.5885 0,0 z"
       id="path1411" />
    <path
       d="m 5012.7744,1337.0415 c 3.786,-18.3578 23.4208,-57.6684 15.5587,-15.8996 -2.4324,6.8901 -6.8625,16.0723 -15.5587,15.8996 z"
       id="path1412" />
    <path
       d="m 4774.1154,1257.1857 c -23.4723,16.457 10.3214,-16.0305 0.6394,-3.7817 z"
       id="path1413" />
    <path
       d="m 4922.9501,1292.4664 c -42.2327,-9.8049 14.5101,-22.4922 0,0 z"
       id="path1414" />
    <path
       d="m 4782.7294,1257.2829 c 15.129,6.2439 -5.95,9.7088 0,0 z"
       id="path1415" />
    <path
       d="m 4854.523,1276.8468 c 12.3363,-9.6856 -1.0429,12.2232 0,0 z"
       id="path1416" />
    <path
       d="m 4788.7977,1321.9186 c 8.9025,20.647 -35.5133,66.4967 -12.1213,27.1044 -29.9651,12.1965 23.1488,-20.5813 -11.0053,-8.8176 17.43,1.4034 5.531,-20.2044 14.9216,-20.8943 -2.7836,-19.2127 24.9759,-72.1373 12.6622,-23.209 -1.3481,8.6292 -3.1197,17.1854 -4.4568,25.8166 z"
       id="path1417" />
    <path
       d="m 4863.6652,1285.4653 c 5.8665,10.4452 -14.3628,4.1757 0,0 z"
       id="path1418" />
    <path
       d="m 4903.534,1302.9542 c -13.7461,-14.6126 22.088,0.4225 0,0 z"
       id="path1419" />
    <path
       d="m 4916.9437,1298.3122 c 6.0094,-11.4552 8.0264,14.6881 0,0 z"
       id="path1420" />
    <path
       d="m 5007.9172,1316.7903 c 16.2188,-15.7954 -6.728,14.185 0,0 z"
       id="path1421" />
    <path
       d="m 4765.8572,1273.4994 c -3.3561,16.301 -12.7122,-1.3773 0,0 z"
       id="path1422" />
    <path
       d="m 4772.7525,1286.7988 c -12.1926,-9.9938 21.4812,-13.8206 0,0 z"
       id="path1423" />
    <path
       d="m 4871.9846,1292.4156 c 15.7956,16.2186 -14.1847,-6.728 0,0 z"
       id="path1424" />
    <path
       d="m 4852.9627,1304.6991 c 28.5456,35.8071 -22.835,-7.1427 0,0 z"
       id="path1425" />
    <path
       d="m 4863.9456,1302.8786 c -5.9211,11.4507 -8.2226,-14.703 0,0 z"
       id="path1426" />
    <path
       d="m 4901.9996,1308.7763 c 32.8009,5.979 -24.719,11.5532 0,0 z"
       id="path1427" />
    <path
       d="m 4993.4674,1341.1513 c -10.2966,-33.2275 18.2627,-7.6692 0,0 z"
       id="path1428" />
    <path
       d="m 5011.6323,1330.849 c -12.706,12.1704 6.227,-15.7004 0,0 z"
       id="path1429" />
    <path
       d="m 4930.2242,1321.4702 c -19.9055,-6.3446 -3.8,-13.0689 0,0 z"
       id="path1430" />
    <path
       d="m 4835.8625,1306.6594 c 2.0985,-18.6702 7.6807,19.5523 0,0 z"
       id="path1431" />
    <path
       d="m 4907.9626,1323.3328 c 2.8917,23.0068 -24.5076,1.187 0,0 z"
       id="path1432" />
    <path
       d="m 5012.0929,1351.848 c 25.863,-17.397 -5.9335,21.5285 -0.7586,1.0591 z"
       id="path1433" />
    <path
       d="m 4846.1879,1324.1178 c -9.5899,5.3157 -2.8333,18.7159 -13.5506,-0.6909 2.9865,-3.4712 12.5515,-5.498 13.5506,0.6909 z"
       id="path1434" />
    <path
       d="m 5003.2645,1351.8147 c -14.4161,12.52 -10.6702,-16.5738 0,0 z"
       id="path1435" />
    <path
       d="m 4862.3973,1331.2407 c 5.1829,42.2986 -48.2863,10.3223 0,0 z"
       id="path1436" />
    <path
       d="m 4988.6263,1354.2092 c -1.6513,25.3428 -11.9333,-20.8781 0,0 z"
       id="path1437" />
    <path
       d="m 4894.411,1350.086 c 9.7899,-31.4611 7.4397,27.0372 -4.7011,12.494 -4.7339,-0.9792 10.9567,-10.089 4.7011,-12.494 z"
       id="path1438" />
    <path
       d="m 4917.17,1342.5232 c -2.4922,-8.0299 15.2669,8.0677 0,0 z"
       id="path1439" />
    <path
       d="m 4996.7278,1375.6414 c -26.8611,7.4021 16.7225,-29.9531 -5.8698,-1.6949 8.7842,-8.6633 37.2457,-5.826 11.5474,0.3607 z"
       id="path1440" />
    <path
       d="m 4917.8143,1350.9633 c 15.9233,5.1003 -12.2892,1.2233 0,0 z"
       id="path1441" />
    <path
       d="m 4834.2245,1358.5635 c 19.8479,-12.4873 24.4498,5.9954 10.0633,16.7929 -20.3777,-12.5657 -57.035,-7.0829 -41.5537,21.6245 6.5598,-47.9265 52.271,-3.0264 29.0783,5.2422 -13.4123,-34.8644 -53.1767,32.1276 -12.9098,6.2112 34.1737,15.0696 -30.5044,3.6965 -21.4177,29.948 43.3797,10.5895 -38.4215,21.1285 -0.7491,42.2293 33.7624,-0.8281 0.3159,2.8366 -8.0752,12.7429 23.6619,-3.8331 4.3688,3.2969 18.1438,15.5314 -24.0632,13.7055 -17.6828,-3.2843 -31.4103,15.4049 -10.8024,-37.8672 13.9477,-71.3724 10.3679,-106.3164 -1.9577,-30.8131 9.9413,-66.7402 48.4621,-59.4109 z m -9.754,7.5206 c 60.8393,9.1166 -13.8937,-12.3372 0,0 z m 0.2519,20.4545 c 13.118,-3.8945 -10.5231,-7.8505 0,0 z m -27.0613,61.3325 c 20.9795,0.1485 -15.3485,-7.9776 0,0 z m -19.4034,61.6676 c 23.1837,2.7877 13.0574,-25.2151 0,0 z m 18.2522,-89.693 c 8.1416,-6.1714 -9.7635,-7.0453 0,0 z"
       id="path1442" />
    <path
       d="m 4913.5929,1362.8104 c -2.4997,-8.0173 15.2971,8.006 0,0 z"
       id="path1443" />
    <path
       d="m 4978.4986,1382.2768 c 9.1239,-14.5985 0.093,15.0757 0,0 z"
       id="path1444" />
    <path
       d="m 5003.686,1382.25 c -5.1411,28.4629 -46.6094,14.1407 0,0 z m -7.2805,8.4644 c 13.3208,-8.2797 -11.8426,-3.2005 0,0 z"
       id="path1445" />
    <path
       d="m 4898.7469,1371.5653 c -14.7022,21.8197 -15.6832,-19.0612 0,0 z"
       id="path1446" />
    <path
       d="m 4910.1997,1373.9909 c 15.8915,5.0442 -12.188,1.2792 0,0 z"
       id="path1447" />
    <path
       d="m 4753.6976,1353.4018 c 15.8911,5.0441 -12.1882,1.279 0,0 z"
       id="path1448" />
    <path
       d="m 4913.8799,1384.794 c -25.4789,9.4721 7.9405,-9.6998 0,0 z"
       id="path1449" />
    <path
       d="m 4886.3231,1383.286 c 33.3774,-9.8717 -15.0893,16.7365 0,0 z"
       id="path1450" />
    <path
       d="m 4904.1147,1396.9834 c 10.6028,-16.0412 2.514,22.8019 0,0 z"
       id="path1451" />
    <path
       d="m 4889.1699,1402.2687 c -8.93,-17.6261 23.3931,20.8477 -8.8603,12.3252 -0.5492,-3.5807 19.2785,-14.1528 8.8603,-12.3252 z"
       id="path1452" />
    <path
       d="m 4777.6084,1380.7697 c 1.3156,14.8022 -7.8971,11.8223 0,0 z"
       id="path1453" />
    <path
       d="m 4751.2867,1387.8058 c 23.075,-16.3355 -17.6286,26.3719 -0.8505,1.2405 z"
       id="path1454" />
    <path
       d="m 4898.1634,1423.2493 c -8.7898,-1.1172 -38.7068,20.6122 -16.0544,-4.6219 23.1116,-18.9401 30.6104,29.5065 16.0544,4.6219 z"
       id="path1455" />
    <path
       d="m 4752.389,1399.9821 c 22.1724,-21.6514 -15.2723,27.229 0,0 z"
       id="path1456" />
    <path
       d="m 4947.2705,1432.1112 c 15.3319,-7.7447 7.2,18.0971 0,0 z"
       id="path1457" />
    <path
       d="m 4975.5037,1464.912 c -39.2898,25.7377 33.1881,-26.436 -7.8397,-8.1601 9.7199,-19.7186 16.7767,-22.6274 15.8516,-7.6572 21.2502,5.1858 -17.8265,21.8748 -1.6154,34.1871 -6.707,-0.3935 -5.5994,-13.3922 -6.3965,-18.3698 z"
       id="path1458" />
    <path
       d="m 4772.5066,1435.617 c -22.6949,65.9861 5.1938,-76.4428 1.1363,-7.6274 z"
       id="path1459" />
    <path
       d="m 4747.8966,1419.7016 c 7.8237,-17.375 28.1298,-12.1696 0,0 z"
       id="path1460" />
    <path
       d="m 4837.3792,1423.5993 c 21.3113,-8.9281 -9.4102,9.9448 0,0 z"
       id="path1461" />
    <path
       d="m 4890.5796,1499.0845 c -16.3076,32.9297 -48.7074,4.5058 -24.0268,-18.7645 -1.1664,-18.7341 30.9981,-68.6759 31.9927,-32.2837 -22.5342,16.6293 -18.1004,56.309 -33.612,53.231 -3.5293,27.4727 36.3005,-26.9373 25.6461,-2.1828 z m 3.6233,-62.013 c -16.1671,5.3778 12.4787,7.7528 0,0 z m -6.3176,16.2498 c 27.0404,-6.4576 -22.4573,-7.5544 0,0 z m -9.1916,12.3923 c -6.1514,-16.2627 -10.7286,12.8411 0,0 z"
       id="path1462" />
    <path
       d="m 4824.9363,1425.061 c 0.6831,13.4937 -31.573,-2.1413 0,0 z"
       id="path1463" />
    <path
       d="m 4848.4094,1428.9968 c 11.8084,8.5545 -7.99,8.4141 0,0 z"
       id="path1464" />
    <path
       d="m 4841.9468,1444.9165 c -28.475,-1.3744 -18.2194,-10.1117 2.3794,-3.1497 l -0.4077,1.5777 z"
       id="path1465" />
    <path
       d="m 4962.5156,1461.4035 c -3.3928,16.4503 -12.7146,-1.4652 0,0 z"
       id="path1466" />
    <path
       d="m 4825.9418,1449.3038 c 15.5877,-4.8714 14.757,16.56 0,0 z"
       id="path1467" />
    <path
       d="m 4740.4437,1437.7823 c 17.4673,18.0131 -20.0432,18.7914 0,0 z"
       id="path1468" />
    <path
       d="m 4820.4923,1460.6296 c -10.8345,-5.8804 9.9181,-11.199 0,0 z"
       id="path1469" />
    <path
       d="m 4967.508,1495.2852 c -5.2762,10.8264 -12.4949,4.3823 -27.7829,4.702 6.0914,-9.6797 14.4051,-14.7733 34.03,-15.6132 1.5638,2.8327 -3.804,20.294 -6.2471,10.9112 z"
       id="path1470" />
    <path
       d="m 4829.396,1461.3872 c 3.0639,11.4938 -8.467,6.5644 0,0 z"
       id="path1471" />
    <path
       d="m 4894.8401,1477.8008 c -14.5146,20.4703 -16.8574,-6.3278 0,0 z"
       id="path1472" />
    <path
       d="m 4823.4086,1479.2185 c 3.9797,26.81 -16.1716,-26.7569 -31.4899,-9.2462 9.0579,-4.8139 35.3162,-8.816 31.4899,9.2462 z"
       id="path1473" />
    <path
       d="m 4748.7562,1561.0991 c 4.7847,-29.6149 2.2559,-73.4858 15.2263,-93.4939 -3.498,30.619 0.1492,65.8447 -15.2263,93.4939 z"
       id="path1474" />
    <path
       d="m 4960.008,1507.874 c 13.2856,11.1631 -16.5282,7.0942 0,0 z"
       id="path1475" />
    <path
       d="m 4976.2419,1524.6478 c -11.3425,13.1778 -5.6893,-15.7363 0,0 z"
       id="path1476" />
    <path
       d="m 4853.8396,1528.349 c 3.8888,-6.1789 37.2671,-14.115 15.5775,-1.7465 36.0668,-10.8556 -9.3063,18.2762 -15.5775,1.7465 z"
       id="path1477" />
    <path
       d="m 4812.0057,1543.3119 c -30.0558,8.5169 -9.0582,-49.5115 -5.052,-7.7233 1.56,2.6542 3.3674,5.1494 5.052,7.7233 z"
       id="path1478" />
    <path
       d="m 4876.1738,1548.5341 c -3.8493,9.3289 -17.3769,39.6185 -26.6918,13.1068 16.5893,-11.6471 17.241,-23.1953 -0.038,-17.1886 9.6892,-7.112 55.4619,-18.1321 26.7295,4.0818 z m -17.0879,7.6489 c -9.0526,5.5219 10.8072,8.6617 0,0 z"
       id="path1479" />
    <path
       d="m 4776.1519,1528.9681 c 21.1427,-7.6687 -11.0886,41.4206 22.5831,23.8845 -33.1559,25.1842 -46.6942,6.8471 -22.5831,-23.8845 z"
       id="path1480" />
    <path
       d="m 4984.8613,1564.4493 c -3.6136,13.3514 -8.0733,-14.8312 0,0 z"
       id="path1481" />
    <path
       d="m 4789.4432,1547.4571 c -19.759,13.2755 3.4191,-12.1982 0,0 z"
       id="path1482" />
    <path
       d="m 4811.2079,1554.7472 c 4.2296,12.5716 -17.1947,0.073 0,0 z"
       id="path1483" />
    <path
       d="m 4852.3575,1575.9144 c -14.4162,12.5201 -10.6703,-16.5737 0,0 z"
       id="path1484" />
    <path
       d="m 4844.6376,1590.9015 c 15.5765,-26.3193 27.8889,0.2086 6.833,7.452 18.5231,5.3864 19.9208,10.0183 -1.686,9.0266 -5.2642,-3.8835 -5.3998,-10.7201 -5.1465,-16.4786 z"
       id="path1485" />
    <path
       d="m 4948.9665,1589.4968 c 15.9668,9.122 -12.6697,5.6285 0,0 z"
       id="path1486" />
    <path
       d="m 4777.2005,1571.3948 c -37.0949,16.0896 20.1391,-19.946 2.3261,-1.5125 l -2.1539,1.4006 z"
       id="path1487" />
    <path
       d="m 4798.9073,1579.5886 c 13.9998,3.6775 -72.7071,9.0852 -19.8592,-3.6712 5.8401,-2.7214 20.1985,-8.3235 19.8592,3.6712 z"
       id="path1488" />
    <path
       d="m 4813.0479,1581.1681 c -10.6027,-14.4848 11.2807,-1.5251 0,0 z"
       id="path1489" />
    <path
       d="m 4743.9809,1588.1814 c -10.1624,-29.9357 25.0969,-22.2494 0,0 z"
       id="path1490" />
    <path
       d="m 4923.7082,1619.8721 c 4.3087,-18.0983 24.2808,-4.5958 0,0 z"
       id="path1491" />
    <path
       d="m 4752.194,1622.2248 c -1.1383,-24.8206 26.7739,-42.8087 26.7554,-29.2279 31.3715,-4.3548 25.2088,2.2877 -0.6696,5.2294 -22.0814,10.7108 21.1811,10.7587 -7.5044,15.9669 -10.3095,17.7759 12.5962,-7.2459 0.9488,18.0324 -7.288,0.6701 -15.4597,-4.1619 -19.5302,-10.0008 z"
       id="path1492" />
    <path
       d="m 4839.8031,1608.5299 c -11.6284,-8.8275 9.755,-8.1698 0,0 z"
       id="path1493" />
    <path
       d="m 4941.2381,1624.6893 c -2.4807,22.9806 -17.3883,-17.4194 0,0 z"
       id="path1494" />
    <path
       d="m 4741.4057,1608.5435 c -0.3339,-40.4588 14.7558,24.944 0,0 z"
       id="path1495" />
    <path
       d="m 4791.7449,1603.5085 c 22.8144,-8.3571 -1.4367,11.7678 0,0 z"
       id="path1496" />
    <path
       d="m 4820.108,1611.962 c -11.6748,-8.4347 7.7452,-8.4921 0,0 z"
       id="path1497" />
    <path
       d="m 4838.3717,1687.4806 c -20.4701,58.3535 -25.054,120.8829 -45.3652,179.2838 -0.2646,-48.1953 22.9252,-93.4716 28.6885,-141.2756 12.1889,-30.6383 11.2692,-99.1387 26.6568,-106.8955 7.7535,23.1333 -12.1755,45.3719 -9.9801,68.8873 z"
       id="path1498" />
    <path
       d="m 4812.4805,1624.1222 c 3.9524,12.8476 -9.8891,43.8477 -9.3032,10.3915 -1.3689,-7.2624 13.3314,-35.7165 9.3032,-10.3915 z"
       id="path1499" />
    <path
       d="m 4797.1857,1612.388 c 20.1358,13.6423 -23.0016,2.1474 0,0 z"
       id="path1500" />
    <path
       d="m 4934.3529,1643.5806 c -25.4062,-4.565 24.8401,-4.065 0,0 z"
       id="path1501" />
    <path
       d="m 4928.0115,1655.3585 c -35.6674,10.1471 18.0342,-17.2419 0,0 z"
       id="path1502" />
    <path
       d="m 4742.4573,1629.6468 c 5.8099,-16.7138 -1.2586,17.8766 0,0 z"
       id="path1503" />
    <path
       d="m 4770.5084,1645.0517 c -42.3969,42.7584 -9.7044,-39.046 0,0 z"
       id="path1504" />
    <path
       d="m 4917.9684,1667.3974 c 7.1623,-13.1573 18.4174,1.1142 0,0 z"
       id="path1505" />
    <path
       d="m 4787.2661,1637.5479 c 11.8083,8.5544 -7.9902,8.414 0,0 z"
       id="path1506" />
    <path
       d="m 4722.4785,1635.2628 c 18.21,-1.7482 0.9644,27.4317 0,0 z"
       id="path1507" />
    <path
       d="m 4779.0009,1647.5648 c -0.058,-14.0931 7.0873,17.0668 0,0 z"
       id="path1508" />
    <path
       d="m 4801.6292,1657.4441 c -0.4979,-28.2888 7.3521,34.6653 0,0 z"
       id="path1509" />
    <path
       d="m 4918.775,1677.7954 c -25.9946,-2.563 29.921,-7.2544 0,0 z"
       id="path1510" />
    <path
       d="m 4783.3188,1662.2374 c -0.089,-14.084 7.1734,17.1018 0,0 z"
       id="path1511" />
    <path
       d="m 4731.4182,1768.8446 c 11.0573,-35.0348 0.5304,-90.8725 29.1725,-92.7536 -39.6002,-11.1928 31.3179,-21.3851 0.209,-6.6519 23.8971,23.5348 -11.2425,18.2972 -5.7061,21.4063 24.8724,13.1366 22.6327,5.4394 -1.7323,11.1932 -7.9642,20.2334 53.4798,65.9119 8.0402,30.3132 -26.021,-15.3075 -16.7279,39.2258 -15.4501,33.7901 28.4986,-9.1711 -34.6545,22.313 -0.4647,18.0967 -5.2991,-20.4862 14.6811,21.9942 -10.4232,8.8684 27.0617,4.3769 50.5583,62.9937 18.4427,17.3798 -26.5094,-25.4783 -8.8996,36.9873 -28.4455,9.202 -0.5462,-17.2076 6.4402,-33.7274 6.3575,-50.8442 z"
       id="path1512" />
    <path
       d="m 4731.0033,1660.6284 c 25.6308,-10.6433 -13.2297,16.245 0,0 z"
       id="path1513" />
    <path
       d="m 4794.4082,1677.0888 c 12.8764,-10.9153 3.3009,14.1902 0,0 z"
       id="path1514" />
    <path
       d="m 4909.7477,1704.2294 c -26.8722,13.8766 13.535,-3.1233 7.3745,-6.048 z"
       id="path1515" />
    <path
       d="m 4730.659,1683.3131 c -16.4523,-17.272 22.9896,-13.885 0,0 z"
       id="path1516" />
    <path
       d="m 4857.2294,1701.4678 c 27.2899,-15.8879 24.6757,36.5178 -0.2715,40.3357 -12.0202,15.9512 16.1923,4.9605 -8.4842,17.0614 -18.0904,-10.1185 -1.4852,-1.1887 -15.4891,13.186 -23.2124,-29.5333 46.8271,-31.4636 8.6674,-41.0455 10.8225,-9.7045 33.3998,-17.3159 10.4169,-1.7285 25.405,11.2295 21.0968,-52.5845 2.3343,-12.0611 -25.2234,18.0006 -10.6317,-11.6452 2.8265,-15.7479 z m -11.804,13.9623 c 17.353,-1.3245 15.81,-19.0346 0,0 z"
       id="path1517" />
    <path
       d="m 4908.5842,1710.8277 c 9.3709,-10.4321 9.0129,20.3339 0,0 z"
       id="path1518" />
    <polygon
       points=""
       id="polygon1518" />
    <path
       d="m 4782.6861,1694.6195 c 22.3805,9.8294 0.8952,14.8779 0,0 z"
       id="path1519" />
    <path
       d="m 4799.6938,1695.4861 c 11.6383,8.8633 -9.755,8.1428 0,0 z"
       id="path1520" />
    <path
       d="m 4727.4172,1699.3947 c -8.9056,-31.7304 18.9841,4.808 0,0 z"
       id="path1521" />
    <path
       d="m 4885.2757,1724.3861 c -8.2915,-26.0327 12.1051,8.9457 0,0 z"
       id="path1522" />
    <path
       d="m 4901.8371,1722.0262 c 11.5373,12.3725 -22.2381,24.9069 -13.9593,21.9475 4.8557,-12.3532 -34.4962,-3.9168 -3.9202,-12.4241 6.3033,1.5324 17.2965,-1.8371 17.8795,-9.5234 z"
       id="path1523" />
    <path
       d="m 4795.2473,1712.0657 c 12.3462,-9.6628 -1.0922,12.176 0,0 z"
       id="path1524" />
    <path
       d="m 4774.5098,1717.9542 c -11.9378,14.2301 -22.9404,-32.4491 0,0 z"
       id="path1525" />
    <path
       d="m 4726.4487,1732.5298 c -6.1781,-23.8764 12.5357,-36.3747 0,0 z"
       id="path1526" />
    <path
       d="m 4795.5264,1719.1215 c 11.6381,8.8633 -9.7551,8.1428 0,0 z"
       id="path1527" />
    <path
       d="m 4819.7272,1831.227 c -0.89,-24.9017 7.4881,-37.9575 29.4867,-37.9236 0.1376,-13.2076 -25.5037,-4.1445 -3.0552,-21.0897 8.7399,-32.1424 53.5494,-24.7997 22.9864,11.7151 -3.2803,22.6048 -18.4381,-20.1422 3.2128,-16.2277 -13.8183,-0.1682 -46.5056,23.6884 -15.0642,11.712 2.7088,25.6156 -34.5991,23.5231 -37.5665,51.8139 z m 45.9395,-67.0412 c 22.3899,-8.3924 -11.0583,-4.862 0,0 z"
       id="path1528" />
    <path
       d="m 4893.6799,1757.3463 c 16.7841,19.2085 -31.1674,30.7174 -1.7075,8.3321 0.8923,-6.4137 -17.444,-21.2357 1.7075,-8.3321 z"
       id="path1529" />
    <path
       d="m 4756.8914,1741.8579 c 29.61,-16.7017 -8.2766,16.2917 0,0 z"
       id="path1530" />
    <path
       d="m 4772.4061,1752.92 c -16.7252,18.0167 -23.7906,-16.7984 0,0 z"
       id="path1531" />
    <path
       d="m 4773.1088,1765.6352 c -3.3933,16.4874 -12.7397,-1.5385 0,0 z"
       id="path1532" />
    <path
       d="m 4877.6345,1846.6164 c -18.2619,-2.5557 -25.5542,28.7262 -35.4467,1.0965 -15.2858,0.2021 -7.0854,31.177 4.3879,11.3268 5.5296,22.9542 -38.2677,1.846 -16.5066,26.4069 16.4704,-11.7611 34.2508,-21.1051 8.769,-1.9698 17.1139,-5.4508 41.4153,-16.46 16.9832,10.133 -19.9782,19.2891 -37.1164,-19.7796 -27.5635,9.381 28.664,8.6286 14.362,19.05 -7.2367,2.0772 -4.9561,-12.3843 7.8433,-39.3311 -16.1278,-20.8118 -5.9416,-14.8369 22.2151,-65.2813 13.2487,-40.497 21.7532,-10.6845 8.0869,-30.7921 37.2472,-39.5804 19.4855,-16.1911 42.2006,-18.4991 32.2668,1.2747 -0.5897,-2.0139 -53.6352,33.1909 -21.4107,2.491 49.5383,-39.6559 -61.9755,28.9353 -21.0965,23.9339 -7.1425,-11.3098 20.4444,1.9617 32.5984,-8.7706 6.5179,-1.4754 12.3089,-22.3575 6.6488,5.6748 -2.4164,5.6703 -2.0255,13.2158 -6.7615,17.8338 z m -43.5549,51.2147 c 18.4672,-3.4708 33.0326,-27.2313 6.7588,-5.4254 z m -11.1914,-39.0364 c -11.4931,13.307 24.3331,-18.3219 0,0 z m 51.3615,-26.3821 c -40.3252,-5.9897 -21.8296,39.5511 0,0 z"
       id="path1533" />
    <path
       d="m 4828.2427,1790.9944 c -10.5347,-10.8934 10.2676,-14.9344 0,0 z"
       id="path1534" />
    <path
       d="m 4775.4162,1779.0395 c 15.1829,11.4696 -9.2141,9.7913 0,0 z"
       id="path1535" />
    <path
       d="m 4719.719,1785.6687 c -18.9923,5.41 -8.9163,-14.8853 0,0 z"
       id="path1536" />
    <path
       d="m 4775.6063,1813.09 c -4.7885,12.964 -16.6988,-38.1533 -3.0923,-3.1219 l 1.8079,1.825 z"
       id="path1537" />
    <path
       d="m 4711.8068,1791.3814 c 10.2951,12.0151 -16.5153,0.4646 0,0 z"
       id="path1538" />
    <path
       d="m 4706.045,1848.2447 c -12.8211,-27.7974 16.9142,-45.6069 5.4688,-6.9063 l -2.0855,3.9704 z"
       id="path1539" />
    <path
       d="m 4705.8478,1804.4451 c 18.7699,5.9798 -14.234,2.9067 0,0 z"
       id="path1540" />
    <path
       d="m 4712.3656,1810.6715 c -0.053,-0.1438 -0.053,-0.1438 0,0 z"
       id="path1541" />
    <path
       d="m 4740.8253,1807.0587 c 19.6124,13.0368 15.2222,42.9409 7.7522,9.5147 0.6044,-3.9811 -12.6324,-5.9062 -7.7522,-9.5147 z"
       id="path1542" />
    <path
       d="m 4741.3037,1831.4117 c -11.6283,-8.8275 9.7549,-8.1698 0,0 z"
       id="path1543" />
    <path
       d="m 4871.8899,1859.6162 c -10.6029,-14.4847 11.2807,-1.5251 0,0 z"
       id="path1544" />
    <path
       d="m 4718.958,1854.4819 c -3.3342,-65.0553 66.3869,49.1466 25.1316,2.7243 -28.061,-30.563 8.186,29.0084 -22.6095,29.4018 14.5963,10.3656 -5.694,44.7601 -1.3501,49.9453 -25.8862,-4.5218 6.5709,-42.0504 -2.6703,-63.4325 18.0615,-17.6157 10.053,-3.8092 1.4983,-18.6389 z"
       id="path1545" />
    <path
       d="m 4863.2471,1860.834 c -0.058,-14.0931 7.0871,17.0668 0,0 z"
       id="path1546" />
    <path
       d="m 4749.3286,1845.215 c 2.8241,-14.9643 13.7172,19.454 0,0 z"
       id="path1547" />
    <path
       d="m 4811.6364,1885.7503 c 8.8634,-11.6381 8.1428,9.7552 0,0 z"
       id="path1548" />
    <path
       d="m 4748.5453,1877.8751 c -6.9984,7.1843 -9.1929,-15.5565 0,0 z"
       id="path1549" />
    <path
       d="m 4701.0453,1886.9648 c 7.7687,-33.8882 -4.0381,33.7155 0,0 z"
       id="path1550" />
    <path
       d="m 4764.8329,2195.5292 c -24.4961,6.1455 0.5,-27.3898 -24.8576,-6.5713 3.4368,25.956 -16.1278,-14.2858 -1.3565,-27.9161 10.3063,-29.8573 24.4405,-30.1644 14.3849,-62.7208 5.5749,-41.667 24.4214,-90.0926 32.456,-124.9509 17.2426,-6.2151 24.947,-11.105 14.516,-26.3344 19.6769,-13.3825 5.1094,-67.8653 7.4354,-52.5855 29.6008,20.0815 -17.5242,86.002 31.5122,69.2357 -23.8321,8.4364 -3.2308,29.6345 -23.894,42.5691 0.2806,18.8328 9.3379,57.9657 -7.5959,19.6594 -21.7547,-21.0522 15.9906,-24.1957 -14.0549,-28.2444 -0.1619,17.9512 -32.8957,38.7797 -13.9554,60.4046 -24.2678,5.1441 -3.0907,57.6251 -16.0163,73.9845 13.9075,20.1824 9.7557,24.0386 -2.1684,33.1345 7.7041,11.7075 42.7869,2.2648 11.9026,20.3858 -2.0812,1.4185 -27.4826,15.3903 -8.3081,9.9498 z m 41.4193,-203.8038 c 36.9242,6.7253 -10.6026,-44.2339 -12.103,-2.5296 -1.2218,7.015 9.6659,6.1806 12.103,2.5296 z m -22.8045,14.155 c 16.3503,-6.248 -12.8733,-10.6081 0,0 z m -41.25,171.7463 c 37.2589,-12.7491 -2.8527,-18.059 0,0 z m 23.283,-30.1144 c -26.8446,-1.1377 -23.5453,27.3769 0,0 z m 9.8351,32.9076 c 22.0609,-21.3682 -42.4527,14.7002 0,0 z"
       id="path1551" />
    <path
       d="m 4741.6767,1889.7631 c 6.1793,16.4588 -16.424,-25.5441 0,0 z"
       id="path1552" />
    <path
       d="m 4757.6878,1886.4934 c 10.2951,12.0152 -16.5154,0.4647 0,0 z"
       id="path1553" />
    <path
       d="m 4798.5696,1899.3884 c 15.3905,16.4154 -17.4636,98.8338 -10.584,45.4184 2.3593,-15.4077 8.2222,-30.0159 10.584,-45.4184 z"
       id="path1554" />
    <path
       d="m 4740.283,1906.881 c -14.8419,-0.9214 -1.6375,-18.9636 0,0 z"
       id="path1555" />
    <path
       d="m 4751.4158,1899.6036 c 15.8703,5.0894 -12.1771,1.2094 0,0 z"
       id="path1556" />
    <path
       d="m 4836.3166,1946.7629 c 15.2867,-0.8722 -32.5309,29.3734 -16.9468,2.3895 -12.495,-23.3174 52.7528,-29.3935 12.6973,-11.2495 -7.7803,4.9534 -9.844,21.9662 4.2495,8.86 z"
       id="path1557" />
    <path
       d="m 4853.6467,1932.5564 c -14.3047,-4.0279 21.1308,-4.8192 0,0 z"
       id="path1558" />
    <path
       d="m 4676.6125,1980.0361 c 12.7246,-11.8854 9.688,-76.6722 21.4954,-61.871 -10.9353,10.0184 2.8897,87.6851 -21.4954,61.871 z"
       id="path1559" />
    <path
       d="m 4738.8312,1923.1764 c -10.6028,-14.4848 11.2809,-1.5253 0,0 z"
       id="path1560" />
    <path
       d="m 4742.8298,1933.3249 c -24.5947,7.1488 1.8282,-19.1547 0,0 z"
       id="path1561" />
    <path
       d="m 4776.9448,1940.2543 c 10.0856,25.8635 -18.7457,2.6846 0,0 z"
       id="path1562" />
    <path
       d="m 4741.7542,1946.3358 c 12.5239,-11.5068 6.367,11.8988 0,0 z"
       id="path1563" />
    <path
       d="m 4705.954,1943.7802 c 19.2621,7.5061 -1.0982,34.6759 10.2024,33.6848 -0.778,10.4614 7.6569,24.0274 -8.7252,8.6146 1.8959,22.7128 32.8011,53.398 -1.6929,22.107 -4.7705,2.7324 24.7575,44.5978 0.8017,17.6611 -29.0519,-6.9518 -1.028,-58.4326 -1.541,-74.0481 12.9372,-6.7988 -13.7696,-9.3988 0.955,-8.0194 z"
       id="path1564" />
    <path
       d="m 4718.8086,1945.7423 c 14.9787,14.2306 17.9923,56.0397 5.6338,15.7042 l -3.2716,-7.7037 z"
       id="path1565" />
    <path
       d="m 4764.1897,1987.2533 c -7.1476,-21.9964 20.5365,-31.5455 0,0 z"
       id="path1566" />
    <path
       d="m 4827.1722,2006.6854 c 1.865,-16.3161 20.2292,-2.1251 0,0 z"
       id="path1567" />
    <path
       d="m 4725.2705,2008.7213 c -11.5587,-22.3405 28.4606,-8.1399 0,0 z"
       id="path1568" />
    <path
       d="m 4758.0237,2011.8564 c -11.7159,-10.2089 14.1646,-5.2961 0,0 z"
       id="path1569" />
    <path
       d="m 4812.4046,2077.1923 c -19.5969,6.812 2.3104,38.2588 -22.5141,18.5833 20.9431,4.223 18.9768,33.0168 -0.2147,22.8171 21.6614,-8.2136 -35.9862,-41.4099 -8.7781,-65.333 -6.9848,-17.3919 11.2518,-44.7481 18.669,-32.3741 -14.9707,13.4455 15.4152,2.7902 1.588,19.649 -1.7332,20.5763 4.9051,23.5878 11.3194,19.702 -26.6849,-1.0447 -21.6799,24.3055 1.2895,14.8859 14.6909,-15.8362 -7.1942,-2.5307 -1.3589,2.0697 z m -22.0371,-48.3616 c -11.8265,-1.1504 -6.1599,65.6248 2.1964,20.9283 -0.8298,-6.9466 -3.5839,-13.8477 -2.1964,-20.9283 z m 6.3392,55.037 c -11.0928,-26.8433 -24.6406,14.6046 0,0 z"
       id="path1570" />
    <path
       d="m 4756.2352,2022 c -11.7159,-10.209 14.1645,-5.2961 0,0 z"
       id="path1571" />
    <path
       d="m 4673.464,2042.2343 c 2.0855,-25.6806 17.1831,-43.7831 8.1652,-6.7312 1.5628,7.2746 -14.0005,21.0634 -8.1652,6.7312 z"
       id="path1572" />
    <path
       d="m 4754.6436,2032.1782 c -11.6284,-8.8275 9.755,-8.1698 0,0 z"
       id="path1573" />
    <path
       d="m 4703.3208,2087.7098 c 8.9009,9.4982 -26.7021,-4.5799 -0.8699,12.5646 -1.8636,3.1959 -27.1638,0.3767 -1.7345,8.757 -36.769,-9.851 -0.425,-66.0029 -7.7908,-84.0565 36.6051,14.3836 -26.1366,41.4926 10.3952,62.7349 z"
       id="path1574" />
    <path
       d="m 4672.0192,2024.5142 c 11.6284,8.8275 -9.7551,8.1698 0,0 z"
       id="path1575" />
    <path
       d="m 4747.6355,2041.4015 c 5.9269,-11.472 8.1414,14.6686 0,0 z"
       id="path1576" />
    <path
       d="m 4716.4654,2050.0196 c 8.8275,-11.6283 8.1698,9.7551 0,0 z"
       id="path1577" />
    <path
       d="m 4748.2114,2058.8667 c -11.8084,-8.5545 7.9901,-8.4142 0,0 z"
       id="path1578" />
    <path
       d="m 4724.855,2061.7549 c -14.6283,12.5879 -10.4571,-16.7539 0,0 z"
       id="path1579" />
    <path
       d="m 4744.5517,2068.6803 c -13.1778,-11.3425 15.7363,-5.6893 0,0 z"
       id="path1580" />
    <path
       d="m 4666.6247,2056.2597 c 10.4231,-4.9233 14.5806,15.7457 0,0 z"
       id="path1581" />
    <path
       d="m 4709.7885,2066.0031 c 15.1617,6.2517 -6.0269,9.7203 0,0 z"
       id="path1582" />
    <path
       d="m 4669.8526,2066.1708 c 15.9377,5.0841 -12.3136,1.2551 0,0 z"
       id="path1583" />
    <path
       d="m 4668.0637,2072.8618 c 14.5071,34.5111 -17.0428,16.5517 0,0 z"
       id="path1584" />
    <path
       d="m 4777.2826,2119.7397 c -11.0768,-49.5717 24.095,50.6893 -9.9815,12.4662 -0.2127,-8.3146 17.2932,-1.8134 9.9815,-12.4662 z"
       id="path1585" />
    <path
       d="m 4734.2633,2108.6001 c -11.6379,-8.8632 9.7551,-8.1426 0,0 z"
       id="path1586" />
    <path
       d="m 4666.9088,2099.567 c 13.98,18.4514 -14.4906,43.6152 -3.5425,5.2832 l 1.0714,-3.1562 z"
       id="path1587" />
    <path
       d="m 4729.8149,2111.3698 c 11.6381,8.8635 -9.7551,8.1428 0,0 z"
       id="path1588" />
    <path
       d="m 4788.053,2130.0669 c 23.7638,-14.9755 17.6625,12.2045 0,0 z"
       id="path1589" />
    <path
       d="m 4710.7102,2111.4536 c 11.8135,8.5705 -7.943,8.3994 0,0 z"
       id="path1590" />
    <path
       d="m 4677.3562,2119.7883 c 43.2146,-27.9652 1.2235,29.7114 0,0 z"
       id="path1591" />
    <path
       d="m 4609.024,2288.4856 c 4.4517,-60.0408 11.896,-119.9649 24.7978,-178.8116 -4.6336,60.0121 -10.6709,120.18 -24.7978,178.8116 z"
       id="path1592" />
    <path
       d="m 4784.7536,2148.7782 c 11.9504,-18.8166 25.6438,-4.8378 0,0 z"
       id="path1593" />
    <path
       d="m 4726.452,2131.5932 c 10.209,-11.7161 5.2961,14.1645 0,0 z"
       id="path1594" />
    <path
       d="m 4704.9604,2130.2406 c -19.5663,1.3074 -10.5432,-7.5094 0,0 z"
       id="path1595" />
    <path
       d="m 4791.6308,2156.9973 c -32.6354,14.8004 20.4476,-16.5138 0,0 z"
       id="path1596" />
    <path
       d="m 4695.4152,2140.0319 c -35.4472,-0.7394 6.8359,16.3495 -22.2319,9.9349 -2.9513,-9.3953 17.3092,-21.4395 22.2319,-9.9349 z"
       id="path1597" />
    <path
       d="m 4658.5038,2145.5054 c 14.8044,-30.3463 -3.867,37.2002 0,0 z"
       id="path1598" />
    <path
       d="m 4692.8516,2159.1776 c -12.2887,3.2743 -5.2453,-8.7731 0,0 z"
       id="path1599" />
    <path
       d="m 4726.4044,2162.9615 c 5.9047,10.5618 -14.5125,4.0088 0,0 z"
       id="path1600" />
    <path
       d="m 4678.0162,2159.8111 c 33.755,17.7226 -24.349,-3.5135 0,0 z"
       id="path1601" />
    <path
       d="m 4660.8012,2168.7576 c -7.0214,9.0268 -3.8921,-12.252 0,0 z"
       id="path1602" />
    <path
       d="m 4687.7849,2173.5155 c -17.2344,9.4502 -19.0192,-16.7837 0,0 z"
       id="path1603" />
    <path
       d="m 4721.0655,2178.2668 c -2.463,-8.0787 15.2293,8.1801 0,0 z"
       id="path1604" />
    <path
       d="m 4780.6522,2189.8907 c -19.6162,13.2854 3.1755,-12.0798 0,0 z"
       id="path1605" />
    <path
       d="m 4775.9385,2201.6508 c -27.521,15.0089 26.7773,-19.0544 0,0 z"
       id="path1606" />
    <path
       d="m 4655.9591,2174.9102 c 11.6382,8.8635 -9.7552,8.1429 0,0 z"
       id="path1607" />
    <path
       d="m 4689.223,2184.9388 c -20.3459,6.355 -23.3372,-16.5883 0,0 z"
       id="path1608" />
    <path
       d="m 4767.1022,2227.0015 c -18.0148,24.7465 -64.9059,33.5062 -32.4595,-4.0958 8.7738,-10.8193 -22.3719,-0.6238 -2.7916,-16.7426 22.7676,-7.3769 34.9898,-6.4482 25.3143,18.935 9.7213,1.4025 25.7103,-7.7882 9.9368,1.9034 z m -19.8016,-11.5134 c -35.1628,18.8945 5.7081,23.7689 0,0 z m 5.0239,11.2431 c -23.597,4.3869 -3.807,16.8461 0,0 z"
       id="path1609" />
    <path
       d="m 4652.3526,2191.3335 c 12.891,-14.104 -7.1948,30.5752 0,0 z"
       id="path1610" />
    <path
       d="m 4683.5993,2193.7969 c -26.8371,4.209 -8.6111,-14.0562 0,0 z"
       id="path1611" />
    <path
       d="m 4717.6915,2201.4328 c -11.6225,-5.013 12.1677,-4.3349 0,0 z"
       id="path1612" />
    <path
       d="m 4778.2565,2206.9335 c -2.1473,10.9959 -28.7604,17.0368 -9.219,4.4918 z"
       id="path1613" />
    <path
       d="m 4669.6045,2197.7262 c 25.7701,12.5484 -26.7604,4.1638 0,0 z"
       id="path1614" />
    <path
       d="m 4667.1387,2211.7106 c 32.8842,-3.4726 -10.8298,7.8291 -1.2809,0.1669 z"
       id="path1615" />
    <path
       d="m 4714.4094,2220.0457 c -10.2089,11.7161 -5.2961,-14.1644 0,0 z"
       id="path1616" />
    <path
       d="m 4648.8057,2222.3895 c 7.6065,-31.6607 -3.6179,31.6613 0,0 z"
       id="path1617" />
    <path
       d="m 4763.5351,2237.4406 c -26.9884,12.3971 31.7102,-18.6208 0,0 z"
       id="path1618" />
    <path
       d="m 4670.3727,2222.7397 c 16.001,-11.2127 7.0858,12.2209 0,0 z"
       id="path1619" />
    <path
       d="m 4708.3868,2232.8952 c -5.5398,-8.5838 11.5845,-3.281 0,0 z"
       id="path1620" />
    <path
       d="m 4657.3741,2227.3528 c 8.8844,-5.2912 29.846,19.9032 1.2907,5.7271 l -1.4115,-2.4968 z"
       id="path1621" />
    <path
       d="m 4762.5171,2247.8216 c -28.9858,10.2661 30.0549,-17.2185 0,0 z"
       id="path1622" />
    <path
       d="m 4706.5982,2243.0387 c -5.5398,-8.5837 11.5844,-3.2809 0,0 z"
       id="path1623" />
    <path
       d="m 4760.7286,2257.965 c -28.9759,10.2772 30.0767,-17.2667 0,0 z"
       id="path1624" />
    <path
       d="m 4664.1012,2239.3024 c 34.9024,6.4375 -33.679,0.8537 0,0 z"
       id="path1625" />
    <path
       d="m 4752.5273,2268.1963 c 23.5419,-7.4075 -29.5726,29.7268 -20.4726,8.8411 -27.5037,14.7077 -17.353,-26.1083 8.1013,-20.9674 13.0468,1.4767 -7.2547,24.9724 12.3713,12.1263 z"
       id="path1626" />
    <path
       d="m 4642.8026,2250.6768 c 9.0436,-30.244 -2.0586,33.9018 0,0 z"
       id="path1627" />
    <path
       d="m 4704.7112,2254.891 c -13.1871,-3.7424 14.5646,-7.8191 0,0 z"
       id="path1628" />
    <path
       d="m 4663.5526,2250.4768 c 26.2532,11.281 -30.5825,-1.4586 0,0 z"
       id="path1629" />
    <path
       d="m 4702.8245,2266.7435 c -11.6284,-8.8276 9.7548,-8.1698 0,0 z"
       id="path1630" />
    <path
       d="m 4755.1993,2279.5325 c -24.4231,7.3132 28.6671,-13.555 0,0 z"
       id="path1631" />
    <path
       d="m 4660.7214,2261.3505 c 28.266,12.874 -24.2832,-3.2618 0,0 z"
       id="path1632" />
    <path
       d="m 4722.8253,2295.5543 c -27.2164,2.8713 15.0844,-33.7397 16.7801,1.1069 38.32,-18.1673 -18.7724,8.5665 -16.7801,-1.1069 z"
       id="path1633" />
    <path
       d="m 4649.4036,2272.5555 c 10.5442,-9.7091 37.2259,6.0034 10.0163,5.2818 15.3582,13.8104 -13.4164,2.0004 -10.0163,-5.2818 z"
       id="path1634" />
    <path
       d="m 4698.7713,2279.9402 c 5.8665,10.4452 -14.3628,4.1757 0,0 z"
       id="path1635" />
    <path
       d="m 4645.1251,2290.4847 c -21.973,23.9227 10.1585,-30.3307 8.3248,4.4611 -3.333,1.8434 -8.0701,-0.5714 -8.3248,-4.4611 z"
       id="path1636" />
    <path
       d="m 4742.355,2308.0353 c -8.6283,26.338 -52.6736,4.9836 -23.6562,-3.7066 -20.2293,17.9973 63.6179,-17.3978 23.6562,3.7066 z"
       id="path1637" />
    <path
       d="m 4591.5855,2440.3648 c -9.9399,65.7978 -16.1855,132.2627 -30.8853,197.2586 9.8484,-112.8169 30.0177,-224.372 43.2611,-336.7841 6.8515,46.0692 -9.7367,93.2651 -12.3758,139.5255 z"
       id="path1638" />
    <path
       d="m 4662.5464,2305.1324 c 15.9234,5.1003 -12.2891,1.2235 0,0 z"
       id="path1639" />
    <path
       d="m 4720.2123,2374.297 c 20.3807,-11.5157 -55.6079,43.4513 -16.0123,24.5132 21.324,-26.3975 -16.6618,31.7297 14.6037,4.4952 -27.5243,46.944 -51.287,-9.9327 -19.1132,-32.6921 12.2315,-18.5884 18.0118,-29.2221 0.075,-13.4361 -2.3713,-18.2193 1.3706,-44.827 14.4427,-23.2183 20.6061,-3.183 44.7697,-20.4255 11.6948,1.2224 -16.25,14.569 15.4115,-3.3853 -3.7243,13.6001 15.1157,7.4058 -16.7663,18.8139 11.1632,9.0219 2.6999,7.523 -43.0363,14.2047 -13.1295,16.4936 z m -11.7417,3.8189 c -12.1542,3.5472 -27.1391,20.7952 -5.6676,5.7462 z"
       id="path1640" />
    <path
       d="m 4647.8563,2309.5487 c 15.9234,5.1002 -12.289,1.2235 0,0 z"
       id="path1641" />
    <path
       d="m 4672.8422,2318.7269 c -17.4931,-4.0531 11.8696,-7.4138 0,0 z"
       id="path1642" />
    <path
       d="m 4723.1654,2324.1478 c -3.1814,17.5013 -22.0449,4.5484 0,0 z"
       id="path1643" />
    <path
       d="m 4634.5853,2311.6764 c 4.7884,24.3062 -17.3801,85.8443 -6.686,26.7971 1.2805,-9.0963 2.1169,-18.5859 6.686,-26.7971 z"
       id="path1644" />
    <path
       d="m 4658.69,2316.6376 c -8.839,13.4681 -19.1047,-1.3056 0,0 z"
       id="path1645" />
    <path
       d="m 4738.9465,2334.8506 c 24.9091,-15.309 -19.4026,14.6966 0,0 z"
       id="path1646" />
    <path
       d="m 4668.2782,2323.3039 c 13.1776,11.3423 -15.7366,5.6892 0,0 z"
       id="path1647" />
    <path
       d="m 4687.3671,2333.6761 c -13.2142,-11.3973 15.8549,-5.6345 0,0 z"
       id="path1648" />
    <path
       d="m 4641.1798,2328.9846 c 13.3787,-10.6825 4.7853,12.5479 0,0 z"
       id="path1649" />
    <path
       d="m 4667.6718,2337.1082 c -3.7425,13.1872 -7.8191,-14.5643 0,0 z"
       id="path1650" />
    <path
       d=""
       id="path1651" />
    <path
       d="m 4640.952,2356.7671 c -5.7983,-24.0998 30.9921,-6.083 0,0 z"
       id="path1652" />
    <path
       d="m 4655.6252,2355.902 c 11.4633,-13.2274 5.5656,15.7252 0,0 z"
       id="path1653" />
    <path
       d="m 4661.9125,2370.9219 c -11.7389,-8.486 7.8753,-8.4602 0,0 z"
       id="path1654" />
    <path
       d="m 4649.3074,2372.1519 c -13.2273,-11.4636 15.7252,-5.5657 0,0 z"
       id="path1655" />
    <path
       d="m 4634.0429,2369.4603 c 12.4022,-9.595 -1.1056,12.1875 0,0 z"
       id="path1656" />
    <path
       d="m 4681.0879,2379.0757 c -19.5643,-6.3782 19.7512,-4.3857 0,0 z"
       id="path1657" />
    <path
       d="m 4658.1543,2380.7182 c -11.716,-10.2091 14.1645,-5.2961 0,0 z"
       id="path1658" />
    <path
       d="m 4640.8636,2387.2143 c -28.9938,18.0884 25.0127,-25.8916 14.6603,0.2078 -4.7608,-0.5114 -10.2102,-4.0526 -14.6603,-0.2078 z"
       id="path1659" />
    <path
       d="m 4674.468,2387.2502 c 8.8632,-11.6381 8.1429,9.7551 0,0 z"
       id="path1660" />
    <path
       d="m 4721.4781,2397.0625 c -13.3514,-3.6137 14.8314,-8.0735 0,0 z"
       id="path1661" />
    <path
       d="m 4622.5459,2382.2582 c 1.8664,39.4595 -16.0505,94.5251 -19.3681,122.9108 6.2453,-40.992 11.2942,-82.2309 19.3681,-122.9108 z"
       id="path1662" />
    <path
       d="m 4652.3401,2394.112 c 16.7138,5.8099 -17.8767,-1.2585 0,0 z"
       id="path1663" />
    <path
       d="m 4648.86,2404.0588 c 18.7551,5.5447 -17.9615,-0.053 -0.7165,1e-4 z"
       id="path1664" />
    <path
       d="m 4632.9126,2405.8164 c 10.7095,13.5145 -12.6844,4.6273 0,0 z"
       id="path1665" />
    <path
       d="m 4666.8868,2566.1517 c 3.2753,-23.9075 -26.6197,32.4615 -15.5186,-10.9916 24.4559,-40.2465 6.5859,-99.1894 44.3655,-128.9396 38.928,-5.2329 -47.2517,30.8844 -2.2827,18.6532 46.476,-26.8214 -40.9931,46.8662 -12.2582,50.7373 -32.7482,7.2889 33.3121,11.6257 -2.6126,12.2861 -8.3333,9.9891 -18.7839,21.8383 2.2435,11.4638 -17.5025,12.2781 -17.8152,29.9409 -5.6158,14.0778 27.6317,1.2441 -18.2133,13.9453 11.6357,10.2014 -40.2411,-5.0054 -0.7008,26.1113 -11.8723,24.1177 z m 21.0133,-107.0779 c 12.4144,-22.3669 -25.7628,18.9437 0,0 z"
       id="path1666" />
    <path
       d="m 4644.3207,2420.013 c 22.0278,-8.3176 -9.7874,11.8593 0,0 z"
       id="path1667" />
    <path
       d="m 4666.7579,2430.9758 c -13.1778,-11.3427 15.7362,-5.6903 0,0 z"
       id="path1668" />
    <path
       d="m 4648.9749,2439.1112 c -30.5894,-8.5755 9.72,-18.8684 0,0 z"
       id="path1669" />
    <path
       d="m 4631.7982,2431.7162 c -11.3426,13.1779 -5.6893,-15.7364 0,0 z"
       id="path1670" />
    <path
       d="m 4666.2501,2444.7974 c -11.8084,-8.5545 7.9901,-8.4141 0,0 z"
       id="path1671" />
    <path
       d="m 4634.0243,2443.2784 c 13.1708,-12.8334 6.5579,18.6247 0,0 z"
       id="path1672" />
    <path
       d="m 4693.7922,2465.393 c 32.5696,-19.5845 -23.3304,23.9056 0,0 z"
       id="path1673" />
    <path
       d="m 4688.7304,2473.9439 c 0.1024,-0.3088 0.3896,0.2998 0,0 z"
       id="path1674" />
    <path
       d="m 4704.6548,2472.8931 c -15.7267,20.3397 -30.0052,-2.4014 0,0 z"
       id="path1675" />
    <path
       d="m 4632.6067,2455.9243 c 14.5943,-9.3735 18.9849,11.852 0,0 z"
       id="path1676" />
    <path
       d="m 4621.6702,2458.0577 c 15.9376,5.0843 -12.3138,1.2551 0,0 z"
       id="path1677" />
    <path
       d="m 4656.0757,2470.8261 c -6.6092,-8.2671 13.0559,-4.4538 0,0 z"
       id="path1678" />
    <path
       d="m 4635.3778,2470.7305 c -23.3844,-15.1925 23.7497,0.5379 0,0 z"
       id="path1679" />
    <path
       d="m 4696.8422,2487.2548 c -10.6698,29.0074 -11.3213,-14.7317 3.6308,-2.6178 l -2.0838,1.5025 z"
       id="path1680" />
    <path
       d="m 4628.4791,2475.3021 c 31.0559,12.2901 -30.5919,-2.4009 0,0 z"
       id="path1681" />
    <path
       d="m 4617.2425,2484.8965 c 26.271,-3.3381 21.6337,18.4569 0,0 z"
       id="path1682" />
    <path
       d="m 4651.9082,2494.4614 c -6.6092,-8.2671 13.0559,-4.4537 0,0 z"
       id="path1683" />
    <path
       d="m 4630.6199,2497.7142 c 11.9415,12.8274 -30.9222,-15.6184 0,0 z"
       id="path1684" />
    <path
       d="m 4616.5375,2498.6836 c 9.6699,7.6415 -12.786,2.506 0,0 z"
       id="path1685" />
    <path
       d="m 4631.2594,2513.6677 c -12.0152,10.2952 -0.4648,-16.5152 0,0 z"
       id="path1686" />
    <path
       d="m 4648.2327,2516.4575 c -13.3515,-3.6138 14.8312,-8.0735 0,0 z"
       id="path1687" />
    <path
       d="m 4610.7119,2511.5678 c 12.6608,-11.5545 6.216,12.044 0,0 z"
       id="path1688" />
    <path
       d="m 4642.5051,2527.6325 c -5.541,-8.6031 11.5787,-3.2424 0,0 z"
       id="path1689" />
    <path
       d="m 4588.2311,2605.0847 c -0.5453,-20.6084 18.998,-73.3318 13.7984,-76.9386 -2.4873,25.941 -5.3622,52.139 -13.7984,76.9386 z"
       id="path1690" />
    <path
       d="m 4615.7184,2522.9094 c -7.1411,9.0196 -3.7547,-12.3746 0,0 z"
       id="path1691" />
    <path
       d="m 4620.7409,2523.795 c 11.3398,-11.8803 10.7702,17.316 0,0 z"
       id="path1692" />
    <path
       d="m 4618.9528,2537.3911 c -27.7816,-11.5091 23.2215,-0.1539 0,0 z"
       id="path1693" />
    <path
       d="m 4640.1262,2541.1246 c -5.5409,-8.6033 11.5786,-3.2426 0,0 z"
       id="path1694" />
    <path
       d="m 4617.5691,2542.935 c 12.3297,13.6078 -20.0165,-5.0643 0,0 z"
       id="path1695" />
    <path
       d="m 4678.0423,2554.7151 c 15.504,-12.1292 4.9571,9.3347 0,0 z"
       id="path1696" />
    <path
       d="m 4639.8153,2554.9812 c -11.8137,-8.5708 7.9429,-8.3995 0,0 z"
       id="path1697" />
    <path
       d="m 4613.1106,2557.2787 c -23.819,-14.4664 22.8096,3.5141 0,0 z"
       id="path1698" />
    <path
       d="m 4616.4079,2565.0698 c -17.688,20.5501 -21.9394,-19.565 0,0 z"
       id="path1699" />
    <path
       d="m 4665.5204,2571.5972 c -19.972,29.4921 -33.5197,2.8618 0,0 z"
       id="path1700" />
    <path
       d="m 4643.2968,2597.4305 c 6.7492,-19.7117 53.1073,-28.7505 15.5984,-8.643 -4.8888,3.3811 -9.9297,6.6984 -15.5984,8.643 z"
       id="path1701" />
    <path
       d="m 4605.5072,2575.6372 c 5.0228,-5.9499 15.9175,8.9254 0,0 z"
       id="path1702" />
    <path
       d="m 4597.0261,2822.4136 c 2.6357,20.3813 -23.2542,56.8701 -10.6338,14.9949 9.2785,-38.3422 20.9808,-54.7933 18.4902,-91.7445 -6.5779,-21.5803 42.1616,-43.068 12.6382,-36.1545 13.9843,-23.2263 8.7444,-53.1203 20.1575,-76.835 -17.6357,-24.4762 34.9964,-51.4679 29.2711,-30.5657 -23.3128,0.8136 -33.5205,27.3876 -3.5969,8.7564 -7.5201,9.0817 -1.1799,37.9842 -22.4232,58.6408 0.548,19.5138 -6.255,67.0029 -23.6644,81.3449 12.2038,-6.5035 -8.0126,25.3227 -4.9273,38.1404 -14.2625,20.83 -3.163,19.5945 -15.3114,33.4223 z m 49.5572,-170.4844 c 12.8669,-24.519 -28.5151,23.4266 0,0 z m -18.3799,47.2258 c -15.2392,0.6664 4.0761,-4.1612 4.066,2.2259 z m -3.5772,20.287 c 1.031,-10.9645 -16.2475,12.6813 0,0 z"
       id="path1703" />
    <path
       d="m 4599.9646,2582.8849 c 19.9054,6.3446 3.7998,13.0689 0,0 z"
       id="path1704" />
    <path
       d="m 4597.736,2596.0987 c 20.9531,-11.3901 1.5426,14.8985 0,0 z"
       id="path1705" />
    <path
       d="m 4600.5259,2621.1639 c -25.0772,-23.2269 19.0906,-9.0664 0,0 z"
       id="path1706" />
    <path
       d="m 4622.0931,2624.9668 c -13.2271,-11.4633 15.7254,-5.5656 0,0 z"
       id="path1707" />
    <path
       d="m 4586.8778,2621.3976 c 14.3516,22.9901 -6.7862,62.9165 -8.6946,86.1754 -12.1586,-26.3746 6.8765,-58.3694 8.6946,-86.1754 z"
       id="path1708" />
    <path
       d="m 4616.3486,2637.9668 c 11.4632,-13.2273 5.5655,15.7253 0,0 z"
       id="path1709" />
    <path
       d="m 4559.9868,2657.5777 c 3.3604,22.2744 -13.3659,112.6131 -8.3347,47.5627 1.1028,-16.0542 2.509,-32.4063 8.3347,-47.5627 z"
       id="path1710" />
    <path
       d="m 4603.8457,2708.8729 c -13.1779,-11.3425 15.7365,-5.6893 0,0 z"
       id="path1711" />
    <path
       d="m 4563.0818,2877.8617 c -4.7952,-42.2712 -0.061,-145.4043 9.8418,-152.1214 -9.5155,18.8194 4.8163,25.3263 4.3455,24.6446 -9.7667,42.1591 -9.3759,89.5734 -12.0592,130.3461 z"
       id="path1712" />
    <path
       d="m 4593.4595,2752.2281 c 6.8375,-23.3665 -2.7543,25.0359 0,0 z"
       id="path1713" />
    <path
       d="m 4549.2261,2758.3398 c 6.0719,16.9691 -13.6658,15.8533 0,0 z"
       id="path1714" />
    <path
       d="m 4588.8821,2786.25 c 4.177,14.6109 -12.5434,14.0099 0,0 z"
       id="path1715" />
    <path
       d="m 4581.7019,2806.8157 c 3.0638,11.4938 -8.4671,6.5643 0,0 z"
       id="path1716" />
    <path
       d="m 4573.0147,2863.5692 c -11.7161,-10.2088 14.1643,-5.296 0,0 z"
       id="path1717" />
  </g>
</svg>
