<?xml version="1.0" encoding="UTF-8" standalone="no"?>
<!-- Created with Inkscape (http://www.inkscape.org/) -->

<svg
   xmlns:dc="http://purl.org/dc/elements/1.1/"
   xmlns:cc="http://creativecommons.org/ns#"
   xmlns:rdf="http://www.w3.org/1999/02/22-rdf-syntax-ns#"
   xmlns:svg="http://www.w3.org/2000/svg"
   xmlns="http://www.w3.org/2000/svg"
   xmlns:sodipodi="http://sodipodi.sourceforge.net/DTD/sodipodi-0.dtd"
   xmlns:inkscape="http://www.inkscape.org/namespaces/inkscape"
   id="svg4179"
   version="1.1"
   inkscape:version="0.91 r13725"
   width="405.9375"
   height="670.3125"
   viewBox="0 0 405.9375 670.3125"
   sodipodi:docname="Swordsman3.svg">
  <metadata
     id="metadata4185">
    <rdf:RDF>
      <cc:Work
         rdf:about="">
        <dc:format>image/svg+xml</dc:format>
        <dc:type
           rdf:resource="http://purl.org/dc/dcmitype/StillImage" />
        <dc:title></dc:title>
      </cc:Work>
    </rdf:RDF>
  </metadata>
  <defs
     id="defs4183" />
  <sodipodi:namedview
     pagecolor="#ffffff"
     bordercolor="#666666"
     borderopacity="1"
     objecttolerance="10"
     gridtolerance="10"
     guidetolerance="10"
     inkscape:pageopacity="0"
     inkscape:pageshadow="2"
     inkscape:window-width="1600"
     inkscape:window-height="837"
     id="namedview4181"
     showgrid="false"
     inkscape:zoom="0.9995338"
     inkscape:cx="202.96875"
     inkscape:cy="335.15625"
     inkscape:window-x="-8"
     inkscape:window-y="-8"
     inkscape:window-maximized="1"
     inkscape:current-layer="svg4179" />
  <path
     style="fill:#000000"
     d="m 75.9375,665.56967 c 0,-0.54606 -0.438295,-0.72194 -0.97399,-0.39086 -1.049391,0.64855 -18.326662,-1.90527 -22.899347,-3.38485 C 50.53539,661.2993 45.894765,658.6418 41.751663,655.8884 37.608561,653.135 31.054687,648.85451 27.1875,646.3762 23.320312,643.89789 16.860777,638.78604 12.832977,635.01654 8.8051778,631.24703 4.3455394,627.47521 2.9226701,626.6347 l -2.58703498,-1.5282 1.62052158,-7.16263 c 2.6009206,-11.49593 4.9855977,-16.3468 17.1168813,-34.81887 5.85976,-8.92254 8.122449,-17.08936 10.000089,-36.09375 0.509439,-5.15625 1.378419,-10.48439 1.931068,-11.84031 0.552648,-1.35591 0.896994,-3.04341 0.765212,-3.75 -0.443533,-2.3781 1.252224,-13.42609 2.93123,-19.09719 0.915947,-3.09375 1.649368,-6.25781 1.629825,-7.03125 -0.01955,-0.77344 1.369964,-4.78125 3.087793,-8.90625 3.623739,-8.70164 9.786148,-17.17468 18.750583,-25.78125 l 6.347136,-6.09375 0.06286,-6.87655 c 0.06404,-7.00654 3.197026,-31.70507 4.776455,-37.6547 0.479085,-1.80469 1.661587,-6.44531 2.627782,-10.3125 0.966195,-3.86719 2.462141,-8.38139 3.324325,-10.03157 0.862181,-1.65018 1.567605,-3.44909 1.567605,-3.99759 0,-1.62121 -5.814507,-6.54149 -9.61792,-8.13877 -4.143407,-1.74005 -5.514412,-5.09603 -3.149443,-7.7093 0.834549,-0.92216 1.511285,-2.27625 1.503856,-3.00909 -0.01701,-1.67781 -8.610832,-6.48868 -11.59094,-6.48868 -1.225659,0 -2.697847,-0.56557 -3.271529,-1.25681 -1.024525,-1.23447 0.0033,-3.48619 6.907226,-15.13252 1.03125,-1.73962 3.691293,-6.25197 5.911206,-10.02743 2.219912,-3.77547 4.408595,-7.4973 4.863738,-8.27074 3.325127,-5.65048 12.434413,-22.17929 14.983452,-27.1875 1.705853,-3.35156 3.622981,-6.72656 4.260286,-7.5 0.637303,-0.77344 2.726298,-4.35937 4.642213,-7.96875 1.915911,-3.60937 4.498649,-7.64027 5.739421,-8.95755 1.240762,-1.31727 2.255934,-2.70638 2.255934,-3.08691 0,-0.73877 -6.533775,-9.78981 -9.771008,-13.53546 -5.049439,-5.84247 -17.428701,-17.74088 -20.204923,-19.42008 -2.069873,-1.25197 -4.302166,-4.15885 -6.718049,-8.74823 -1.989968,-3.78028 -5.043905,-8.63184 -6.786528,-10.78125 -6.102901,-7.52753 -9.082847,-16.30058 -10.403005,-30.62677 -1.420329,-15.41322 6.163588,-31.60043 20.431421,-43.60905 l 5.541191,-4.66378 -3.728193,-0.63645 c -2.050507,-0.35005 -5.361962,-1.5121 -7.358791,-2.58234 -1.996829,-1.07024 -4.128336,-1.94588 -4.736681,-1.94588 -1.937801,0 -8.54293,-8.35566 -9.091894,-11.50148 -1.624409,-9.30862 -1.711994,-16.29254 -0.248257,-19.79576 2.294044,-5.49042 7.448886,-11.99797 12.215605,-15.421169 4.85752,-3.48841 5.289557,-5.362676 2.126518,-9.225286 -8.098261,-9.889357 -10.823199,-16.862574 -11.573131,-29.616067 -0.47287,-8.041714 -0.277077,-9.863633 1.611979,-15 C 54.200922,36.794291 60.814705,26.28527 64.422697,23.470318 85.452367,7.0629866 92.599481,3.9349671 114.80489,1.4199509 c 21.19024,-2.40003506 29.91777,-0.6465573 49.99958,10.0455731 8.56043,4.557813 11.1851,6.638583 23.27947,18.455287 10.45688,10.216814 13.94533,14.232866 14.97996,17.245617 0.89113,2.594876 2.44342,4.637935 4.57531,6.021819 1.77463,1.151974 4.86864,4.621534 6.87557,7.710134 3.04682,4.688962 3.75043,6.707301 4.26381,12.231112 0.46659,5.020431 0.27356,7.275438 -0.80062,9.352685 -0.77851,1.505466 -1.4196,3.285504 -1.42463,3.955641 -0.0359,4.783399 -10.45767,19.499681 -13.80921,19.499681 -1.66393,0 -2.55744,2.55109 -1.39969,3.99631 0.51107,0.63797 1.62026,3.57033 2.46488,6.51637 1.09458,3.8179 3.01042,7.09477 6.67004,11.40853 7.68806,9.06224 8.50783,12.18813 4.67689,17.83335 -2.906,4.28223 -2.9082,5.67963 -0.0164,10.40169 1.2631,2.0625 2.82862,4.80469 3.47894,6.09375 0.65033,1.28906 2.64589,4.66406 4.43459,7.5 4.3141,6.83987 16.94663,32.51008 16.94663,34.43672 0,1.53233 3.40129,7.70539 4.25727,7.72659 0.53681,0.0133 2.13625,-2.26718 3.55431,-5.06775 2.39948,-4.73881 3.13065,-7.65926 5.29718,-21.15806 2.20448,-13.73514 5.39691,-18.63287 11.30017,-17.3363 4.61464,1.01354 6.49422,6.52667 6.74128,19.77337 0.10963,5.87836 0.53692,10.68793 0.94955,10.68793 0.41261,0 3.80514,-3.05859 7.53895,-6.79688 7.73189,-7.74115 13.34614,-17.66368 12.31616,-21.7674 -0.34995,-1.39433 -0.1954,-2.37322 0.37469,-2.37322 0.53368,0 2.29931,-2.32281 3.92361,-5.16178 4.42854,-7.7403 7.66862,-8.87316 12.25644,-4.28533 2.30916,2.30914 2.74039,3.48936 2.74039,7.5 0,5.64963 1.61699,6.30071 4.83574,1.94711 1.42726,-1.93047 2.88206,-2.8125 4.63889,-2.8125 4.05354,0 5.49693,0.92963 6.98942,4.50169 1.26314,3.02311 1.23783,3.71709 -0.2693,7.38277 -0.91492,2.22531 -1.97991,4.04759 -2.36663,4.04952 -0.38671,0.002 -0.70312,0.45518 -0.70312,1.0072 0,0.55203 -1.6875,3.00496 -3.75,5.45096 -5.16429,6.12455 -4.92215,6.69897 2.01206,4.77293 2.57795,-0.71605 3.57308,-1.57905 4.04787,-3.51039 1.01997,-4.14909 3.06036,-6.57476 6.09022,-7.24023 1.56128,-0.34291 3.23582,-1.32879 3.72122,-2.19084 0.77584,-1.37788 1.28132,-1.18183 4.18131,1.62173 1.81434,1.754 4.05185,5.28327 4.97225,7.84282 1.0948,3.04454 2.40637,4.93237 3.79301,5.45958 1.16576,0.44322 2.11956,1.3837 2.11956,2.08996 0,0.70626 1.69873,3.91238 3.77497,7.12471 2.07622,3.21233 4.21764,7.90473 4.75869,10.42756 0.90037,4.19835 0.77987,4.92712 -1.42235,8.60163 l -2.40607,4.01465 -0.008,-5.9491 c -0.005,-3.29041 -0.59813,-7.06118 -1.32741,-8.4375 -0.72519,-1.36862 -2.16993,-4.59778 -3.21054,-7.1759 -1.4009,-3.47078 -2.8229,-5.22447 -5.47834,-6.75622 -1.97248,-1.13778 -4.18593,-2.087 -4.91876,-2.10937 -0.73283,-0.0224 -2.08735,-0.72386 -3.01004,-1.55888 -1.28767,-1.16532 -2.66539,-1.3701 -5.92704,-0.88098 -3.68938,0.55325 -4.63538,1.19819 -7.1777,4.89333 -5.29002,7.68878 -6.53021,17.83258 -3.19097,26.09962 3.57037,8.83923 4.40194,9.84375 8.14897,9.84375 10.28673,0 15.9781,-3.27109 19.96959,-11.47742 2.70966,-5.57094 4.23837,-5.63422 4.23837,-0.17544 0,3.99511 -0.38478,4.79611 -3.83324,7.97971 l -3.83325,3.53883 1.14868,10.61403 c 0.63177,5.83772 1.11257,15.14031 1.06845,20.67242 -0.0734,9.20103 0.0874,10.1758 1.88652,11.43594 3.81002,2.66865 9.18784,10.0665 9.18784,12.63901 0,1.38761 0.47231,2.99523 1.0496,3.57252 2.22193,2.22193 2.53489,8.60043 0.70972,14.46473 -0.96762,3.109 -1.75932,6.21952 -1.75932,6.91227 0,2.07328 2.94097,2.38374 9.94275,1.04961 6.18408,-1.17833 6.96837,-1.61583 11.75417,-6.55688 4.42506,-4.56908 5.60597,-5.29433 8.6202,-5.29433 4.91794,0 9.06165,1.97075 12.58772,5.98672 3.60207,4.10253 3.96272,8.20157 1.19834,13.6202 -3.2556,6.3815 -6.36178,8.19807 -15.28958,8.94175 -4.33473,0.36108 -9.35996,0.37913 -11.16716,0.0401 -1.81262,-0.34005 -5.13914,-0.095 -7.41947,0.54651 -2.27351,0.63961 -6.44782,1.20129 -9.27624,1.2482 l -5.1426,0.0853 -0.73607,4.6875 c -0.40483,2.57813 -0.88702,7.85157 -1.07153,11.71875 -0.18451,3.86719 -0.80806,10.40625 -1.38566,14.53125 -0.5776,4.125 -1.11019,9.39844 -1.18353,11.71875 -0.0733,2.32032 -0.54457,5.0204 -1.04716,6.0002 -0.87233,1.70059 -1.31001,4.26698 -3.45341,20.2498 -0.51861,3.86719 -1.38332,9.5625 -1.92154,12.65625 -0.53824,3.09375 -1.6113,11.10938 -2.38459,17.8125 -1.51415,13.12518 -2.53511,20.52036 -4.65945,33.75 -1.63044,10.15368 -3.27812,26.16412 -3.27812,31.85321 0,2.27139 -0.39764,4.37557 -0.88365,4.67594 -0.486,0.30036 -0.86695,2.70085 -0.84655,5.33442 0.0204,2.63356 -0.43181,5.07808 -1.0049,5.43228 -0.60732,0.37535 -1.27866,5.11475 -1.60934,11.36152 -0.31204,5.89467 -0.93666,11.42417 -1.38803,12.28782 -0.45137,0.86363 -0.78449,2.55113 -0.74026,3.75 0.14409,3.90535 -2.57848,23.92639 -5.07715,37.33599 -2.78351,14.93828 -4.61077,29.72782 -4.12448,33.38291 0.26696,2.00659 0.97158,6.70597 1.56582,10.44307 l 1.08045,6.79474 -3.52824,4.22088 c -3.47022,4.15151 -3.62899,4.22422 -9.65782,4.42275 -12.26122,0.40378 -43.21379,-1.60626 -48.00734,-3.11757 -2.58734,-0.81574 -5.21158,-0.82117 -10.58517,-0.0219 -11.76037,1.74913 -12.40278,1.6211 -17.51477,-3.49089 l -4.55357,-4.5536 0,-6.59322 c 0,-6.23632 -2.54348,-21.185 -4.82573,-28.36213 -1.16604,-3.6669 -5.73256,-11.52258 -11.91935,-20.50459 -11.89702,-17.27215 -21.73297,-47.71323 -25.3735,-78.52792 -1.06825,-9.042 -2.41608,-13.15752 -6.35002,-19.38927 -3.80277,-6.02398 -5.67619,-16.08845 -6.40155,-34.39072 -0.52417,-13.22589 -1.03897,-17.49421 -2.65567,-22.01861 -1.27439,-3.56651 -2.60348,-5.72747 -3.64605,-5.92812 -0.90931,-0.17501 -1.64063,0.24932 -1.64063,0.95194 0,0.69724 -2.74219,3.98552 -6.09375,7.30729 -3.35156,3.32177 -6.09375,6.40265 -6.09375,6.84638 0,0.44375 -1.37485,2.56531 -3.05522,4.71459 -1.68037,2.14928 -3.88203,5.59528 -4.89257,7.65778 -1.01054,2.0625 -4.06538,7.83087 -6.78853,12.81862 -2.72315,4.98773 -4.95118,9.72448 -4.95118,10.5261 0,1.30035 -3.65194,10.01187 -5.73751,13.68653 -0.43897,0.77344 -1.56237,2.88281 -2.49645,4.6875 -6.22182,12.02086 -12.49717,20.92588 -18.43432,26.15917 -9.017639,7.94858 -11.708976,10.60582 -16.99973,16.7843 -6.999329,8.17375 -11.408458,16.48008 -18.757847,35.33778 l -5.480563,14.0625 -0.03116,14.08762 -0.03116,14.08761 3.261065,5.39209 c 5.287086,8.74206 10.937787,14.44833 21.01115,21.21778 12.47778,8.38525 15.52287,12.50332 16.23805,21.95975 0.50984,6.74119 0.47285,6.88948 -2.18332,8.75121 -6.365831,4.46188 -27.5457,9.68453 -27.5457,6.79236 z m 239.04228,-65.26213 c 1.69261,-8.45967 3.16158,-17.27773 4.26795,-25.62004 0.23933,-1.80469 0.8554,-6.02344 1.36904,-9.375 0.51363,-3.35156 1.57836,-12.42188 2.36606,-20.15625 1.50249,-14.75288 3.60383,-31.43779 5.25414,-41.71875 0.53801,-3.35156 1.55701,-11.57813 2.26446,-18.28125 2.20509,-20.89338 3.21652,-28.91508 4.19632,-33.28125 0.9246,-4.12018 2.20555,-14.43581 3.66707,-29.53125 0.39939,-4.125 1.40047,-11.71875 2.22464,-16.875 2.02238,-12.65263 3.34955,-25.2634 4.48921,-42.65625 1.51725,-23.15586 2.57841,-29.85494 4.97819,-31.42733 2.85891,-1.87323 13.82461,-3.29533 28.93855,-3.7529 7.09591,-0.21484 13.63969,-0.78559 14.54173,-1.26835 2.93301,-1.5697 4.96915,-4.49895 5.53012,-7.95575 0.49163,-3.02956 0.1578,-3.77871 -3.16432,-7.10081 -3.84871,-3.84871 -6.40941,-4.24221 -8.80697,-1.35333 -1.57455,1.89723 -0.43128,8.58737 1.88968,11.05791 4.02053,4.27966 1.09618,4.55094 -6.96836,0.64642 -4.97966,-2.41095 -6.1385,-2.62823 -10.29854,-1.93089 -2.57813,0.43217 -7.5487,0.8109 -11.04574,0.84165 -3.49702,0.0308 -7.87277,0.68869 -9.72386,1.46213 -4.37781,1.82917 -11.52894,1.80235 -14.17805,-0.0532 -1.49966,-1.05041 -2.0836,-2.40909 -2.0836,-4.84805 0,-1.86376 -0.62188,-4.07583 -1.38197,-4.91571 -0.76008,-0.83988 -1.71662,-3.13776 -2.12565,-5.10642 l -0.74368,-3.57936 -6.37053,-0.42412 c -8.54672,-0.569 -9.25521,0.0847 -7.59956,7.01109 2.56183,10.71746 1.53911,12.4346 -5.98742,10.05287 -2.65425,-0.83992 -11.78536,-1.76132 -23.13494,-2.33449 -10.3125,-0.52079 -20.22656,-1.29749 -22.03125,-1.72598 -1.82178,-0.43256 -4.39035,-0.40756 -5.77477,0.0563 -1.88497,0.63144 -3.42024,0.36252 -6.29077,-1.10192 -4.99675,-2.54915 -7.75583,-2.44474 -10.42307,0.39442 -2.02556,2.1561 -2.10462,2.61806 -1.05036,6.13687 0.72168,2.40877 1.95534,4.17672 3.36153,4.81743 3.14096,1.43111 8.68257,0.21251 9.40653,-2.0685 0.80366,-2.53212 3.68446,-2.31297 5.47276,0.41633 1.20069,1.83248 2.50377,2.34918 6.9047,2.73789 2.98358,0.26352 8.58876,1.18783 12.45595,2.05402 3.86719,0.8662 10.26094,1.84899 14.20834,2.18398 10.06458,0.85415 11.47578,2.46951 12.51482,14.32549 0.77005,8.78664 0.91819,12.88189 0.65687,18.15861 -0.0766,1.54687 -0.0374,16.10156 0.0872,32.34375 0.12457,16.24219 -0.32391,41.13281 -0.99661,55.3125 -0.6727,14.17969 -1.05096,28.35745 -0.8406,31.50614 0.21038,3.14869 -0.0107,8.00025 -0.49122,10.78125 -0.88363,5.11368 -1.24677,108.47961 -0.38414,109.34225 0.8295,0.8295 1.38822,-3.6672 2.41571,-19.44214 0.55416,-8.50781 1.41343,-18 1.9095,-21.09375 0.49607,-3.09375 1.34147,-11.95313 1.87866,-19.6875 0.53719,-7.73438 1.37878,-18.49219 1.87021,-23.90625 1.94321,-21.40835 2.76492,-40.3926 2.23181,-51.5625 -0.36719,-7.69343 0.27366,-26.69297 1.86566,-55.3125 1.33373,-23.97656 2.68396,-50.63673 3.00052,-59.24482 l 0.57556,-15.65107 -3.61051,-1.70006 c -2.76054,-1.29984 -3.61051,-2.24705 -3.61051,-4.02359 0,-3.11757 2.7592,-3.55653 6.22926,-0.99102 1.49444,1.10489 3.14029,1.74738 3.65745,1.42776 0.51716,-0.31962 2.23386,-0.29702 3.8149,0.0502 2.41731,0.53092 2.77306,0.9521 2.23626,2.64758 -0.35108,1.10892 -0.79288,3.38082 -0.98177,5.04867 -0.18889,1.66784 -0.78363,3.85496 -1.32164,4.86025 -0.53802,1.00528 -0.99659,5.12506 -1.01904,9.15505 -0.0225,4.02999 -0.48699,9.22569 -1.0323,11.54601 -0.5453,2.32031 -1.10937,5.48437 -1.25348,7.03125 -0.14412,1.54687 -0.5592,3.93336 -0.92243,5.3033 -0.36321,1.36994 -0.20818,3.33579 0.34453,4.36854 0.72108,1.34734 0.69082,3.95389 -0.10712,9.22794 -0.61163,4.04262 -1.01823,10.26749 -0.90357,13.83305 0.11468,3.56555 -0.25243,7.87943 -0.81577,9.58638 -0.56402,1.70899 -1.17529,12.27625 -1.36038,23.51717 -0.47514,28.85754 -1.36981,51.54618 -2.50549,63.53862 -0.53712,5.67187 -1.33293,14.10937 -1.76845,18.75 -0.43554,4.64062 -1.22601,14.76562 -1.7566,22.5 -0.53061,7.73437 -1.38929,17.01562 -1.90819,20.625 -1.13222,7.87556 -2.73776,27.41713 -3.01372,36.68075 -0.15272,5.12668 0.19794,7.28658 1.50741,9.28509 2.24118,3.42047 2.81762,2.36094 5.20367,-9.56456 z m -81.90077,3.25076 c -0.75906,-8.16719 -5.10063,-21.81314 -10.37857,-32.6208 -2.14036,-4.38281 -4.64742,-10.92188 -5.57124,-14.53125 -0.92383,-3.60938 -2.65582,-9.72656 -3.84889,-13.59375 -1.19305,-3.86719 -2.6479,-9.98438 -3.23299,-13.59375 -0.58509,-3.60938 -1.43477,-8.88281 -1.88819,-11.71875 -1.29597,-8.10581 -4.3659,-20.0302 -5.94089,-23.0759 -0.78991,-1.5275 -1.86764,-4.87048 -2.39497,-7.42882 -0.52733,-2.55835 -1.87825,-7.60466 -3.00206,-11.21403 -1.12381,-3.60938 -2.3732,-9.09375 -2.77643,-12.1875 -0.40322,-3.09375 -1.38585,-10.7074 -2.18361,-16.91922 -0.79777,-6.21182 -1.86848,-12.39364 -2.37937,-13.73737 -0.51088,-1.34373 -1.40158,-5.04994 -1.97933,-8.23602 -0.57775,-3.18608 -1.50915,-6.79964 -2.0698,-8.03012 -1.12013,-2.45843 -3.10978,-2.11025 -2.15394,0.37693 1.82584,4.75099 3.45289,16.50638 4.2094,30.41244 0.73838,13.57296 1.17352,16.45443 3.13023,20.72847 3.2127,7.01745 7.8228,22.58843 8.49311,28.68614 0.31175,2.83594 0.99283,8.32031 1.51353,12.1875 0.5207,3.86719 1.19237,9.35156 1.49262,12.1875 0.55849,5.2751 2.92827,13.68882 6.20527,22.03125 1.0127,2.57812 2.23345,6.01293 2.71275,7.6329 0.4793,1.61997 1.49704,3.4646 2.26166,4.09917 0.76461,0.63457 1.3902,1.77828 1.3902,2.54158 0,0.76331 2.78311,7.77806 6.18468,15.58833 6.54232,15.02169 9.75282,25.55789 9.75282,32.00674 0,3.96029 0.50438,5.16253 2.16588,5.16253 0.5695,0 0.67847,-2.55435 0.28813,-6.7542 z m 15.35849,2.09893 c 0,-5.17907 -3.87905,-26.04894 -7.93444,-42.68848 -2.7647,-11.34375 -5.71727,-26.10938 -6.56126,-32.8125 -0.84399,-6.70313 -2.33787,-16.61719 -3.31973,-22.03125 -0.98186,-5.41406 -2.0428,-13.21875 -2.35765,-17.34375 -1.1215,-14.69364 -4.13428,-27.34238 -10.04857,-42.1875 -4.6755,-11.73569 -6.26646,-20.42053 -6.30814,-34.43527 -0.0327,-10.99141 -0.0341,-10.99811 -2.42012,-11.59696 -3.09588,-0.77701 -3.42967,-0.35101 -3.91457,4.99599 -0.48617,5.36115 3.48546,27.58989 5.69185,31.85658 0.85119,1.64603 1.54921,3.75203 1.55114,4.67998 0.002,0.92795 0.81841,3.02363 1.81441,4.65708 2.99498,4.9118 6.36506,14.43743 7.57292,21.4051 0.6257,3.60937 1.48109,7.61719 1.90089,8.90625 0.41979,1.28906 1.02185,6.77344 1.33791,12.1875 0.56618,9.69835 1.1491,13.75912 3.83545,26.71875 0.74818,3.60937 2.21449,12.04687 3.25846,18.75 3.06547,19.68267 3.7082,22.85764 7.47948,36.94684 1.0227,3.82076 1.85947,8.11752 1.85947,9.54834 0,1.43083 0.44263,3.76573 0.98363,5.18866 0.54101,1.42294 1.37815,5.69875 1.86033,9.50182 0.48219,3.80306 1.11913,7.30693 1.41545,7.78637 0.70764,1.145 2.30309,1.12176 2.30309,-0.0336 z M 59.375474,592.33664 c -0.179961,-6.27735 -0.467256,-11.55342 -0.638433,-11.7246 -0.530095,-0.53009 -5.163244,12.15091 -5.847672,16.00518 -0.560217,3.15479 -0.34497,3.88138 1.590749,5.36977 4.818416,3.70495 5.253633,2.84698 4.895356,-9.65035 z m 196.623656,10.44288 c 1.96982,-1.05422 2.39288,-3.70001 0.83994,-5.25295 -1.21896,-1.21896 -6.72,-20.14563 -6.05006,-20.81558 0.83103,-0.83104 2.05646,1.07784 3.21478,5.00776 2.2621,7.67471 5.02498,12.6905 7.30574,13.26292 1.21841,0.30581 2.39453,0.37677 2.6136,0.15769 0.21909,-0.21907 -2.96964,-7.12521 -7.08604,-15.34697 -5.01822,-10.02297 -7.92942,-14.86124 -8.83503,-14.68337 -0.89728,0.17622 -1.68085,-1.08254 -2.33436,-3.75 -0.54103,-2.2084 -1.5967,-5.91371 -2.34593,-8.23402 -0.74923,-2.32031 -1.62561,-8.22656 -1.9475,-13.125 -0.3219,-4.89844 -1.19627,-10.84299 -1.94304,-13.21013 -0.92505,-2.93224 -1.49173,-10.40177 -1.7781,-23.4375 -0.39811,-18.12223 -1.20802,-26.50665 -3.38775,-35.07112 -2.82735,-11.10899 -6.35856,-23.75861 -7.27944,-26.07666 -0.57664,-1.45153 -1.04844,-4.06079 -1.04844,-5.79834 0,-1.73755 -0.39524,-4.19875 -0.87832,-5.46933 -0.48307,-1.27058 -1.15857,-8.15351 -1.50111,-15.2954 -0.34254,-7.1419 -0.76278,-13.13279 -0.93387,-13.31308 -0.17109,-0.1803 -1.8159,0.16883 -3.65514,0.77583 l -3.34406,1.10364 1.6e-4,8.59917 c 1.7e-4,8.85535 2.15956,22.85264 3.77469,24.46777 0.50196,0.50196 0.91773,1.77749 0.92395,2.83452 0.007,1.05704 1.07338,3.7799 2.3715,6.05082 1.29812,2.27091 2.75008,5.64591 3.22657,7.5 2.28724,8.89986 2.87526,11.33505 4.20963,17.43356 0.78975,3.60937 1.43614,8.25 1.43643,10.3125 2.9e-4,2.0625 1.0776,11.97656 2.39402,22.03125 1.31642,10.05469 2.76902,21.44531 3.22799,25.3125 1.16175,9.78867 4.12683,26.56927 5.88069,33.28125 0.8084,3.09375 1.89326,7.94531 2.4108,10.78125 0.51755,2.83594 1.35669,7.05469 1.86477,9.375 0.50808,2.32031 1.4153,7.38281 2.01603,11.25 1.72783,11.1228 2.16354,11.73609 6.6369,9.34202 z M 48.868758,598.58146 c 0.650635,-4.13933 6.139609,-17.50859 11.927047,-29.05021 2.068442,-4.125 4.595434,-9.60938 5.615537,-12.1875 3.449618,-8.71827 6.328461,-14.98586 8.396993,-18.28125 1.132811,-1.80469 2.061233,-4.05469 2.063161,-5 0.0062,-3.01567 -2.26384,-1.17353 -4.726477,3.83563 -1.312428,2.66956 -3.313985,5.84129 -4.447906,7.0483 -2.219059,2.36209 -19.884613,37.32093 -19.884613,39.3502 0,0.67302 -0.572666,2.05583 -1.272592,3.07289 -2.237733,3.25169 -3.710011,11.26484 -2.488928,13.54645 1.690722,3.15915 4.140879,1.9719 4.817778,-2.33451 z m 192.476782,3.39177 c 0.28528,-0.46159 -0.1117,-1.08116 -0.88217,-1.37682 -0.85093,-0.32653 -1.40087,0.003 -1.40087,0.83926 0,1.5163 1.46496,1.86125 2.28304,0.53756 z M 36.524942,596.77952 c 2.147443,-3.47464 6.709509,-16.29281 9.030497,-25.37327 1.446282,-5.65833 2.701487,-9.02746 9.774873,-26.23703 C 60.500098,532.59111 69.435245,517.01336 75.502818,510 77.467004,507.72964 87.1875,491.10817 87.1875,490.0199 c 0,-0.29638 2.574101,-5.94162 5.720225,-12.545 3.146125,-6.60338 6.478394,-13.69365 7.405035,-15.75615 0.92666,-2.0625 2.94693,-6.49219 4.4895,-9.84375 1.54258,-3.35156 3.10973,-7.14844 3.48255,-8.4375 0.37282,-1.28906 2.81129,-6.5625 5.41884,-11.71875 2.60754,-5.15625 5.47317,-10.85156 6.36806,-12.65625 0.89489,-1.80469 2.93235,-4.92129 4.52768,-6.92578 1.59534,-2.0045 2.90061,-4.0084 2.90061,-4.45313 0,-1.04349 -5.70534,-1.02601 -7.35999,0.0225 -1.26397,0.80099 -4.3658,7.57435 -7.5993,16.59434 -0.94033,2.62307 -2.4417,6.18481 -3.33641,7.91497 -0.8947,1.73017 -3.08362,7.17776 -4.86427,12.10578 -4.800902,13.28667 -5.491005,15.00067 -8.514639,21.14753 -1.521816,3.09375 -3.476125,7.15006 -4.342907,9.01403 -0.866783,1.86395 -2.363503,4.23433 -3.326045,5.2675 -0.962542,1.03316 -2.844305,3.93779 -4.181696,6.45473 -2.4637,4.63662 -6.960215,11.25597 -11.706543,17.23328 -5.329381,6.71159 -17.084318,27.55171 -18.948188,33.5929 -1.060571,3.43753 -2.687616,8.1485 -3.615657,10.46881 -0.928041,2.32032 -2.990014,8.4375 -4.582163,13.59375 -4.776133,15.46774 -7.486029,23.08155 -8.759901,24.61211 -0.663322,0.79697 -2.104787,3.92461 -3.203254,6.95028 -1.822398,5.01972 -1.863428,5.57938 -0.46875,6.39403 0.840655,0.49106 1.599524,0.90565 1.686376,0.92132 0.08685,0.0157 1.053578,-1.4207 2.148279,-3.19197 z m 261.969618,1.73465 c 0.7383,-1.92397 0.81831,-67.66312 0.0838,-68.85157 -0.93623,-1.51483 -0.39544,-28.3579 1.38768,-68.88135 1.00937,-22.93918 0.51603,-76.41667 -0.91677,-99.375 -0.54705,-8.76563 -1.08427,-17.83594 -1.19383,-20.15625 l -0.19921,-4.21875 -6.09375,-0.57584 c -7.98026,-0.75411 -15.42537,-2.22306 -20.5085,-4.04641 -2.25623,-0.80933 -6.63269,-1.4715 -9.72546,-1.4715 l -5.62322,0 0.5039,4.92187 c 0.94494,9.22964 4.44413,23.54067 6.77611,27.71304 1.27995,2.29006 2.32717,5.58718 2.32717,7.32692 0,3.55835 -2.70846,6.91317 -5.58124,6.91317 -1.00717,0 -2.5892,1.09638 -3.51562,2.43639 -0.92641,1.34002 -2.9959,3.97674 -4.59886,5.85938 -4.31852,5.07201 -5.14572,9.72807 -6.52092,36.70423 -0.49091,9.62962 -0.25284,15.79497 0.99552,25.78125 1.4653,11.72168 4.1303,25.06708 5.22355,26.15772 0.2221,0.22157 0.004,6.23922 -0.48434,13.37257 -1.80154,26.30763 -0.59794,51.00131 2.80677,57.58531 0.70833,1.36973 1.10922,2.66907 0.89088,2.88741 -1.17124,1.17124 4.68212,15.41293 8.38999,20.4135 1.31685,1.77596 2.39427,3.6831 2.39427,4.2381 0,1.44799 13.83391,15.70768 18.28125,18.84392 2.0625,1.45447 4.17188,3.10978 4.6875,3.6785 3.60409,3.97514 9.16722,5.46945 10.21331,2.74339 z m -58.12611,-0.9346 c 1.35161,-3.52222 -0.82071,-17.32358 -4.56234,-28.98582 -1.158,-3.60938 -2.58215,-8.88281 -3.16477,-11.71875 -2.22867,-10.84817 -4.9906,-25.05134 -5.83373,-30 -0.48318,-2.83594 -1.25861,-7.05469 -1.72318,-9.375 -3.02563,-15.11168 -4.15003,-22.19323 -4.83779,-30.46875 -1.08865,-13.09914 -1.61667,-15.12345 -8.55879,-32.8125 -6.45467,-16.44697 -9.63501,-31.12433 -9.64918,-44.53125 l -0.007,-7.03125 -2.9272,-0.28485 c -1.76976,-0.17222 -3.10911,0.19848 -3.38727,0.9375 -0.42621,1.13242 0.44575,6.64196 3.08672,19.5036 0.58232,2.83594 2.08821,10.33549 3.34642,16.66567 1.25821,6.33017 3.68442,14.97861 5.39158,19.21875 1.70715,4.24013 3.60973,11.08433 4.22793,15.20933 0.61821,4.125 1.47402,9.82031 1.90179,12.65625 1.60742,10.65633 4.07636,22.18822 5.7204,26.71875 0.93556,2.57812 1.93043,6.62681 2.21084,8.99708 0.2804,2.37029 1.10515,6.16716 1.83277,8.4375 0.72762,2.27036 2.06537,7.42252 2.97278,11.44925 0.9074,4.02673 2.12197,7.82361 2.69904,8.4375 0.57706,0.6139 1.10861,2.59273 1.18121,4.39742 0.0726,1.80469 0.83229,7.28906 1.68816,12.1875 0.85588,4.89844 1.89406,11.01562 2.30707,13.59375 1.28203,8.00289 3.95481,18.28125 4.75385,18.28125 0.41914,0 1.01814,-0.66731 1.33111,-1.48293 z m -209.131386,-5.5071 c 1.284176,-2.29764 3.059609,-6.41092 3.945406,-9.14062 0.885796,-2.7297 2.341593,-6.86154 3.235102,-9.18185 0.893511,-2.32031 2.803025,-8.01563 4.243365,-12.65625 1.440341,-4.64063 3.14187,-9.91406 3.781178,-11.71875 0.639308,-1.80469 2.314325,-6.86719 3.722258,-11.25 3.688757,-11.48287 6.616332,-16.82295 19.530578,-35.625 12.199097,-17.76085 21.087171,-33.34492 24.862874,-43.59375 6.007965,-16.30818 11.145065,-29.05947 16.719675,-41.50156 2.37222,-5.29461 4.14508,-9.79252 3.93968,-9.99534 -0.20538,-0.20283 -1.50013,-0.15231 -2.8772,0.11226 -1.73336,0.33303 -2.84241,1.3893 -3.60434,3.43285 -2.49034,6.67921 -3.61416,9.93671 -6.355,18.42054 -3.638584,11.26271 -12.451798,32.6898 -14.897888,36.22046 -1.023417,1.47718 -2.785575,4.58423 -3.915909,6.90454 -2.962465,6.08125 -7.343269,12.89241 -13.357937,20.76854 -7.654169,10.02306 -11.681092,16.46334 -14.271933,22.82521 -6.790885,16.67518 -8.124473,20.2727 -8.124473,21.91677 0,0.99181 -1.050566,4.06003 -2.334592,6.81826 -1.284025,2.75824 -2.338712,5.99192 -2.34375,7.18598 -0.0051,1.19405 -0.477052,3.04528 -1.048922,4.11382 -0.571872,1.06855 -2.055924,5.78692 -3.297896,10.48524 -2.288652,8.65789 -5.814979,18.46737 -6.946506,19.32368 -0.685299,0.51862 -5.590834,9.18495 -5.590834,9.87701 0,0.23952 0.596744,0.43549 1.326098,0.43549 0.729355,0 2.37679,-1.87988 3.660966,-4.17753 z m -0.577908,-8.87914 c 1.757164,-3.82961 3.821878,-9.73586 4.588254,-13.125 0.766376,-3.38914 2.182776,-8.69333 3.147557,-11.78708 0.96478,-3.09375 2.459903,-8.15625 3.322496,-11.25 5.936495,-21.29167 12.633582,-36.28466 22.763341,-50.96107 16.715619,-24.21826 23.083407,-36.7746 32.598943,-64.28035 1.770272,-5.11715 3.041863,-9.48072 2.825756,-9.69682 -0.425887,-0.42589 -6.510459,12.23324 -8.477357,17.63739 -0.665421,1.82827 -2.278912,5.41421 -3.585536,7.96875 -1.306623,2.55453 -3.722564,7.59773 -5.368759,11.2071 -1.646194,3.60938 -3.550168,7.19625 -4.231052,7.97084 -0.680883,0.77459 -1.803901,2.46209 -2.495592,3.75 -1.984236,3.6946 -13.579049,20.61453 -17.66583,25.77916 -4.028418,5.09088 -14.085228,24.89021 -15.714291,30.9375 -0.555613,2.0625 -1.617587,6.28125 -2.359945,9.375 -0.742357,3.09375 -2.471812,9.63281 -3.843234,14.53125 -1.371422,4.89844 -3.346116,12.02059 -4.388208,15.82701 -3.126506,11.42008 -5.450232,16.83519 -7.504015,17.48703 -2.870875,0.91118 -4.074232,4.97214 -2.11491,7.13716 1.514617,1.67364 1.667786,1.67822 3.446301,0.10327 1.02368,-0.90653 3.298917,-4.78153 5.056081,-8.61114 z m 237.095344,0.55244 c -7.36852,-8.39285 -15.1509,-22.97118 -17.97227,-33.66647 -0.66329,-2.51441 -1.95322,-5.7054 -2.86652,-7.09109 l -1.66054,-2.51946 -0.58187,2.34375 c -0.75778,3.05229 -0.087,5.625 1.46661,5.625 1.13542,0 2.88369,3.38119 2.50746,4.84949 -0.18595,0.72576 2.39714,8.27648 5.38923,15.75339 1.13,2.82377 3.28561,6.9582 4.79023,9.18763 1.50462,2.22942 2.73567,4.33277 2.73567,4.67413 0,0.34135 1.75464,2.40848 3.8992,4.59364 3.21325,3.27405 4.20883,3.80729 5.65923,3.03105 1.60777,-0.86045 1.31651,-1.44712 -3.36643,-6.78106 z M 232.5,582.57807 c 0,-0.3008 -0.81207,-3.78127 -1.80461,-7.73437 -0.99253,-3.95309 -2.29595,-10.51576 -2.89647,-14.58371 -0.60051,-4.06794 -2.31969,-11.12213 -3.82038,-15.67597 -1.5007,-4.55385 -2.72876,-9.03023 -2.72901,-9.9475 -2.6e-4,-0.91727 -0.79532,-3.77715 -1.76678,-6.35527 -0.97148,-2.57813 -2.07494,-6.58594 -2.45216,-8.90625 -0.37721,-2.32031 -1.03668,-4.88813 -1.46551,-5.70627 -0.89565,-1.70878 -3.65821,-15.00656 -6.50765,-31.32498 -1.08043,-6.1875 -3.41952,-15.60862 -5.19798,-20.93582 -5.12618,-15.35498 -8.33982,-29.63431 -11.90367,-52.89231 -0.9364,-6.11094 -1.06167,-6.32812 -3.65022,-6.32812 -3.56527,0 -3.49904,1.51552 0.58705,13.43603 4.63117,13.51066 7.52496,28.3283 8.45286,43.28272 0.33825,5.45139 1.52746,10.45093 4.57148,19.21875 1.51919,4.37581 6.20229,20.09196 7.99405,26.82752 0.56458,2.12232 1.0265,5.14873 1.0265,6.72535 0,1.57662 0.44938,5.11361 0.99862,7.85998 0.54923,2.74637 1.43779,7.31371 1.97457,10.14965 1.03539,5.47027 3.66035,16.188 6.42909,26.25 0.92224,3.35156 3.22506,9.67969 5.11738,14.0625 1.89232,4.38281 3.87049,9.12891 4.39592,10.54687 0.82573,2.22837 2.64692,3.62592 2.64692,2.0312 z M 53.044953,566.48437 c 2.892838,-6.05859 5.66232,-12.07031 6.154404,-13.35937 1.247465,-3.26785 8.512326,-14.31832 16.129271,-24.53399 C 82.978847,518.33072 90.018491,505.93598 94.406794,495 c 1.758693,-4.38281 4.01789,-9.68398 5.020415,-11.78036 1.002531,-2.09639 1.822791,-4.25761 1.822791,-4.80271 0,-0.95452 2.42242,-7.09211 5.11046,-12.94818 0.71005,-1.54688 3.04108,-6.82031 5.18009,-11.71875 6.07253,-13.90641 12.20997,-26.16053 16.43403,-32.8125 8.42442,-13.26659 8.35713,-13.125 6.23743,-13.125 -2.81729,0 -8.27988,6.96355 -12.50223,15.9375 -2.06216,4.38281 -4.97798,10.46192 -6.47958,13.50911 -1.50162,3.04721 -2.7302,6.29184 -2.7302,7.21031 0,0.91845 -0.42187,1.93065 -0.9375,2.24933 -0.51562,0.31867 -0.9375,1.24536 -0.9375,2.0593 0,1.29914 -7.72035,18.27379 -11.855109,26.0657 -0.820847,1.54687 -3.158278,6.1875 -5.194288,10.3125 -5.450721,11.04327 -7.328389,14.48566 -10.738654,19.6875 -2.999088,4.57465 -4.688397,6.96802 -11.752309,16.65032 -1.895635,2.59829 -4.772516,7.50866 -6.393068,10.91193 -1.620553,3.40326 -4.133285,8.50806 -5.58385,11.344 -6.016423,11.76246 -13.76924,33.75 -11.900263,33.75 0.317783,0 2.944656,-4.95703 5.837494,-11.01562 z M 209.1006,554.76562 c -7.54914,-15.78807 -9.29148,-22.75106 -13.66473,-54.60937 -0.84936,-6.1875 -2.11248,-12.51563 -2.80692,-14.0625 -0.69444,-1.54688 -1.92023,-5.09931 -2.72399,-7.89429 -0.80376,-2.79498 -2.09482,-6.04854 -2.86902,-7.23013 -1.86127,-2.84065 -3.34654,-13.39674 -3.67594,-26.12558 -0.26647,-10.29682 -2.99208,-25.52965 -5.74838,-32.12641 -0.74889,-1.79235 -1.36162,-4.23709 -1.36162,-5.43276 0,-1.19565 -0.42188,-2.43466 -0.9375,-2.75333 -1.64799,-1.01852 -1.02891,6.58627 0.88916,10.92237 1.50104,3.39336 1.93328,7.21653 2.42477,21.4473 0.67205,19.45874 1.56038,23.56897 7.99785,37.00533 2.89854,6.04986 4.67308,14.86988 5.15055,25.59971 0.4255,9.56209 1.88309,18.5197 4.68233,28.77529 0.70369,2.57812 1.55441,6.26953 1.89047,8.20312 0.33607,1.9336 0.92944,3.51563 1.31859,3.51563 0.38915,0 1.61331,2.48415 2.72036,5.52033 1.10705,3.03619 2.64014,6.04097 3.40687,6.67729 0.76672,0.63633 1.39405,2.1031 1.39405,3.2595 0,2.20224 3.26383,7.04288 4.74871,7.04288 0.47444,0 -0.80158,-3.48047 -2.83561,-7.73438 z m 35.06036,-50.15625 c -0.23154,-13.27734 -0.82428,-25.82812 -1.31721,-27.89062 -0.49293,-2.0625 -1.30628,-5.64844 -1.80744,-7.96875 -0.50117,-2.32031 -1.96784,-8.22656 -3.25929,-13.125 -4.54318,-17.23224 -6.05198,-30.55588 -6.18076,-54.57996 -0.0277,-5.18476 -0.28066,-6.20395 -1.42983,-5.76297 -5.19652,1.99409 -3.62159,31.43379 2.77677,51.90543 7.55712,24.17907 8.38824,29.57969 8.15157,52.96875 -0.18948,18.7277 0.74073,28.59375 2.69595,28.59375 0.43517,0 0.60178,-10.86328 0.37024,-24.14063 z m -162.207944,21.6627 c 0.89318,-2.32759 -0.09128,-2.64541 -1.285044,-0.41487 -0.575907,1.0761 -0.655162,1.9553 -0.176259,1.9553 0.478601,0 1.136187,-0.6932 1.461303,-1.54043 z m 4.324927,-6.01178 c 0.53654,-1.00253 0.606526,-1.82279 0.155525,-1.82279 -0.451001,0 -1.312796,1.08157 -1.915099,2.40348 -1.246236,2.73518 0.249069,2.24171 1.759574,-0.58069 z m -26.303,-31.55093 c 10.962891,-14.37931 17.723641,-26.18701 26.726549,-46.67811 2.945065,-6.70313 6.837582,-15.50902 8.650039,-19.56863 1.81246,-4.05963 3.520472,-9.0594 3.7956,-11.1106 0.441047,-3.28829 0.290044,-3.68912 -1.276575,-3.38849 -1.281262,0.24586 -2.953406,3.2582 -5.995556,10.8008 -2.320313,5.75291 -4.535156,10.77502 -4.921875,11.16025 -0.386719,0.38523 -0.707672,1.36839 -0.713228,2.1848 -0.0154,2.26266 -7.030206,16.81171 -9.239731,19.16364 -1.436322,1.52889 -2.118359,3.88956 -2.590034,8.96459 l -0.640282,6.88917 -6.90212,7.03783 c -3.796165,3.87079 -7.956169,9.13637 -9.244453,11.70129 -1.288284,2.56492 -4.022349,6.57208 -6.0757,8.90481 -2.053352,2.33273 -4.19692,5.97534 -4.763485,8.09468 -0.566565,2.11935 -1.84921,5.6597 -2.850321,7.86744 -1.001112,2.20775 -1.532959,4.47886 -1.181881,5.04691 0.351077,0.56806 2.888729,-3.34765 5.639227,-8.70158 2.750497,-5.35392 7.963219,-13.61989 11.583826,-18.3688 z m 37.427904,20.45828 c 7.136663,-6.53279 7.918563,-7.65082 13.768673,-19.6875 3.4113,-7.01876 6.51525,-13.3942 6.89769,-14.16764 0.38244,-0.77344 2.30739,-5.20312 4.27768,-9.84375 3.94386,-9.28901 10.53533,-22.19569 17.2362,-33.75 2.39228,-4.125 4.95277,-8.67976 5.68999,-10.12169 0.73721,-1.44193 2.81389,-4.34316 4.61484,-6.44716 3.12732,-3.65357 3.19536,-3.8833 1.51408,-5.11268 -3.52839,-2.58003 -4.85728,-1.67547 -9.12714,6.21278 -8.10083,14.96566 -10.21503,19.10983 -12.4117,24.3289 -2.42362,5.75825 -7.82587,17.32398 -17.53745,37.5461 -10.22968,21.30095 -13.280719,27.2318 -14.551566,28.28651 -2.7549,2.28637 -2.274835,-0.53453 1.34355,-7.89473 2.091586,-4.25455 4.955836,-10.47772 6.364996,-13.82928 1.40916,-3.35156 2.9317,-6.49453 3.38346,-6.98437 0.45174,-0.48985 0.82135,-1.47941 0.82135,-2.19903 0,-0.71963 0.7884,-2.42822 1.752,-3.79688 0.96361,-1.36865 2.07995,-3.54316 2.48077,-4.83222 0.40082,-1.28906 2.28781,-5.71875 4.19332,-9.84375 1.9055,-4.125 4.02392,-8.97656 4.7076,-10.78125 0.68368,-1.80469 1.65494,-3.81951 2.15835,-4.47737 1.40406,-1.83485 17.60514,-34.18794 17.28181,-34.51128 -1.43543,-1.43544 -15.80573,20.6909 -18.0687,27.82088 -0.35066,1.10483 -2.86232,6.70628 -5.58146,12.44765 -2.71915,5.74138 -5.71222,12.54825 -6.65128,15.12637 -0.93907,2.57813 -1.94395,4.89844 -2.23306,5.15625 -0.28912,0.25781 -1.50841,3 -2.70954,6.09375 -3.59118,9.24985 -6.89886,16.75885 -8.247944,18.72423 -0.698157,1.01706 -1.269366,2.44195 -1.269366,3.16639 0,0.72446 -2.109375,5.46875 -4.6875,10.5429 -2.578125,5.07413 -4.6875,9.48519 -4.6875,9.80234 0,1.20113 1.938223,-0.25589 9.277847,-6.97447 z M 79.211701,441.32812 c 1.448109,-3.73828 3.393828,-8.48437 4.32382,-10.54687 0.929992,-2.0625 2.367124,-5.64844 3.193628,-7.96875 7.077157,-19.86832 7.105142,-20.01218 4.194441,-21.56994 -1.427296,-0.76387 -1.987233,-0.71465 -2.291252,0.20139 -0.22129,0.66676 -1.50018,4.37636 -2.841978,8.24355 -1.341798,3.86719 -4.105796,12.09375 -6.142215,18.28125 -2.036421,6.1875 -4.126272,11.98255 -4.644114,12.8779 -1.638602,2.83314 -1.06352,7.27835 0.941607,7.27835 0.348225,0 1.817955,-3.05859 3.266063,-6.79688 z m 160.482249,-9.93675 c -0.31523,-3.01598 0.0384,-10.92614 0.78567,-17.57812 0.74734,-6.65198 1.36703,-14.52028 1.37709,-17.48513 0.0172,-5.0568 -0.1198,-5.39062 -2.21172,-5.39062 -4.02872,0 -4.49067,3.20371 -3.54119,24.55858 0.85113,19.1428 1.18035,21.37892 3.14758,21.37892 0.67886,0 0.82564,-1.81866 0.44257,-5.48363 z M 78.800647,420.70601 c 0.647101,-2.70861 1.531478,-5.55757 1.965282,-6.33101 1.181926,-2.10728 4.360333,-14.87374 3.834067,-15.4 -0.251409,-0.25141 -1.497973,1.07669 -2.77014,2.95133 -2.182549,3.21616 -3.98568,9.89461 -5.485309,20.31654 -0.882455,6.13275 0.888543,5.02459 2.4561,-1.53686 z m 77.619113,-4.88855 c 5.1624,-5.84134 6.61113,-8.00496 5.36002,-8.00496 -1.72578,0 -5.21728,2.07098 -5.21728,3.09463 0,0.69632 -1.09478,2.28879 -2.43282,3.53883 -2.23902,2.09173 -5.06718,6.51737 -5.06718,7.92936 0,1.31934 1.86384,-0.34199 7.35726,-6.55786 z m -52.80584,-1.50319 c 1.59079,-4.78943 1.39122,-7.20234 -0.32975,-3.98668 -1.11962,2.09203 -2.44676,8.73491 -1.7451,8.73491 0.27376,0 1.20744,-2.1367 2.07485,-4.74823 z M 183.75,409.39793 c 0,-0.67488 -0.6194,-2.04598 -1.37644,-3.04687 -1.18734,-1.56982 -1.38052,-1.60496 -1.40625,-0.25586 -0.042,2.20583 0.95607,4.5298 1.94549,4.5298 0.46046,0 0.8372,-0.55218 0.8372,-1.22707 z m -53.14298,-6.40157 c 10.92395,0.0564 21.99527,0.18319 24.60295,0.28171 3.66263,0.13838 6.13211,-0.49847 10.85533,-2.79947 4.0202,-1.95851 7.53356,-2.98362 10.25879,-2.99324 3.79122,-0.0134 14.5032,-2.06264 15.38349,-2.94293 0.51186,-0.51187 2.54724,-12.08059 2.53107,-14.38618 -0.007,-1.03125 -0.0499,-16.53516 -0.0947,-34.45313 -0.0448,-17.91796 -0.24091,-32.57812 -0.43576,-32.57812 -0.19484,0 -1.93159,0.65905 -3.85944,1.46455 -1.92784,0.80551 -4.03459,1.26141 -4.68167,1.0131 -1.20801,-0.46355 -8.71439,1.33385 -21.10463,5.05351 -6.84457,2.0548 -15,6.05411 -15,7.35579 0,0.35546 -1.19317,1.35111 -2.65149,2.21256 -1.7922,1.05867 -3.01695,2.87116 -3.77919,5.59275 -0.62023,2.21457 -2.14539,6.76868 -3.38925,10.12024 -1.24385,3.35156 -3.93521,11.36719 -5.9808,17.8125 -6.09573,19.20667 -8.30719,24.82106 -9.90536,25.14742 -2.50076,0.51065 -2.74835,-2.46654 -0.65914,-7.92599 1.09463,-2.86042 1.99023,-5.83776 1.99023,-6.61629 0,-0.77854 0.62343,-2.74491 1.38541,-4.36971 2.29736,-4.89881 9.75977,-26.75303 12.26768,-35.92683 l 2.35041,-8.59766 -2.99838,-4.25382 c -1.6491,-2.3396 -3.30246,-4.06588 -3.67413,-3.83617 -0.85152,0.52626 -4.3723,7.89027 -6.71039,14.0353 -2.46713,6.48421 -12.33801,34.60362 -14.15107,40.3125 -0.81878,2.57812 -3.42467,10.35918 -5.79087,17.29122 -2.36622,6.93205 -4.08304,13.17486 -3.81517,13.8729 0.35046,0.91328 1.42747,1.09276 3.84066,0.64004 1.8445,-0.34603 12.29141,-0.58298 23.21537,-0.52655 z m -29.2235,-8.0837 c 0.84687,-2.44415 5.77479,-16.67829 10.95095,-31.63141 10.09983,-29.17692 13.25266,-37.75075 15.51815,-42.20014 1.95934,-3.84812 2.42354,-11.23736 0.70595,-11.23736 -1.46935,0 -4.94174,6.19613 -11.03317,19.6875 -6.31688,13.99072 -8.21858,18.13024 -11.45688,24.93872 -1.61894,3.40379 -2.94352,6.62166 -2.94352,7.15083 0,0.52916 -0.59142,1.45295 -1.31427,2.05286 -0.72284,0.59991 -1.58913,2.2336 -1.925083,3.63042 -0.54165,2.25211 -2.038988,5.8179 -9.094761,21.65844 -1.009031,2.26531 -1.493429,4.45994 -1.076438,4.87693 0.800999,0.801 8.860939,5.35358 9.660552,5.45668 0.257812,0.0333 1.16165,-1.93932 2.00852,-4.38347 z m 111.42175,-1.50633 c -0.01,-1.46311 -2.82391,-38.40391 -3.36598,-44.18758 -0.24163,-2.57813 -0.83545,-11.85938 -1.31961,-20.625 -1.7834,-32.28888 -2.14577,-34.1858 -5.71006,-29.89109 -3.20389,3.86044 -3.61781,8.09617 -3.67917,37.64992 -0.0335,16.12674 0.15391,29.66887 0.41643,30.09364 0.26253,0.42476 0.0804,4.52704 -0.40452,9.11617 -0.48502,4.58913 -0.57624,10.66417 -0.20273,13.50011 l 0.67912,5.15625 4.6875,0.46875 c 5.75778,0.57578 8.90857,0.12217 8.89902,-1.28117 z m 17.46428,-3.39746 c 13.50854,-5.97523 14.42043,-6.62439 14.38502,-10.2403 -0.0181,-1.84927 -0.63611,-6.10451 -1.37332,-9.45607 -0.73721,-3.35156 -1.3552,-7.69304 -1.37332,-9.64772 -0.0181,-1.95469 -0.82903,-6.17344 -1.80203,-9.375 -0.973,-3.20157 -2.62915,-11.09447 -3.68033,-17.53978 -2.16106,-13.25057 -8.23069,-40.97719 -9.44722,-43.15577 -0.44134,-0.79037 -1.10053,-2.79427 -1.46488,-4.45312 -0.67539,-3.07499 -1.80724,-3.65187 -4.19741,-2.13928 -1.13732,0.71974 -1.17687,2.38505 -0.26122,11.00128 0.59343,5.58422 1.74929,13.3172 2.56857,17.18439 1.81001,8.5436 2.86698,15.29662 3.70508,23.67187 l 0.63325,6.32813 -2.41837,0 c -2.09145,0 -2.42625,-0.41187 -2.47667,-3.04688 -0.12117,-6.33214 -2.79979,-25.01215 -4.60434,-32.10937 -0.52441,-2.0625 -1.2024,-7.01953 -1.50665,-11.01563 -0.47884,-6.28913 -0.79,-7.26562 -2.31522,-7.26562 -4.01359,0 -4.56128,5.88881 -2.87729,30.9375 0.60663,9.02344 1.47347,20.41406 1.9263,25.3125 0.45284,4.89844 1.27591,14.8125 1.82904,22.03125 1.90684,24.88557 2.29548,26.27989 7.10738,25.49903 1.68818,-0.27395 5.12781,-1.40859 7.64363,-2.52141 z M 85.116798,389.76562 c 1.730128,-2.08723 9.232236,-17.80846 12.861918,-26.95312 3.138144,-7.90627 9.340384,-21.2189 13.173204,-28.27522 1.37985,-2.54035 9.00445,-20.91796 11.30048,-27.23759 1.54993,-4.26607 1.18671,-5.30912 -2.79525,-8.02734 -4.01228,-2.7389 -5.78455,-2.02069 -8.45862,3.42782 -7.25866,14.78979 -12.915596,25.32352 -14.149402,26.3475 -0.783272,0.65005 -1.424128,1.5432 -1.424128,1.98477 0,1.34049 -16.059772,31.01355 -19.241224,35.55131 -2.805769,4.00192 -4.228498,7.42664 -5.528789,13.30864 -0.482284,2.18167 -0.124869,2.77542 2.48222,4.12359 1.675096,0.86624 4.169376,2.77794 5.542845,4.24824 2.690916,2.88064 4.69381,3.3628 6.236746,1.5014 z M 257.18448,373.30744 c 1.90831,-1.72006 1.85823,-2.29696 -1.19585,-13.77619 -1.87553,-7.0495 -3.84419,-16.23713 -5.15288,-24.04823 -0.55093,-3.28826 -0.74209,-3.43663 -4.8485,-3.76322 -2.35122,-0.187 -4.43945,-0.0739 -4.64049,0.25146 -0.47714,0.77204 1.9905,14.68613 3.14195,17.71624 0.48985,1.28906 1.58369,5.92969 2.43078,10.3125 0.84708,4.38281 2.02024,9.7916 2.607,12.01951 0.98229,3.72967 1.26009,4.00255 3.50456,3.44258 1.34073,-0.3345 3.20978,-1.30409 4.15343,-2.15465 z M 72.233079,366.3281 c 1.314132,-1.67577 5.472225,-9.16404 9.240209,-16.6406 3.767985,-7.47656 7.370675,-14.22656 8.00598,-15 2.10743,-2.56564 21.145732,-38.80517 21.145732,-40.25104 0,-0.47993 -0.81702,-1.13192 -1.8156,-1.44886 -0.99859,-0.31694 -1.94781,-1.50552 -2.10938,-2.6413 -0.54674,-3.84323 -3.08892,-2.0964 -6.85627,4.7112 -2.0625,3.72694 -5.211281,9.21131 -6.997297,12.1875 -1.786013,2.97619 -3.993951,7.02393 -4.906528,8.99498 -0.912577,1.97104 -2.450692,4.71323 -3.418035,6.09375 -0.967341,1.38051 -3.644933,6.10637 -5.950204,10.50192 -2.305271,4.39554 -5.528528,9.83775 -7.162794,12.09378 -1.634266,2.25604 -2.971392,4.49697 -2.971392,4.97984 0,1.03754 -5.776864,9.48114 -6.796875,9.93448 -1.449997,0.64444 -0.611062,3.00836 2.206493,6.21737 3.604875,4.10574 5.332488,4.16073 8.385961,0.26698 z m 82.010661,-47.95761 c 3.51054,-1.86295 8.67121,-3.64004 12.39444,-4.26804 8.96101,-1.51148 9.34219,-1.85574 6.93426,-6.2627 -5.88939,-10.77879 -9.60681,-29.70638 -7.57225,-38.55477 0.56167,-2.44268 1.68709,-6.02756 2.50095,-7.96642 0.81386,-1.93884 1.16648,-3.83728 0.7836,-4.21875 -0.38287,-0.38146 -3.9106,2.68144 -7.83939,6.80644 -3.92879,4.125 -8.30966,8.13281 -9.73524,8.90625 -1.42559,0.77344 -7.13965,4.14844 -12.69792,7.5 -5.55827,3.35156 -12.6025,7.14844 -15.65386,8.4375 -3.05136,1.28906 -5.71297,2.84033 -5.91471,3.44727 -0.20175,0.60694 1.55408,1.95323 3.90183,2.99175 4.41259,1.9519 15.57088,12.61058 22.5608,21.55063 2.0625,2.63793 3.87881,4.80223 4.03625,4.80954 0.15742,0.007 2.99298,-1.4231 6.30124,-3.1787 z m 198.85241,-3.12946 c 3.0548,-2.72099 2.88863,-4.37076 -0.36178,-3.59166 -1.41796,0.33987 -4.45918,1.02558 -6.75825,1.5238 -2.29907,0.4982 -4.56153,1.28724 -5.02769,1.7534 -3.32832,3.32832 8.4226,3.63252 12.14772,0.31446 z M 311.25,311.77978 c 0,-2.28675 -0.41143,-5.23987 -0.9143,-6.5625 -0.76897,-2.02256 -1.50432,-2.40478 -4.62647,-2.40478 -4.53748,0 -8.52172,-1.41368 -8.52177,-3.02367 -3e-5,-0.92277 3.04399,-1.1452 13.35938,-0.97615 7.34767,0.12043 14.9633,0.48554 16.92361,0.81137 3.60687,0.59952 11.90455,-1.12628 11.90455,-2.47598 0,-0.4033 -1.64993,-1.01201 -3.66651,-1.35271 -2.01658,-0.34071 -4.39537,-1.42484 -5.28621,-2.40921 -1.42515,-1.57477 -2.82849,-1.76735 -11.68316,-1.60331 -9.54592,0.17685 -10.26241,0.0547 -13.93253,-2.374 -2.128,-1.40825 -3.86909,-2.95143 -3.86909,-3.42931 0,-1.77371 1.83983,-1.90346 5.08009,-0.3583 1.83363,0.8744 3.55043,1.37324 3.81513,1.10855 0.56232,-0.56231 -0.91295,-9.06001 -1.71153,-9.8586 -0.29822,-0.29821 -3.94355,0.14316 -8.10074,0.9808 -4.15719,0.83766 -8.88783,1.52302 -10.51255,1.52302 -1.6247,0 -3.78158,0.73828 -4.79305,1.64062 -1.76971,1.57878 -1.81575,1.56571 -1.22126,-0.34667 0.51203,-1.64715 0.15255,-2.08034 -2.10029,-2.53092 -1.49494,-0.29898 -4.56453,-2.0585 -6.82131,-3.91003 -14.23645,-11.68 -18.01128,-14.5405 -19.18823,-14.5405 -0.7267,0 -1.32126,0.41028 -1.32126,0.91173 0,0.50146 -2.42578,2.51397 -5.39063,4.47227 -4.9071,3.24117 -5.4151,3.89518 -5.6635,7.29139 -0.40505,5.53797 3.61389,24.39378 6.73517,31.59962 2.07575,4.79213 7.01597,6.87448 18.33232,7.72727 7.33092,0.55245 8.69192,0.45091 7.89851,-0.58928 -0.52722,-0.69121 -1.47173,-3.05128 -2.0989,-5.24458 -0.99332,-3.47383 -0.88242,-4.85379 0.86048,-10.70611 1.3588,-4.5626 2.93987,-7.64484 4.92746,-9.60592 2.54798,-2.51399 2.97192,-2.66632 3.27631,-1.17727 0.19229,0.94072 -0.27823,2.41728 -1.04562,3.28125 -3.35724,3.77985 -4.37237,13.42018 -1.95054,18.5238 2.40958,5.0778 6.08161,6.71575 16.77519,7.48274 5.15625,0.36983 10.21875,1.00807 11.25,1.41833 3.08832,1.22859 3.28125,1.03498 3.28125,-3.29296 z m -66.93631,-5.68603 c -1.78927,-6.84933 -6.15725,-28.58015 -6.17144,-30.70313 -0.009,-1.41796 -0.27294,-2.57812 -0.58547,-2.57812 -0.31251,0 -2.21095,1.30107 -4.21875,2.89128 -4.03797,3.19814 -4.27509,4.36376 -2.33854,11.49568 0.72161,2.65748 2.0463,8.8396 2.94378,13.73804 0.89748,4.89844 2.04764,10.10021 2.55591,11.55951 l 0.92413,2.65326 3.69009,-3.59076 c 2.61692,-2.54648 3.54765,-4.13606 3.20029,-5.46576 z m -56.10825,3.44451 c 0.85491,-0.54281 0.38544,-1.49488 -1.72648,-3.50127 -4.87615,-4.63251 -9.34475,-14.98024 -11.22195,-25.98619 -1.07722,-6.31563 -0.22118,-14.97509 2.09763,-21.21909 0.50962,-1.37231 0.49191,-2.61016 -0.045,-3.14709 -1.22455,-1.22454 -3.2983,2.23633 -5.76899,9.62788 -2.30927,6.90862 -2.10398,11.84275 1.014,24.37046 2.45543,9.86574 4.86914,14.94124 8.56289,18.00598 3.19982,2.65492 5.05625,3.13929 7.08792,1.84932 z m 162.97573,-1.66646 c 4.29595,-1.79496 5.9363,-3.731 5.97652,-7.05389 0.045,-3.71731 -2.20744,-5.15259 -5.95784,-3.79642 -1.67845,0.60693 -3.74706,1.10351 -4.59691,1.10351 -5.0533,0 -11.9227,6.49826 -10.57688,10.00542 0.68275,1.77921 10.68649,1.6085 15.15511,-0.25862 z m -151.2274,-12.30145 c 1.95113,-1.20816 4.28652,-2.92057 5.18974,-3.80537 0.90321,-0.8848 3.94745,-3.32033 6.76498,-5.41229 2.81751,-2.09196 7.45366,-5.55051 10.30252,-7.6857 8.56935,-6.4226 11.53602,-8.4998 14.97649,-10.48626 1.80469,-1.04199 4.54342,-2.94909 6.08609,-4.23799 l 2.80484,-2.34348 -2.15184,-2.12775 c -1.99824,-1.97587 -2.21852,-2.01064 -3.0858,-0.48714 -0.51368,0.90235 -1.36439,1.64063 -1.89047,1.64063 -1.75391,0 -14.36548,8.12947 -18.34305,11.82399 -6.69555,6.21911 -19.43946,16.30101 -20.60509,16.30101 -0.67965,0 -13.43968,8.60279 -13.43968,9.06101 0,0.16091 0.71339,1.12573 1.58531,2.14406 1.76307,2.05913 0.85406,2.39674 11.80596,-4.38472 z m -2.31182,-8.73193 c 6.02349,-4.14512 13.50862,-9.73496 16.63361,-12.42188 7.77921,-6.68865 12.37844,-10.25191 15.38114,-11.91654 4.26833,-2.36627 8.91891,-6.42439 8.19357,-7.14974 -1.41713,-1.41712 -20.12879,9.71325 -34.77023,20.68258 -1.60808,1.20477 -4.61186,3.03749 -6.67506,4.07271 -2.06319,1.03521 -5.61017,3.53185 -7.88219,5.54808 -3.54839,3.14893 -4.04146,4.02233 -3.49649,6.19363 0.34893,1.39025 0.86605,2.52774 1.14913,2.52774 0.2831,0 5.44304,-3.39146 11.46652,-7.53658 z m 156.09059,3.66069 c 0.73547,-1.168 0.42514,-2.21403 -1.30577,-4.40125 -1.24879,-1.57802 -2.58693,-2.89246 -2.97365,-2.92099 -0.85088,-0.0628 -0.93667,5.74867 -0.1164,7.88622 0.7088,1.84713 3.06821,1.54441 4.39582,-0.56398 z m -13.65397,-0.57724 c 0.22643,-0.68007 -0.40628,-1.17187 -1.50762,-1.17187 -2.05022,0 -3.28415,1.2243 -2.26306,2.2454 0.94329,0.94328 3.32492,0.26522 3.77068,-1.07353 z m -5.52839,-3.53456 c 1.03977,-1.03976 -0.77314,-1.18866 -8.53455,-0.70097 -4.53806,0.28515 -8.20313,0.93707 -8.20313,1.45911 0,0.92995 15.76361,0.21593 16.73768,-0.75814 z M 126.94699,280.4056 c 1.27541,-1.40931 1.27405,-1.86634 -0.013,-4.34957 -0.79099,-1.52612 -3.83488,-5.8856 -6.76421,-9.68771 -2.92933,-3.80211 -6.62089,-8.74392 -8.20349,-10.9818 -4.27648,-6.04719 -7.30455,-8.05636 -12.787394,-8.48463 -9.189904,-0.71782 -11.479469,3.69388 -5.469441,10.53893 1.454316,1.65637 4.025897,5.05432 5.714634,7.55101 1.688751,2.49668 5.033171,6.64879 7.432071,9.22692 2.3989,2.57812 5.16772,5.95312 6.15295,7.5 0.98522,1.54687 2.1728,3.08253 2.63905,3.41257 1.11331,0.78806 9.47324,-2.70847 11.29881,-4.72572 z m 61.25344,2.45685 c 4.51011,-3.94188 15.56559,-11.44772 35.50667,-24.10635 6.40633,-4.06675 10.42431,-7.14886 9.54127,-7.31892 -1.61621,-0.31125 -8.4266,3.25019 -18.69556,9.7767 -3.42564,2.17719 -7.85533,4.76398 -9.84375,5.74841 -5.72233,2.83304 -19.34573,10.0924 -21.66219,11.5429 -2.11725,1.32577 -2.59962,3.18888 -1.54032,5.94938 0.86645,2.25792 2.82064,1.79312 6.69387,-1.59212 z m 153.79967,-2.36193 c -0.25061,-1.30131 -2.08792,-1.51788 -13.17692,-1.55322 -8.16054,-0.026 -12.77152,0.30148 -12.57432,0.89307 0.51614,1.54836 7.19979,2.30188 15.26321,1.72077 5.23096,-0.37698 7.81254,-0.21363 8.2679,0.52316 0.90834,1.46971 2.5787,0.27812 2.22013,-1.58378 z m -204.3962,-5.39743 c 2.82522,-1.97886 2.66839,-3.07084 -1.64471,-11.45203 C 127.54956,247.3095 122.40402,240 119.31,240 c -1.02717,0 -8.36476,3.29102 -9.44792,4.23754 -0.1618,0.14138 1.63117,3.06932 3.98438,6.50652 2.3532,3.4372 4.27854,6.6237 4.27854,7.08111 0,0.45741 0.52844,1.16903 1.17432,1.58137 1.52297,0.97229 9.13818,10.99394 9.13818,12.02588 0,1.41726 4.03832,5.13008 5.57982,5.13008 0.82664,0 2.4406,-0.65674 3.58658,-1.45941 z m 56.51526,-5.8641 c 6.92978,-3.77011 13.2324,-7.24359 14.00584,-7.71884 0.77344,-0.47523 4.35937,-2.62067 7.96875,-4.76761 C 227.18147,250.1573 232.5,246.58057 232.5,245.71928 c 0,-0.45323 -0.73828,-1.73151 -1.64063,-2.84063 l -1.64062,-2.01656 -5.77907,2.80407 c -6.04135,2.93134 -10.42613,5.04542 -14.37718,6.93183 -11.56294,5.52067 -24.28249,12.41984 -25.96643,14.08435 -2.12584,2.1013 -4.31204,12.50392 -2.4735,11.76965 0.49335,-0.19704 6.56682,-3.44288 13.49659,-7.213 z m 145.95896,5.8343 c 3.57277,-1.02383 2.55649,-3.19829 -1.49478,-3.19829 -1.98229,0 -8.09948,-0.27504 -13.59375,-0.61122 C 315.34111,270.67343 315,270.71827 315,272.5769 c 0,1.42146 0.91872,2.18485 3.51562,2.92121 3.51104,0.99558 17.57264,0.71854 21.5625,-0.42482 z m -35.90472,-2.65017 c 3.86487,-1.61484 5.2016,-3.90976 5.2016,-8.93016 0,-7.37985 2.83267,-22.83553 4.75541,-25.94659 1.88214,-3.04536 1.88231,-3.06514 0.0359,-4.05333 -2.96351,-1.586 -4.80195,-1.18879 -12.76007,2.75696 -4.125,2.04523 -7.92188,3.73882 -8.4375,3.76354 -0.51563,0.0247 -5.15625,2.56403 -10.3125,5.64291 -8.84192,5.27967 -12.82237,7.36239 -16.64063,8.70697 -0.90234,0.31775 -1.64062,1.18469 -1.64062,1.92653 0,2.42408 11.55939,11.94573 19.6875,16.2169 3.15443,1.6576 16.07202,1.60382 20.1109,-0.0837 z m -156.73645,-4.06375 c 1.36258,-1.51295 0.90256,-2.81478 -5.91173,-16.72973 -4.0641,-8.299 -8.04701,-15.63497 -8.8509,-16.30214 -1.8196,-1.51013 -7.37778,-0.15485 -7.76434,1.89324 -0.14253,0.75516 0.80379,2.51475 2.10293,3.91022 1.29915,1.39546 2.36209,2.84935 2.36209,3.23086 0,0.38151 1.0872,2.26248 2.416,4.17995 1.32882,1.91746 3.34493,5.73701 4.48028,8.48789 2.5487,6.17536 7.02884,12.97034 8.55175,12.97034 0.625,0 1.80127,-0.73828 2.61392,-1.64062 z m 194.76936,-0.72578 c 0.65223,-0.7859 0.9697,-1.64508 0.70548,-1.90929 -0.26421,-0.26422 -6.65245,-0.73837 -14.19609,-1.05367 C 316.43155,264.15719 315,264.25676 315,265.62457 c 0,2.24204 0.87772,2.37377 21.68209,3.25431 2.92395,0.12376 4.72495,-0.28223 5.52422,-1.24529 z m -186.7722,-6.61803 c 0.48897,-3.40348 -10.84563,-25.2892 -15.23084,-29.40889 -2.10658,-1.97902 -2.40375,-2.03867 -2.95821,-0.59379 -0.35938,0.93654 0.39628,3.63357 1.81238,6.46856 1.33582,2.67427 3.87615,8.32558 5.6452,12.55845 3.58719,8.5833 6.92965,13.42926 9.04736,13.11703 0.77344,-0.11402 1.53128,-1.07764 1.68411,-2.14136 z m 186.05461,-0.77592 c -0.12652,-0.46976 -1.39215,-0.92461 -2.8125,-1.01076 -1.42036,-0.0862 -7.17321,-0.5014 -12.78413,-0.92274 -8.54982,-0.64203 -10.13188,-0.55427 -9.77076,0.54202 0.27321,0.8294 2.4626,1.51416 5.9829,1.87122 7.98589,0.80999 19.65407,0.52122 19.38449,-0.47974 z m -128.20747,-15.5211 c 5.67187,-2.94945 11.47266,-5.64763 12.89062,-5.99595 1.41797,-0.34832 2.57813,-1.04715 2.57813,-1.55295 0,-1.7777 -4.08983,-0.88701 -10.84401,2.36161 -3.7521,1.80469 -7.08933,3.28125 -7.41607,3.28125 -0.32675,0 -5.22501,2.32031 -10.88502,5.15625 -5.66002,2.83594 -10.77736,5.15625 -11.37187,5.15625 -1.72088,0 -5.42053,3.91617 -5.42053,5.73776 0,1.73927 -0.70479,2.06645 30.46875,-14.14422 z M 251.25,257.29728 c 0,-0.28337 -1.51842,-2.07634 -3.37428,-3.98438 -1.85584,-1.90802 -5.52896,-7.16056 -8.16247,-11.67227 -5.00752,-8.57884 -7.62966,-10.632 -6.58521,-5.15625 0.65066,3.41121 9.00755,15.1155 13.47879,18.8778 2.74082,2.30625 4.64317,3.09909 4.64317,1.9351 z m -87.1875,-3.67877 c 0,-0.96773 -6.07676,-11.49118 -7.62821,-13.21018 -0.96073,-1.06449 -1.74679,-2.48586 -1.74679,-3.15862 0,-0.67276 -1.50711,-3.70415 -3.34912,-6.73645 C 149.08465,226.80323 147.38857,225 146.1527,225 c -3.16737,0 -3.00938,2.55171 0.51746,8.3575 1.87448,3.08574 4.86964,8.77363 6.6559,12.63977 3.59606,7.78319 6.24157,10.40485 9.00639,8.92516 0.95152,-0.50925 1.73005,-1.09601 1.73005,-1.30392 z m 178.125,1.51008 c 0,-0.47773 -4.95703,-1.05306 -11.01563,-1.27851 -6.05859,-0.22545 -11.81146,-0.75898 -12.78417,-1.18564 -1.309,-0.57416 -1.65634,-0.43912 -1.33674,0.51969 0.23749,0.71247 1.45521,1.55945 2.70605,1.88216 3.71815,0.95929 22.43049,1.01125 22.43049,0.0622 z m -79.04025,-4.30836 c 3.5112,-1.26762 8.8509,-3.6934 11.86601,-5.39062 3.01511,-1.69723 11.24167,-6.03898 18.28125,-9.64836 13.58242,-6.96405 14.36121,-7.78381 12.37014,-13.02072 l -0.98294,-2.58532 -3.98148,2.32646 c -14.85675,8.68108 -17.82403,10.12453 -18.80213,9.14643 -1.16977,-1.16977 0.45542,-2.60245 6.38315,-5.62701 2.0625,-1.05236 6.49219,-3.71939 9.84375,-5.92672 5.27033,-3.47103 6.25963,-4.58252 7.32139,-8.22572 0.6752,-2.31682 1.62442,-4.94495 2.10937,-5.8403 0.48496,-0.89535 0.88174,-1.86604 0.88174,-2.15709 0,-0.82836 -6.4512,4.16428 -12.9246,10.00247 -3.24135,2.92329 -7.00492,5.59405 -8.36351,5.93503 -1.35859,0.34098 -3.50957,1.43757 -4.77996,2.43686 -2.69554,2.1203 -4.86943,2.35924 -4.86943,0.53521 0,-1.30877 5.20497,-5.19987 11.45318,-8.56208 3.08457,-1.65982 7.89434,-5.78748 18.38598,-15.77849 1.71623,-1.63433 3.55232,-3.76264 4.08022,-4.72958 0.52789,-0.96693 2.31171,-3.52918 3.96407,-5.69387 4.17982,-5.47587 8.73239,-14.70633 8.27074,-16.76918 -0.30228,-1.35073 -0.92072,-1.5867 -2.87381,-1.0965 -3.04538,0.76435 -4.84288,2.17545 -4.84288,3.80186 0,0.67289 -1.05469,2.05304 -2.34375,3.06702 -1.28906,1.01398 -2.34375,2.24483 -2.34375,2.73524 0,0.4904 -0.88694,1.69432 -1.97098,2.67536 -1.08404,0.98105 -2.56911,2.94036 -3.30014,4.35403 -3.27557,6.33426 -20.48047,24.15286 -23.32099,24.15286 -1.13014,0 -2.81837,0.84375 -3.75164,1.875 -0.93327,1.03125 -2.26428,1.875 -2.9578,1.875 -0.69352,0 -1.26095,-0.84375 -1.26095,-1.875 0,-1.03125 0.43744,-1.875 0.97208,-1.875 0.53464,0 6.18747,-5.28778 12.56183,-11.75063 11.48645,-11.64589 14.34929,-15.76397 17.84316,-25.66666 2.54769,-7.22091 1.48529,-13.8875 -1.99999,-12.55007 -1.53666,0.58967 -4.66442,6.26612 -6.9961,12.69692 -3.06751,8.46028 -7.2974,14.45543 -15.4641,21.91777 -4.44448,4.06116 -8.97913,8.30939 -10.077,9.44051 -2.56237,2.64 -7.15552,4.40902 -8.34898,3.21556 -0.56336,-0.56336 0.0102,-2.79678 1.55892,-6.07052 1.75835,-3.71685 2.45357,-6.71776 2.4622,-10.62795 0.0118,-5.35367 -2.65125,-19.04243 -3.70458,-19.04243 -1.33339,0 -4.12488,8.86145 -6.05421,19.21875 -1.87709,10.07685 -3.56352,14.5268 -8.79908,23.21786 -2.4326,4.03813 -5.05571,8.46664 -5.82915,9.84114 -0.77344,1.37449 -1.89943,3.03746 -2.50222,3.69547 -0.84497,0.92241 -0.62878,2.1109 0.94407,5.18971 4.01607,7.8614 12.84451,19.46207 14.81118,19.46207 0.38375,0 3.57052,-1.03715 7.08172,-2.30477 z m 78.46442,-0.33446 c 0.59168,-0.95738 -17.28152,-3.35327 -21.25019,-2.84859 -3.77796,0.48045 -3.2016,2.12852 0.93559,2.67532 6.79008,0.89742 19.79848,1.00837 20.3146,0.17327 z m -164.38154,-16.8139 c 2.23556,-8.3789 4.40614,-15.23437 4.82351,-15.23437 1.11823,0 0.92754,3.36847 -0.55387,9.78385 -1.41753,6.13884 -3.01318,14.17004 -3.78373,19.04427 -0.27301,1.72694 -0.0756,3.04688 0.4556,3.04688 1.19653,0 2.95892,-4.55418 2.2231,-5.74474 -0.30588,-0.49494 -0.17396,-1.40876 0.29318,-2.0307 0.46714,-0.62194 1.39115,-3.02925 2.05334,-5.34956 0.6622,-2.32031 1.68028,-5.27344 2.2624,-6.5625 1.00985,-2.23624 1.07227,-2.16263 1.36077,1.6048 0.16631,2.17171 -0.13407,4.76407 -0.6675,5.7608 -0.53343,0.99672 -1.25446,4.23365 -1.6023,7.19316 -0.50655,4.30991 -0.37952,5.29662 0.63818,4.95738 0.69882,-0.23294 1.76133,-2.34722 2.36112,-4.69839 1.3369,-5.24062 2.00541,-6.38025 3.74265,-6.38025 0.95108,0 1.35092,1.10992 1.35092,3.75 0,2.0625 0.31641,3.74805 0.70313,3.74566 1.39994,-0.008 11.38769,-4.37334 12.92269,-5.64728 1.22978,-1.02062 1.46805,-2.33821 1.09053,-6.0303 -1.09226,-10.68226 -3.60349,-22.22326 -6.69232,-30.75628 -3.44471,-9.51617 -9.23302,-21.72703 -10.74106,-22.65904 -0.48879,-0.30209 -1.15594,-1.70458 -1.48256,-3.11664 -0.32661,-1.41205 -2.43149,-4.57128 -4.6775,-7.0205 l -4.08368,-4.45312 -9.39608,0 c -5.16785,0 -10.42843,-0.39249 -11.69018,-0.87221 -1.26175,-0.47972 -5.43649,-1.30929 -9.2772,-1.84347 -3.8407,-0.5342 -7.68739,-1.24153 -8.54819,-1.57185 -2.04114,-0.78326 -2.11241,2.38472 -0.13947,6.19996 2.33737,4.51998 5.13587,20.21704 5.15124,28.8939 0.007,4.45496 0.42331,8.73273 0.92315,9.50617 1.04195,1.6123 1.0454,1.59832 1.38758,-5.625 0.24112,-5.09033 1.97719,-15.49323 2.81058,-16.84169 2.15278,-3.48326 2.30157,4.65823 0.39115,21.40116 -0.66338,5.81374 -0.6871,9.09274 -0.0702,9.70959 0.61685,0.61686 1.29255,-0.9229 2.00084,-4.55946 0.5882,-3.01997 1.49645,-7.38929 2.01836,-9.7096 1.23044,-5.47042 1.57344,-7.22623 2.24349,-11.48438 0.30427,-1.93359 0.95597,-3.51562 1.44823,-3.51562 1.14286,0 1.16916,8.60034 0.035,11.44027 -3.2188,8.05969 -5.58639,28.83844 -3.64406,31.98141 1.06002,1.71526 1.47632,0.55688 2.46504,-6.85918 0.51557,-3.86719 1.81809,-10.16678 2.89448,-13.9991 1.07639,-3.83232 1.95708,-9.3705 1.95708,-12.30708 0,-4.91234 1.54687,-8.39695 3.05711,-6.8867 0.91729,0.91728 -0.27143,10.7909 -2.2121,18.374 -1.81435,7.08945 -4.0606,26.9158 -3.15237,27.82402 1.11031,1.11031 2.39052,-1.8619 3.60106,-8.36047 1.59891,-8.58334 6.22692,-28.40699 6.75669,-28.94155 2.22149,-2.24163 -0.1592,18.96811 -3.30597,29.45313 -3.36881,11.22486 -4.02264,15.18893 -2.86273,17.35626 0.5955,1.11269 1.22738,1.87842 1.40418,1.70161 0.44822,-0.44821 3.17446,-11.27952 4.67889,-18.58912 1.87428,-9.10668 6.02797,-21.5625 7.19052,-21.5625 1.37708,0 0.58106,4.63826 -3.94778,23.00271 -2.03913,8.26867 -3.7075,15.67258 -3.7075,16.45312 0,1.78691 2.0446,3.90438 2.86399,2.96604 0.33768,-0.38671 2.44308,-7.55859 4.67864,-15.9375 z m -82.098096,8.94172 c 3.080428,-1.01068 8.882406,-2.41458 12.893306,-3.11977 5.07304,-0.89192 9.07206,-2.3251 13.1395,-4.70896 3.21584,-1.88476 7.90329,-4.23734 10.41654,-5.22797 6.06138,-2.38917 12.52143,-6.90989 13.27729,-9.29139 0.66166,-2.08473 -0.91915,-4.6405 -2.87028,-4.6405 -0.67075,0 -2.42156,1.01144 -3.89069,2.24764 -1.46915,1.23619 -4.4259,3.16225 -6.57058,4.28012 -2.14468,1.11787 -4.43815,2.68163 -5.09661,3.47503 -0.65846,0.79339 -2.26923,1.87286 -3.57948,2.39882 -13.42052,5.38717 -14.04605,5.56039 -30.97603,8.57791 -6.445312,1.14877 -13.722656,2.0561 -16.171875,2.01629 -2.449219,-0.0399 -4.453125,0.20414 -4.453125,0.54212 0,0.33799 1.406521,1.68734 3.125603,2.99854 4.8897,3.72955 10.401339,3.84961 20.756431,0.45212 z M 341.25,243.64066 c 0,-1.60033 -0.40821,-1.87494 -2.10938,-1.41906 -1.16015,0.31092 -6.43359,0.57106 -11.71875,0.5781 -10.76295,0.0144 -13.22801,1.61459 -3.28125,2.1301 16.91566,0.87668 17.10938,0.86208 17.10938,-1.28914 z m -16.875,-4.57816 c 0,-0.51563 -1.16016,-0.93104 -2.57813,-0.92315 -2.009,0.0112 -2.26769,0.21498 -1.17187,0.92315 1.83425,1.18538 3.75,1.18538 3.75,0 z m 15,-0.57809 c 0,-1.11422 -0.55863,-1.36589 -2.10938,-0.95031 -1.16015,0.31092 -3.6914,0.57106 -5.625,0.5781 -1.93359,0.007 -3.51562,0.43468 -3.51562,0.9503 0,0.52084 2.5,0.9375 5.625,0.9375 4.55536,0 5.625,-0.28821 5.625,-1.51559 z m -120.89608,-3.40629 c 2.03178,-1.16015 3.69739,-2.7597 3.70136,-3.55453 0.004,-0.79484 -1.481,-6.70109 -3.29993,-13.125 -5.66544,-20.00856 -16.60299,-43.77868 -24.11473,-52.40751 -2.44921,-2.81345 -4.45312,-5.43391 -4.45312,-5.82324 0,-0.38933 -1.58203,-0.99347 -3.51563,-1.34251 -4.76907,-0.86089 -6.82399,-2.03881 -6.2349,-3.57394 0.27068,-0.70539 -0.2058,-2.91379 -1.05886,-4.90758 -2.48257,-5.80235 -4.32304,-12.49608 -3.70902,-13.48959 1.10401,-1.78633 2.04784,-0.86785 3.1523,3.06765 2.08503,7.42954 5.23509,14.76563 6.34024,14.76563 1.21156,0 0.63785,-3.45426 -0.7123,-4.28869 -1.13747,-0.703 -1.03745,-2.27381 0.14479,-2.27381 0.53301,0 1.8403,1.47656 2.9051,3.28125 2.14281,3.63178 4.56328,4.34639 4.56328,1.34723 0,-2.65458 -4.63391,-11.90731 -6.27966,-12.53884 -1.00783,-0.38674 -1.26599,0.1692 -1.04503,2.25046 0.40759,3.83932 -1.33978,3.46953 -2.74185,-0.58025 -1.44856,-4.18408 -0.95036,-5.00985 3.02254,-5.00985 2.90265,0 3.35273,0.41198 5.56967,5.09819 1.3265,2.80402 2.41183,5.68359 2.41183,6.39909 0,1.51704 4.43529,5.94242 5.19466,5.18306 0.28301,-0.28301 -1.40283,-4.83908 -3.7463,-10.1246 -4.62043,-10.42101 -4.85033,-11.25591 -3.08899,-11.21804 1.04546,0.0225 3.98549,5.97383 7.29963,14.77626 1.46202,3.8831 3.73931,5.18721 6.93587,3.97187 2.66267,-1.01234 3.087,-3.29571 1.14157,-6.14285 -0.69496,-1.01708 -2.05283,-3.9586 -3.0175,-6.53673 -0.96466,-2.57812 -2.97915,-6.513 -4.47664,-8.74417 -1.88127,-2.80295 -2.42203,-4.35735 -1.74978,-5.0296 1.15496,-1.15496 4.79942,4.2461 8.77318,13.00179 2.63983,5.81654 4.01602,7.54549 4.88579,6.13819 0.2577,-0.41697 -1.94753,-4.98269 -4.90052,-10.14603 -3.50023,-6.12021 -5.40117,-10.52051 -5.4613,-12.64181 -0.0507,-1.78964 -1.13312,-6.40659 -2.40532,-10.25989 -2.32686,-7.04772 -5.38435,-22.029624 -5.38435,-26.383727 0,-3.54629 -0.76805,-3.708456 -5.70802,-1.205185 -2.49818,1.265924 -5.39992,2.301682 -6.44832,2.301682 -1.06937,0 -1.90616,0.617336 -1.90616,1.40625 0,0.773437 0.42187,1.40625 0.9375,1.40625 0.51562,0 2.625,1.6875 4.6875,3.75 2.93587,2.935866 3.75,4.457137 3.75,7.007175 0,2.658705 -0.50822,3.519985 -2.76594,4.687505 -1.52128,0.78667 -4.46141,1.43032 -6.53364,1.43032 -2.07222,0 -5.43868,0.87098 -7.48102,1.9355 -2.36749,1.234 -5.01128,1.82863 -7.29449,1.64062 -3.25606,-0.2681 -3.58116,-0.54091 -3.58116,-3.00519 0,-3.51045 2.85216,-5.51374 4.56796,-3.20844 0.96797,1.30053 1.83197,1.42933 4.86696,0.72549 2.02955,-0.47066 5.37758,-0.87227 7.44008,-0.89247 8.72309,-0.0854 8.03715,-4.203435 -2.34375,-14.07051 -4.38379,-4.166801 -7.65456,-8.097051 -8.02864,-9.64743 -1.11965,-4.640488 1.30676,-10.677937 5.92527,-14.743308 6.05489,-5.329721 5.14496,-6.546762 -4.89472,-6.546762 -7.83766,0 -14.21355,1.486376 -23.00191,5.362305 -5.91692,2.609536 -5.97326,3.062723 -0.71467,5.748239 6.35502,3.245441 10.31073,9.448234 10.81327,16.955809 0.28823,4.306004 -0.11205,6.113569 -2.29664,10.371147 -2.80892,5.47434 -6.33834,7.68005 -5.76554,3.603178 0.29984,-2.134078 0.14734,-2.180709 -6.25517,-1.912341 -3.78091,0.158485 -7.84688,0.93841 -9.59268,1.840069 -5.25593,2.714524 -5.61453,0.605775 -1.41889,-8.343908 2.02232,-4.313786 4.39065,-9.410214 5.26298,-11.325394 1.91098,-4.195567 4.76393,-6.361604 8.37906,-6.361604 1.70337,0 2.542,-0.420097 2.29827,-1.15128 -0.5007,-1.502097 -8.13942,-3.733066 -10.55374,-3.082331 -4.79513,1.292442 -25.78125,24.388366 -25.78125,28.37313 0,0.931303 0.58209,2.525437 1.29355,3.542501 0.71145,1.01708 1.45552,2.69298 1.65346,3.72423 0.19796,1.03125 0.88149,1.92773 1.51896,1.99219 0.63746,0.0644 1.58091,0.16992 2.09653,0.23437 0.51563,0.0644 0.9375,1.17188 0.9375,2.46094 0,1.84966 0.47483,2.34375 2.25244,2.34375 1.97094,0 2.49816,0.80902 4.21875,6.47366 1.08147,3.56052 1.96631,7.33249 1.96631,8.38217 0,1.97124 1.57616,3.568 2.55538,2.58879 0.56482,-0.56481 -1.82152,-13.7444 -3.03126,-16.74149 -0.46685,-1.15661 -0.21776,-1.64063 0.84433,-1.64063 0.89551,0 1.50655,0.78222 1.50655,1.92861 0,3.41438 2.10338,10.40551 2.89307,9.61582 0.42065,-0.42065 0.38957,-2.42867 -0.0691,-4.46225 -0.45864,-2.03358 -0.6451,-4.00291 -0.41434,-4.37628 0.60627,-0.98097 6.02592,1.9111 6.03818,3.22214 0.006,0.60677 0.23953,2.79071 0.51968,4.85321 l 0.50937,3.75 -1.53055,-2.66101 c -0.8418,-1.46355 -1.75912,-2.43244 -2.03848,-2.15309 -1.28477,1.28479 1.02704,7.41919 3.97331,10.54313 1.78412,1.89172 3.24385,4.05843 3.24385,4.81491 0,0.82409 0.55165,1.16373 1.37622,0.8473 0.75693,-0.29045 1.62558,-0.12466 1.93033,0.36845 1.01328,1.63952 3.51068,1.01468 2.97396,-0.74407 -2.91096,-9.5388 -4.37618,-15.5762 -3.89659,-16.05579 1.02546,-1.02545 3.08674,2.74614 3.69851,6.76726 1.24451,8.18012 5.22463,19.159 5.13464,14.16353 -0.0329,-1.82699 -2.06257,-11.20434 -3.28722,-15.18749 -0.48734,-1.58508 -0.27182,-2.10938 0.86706,-2.10938 0.83358,0 1.51559,0.55683 1.51559,1.2374 0,0.68057 1.26563,2.65499 2.8125,4.3876 1.71533,1.92128 2.8125,4.18151 2.8125,5.79385 0,3.31457 -0.50574,3.32913 -2.27628,0.0655 -1.07395,-1.97961 -1.40736,-2.17574 -1.43618,-0.84481 -0.0577,2.6658 2.79708,8.042 4.02539,7.58066 0.60133,-0.22586 1.84477,0.91278 2.76321,2.53029 0.91845,1.61752 1.83043,2.77834 2.02661,2.57959 0.19619,-0.19874 -0.28796,-3.23022 -1.07587,-6.73662 -1.39248,-6.19679 -1.07375,-9.05326 0.6978,-6.25383 0.48,0.7585 1.1092,2.85566 1.3982,4.66035 0.74125,4.62878 3.51486,11.49454 4.81898,11.92886 0.72853,0.24263 0.44077,-2.02029 -0.85498,-6.72347 -2.03871,-7.39994 -1.8311,-9.17634 0.81574,-6.97967 0.86511,0.71798 2.31449,1.17979 3.22085,1.02624 2.08156,-0.35264 2.76469,0.77775 4.38259,7.25187 0.71678,2.86821 1.67697,6.69112 2.13378,8.49534 0.45681,1.80424 0.47463,3.63636 0.0396,4.07139 -1.16964,1.16964 -12.27231,-3.04732 -15.52319,-5.89594 -3.5758,-3.13334 -10.04557,-6.61027 -12.31514,-6.6183 -0.961,-0.003 -3.01294,-0.84438 -4.55981,-1.86883 -1.54688,-1.02445 -3.55491,-1.86543 -4.4623,-1.86882 -0.90739,-0.004 -2.37013,-0.84746 -3.25052,-1.87569 -0.8804,-1.02822 -3.09111,-2.3552 -4.9127,-2.94884 -1.82159,-0.59363 -4.3181,-1.86172 -5.54779,-2.81799 -1.22969,-0.95626 -3.55,-1.74867 -5.15625,-1.76092 -1.60624,-0.0122 -5.4165,-1.04838 -8.46723,-2.30255 -3.05073,-1.25418 -5.89839,-2.06302 -6.32813,-1.79742 -1.58779,0.9813 -0.70668,3.17531 1.79679,4.47407 1.41797,0.73562 4.39127,3.57024 6.60734,6.29915 7.54982,9.29702 14.14088,14.16882 23.05867,17.04388 4.43745,1.43062 11.33769,3.02602 15.33385,3.54534 3.99617,0.51932 10.23549,1.3311 13.86514,1.80395 3.62965,0.47286 9.30024,0.68577 12.6013,0.47316 6.0702,-0.39098 8.45558,0.4463 8.45558,2.9679 0,1.37973 3.80937,9.98448 10.72831,24.23353 6.09491,12.55201 12.70919,33.78217 12.70919,40.79326 0,3.55981 1.27235,7.48799 2.42538,7.48799 0.26642,0 2.14676,-0.94922 4.17854,-2.10938 z m -19.57345,-95.17126 c -4.07595,-8.5769 -5.3212,-13.83147 -2.38479,-10.06311 1.45763,1.87059 8.79182,16.65165 8.79182,17.71869 0,0.30941 -0.56286,0.56256 -1.25078,0.56256 -0.68793,0 -3.00825,-3.69817 -5.15625,-8.21814 z m -25.38985,-8.99515 c 1.06072,-0.9186 8.44685,-1.49919 7.9043,-0.62133 -0.3262,0.5278 -2.326,0.95962 -4.444,0.95962 -2.118,0 -3.67514,-0.15223 -3.4603,-0.33829 z m 12.57813,-3.8514 c 3.01832,-2.47409 4.21875,-2.89762 4.21875,-1.48847 0,1.20417 -3.83267,3.80425 -5.59923,3.7985 -0.9128,-0.003 -0.41227,-0.84053 1.38048,-2.31003 z m -13.53941,-1.0337 c -2.12773,-0.92311 -4.56093,-1.19996 -7.1432,-0.81271 -3.50658,0.52584 -4.22818,0.28237 -6.89787,-2.32733 -1.63988,-1.60304 -2.75191,-3.28625 -2.47118,-3.74048 0.65863,-1.0657 7.41139,0.43311 7.84763,1.74182 0.67506,2.02519 3.82714,0.87997 6.40998,-2.3289 2.69145,-3.34382 8.11657,-5.9415 12.56799,-6.01786 1.31942,-0.0226 3.21786,-0.66055 4.21875,-1.41759 1.00089,-0.75703 2.55809,-1.38984 3.46043,-1.40625 2.28544,-0.0415 2.11217,3.40186 -0.23437,4.65769 -1.03125,0.55191 -1.875,1.67711 -1.875,2.50045 0,2.77792 -4.01428,8.01815 -7.14408,9.32586 -3.83228,1.60123 -4.68496,1.58419 -8.73908,-0.1747 z m 8.61753,-4.51916 c 1.38513,-1.05145 2.30999,-3.38245 1.34204,-3.38245 -1.80089,0 -10.01391,3.10539 -10.01391,3.78632 0,1.34602 6.78281,1.03014 8.67187,-0.40387 z m -42.39206,-1.6637 c 0.0283,-2.96395 0.10141,-3.03032 1.41889,-1.28791 1.51792,2.0075 1.39702,3.46433 -0.33542,4.04181 -0.71445,0.23816 -1.1026,-0.74842 -1.08347,-2.7539 z M 82.5,231.70213 c 0,-0.95445 -0.977377,-3.59117 -2.171948,-5.85937 -1.19457,-2.26821 -2.927431,-6.8662 -3.850801,-10.21776 -0.92337,-3.35156 -2.007917,-6.51563 -2.410104,-7.03125 -2.13683,-2.73953 -3.343425,-24.97606 -1.907644,-35.15625 1.051821,-7.45778 3.357034,-15.51332 5.834678,-20.38921 2.672005,-5.25839 -2.808485,-2.81158 -8.475097,3.78376 -8.551845,9.95346 -11.394084,17.91001 -11.394084,31.89656 0,7.59153 0.440944,10.56728 2.371125,16.00171 4.488778,12.6382 12.169407,26.71923 15.238452,27.93693 0.885045,0.35116 2.769329,0.66812 4.187298,0.70435 1.907709,0.0488 2.578125,-0.38537 2.578125,-1.66947 z m 16.450997,-1.32444 c 0.44265,-1.15351 -3.125363,-11.73148 -6.92105,-20.51862 -3.815376,-8.83273 -6.525773,-43.62213 -4.462682,-57.28095 1.025809,-6.79141 -1.337852,-5.74492 -5.293718,2.34375 -5.053134,10.3323 -6.825986,21.88303 -5.412144,35.26196 1.379029,13.04951 6.968572,33.06371 10.916903,39.08963 1.253629,1.91328 2.256456,2.28904 6.108935,2.28904 2.849287,0 4.782703,-0.45238 5.063756,-1.18481 z M 316.98675,228.4159 c -0.52288,-0.63003 -0.78176,-5.73 -0.60252,-11.86966 0.37385,-12.80636 0.63162,-14.84176 1.99105,-15.72203 1.42734,-0.92426 3.45387,-4.93255 2.81622,-5.5702 -0.72084,-0.72085 -8.91739,8.15009 -9.9999,10.82265 -0.4835,1.19371 -0.8791,5.32473 -0.8791,9.18003 0,6.44765 0.24427,7.33625 3.04687,11.08346 1.67579,2.24059 3.38377,3.8728 3.79553,3.62712 0.41176,-0.24568 0.33609,-0.9438 -0.16815,-1.55137 z m -204.08382,-1.62733 c 0.53484,-0.49894 0.46618,-1.63562 -0.17771,-2.9415 -0.57716,-1.17058 -1.68518,-4.87051 -2.46227,-8.22207 -0.7771,-3.35156 -2.03411,-7.99219 -2.79337,-10.3125 -6.60135,-20.17395 -8.054193,-28.23825 -9.677718,-53.7181 -0.442518,-6.94497 -0.766565,-8.20297 -2.049375,-7.95595 -0.83805,0.16138 -2.077871,1.97515 -2.755146,4.03061 -3.935709,11.94445 -1.134979,53.34654 4.115862,60.84317 0.733866,1.04773 1.336247,2.54938 1.338638,3.337 0.0094,2.96986 4.679479,12.76654 7.067889,14.82543 2.43768,2.10136 5.21689,2.14418 7.3932,0.11391 z m 118.48803,-0.60814 c 0.33493,-2.34595 -3.39361,-13.80208 -7.24941,-22.27418 -1.40802,-3.09375 -3.72713,-8.57813 -5.15357,-12.1875 -1.42643,-3.60938 -4.77056,-10.13814 -7.43137,-14.50837 -2.66083,-4.37023 -5.0488,-8.4004 -5.30661,-8.95593 -1.96885,-4.24252 -10.3125,-11.77341 -10.3125,-9.30795 0,0.27994 2.47854,4.18229 5.50788,8.67187 3.02933,4.48959 7.41994,11.95975 9.75689,16.60038 4.35804,8.65402 12.86023,31.96788 12.86023,35.26407 0,1.01304 0.86592,3.53923 1.92428,5.61378 2.11315,4.14211 4.88808,4.69863 5.40418,1.08383 z m -106.76838,-4.1828 3.5878,-2.06488 -0.30357,-5.6695 c -1.35197,-25.24967 -6.09048,-46.92243 -13.28028,-60.74068 -3.31029,-6.36214 -7.43616,-10.08507 -11.17657,-10.08507 -1.6764,0 -1.77505,0.64732 -1.46436,9.60937 0.49653,14.32306 3.43082,33.208 6.23021,40.09736 1.32506,3.26097 2.41179,6.59458 2.41497,7.40803 0.003,0.81344 0.54942,2.53368 1.21388,3.82274 0.66446,1.28906 2.19437,5.29687 3.3998,8.90625 4.18081,12.51846 3.642,12.01766 9.37812,8.71638 z m 114.56704,-1.121 c 0.7955,-1.74592 0.6541,-3.36958 -0.63275,-7.26562 -0.91145,-2.7595 -2.19036,-5.86101 -2.84202,-6.89226 -0.65166,-1.03125 -3.07193,-6.30469 -5.37837,-11.71875 -8.13094,-19.08629 -20.76944,-41.25 -23.52214,-41.25 -4.26732,0 -5.64318,2.71292 -2.49439,4.91842 2.19482,1.53731 7.90613,10.4877 13.61186,21.33158 2.30611,4.38281 4.99856,9.44531 5.98324,11.25 2.41447,4.42515 6.32805,14.71222 7.13321,18.75 1.08048,5.41846 4.52309,13.125 5.8631,13.125 0.68961,0 1.71483,-1.01177 2.27826,-2.24837 z m -100.95056,-7.4486 c 3.63769,-2.65995 3.65945,-20.506 0.0408,-33.43716 -3.96893,-14.18282 -4.52137,-15.30706 -10.24557,-20.85025 -8.5467,-8.27642 -8.54312,-8.28938 -2.91023,10.54688 4.92557,16.47098 6.12596,21.25287 6.12596,24.40334 0,2.40989 1.31964,12.33565 2.45792,18.48728 0.44312,2.39482 2.01511,2.68967 4.53114,0.84991 z M 339.375,188.74569 c 0,-1.17729 -3.09803,-4.05819 -4.36405,-4.05819 -0.72001,0 -1.26095,1.00545 -1.26095,2.34375 0,1.97917 0.4375,2.34375 2.8125,2.34375 1.54687,0 2.8125,-0.28319 2.8125,-0.62931 z M 173.1737,148.82812 c -0.85399,-5.11071 -2.50835,-8.61847 -3.56592,-7.5609 -0.6384,0.6384 -0.58894,1.83524 0.15157,3.66828 3.05648,7.56603 4.25685,8.93454 3.41435,3.89262 z m -94.202779,-6.31743 c 2.198806,-0.50975 5.61381,-1.16804 7.588897,-1.46289 2.728993,-0.40738 4.896447,-1.81655 9.02876,-5.87006 2.990728,-2.93369 6.550072,-7.05335 7.909642,-9.15479 3.2762,-5.06392 5.58006,-16.01822 4.36836,-20.7706 -1.32479,-5.19589 -3.25654,-10.565525 -3.7991,-10.560191 -0.26055,0.0028 -1.73935,1.047854 -3.28623,2.322863 l -2.8125,2.318222 3.98438,3.379876 c 2.85051,2.41805 3.98338,4.09144 3.98086,5.88026 -0.004,2.62255 -3.14421,8.59412 -4.51978,8.59412 -0.44046,0 -2.70131,2.42578 -5.024097,5.39063 -2.556235,3.26281 -6.394269,6.68581 -9.723336,8.67187 -4.667408,2.78449 -6.360664,3.28125 -11.184475,3.28125 -4.475365,0 -6.254754,-0.44865 -8.366026,-2.10938 -1.4749,-1.16015 -3.226656,-2.10937 -3.892792,-2.10937 -1.632654,0 -3.92147,-4.79392 -4.669088,-9.7794 -1.121972,-7.48184 4.783818,-16.93803 12.937963,-20.7159 3.300024,-1.528922 5.036527,-3.080719 6.366437,-5.689256 1.005787,-1.972794 1.824955,-4.025039 1.820373,-4.560546 -0.0046,-0.535506 -2.131291,-3.453901 -4.726021,-6.48532 -5.457509,-6.376002 -6.723516,-8.672497 -8.33165,-15.113328 -0.643701,-2.578125 -1.514865,-5.53125 -1.935922,-6.5625 -1.558569,-3.817248 -1.647834,-4.90933 -0.960888,-11.755665 0.564199,-5.622996 1.380983,-8.145637 4.165899,-12.866395 4.973666,-8.430948 11.619152,-12.352138 7.232726,-4.267693 -2.965005,5.464681 -6.687468,17.097492 -6.671956,20.850062 0.03662,8.857499 5.43162,22.996127 11.46402,30.04363 2.987488,3.490207 3.587918,3.808068 5.380814,2.848539 1.109949,-0.594026 3.993469,-0.957075 6.407824,-0.806775 l 4.389735,0.273273 0.275503,-5.692319 c 0.296672,-6.129857 -0.630094,-9.14374 -6.80485,-22.129647 -2.228906,-4.68753 -3.235722,-7.924261 -2.846439,-9.150785 0.331286,-1.043786 3.130584,-3.614693 6.220663,-5.713126 5.970614,-4.054565 8.571623,-6.653088 17.529883,-17.513083 3.90713,-4.736566 5.81234,-7.934393 6.24187,-10.47669 0.80556,-4.768123 -0.78165,-7.9397356 -3.58752,-7.1686759 -1.11601,0.3066812 -3.71661,0.8141821 -5.77911,1.1277796 -4.40099,0.6691591 -14.773617,4.2042393 -19.460911,6.6324483 -1.807662,0.936442 -5.602229,2.86763 -8.432373,4.291527 -8.034126,4.042121 -13.556637,10.698041 -20.020872,24.129845 -4.936953,10.258319 -3.874001,22.748375 3.087308,36.276951 2.329827,4.527775 5.036947,9.357076 6.015824,10.731781 2.292927,3.220118 2.241487,4.037421 -0.329601,5.236802 -5.576688,2.601469 -13.88512,12.310706 -16.663706,19.473216 -1.031686,2.65942 -0.627234,14.5582 0.603902,17.7665 0.89512,2.33264 7.765858,6.37847 13.727973,8.08372 7.019589,2.0077 7.959722,2.0708 13.099627,0.87922 z M 213.75,137.0203 c 0,-1.2533 -3.69399,-4.2638 -4.38454,-3.57326 -0.34267,0.34267 0.18726,1.44001 1.17762,2.43853 1.93981,1.95578 3.20692,2.40413 3.20692,1.13473 z M 73.59375,117.1875 c 0,-18.643341 -1.806947,-18.565481 -2.177813,0.0938 -0.225834,11.36232 -0.03832,14.08238 0.948152,13.75356 0.93829,-0.31277 1.229661,-3.59394 1.229661,-13.84739 z m 6.244157,4.60241 C 81.663728,109.98113 80.753971,101.25 77.697708,101.25 c -0.948783,0 -1.139719,26.55799 -0.197708,27.5 0.996364,0.99636 1.202683,0.38214 2.337907,-6.96009 z m 41.554163,-1.81733 c -2.34895,-4.54237 -2.84804,-2.483 -0.84223,3.47517 1.64987,4.90084 1.81714,5.09406 2.08323,2.40642 0.15912,-1.60725 -0.39933,-4.25397 -1.241,-5.88159 z m -33.121301,6.35555 c 0.7929,-0.64454 2.371096,-2.73222 3.507101,-4.6393 l 2.065467,-3.46742 -3.093544,-1.59852 c -1.701448,-0.8792 -3.61287,-2.27198 -4.247603,-3.09509 -1.01872,-1.32105 -1.264408,-1.33163 -2.095019,-0.0903 -0.517528,0.77344 -0.947419,2.93555 -0.955315,4.80469 -0.0079,1.86914 -0.278028,4.71679 -0.600294,6.32812 -0.527853,2.63927 -0.359747,2.92969 1.695816,2.92969 1.254965,0 2.93049,-0.52734 3.723391,-1.17188 z m 28.856541,-1.40625 c -0.1029,-2.80459 -2.27764,-12.25971 -2.98177,-12.96385 -0.36794,-0.36793 -0.49019,2.34568 -0.27168,6.03025 0.32018,5.39906 0.13445,6.69922 -0.95704,6.69922 -0.74487,0 -1.35432,-0.84375 -1.35432,-1.875 0,-1.03125 -0.42187,-1.875 -0.9375,-1.875 -1.36076,0 -1.1526,4.44445 0.23438,5.00411 0.64453,0.26007 2.33203,0.50617 3.75,0.54687 1.87983,0.054 2.56182,-0.37035 2.51793,-1.56661 z M 68.682574,114.72881 c 0.543729,-4.36021 -0.67419,-7.67712 -1.669327,-4.54628 -0.32319,1.01679 -0.970057,2.56744 -1.437484,3.44588 -0.524554,0.9858 -0.498358,1.81441 0.06844,2.16471 0.505063,0.31214 0.918299,1.47077 0.918299,2.57471 0,3.31384 1.594288,0.57731 2.120074,-3.63902 z m 30.73916,-3.25363 c 1.083066,-2.02372 0.45361,-6.52404 -1.041778,-7.44825 -0.465515,-0.2877 -2.857847,-0.28913 -5.3163,-0.003 -4.282728,0.49814 -4.461429,0.63742 -4.267481,3.3262 0.387904,5.37768 8.309362,8.45307 10.625559,4.12523 z m -13.192801,-8.31081 c 0.789469,-1.47514 0.623005,-2.02799 -0.84762,-2.81504 -2.167321,-1.159917 -2.994357,-0.20286 -2.257998,2.61298 0.661425,2.52929 1.819786,2.60465 3.105618,0.20206 z m 117.395527,-2.7977 c 3.40941,-2.681851 7.99321,-12.731056 9.17153,-20.107052 1.52348,-9.536662 0.6091,-13.536932 -4.53279,-19.830192 -3.75191,-4.592023 -5.22449,-5.631281 -10.60412,-7.483722 -9.00848,-3.102011 -18.23362,-4.296026 -32.85395,-4.252303 l -12.85112,0.03843 -9.64888,4.2425 c -5.30689,2.333379 -11.75826,5.725779 -14.33638,7.538671 -2.57812,1.812893 -6.16406,4.281594 -7.96875,5.486004 -6.03024,4.024457 -16.28427,17.835485 -15.77824,21.251528 0.40134,2.709233 3.62982,4.77989 4.28687,2.749468 0.62057,-1.917673 19.31283,-20.163654 25.64913,-25.036753 3.6019,-2.770136 8.08052,-4.931335 15.05645,-7.265625 10.84328,-3.62839 14.89212,-3.94759 30.69115,-2.419625 10.58171,1.023385 17.87209,4.245744 24.78907,10.956816 8.6566,8.39889 8.37974,12.708485 -1.80798,28.142815 -4.58922,6.952612 -4.22671,9.894292 0.73801,5.989042 z M 95.671153,96.328125 c 4.897017,-4.065509 4.783007,-5.833799 -0.461297,-7.15433 -6.093611,-1.534389 -7.400541,-1.331677 -10.190708,1.580629 -2.87581,3.001698 -3.29552,5.792354 -0.878523,5.841301 0.902344,0.01828 2.695312,0.636131 3.984375,1.373025 3.222374,1.842075 3.396826,1.804144 7.546153,-1.640625 z m 51.936417,-2.499356 c 0.29191,-0.472309 -0.76848,-2.157947 -2.3564,-3.745866 l -2.88713,-2.887127 -3.21327,2.450883 c -4.87085,3.715182 -4.25116,5.040841 2.3564,5.040841 3.06332,0 5.8085,-0.386428 6.1004,-0.858731 z m 53.68004,-5.00705 c 5.37844,-7.904362 5.61673,-15.297812 0.65979,-20.471739 -3.398,-3.546748 -5.52405,-2.175831 -4.6923,3.02568 0.30759,1.923565 0.17889,4.497817 -0.28599,5.720561 -1.11888,2.942895 -0.15237,14.780712 1.20612,14.772373 0.57394,-0.0036 1.9745,-1.374617 3.11238,-3.046875 z m -57.73704,-5.149844 c 6.9162,-3.755396 7.81574,-5.637616 3.43121,-7.17957 -3.86829,-1.360406 -7.04134,0.574662 -9.19997,5.610556 -2.726,6.359479 -2.94433,6.300096 5.76876,1.569014 z m 38.1553,-4.36376 c 0.55237,-6.748926 -0.25542,-8.058115 -4.972,-8.058115 -4.66138,0 -6.10887,1.527775 -6.10887,6.447708 0,3.626463 3.07654,5.898244 7.5,5.538153 3.08441,-0.251087 3.29922,-0.486703 3.58087,-3.927746 z m -73.96515,-5.94874 C 117.13146,61.019902 134.87275,50.041257 150,47.208555 c 9.92118,-1.857823 34.20315,-1.290008 42.1875,0.98652 5.99179,1.708403 9.26447,1.944391 7.88893,0.568859 -0.50796,-0.507961 -3.22905,-1.394259 -6.04687,-1.969552 -2.81782,-0.575292 -6.81081,-1.406939 -8.87331,-1.848105 -5.22897,-1.118468 -25.43947,-1.077854 -31.4563,0.06322 -3.0029,0.569489 -5.33384,0.606613 -5.84733,0.09313 -1.11681,-1.116803 0.69538,-1.596538 11.2505,-2.978317 8.65065,-1.132465 30.13358,-0.795634 33.31875,0.522405 0.96152,0.397881 1.64063,0.264897 1.64063,-0.321273 0,-1.115169 -3.44153,-2.09611 -14.55023,-4.147265 -7.80855,-1.441804 -22.2723,-0.88129 -31.09929,1.205194 -4.93347,1.166146 -6.85048,1.176137 -6.85048,0.0357 0,-1.397775 5.95496,-2.726898 19.6875,-4.394167 9.98739,-1.21257 13.49929,-1.311311 16.65408,-0.468248 5.37016,1.435079 7.72092,1.345134 7.72092,-0.29542 0,-1.953109 -4.29722,-2.525949 -20.26594,-2.701549 -11.87613,-0.130595 -15.10027,0.16052 -21.66234,1.955943 -9.12291,2.49608 -9.63422,2.533397 -9.63422,0.703125 0,-0.773438 0.76183,-1.40625 1.69297,-1.40625 0.93112,0 4.20065,-0.786297 7.26562,-1.747327 10.94204,-3.430913 14.153,-3.852419 24.73489,-3.246967 9.05809,0.518267 10.36902,0.406792 10.36902,-0.881727 0,-1.987852 -3.95422,-2.746346 -14.3837,-2.759067 -8.48298,-0.01035 -12.84124,0.856875 -24.51163,4.877412 -3.08774,1.063751 -6.16862,1.817056 -6.84639,1.674009 -2.12339,-0.448146 -0.88231,-2.083265 2.57618,-3.394125 12.95014,-4.908432 13.87532,-5.115427 25.35304,-5.672345 6.44531,-0.312737 11.29687,-0.828847 10.78125,-1.146912 -3.2835,-2.025429 -11.20627,-3.740401 -14.77972,-3.199233 -13.66475,2.06941 -25.87572,4.768122 -28.32055,6.259047 -3.36931,2.054704 -5.18098,2.21521 -5.18098,0.459014 0,-3.051503 14.54089,-7.40042 29.29687,-8.762167 6.48649,-0.598601 6.97574,-1.794524 1.0949,-2.676409 -9.46722,-1.419699 -27.7757,4.45133 -32.26677,10.347072 -8.84631,11.613182 -18.95729,21.673128 -25.187625,25.060497 -1.626328,0.88422 -2.937375,2.356645 -2.937375,3.298949 0,0.936061 1.692178,5.068964 3.760397,9.184229 2.068228,4.115265 4.262003,9.908081 4.875073,12.872925 0.61307,2.964844 1.3567,5.390625 1.6525,5.390625 0.2958,0 2.38392,-2.425781 4.64025,-5.390625 z m 86.32178,-7.19292 c 0,-3.902962 -0.19138,-4.209207 -3.26427,-5.223352 -2.94556,-0.972121 -3.85961,-0.784228 -9.36151,1.924347 -8.38652,4.128674 -9.42712,5.549735 -4.12963,5.63954 2.25453,0.03822 5.9976,0.407291 8.31791,0.820157 8.37753,1.490661 8.4375,1.468195 8.4375,-3.160692 z M 129.18926,14.123999 c 1.90685,-0.997425 5.87818,-2.326931 8.82521,-2.954458 2.94702,-0.627527 5.11857,-1.5287185 4.82566,-2.0026488 -0.73411,-1.1878221 -7.38776,0.017132 -12.81239,2.3202808 -3.24925,1.379548 -4.788,1.627572 -5.52501,0.890555 -0.73702,-0.737016 0.1889,-1.609575 3.3246,-3.133014 4.9811,-2.4200114 4.30673,-3.582997 -2.09062,-3.6053583 L 121.62967,5.625 l 0.5811,3.515625 c 0.3196,1.933594 0.58574,4.253906 0.59141,5.15625 0.0134,2.133577 2.08488,2.07751 6.38708,-0.172876 z M 327.70613,216.24615 c -1.44331,-1.05537 -1.60618,-1.98284 -1.02895,-5.85938 1.09509,-7.35424 4.08831,-9.40095 5.70707,-3.9024 0.70283,2.38733 1.35361,2.99854 3.00637,2.82356 1.74371,-0.18461 2.10938,0.23713 2.10938,2.43282 0,4.85509 -5.71821,7.4856 -9.79387,4.5054 z"
     id="path4189"
     inkscape:connector-curvature="0" />
</svg>
