<?xml version="1.0" encoding="UTF-8" standalone="no"?>
<!-- Created with Inkscape (http://www.inkscape.org/) -->

<svg
   xmlns:dc="http://purl.org/dc/elements/1.1/"
   xmlns:cc="http://creativecommons.org/ns#"
   xmlns:rdf="http://www.w3.org/1999/02/22-rdf-syntax-ns#"
   xmlns:svg="http://www.w3.org/2000/svg"
   xmlns="http://www.w3.org/2000/svg"
   xmlns:sodipodi="http://sodipodi.sourceforge.net/DTD/sodipodi-0.dtd"
   xmlns:inkscape="http://www.inkscape.org/namespaces/inkscape"
   id="svg4154"
   version="1.1"
   inkscape:version="0.91 r13725"
   width="306.5625"
   height="651.5625"
   viewBox="0 0 306.5625 651.5625"
   sodipodi:docname="Minstrel6.svg">
  <metadata
     id="metadata4160">
    <rdf:RDF>
      <cc:Work
         rdf:about="">
        <dc:format>image/svg+xml</dc:format>
        <dc:type
           rdf:resource="http://purl.org/dc/dcmitype/StillImage" />
        <dc:title></dc:title>
      </cc:Work>
    </rdf:RDF>
  </metadata>
  <defs
     id="defs4158" />
  <sodipodi:namedview
     pagecolor="#ffffff"
     bordercolor="#666666"
     borderopacity="1"
     objecttolerance="10"
     gridtolerance="10"
     guidetolerance="10"
     inkscape:pageopacity="0"
     inkscape:pageshadow="2"
     inkscape:window-width="1600"
     inkscape:window-height="837"
     id="namedview4156"
     showgrid="false"
     inkscape:zoom="1.0282974"
     inkscape:cx="153.28125"
     inkscape:cy="325.78125"
     inkscape:window-x="-8"
     inkscape:window-y="-8"
     inkscape:window-maximized="1"
     inkscape:current-layer="svg4154" />
  <path
     style="fill:#000000"
     d="m 82.175738,646.93248 c -3.578389,-3.82558 -4.363238,-5.29339 -4.363238,-8.16002 0,-2.23163 0.693705,-4.23378 1.918733,-5.53777 1.465535,-1.55998 2.135406,-4.12075 2.83607,-10.84167 1.812263,-17.38358 2.031723,-16.26716 -4.37508,-22.25655 -3.113871,-2.91099 -6.754937,-6.76928 -8.09126,-8.57397 -3.108361,-4.19781 -7.404184,-18.99507 -8.715608,-30.02153 -0.808974,-6.80188 -2.149609,-10.99129 -4.803143,-15.00959 -1.20305,-1.82181 -2.446048,-5.19968 -2.762217,-7.50638 -0.564525,-4.11866 -0.500226,-4.24761 3.579121,-7.17717 2.284685,-1.64073 6.364801,-3.8232 9.066924,-4.84993 2.702123,-1.02673 5.850039,-2.48078 6.995369,-3.23123 3.187059,-2.08824 9.433416,-10.85165 11.632108,-16.31941 1.082933,-2.69306 3.196736,-6.70087 4.697339,-8.90625 3.365744,-4.94648 5.293469,-13.88849 3.98081,-18.46548 -0.86315,-3.00961 -0.479073,-5.85399 2.491303,-18.45 0.354694,-1.50406 -0.321075,-2.4315 -2.865592,-3.93279 -4.008376,-2.365 -8.226229,-8.85976 -10.406225,-16.02377 -3.000351,-9.8599 -3.303652,-11.02105 -3.303652,-12.64762 0,-2.80453 -7.895837,-5.60637 -15.260497,-5.41517 -6.962076,0.18073 -9.885111,-0.88247 -14.149162,-5.14652 -2.473455,-2.47345 -2.626278,-3.06295 -2.270682,-8.75892 0.291254,-4.66535 1.76227,-9.64797 6.231411,-21.10699 3.217587,-8.25 7.349897,-18.15276 9.182913,-22.00613 2.255834,-4.74223 3.56987,-9.13481 4.066555,-13.59375 0.708236,-6.35811 1.312155,-9.7434 4.436489,-24.86887 0.79881,-3.86719 2.239452,-7.90219 3.201427,-8.96667 0.961975,-1.06449 1.749046,-2.17456 1.749046,-2.46684 0,-0.29226 -1.857338,-0.99908 -4.127419,-1.57069 C 68.26162,313.99121 63.75,309.6329 63.75,306.42893 c 0,-1.02558 -0.464014,-2.73171 -1.031141,-3.79141 -0.567129,-1.05968 -1.589512,-5.14523 -2.271963,-9.07898 -1.597377,-9.20753 -3.856045,-17.54061 -5.877295,-21.68354 -0.880469,-1.80469 -4.79769,-6.86719 -8.704938,-11.25 -11.272177,-12.64416 -13.019156,-15.54963 -14.148046,-23.53023 -1.544902,-10.92154 -0.500036,-19.80476 3.299099,-28.04825 4.013524,-8.70869 8.849882,-15.50715 13.653201,-19.19228 2.023764,-1.55264 6.139442,-4.69124 9.145951,-6.97464 3.00651,-2.28342 7.12435,-5.55295 9.150756,-7.26563 2.026405,-1.71269 4.611468,-3.11397 5.744583,-3.11397 1.133115,0 2.585397,-0.63281 3.227293,-1.40625 1.014079,-1.22189 0.469943,-1.40625 -4.150514,-1.40625 -5.633358,0 -9.247829,-1.3638 -12.168875,-4.59152 -2.536265,-2.80254 -3.076058,-2.49885 -3.768752,2.12036 -0.363095,2.42129 -1.458917,4.86553 -2.684572,5.98796 -3.43885,3.14921 -9.743834,5.8582 -13.63457,5.8582 -2.018214,0 -5.463062,0.63281 -7.655217,1.40625 -4.530247,1.59836 -9.181552,1.7984 -11.25,0.48381 -0.981679,-0.6239 -1.442346,-2.67166 -1.525805,-6.78253 -0.167013,-8.22638 -1.144507,-11.98253 -3.118318,-11.98253 -0.890345,0 -3.901056,1.25798 -6.6904688,2.79551 -5.9367903,3.27238 -5.9063613,3.26711 -7.8171939,1.35627 C -1.53346,163.33261 0.25863462,148.39987 4.6717241,139.6875 13.059933,123.12741 33.555794,100.36046 47.507653,92.105057 51.207175,89.916025 54.672964,88.125 55.209407,88.125 c 1.727222,0 7.401591,-5.586093 9.800785,-9.648311 2.910661,-4.928217 7.217568,-8.956416 13.271058,-12.412265 4.500644,-2.569352 5.192011,-2.678161 17.34375,-2.7296 12.30118,-0.05207 16.84661,0.71146 24.84375,4.173196 1.03125,0.446399 2.92969,1.094254 4.21875,1.439678 5.0425,1.351215 11.48763,6.350243 13.1769,10.22038 1.45291,3.328639 4.17247,22.054972 3.95572,27.238172 -0.18336,4.38457 -1.58475,10.46497 -2.8675,12.44166 -1.50948,2.32608 -1.24039,5.57712 1.17925,14.24702 1.73337,6.21095 1.85231,12.58579 0.25875,13.86952 -0.64453,0.51922 -2.54336,1.2373 -4.21963,1.59573 -2.28967,0.48959 -3.18752,1.27438 -3.60963,3.15513 -1.58101,7.04412 -2.39084,9.51179 -3.30749,10.07831 -0.55423,0.34252 -1.60055,1.94237 -2.32516,3.5552 -0.72462,1.61283 -1.98195,3.8565 -2.79409,4.98593 -1.44125,2.00432 -1.28549,2.17808 6.50304,7.25461 4.38882,2.86061 10.64624,7.4498 13.90538,10.19819 9.93974,8.38207 9.24208,9.77796 8.71292,-17.43295 -0.25281,-12.99972 -0.71099,-31.44054 -1.01817,-40.9796 -0.30718,-9.53906 -0.54554,-18.1875 -0.52969,-19.21875 0.0158,-1.03125 -0.38216,-8.625 -0.88446,-16.875 -0.50231,-8.25 -1.02797,-18.164063 -1.16813,-22.03125 -0.21087,-5.817836 -0.75166,-7.921087 -3.13369,-12.1875 -2.39569,-4.290866 -3.3605,-5.204986 -5.74869,-5.446638 -1.82867,-0.185036 -3.07468,-0.935802 -3.43447,-2.069398 -1.00245,-3.15844 -2.18721,-25.738582 -1.39434,-26.574309 0.4222,-0.445003 2.72955,-1.030234 5.12746,-1.300513 l 4.35986,-0.491418 -0.22893,-9.264502 c -0.12592,-5.0954749 0.16369,-9.6378469 0.64356,-10.0941593 0.77732,-0.7391712 10.57777,-1.5092827 14.60781,-1.1478713 1.13775,0.1020322 1.52319,1.0085924 1.45478,3.4217104 -0.0512,1.8055959 0.46713,3.8095023 1.15182,4.4531252 1.02828,0.966619 1.14626,0.40253 0.67812,-3.2421131 -0.31171,-2.4267849 -0.20412,-4.6364537 0.23909,-4.9103753 0.44322,-0.2739216 3.69752,-0.9075496 7.23177,-1.40806219 9.10396,-1.28927937 10.48839,-0.25499992 10.85673,8.11083869 0.27111,6.1574669 0.34073,6.3130149 3.08986,6.9027659 1.54687,0.331841 4.71094,2.434853 7.03125,4.67336 l 4.21875,4.070012 0.22357,15.409079 c 0.21908,15.098358 0.77392,17.970968 3.47106,17.970968 0.61672,0 3.23105,0.626526 5.80962,1.39228 4.41183,1.310172 4.76742,1.653147 6.02953,5.815724 1.2792,4.21889 1.68805,4.598876 8.84122,8.217095 l 7.5,3.793651 0.48936,4.864353 c 0.26913,2.675393 0.69101,5.038544 0.9375,5.251446 C 230.69726,88.313955 236.6631,90 238.69713,90 c 3.09875,0 5.99037,3.501003 5.99037,7.252791 0,3.378879 2.37497,6.252389 7.18507,8.693319 1.46227,0.74204 4.06944,2.54217 5.7937,4.00027 3.83171,3.24027 5.2181,2.92495 5.57755,-1.26858 0.1822,-2.12555 1.1309,-3.91639 2.80984,-5.30403 2.39913,-1.98286 2.52029,-2.47203 2.26423,-9.140629 -0.20068,-5.226125 0.0421,-7.076283 0.94015,-7.164296 4.0833,-0.40018 24.77778,0.411696 25.39387,0.99624 0.41011,0.389116 0.83198,3.812877 0.9375,7.608356 0.18127,6.520819 0.32092,6.931129 2.53559,7.450239 3.64922,0.85535 4.53168,4.08036 4.74613,17.34507 0.25535,15.79411 0.40067,14.88039 -2.97882,18.72942 -2.69565,3.07018 -2.92993,3.88365 -3.04688,10.5795 -0.16426,9.40564 2.1015,97.831 2.64811,103.34733 0.22993,2.32031 1.9351,7.78146 3.78928,12.13588 2.02761,4.76174 3.25956,9.05433 3.09107,10.77047 -0.24831,2.52913 -0.70624,2.9261 -4.03014,3.49359 -2.0625,0.35214 -11.13281,0.75983 -20.15625,0.90599 l -16.40625,0.26575 -3.43975,3.70886 c -3.04281,3.28088 -4.03964,3.75862 -8.6383,4.13997 -4.16928,0.34575 -5.48789,0.8727 -6.65998,2.66155 -3.03109,4.62603 -17.46211,1.79121 -20.48471,-4.02402 -1.04633,-2.01302 -3.03728,-3.27482 -8.2653,-5.23822 -7.97955,-2.99677 -15.59972,-4.57885 -16.33373,-3.39119 -0.27809,0.44994 0.15165,1.75644 0.95496,2.90332 2.61837,3.73827 1.87578,5.2221 -3.3971,6.78798 -4.72621,1.40354 -18.01708,1.94572 -21.93113,0.89465 -1.1044,-0.29657 -2.43351,-1.87313 -3.07523,-3.64778 -0.6216,-1.719 -1.82077,-3.39046 -2.66484,-3.71436 -2.7614,-1.05965 -3.44398,0.90445 -2.29777,6.6118 1.46506,7.29515 1.35203,11.73788 -0.36089,14.1834 -1.76076,2.51385 -1.3524,2.99001 9.67944,11.28614 8.72592,6.56205 12.26177,10.26729 18.47911,19.36439 3.86741,5.65872 4.49222,7.24333 4.80549,12.1875 0.55143,8.7025 -1.18734,19.1408 -3.86151,23.18176 -3.42976,5.18271 -4.74622,11.27568 -3.03418,14.04307 4.34002,7.01533 4.41241,18.60651 0.16863,26.99925 l -2.58057,5.10348 2.04601,7.80099 c 2.18967,8.34873 2.03053,15.69785 -0.42507,19.63037 -1.48302,2.37498 -0.69004,8.01301 2.34151,16.64781 2.31329,6.58897 2.38733,8.84068 0.55107,16.7585 -1.90046,8.19463 -3.60172,11.94925 -6.73374,14.86121 -3.07923,2.86287 -9.56296,5.85435 -14.83056,6.84256 -5.94096,1.11453 -9.89198,3.69784 -17.35561,11.34766 -7.44996,7.63581 -18.71156,16.57778 -22.31932,17.72205 -2.851,0.90425 -3.8889,3.7849 -5.42497,15.05687 -1.81366,13.30894 -1.63467,18.72439 1.02554,31.02843 1.28906,5.96218 2.34375,12.09315 2.34375,13.62438 0,3.92569 -2.14748,7.63217 -8.92356,15.40173 -7.25996,8.32439 -7.37986,8.54886 -10.86972,20.34967 C 111.46571,631.29039 104.19741,645 101.97502,645 c -0.55923,0 -2.370042,1.03218 -4.024026,2.29373 -1.653975,1.26155 -4.225046,2.56639 -5.713487,2.89964 -1.488442,0.33325 -3.379519,0.78542 -4.202394,1.00484 -0.909039,0.24238 -3.208315,-1.43153 -5.859375,-4.26573 z m 7.574953,-5.49935 c 9.739312,-4.73739 15.141709,-11.44381 17.139729,-21.27688 1.64364,-8.08899 5.81679,-15.69472 13.22319,-24.09973 5.02903,-5.70712 6.35993,-7.81368 5.96176,-9.4363 -0.28195,-1.14894 -1.28877,-5.98356 -2.23739,-10.74362 -2.04846,-10.27891 -3.98594,-13.86447 -6.96447,-12.88869 -1.11636,0.36573 -4.2446,1.12911 -6.95163,1.69639 -4.4317,0.92872 -4.92188,1.27752 -4.92188,3.50242 0,1.35904 -0.47065,3.8211 -1.04589,5.47124 -0.57524,1.65014 -0.86257,3.18358 -0.63851,3.40765 0.32582,0.32582 4.99927,0.97983 9.41877,1.31808 1.37585,0.1053 0.66432,2.94589 -2.06879,8.259 -1.52456,2.96371 -4.53021,11.08387 -6.67924,18.04481 -2.14902,6.96094 -4.389518,13.17592 -4.978868,13.81105 -0.58935,0.63515 -3.369656,1.59064 -6.178445,2.12332 -2.808793,0.53268 -5.452479,1.31408 -5.874859,1.73646 -0.42238,0.42239 -1.114611,2.96085 -1.538291,5.64103 -0.448405,2.83659 -1.610428,5.7673 -2.780602,7.0129 -2.211979,2.35454 -2.638413,6.17211 -0.885275,7.92524 1.542571,1.54257 1.858986,1.48308 8.000691,-1.50437 z m 6.518325,-26.66751 c 0.480478,-0.64453 2.710565,-7.71093 4.955744,-15.70312 2.24519,-7.99219 4.43498,-14.93203 4.8662,-15.42188 1.43558,-1.63074 0.81622,-2.30969 -3.05892,-3.35315 -3.271296,-0.88087 -4.108062,-0.7949 -5.625002,0.57791 -0.980119,0.887 -1.782038,2.1565 -1.782038,2.82111 0,0.66461 -1.523062,4.92345 -3.38459,9.46407 -3.372303,8.22572 -6.396375,20.43412 -5.443517,21.97588 0.773996,1.25235 8.488629,0.95848 9.472123,-0.36082 z m -6.311379,-25.70457 c 0.07818,-3.75135 -0.962996,-4.99855 -4.172829,-4.99855 -6.045391,0 -9.677545,-6.52743 -10.543661,-18.94826 -0.598258,-8.57952 0.635025,-11.22966 6.276323,-13.48686 1.998097,-0.79948 5.332231,-3.32082 7.409185,-5.60299 2.076955,-2.28216 4.222808,-4.14939 4.768563,-4.14939 0.545751,0 0.992282,-0.63281 0.992282,-1.40625 0,-0.8938 -0.899166,-1.40625 -2.467468,-1.40625 -3.993158,0 -8.779553,-3.58761 -10.669855,-7.9975 -2.13858,-4.98911 -3.234633,-5.67275 -6.092577,-3.80015 -1.249845,0.81892 -4.632194,2.37186 -7.51633,3.45095 -4.120306,1.5416 -5.564299,2.6339 -6.739295,5.0979 -1.472317,3.08748 -1.435081,3.25621 2.411277,10.92673 3.732789,7.44402 3.927776,8.26159 4.380413,18.36682 0.419958,9.37564 0.810153,11.28806 3.437869,16.84963 1.872835,3.96387 5.012342,8.34741 8.527329,11.90631 l 5.563186,5.63269 2.196612,-4.20106 c 1.208137,-2.31059 2.215676,-5.11579 2.238976,-6.23377 z M 95.625,578.83797 c 0,-0.65115 1.096969,-3.36793 2.437706,-6.03728 2.303044,-4.58527 2.419564,-5.49323 2.109374,-16.43692 -0.343292,-12.11156 -1.223267,-14.89633 -3.770689,-11.9328 -1.406644,1.63642 -3.801737,7.87836 -5.494347,14.31903 -1.221904,4.64956 -1.107862,15.15976 0.218294,20.1181 1.062259,3.97168 1.21991,4.12194 2.8125,2.68066 0.927937,-0.83977 1.687162,-2.05963 1.687162,-2.71079 z m -8.887975,-3.9161 c -0.390172,-3.48046 -0.810822,-8.44512 -0.934777,-11.03256 -0.358104,-7.47508 -1.041269,-8.83159 -4.039886,-8.02169 -2.534248,0.68447 -2.542345,0.71434 -2.199663,8.11281 0.38355,8.2808 2.171064,13.81406 5.132778,15.88852 1.084447,0.75958 2.147048,1.38105 2.361336,1.38105 0.214289,0 0.07038,-2.84766 -0.319788,-6.32812 z m 28.695365,-15.62954 c 3.84383,-1.62035 4.89563,-4.05338 6.31368,-14.60483 0.58901,-4.38281 2.28472,-12.1875 3.76824,-17.34375 4.07758,-14.17247 6.61657,-31.03949 6.98551,-46.40625 l 0.32637,-13.59375 -4.06934,-5.79299 c -2.23814,-3.18615 -4.06935,-6.24474 -4.06935,-6.79688 0,-1.43854 -0.40598,-1.30952 -5.37654,1.70866 -2.75092,1.67039 -7.11195,3.17478 -11.35103,3.91568 -5.11198,0.89346 -7.19885,1.70344 -8.107714,3.14684 -1.493354,2.37165 -2.518735,14.45476 -2.486925,29.3062 0.01303,6.09125 -0.381966,12.37355 -0.8778,13.96068 -0.652425,2.0884 -0.540479,3.77205 0.405196,6.09375 0.718688,1.76443 1.576013,7.00493 1.90516,11.64556 0.519862,7.32941 2.591033,19.1004 5.376953,30.55862 1.23824,5.09275 5.43192,6.65825 11.25759,4.20246 z M 96.245644,532.91098 c 0.617709,-1.60972 -2.023978,-29.82685 -2.929565,-31.29213 -0.694401,-1.12356 -11.745084,20.34191 -11.750024,22.82391 -0.0046,2.32182 4.312977,7.96134 6.891883,9.00199 3.294512,1.3294 7.174796,1.06345 7.787706,-0.53377 z m 43.373816,-14.13116 c 1.06867,-1.3586 1.9716,-3.78438 2.00649,-5.39063 0.0605,-2.78175 0.11176,-2.82027 1.08076,-0.81107 1.17005,2.42606 1.68684,2.55641 3.71698,0.9375 1.38695,-1.10599 2.44449,-8.10045 4.25246,-28.125 0.46188,-5.11565 1.40798,-6.79555 2.37597,-4.21875 0.49486,1.31737 -0.64044,16.86085 -1.67765,22.96875 -0.76457,4.50236 0.13182,5.05513 3.04055,1.875 1.55807,-1.70345 2.13539,-4.27428 3,-13.35937 0.58884,-6.1875 1.28904,-13.28243 1.556,-15.76649 l 0.48537,-4.5165 -4.49382,2.57103 c -7.36695,4.21482 -8.63967,6.29666 -8.67886,14.19633 -0.0329,6.64419 -1.14004,8.82063 -2.42593,4.76917 -0.57344,-1.80675 -0.73946,-1.85636 -1.52351,-0.45534 -0.48397,0.8648 -1.50976,5.0468 -2.27954,9.29333 -0.76977,4.24654 -1.77374,8.77566 -2.23105,10.06472 -1.53357,4.32293 -2.0657,8.4375 -1.09122,8.4375 0.51918,0 1.81832,-1.11158 2.887,-2.47018 z m 23.5735,-22.03181 c 0.52436,-0.97977 1.39187,-6.94185 1.9278,-13.24908 1.3729,-16.15722 1.42508,-19.70172 0.29558,-20.07858 -2.13497,-0.71234 -4.26845,6.47906 -4.61308,15.5495 -0.18805,4.9494 -0.64174,11.64363 -1.00819,14.8761 -0.59456,5.24446 -0.49884,5.81293 0.88911,5.28032 0.85548,-0.32827 1.98443,-1.39849 2.50878,-2.37826 z m 6.02361,-3.61949 c 1.51013,-2.44343 3.28343,-18.25459 3.28343,-29.2758 0,-8.65917 0.9747,-11.60372 2.37773,-7.18314 0.72422,2.2818 -0.31121,23.06238 -1.40301,28.15809 -0.88902,4.14924 0.10086,6.37787 2.09702,4.72121 0.92417,-0.767 1.53778,-4.23728 1.97855,-11.18971 0.95523,-15.06715 1.66384,-20.25073 2.57242,-18.81773 1.01304,1.59777 0.94167,12.20215 -0.11876,17.64606 -1.41988,7.28923 -1.43667,7.75759 -0.29248,8.1623 1.94981,0.68967 4.0375,-8.79383 4.05288,-18.41058 0.013,-8.14653 0.91342,-12.57395 2.27932,-11.20805 1.15858,1.15858 1.42715,9.08881 0.45679,13.48758 -0.56874,2.57812 -1.25051,6.375 -1.51504,8.4375 -0.42812,3.33787 -0.32585,3.59545 0.93063,2.34375 2.32185,-2.31305 4.16657,-11.98388 3.69107,-19.35028 l -0.43209,-6.69402 -6.08793,-0.38765 c -4.44103,-0.28279 -6.32629,-0.81359 -6.96908,-1.96218 -0.69277,-1.23791 -1.23478,-1.35368 -2.53529,-0.5415 -1.29677,0.80984 -2.81372,0.50263 -7.02122,-1.42191 -2.9519,-1.35023 -5.96249,-2.45496 -6.69022,-2.45496 -0.72772,0 -1.58386,-0.42188 -1.90254,-0.9375 -0.31868,-0.51563 -1.13299,-0.9375 -1.8096,-0.9375 -0.95083,0 -1.21416,2.55472 -1.15958,11.25 0.0388,6.1875 0.3009,11.24062 0.58239,11.22915 1.89257,-0.0771 5.10344,-4.13165 7.03447,-8.88286 1.24966,-3.07472 2.67703,-5.72536 3.17192,-5.89032 2.0419,-0.68064 2.52272,28.29204 0.63059,37.99715 -0.45779,2.3481 -0.27128,3.04688 0.81319,3.04688 0.77396,0 1.66697,-0.42029 1.98444,-0.93397 z M 148.125,473.4375 c 1.56543,-1.56543 1.91108,-3.30678 2.09354,-10.54688 0.34412,-13.65447 -0.21343,-21.61829 -1.67028,-23.85794 -0.73737,-1.13357 -3.13817,-2.87377 -5.33509,-3.86708 -5.1245,-2.31697 -16.53342,-12.27667 -23.46297,-20.48257 -16.8045,-19.89973 -20.157241,-26.23355 -22.24645,-42.02678 -0.477469,-3.60938 -1.273594,-9.51563 -1.769184,-13.125 -2.150906,-15.66524 -5.001419,-46.39648 -4.439409,-47.86105 0.48844,-1.27286 1.392111,-1.49563 4.419674,-1.08955 4.274316,0.5733 7.129099,2.69211 7.665279,5.68913 0.30766,1.71966 0.58389,1.51391 1.90407,-1.41826 0.84931,-1.88635 2.08203,-3.61963 2.73939,-3.85174 0.65735,-0.23211 -1.96888,-1.34204 -5.83607,-2.46651 -3.867188,-1.12448 -8.004647,-2.45176 -9.194347,-2.94952 -1.189702,-0.49776 -3.193608,-0.64636 -4.453125,-0.33024 -1.804815,0.45298 -2.290028,1.18316 -2.290028,3.44618 0,1.57928 -0.563153,3.53745 -1.25145,4.35149 -5.205087,6.15597 -6.702968,64.03534 -2.561541,98.98007 3.756422,31.69612 9.124075,41.55715 22.809381,41.90363 5.26784,0.13337 9.88899,-1.70884 19.2694,-7.6817 3.82564,-2.43594 6.22328,-3.25074 10.3125,-3.50454 2.93038,-0.18187 5.90255,0.0583 6.60484,0.53369 2.0928,1.41669 2.90815,8.40673 1.51901,13.02248 -2.08177,6.9172 -5.13964,8.7934 -5.13964,3.15351 0,-3.44949 -3.73966,-8.91118 -6.36034,-9.28915 -1.66028,-0.23945 -2.07716,0.16086 -2.07716,1.99458 0,1.26179 0.66365,2.84495 1.47477,3.51812 0.81113,0.67317 2.25596,2.72873 3.21076,4.56791 2.48746,4.7915 10.16748,15.06272 11.26272,15.06272 0.50971,0 1.7705,-0.84375 2.80175,-1.875 z m -45.52709,-26.01563 c -0.30955,-1.41796 -0.92254,-3.63281 -1.36219,-4.92187 -2.111351,-6.19043 -3.928104,-13.96091 -4.683082,-20.03017 -1.452441,-11.67619 -3.691566,-25.99224 -4.617829,-29.52455 -1.005544,-3.83466 -2.936856,-26.59106 -2.75226,-32.42955 0.06603,-2.08834 0.667669,0.63271 1.336983,6.04677 2.828452,22.87928 5.598771,40.63938 8.335493,53.4375 0.716681,3.35156 2.000705,9.67969 2.853375,14.0625 0.85267,4.38281 1.94211,9.49426 2.42095,11.35877 1.08822,4.23718 1.08457,4.57873 -0.049,4.57873 -0.5058,0 -1.1729,-1.16016 -1.48245,-2.57813 z m 85.90882,-10.28789 c 1.19693,-3.62674 -0.27605,-8.69648 -2.52672,-8.69648 -0.71088,0 -1.29251,-0.77344 -1.29251,-1.71875 0,-2.98879 -1.09681,-3.00013 -4.82183,-0.0499 -2.59836,2.05793 -5.14465,3.07609 -9.00947,3.60249 -9.21898,1.25567 -10.97181,-0.95239 -2.13599,-2.69074 8.16829,-1.607 8.13413,-3.04954 -0.0542,-2.28852 -4.89533,0.45498 -6.59269,0.33855 -6.12385,-0.42003 0.35673,-0.57721 2.21583,-1.34147 4.13134,-1.69836 3.22259,-0.60042 12.20149,-4.89005 15.00129,-7.1668 1.96762,-1.60004 7.42582,-12.15931 8.05709,-15.58701 0.32149,-1.74561 0.14405,-4.80956 -0.39429,-6.8088 -0.84804,-3.14942 -1.21206,-3.51014 -2.72506,-2.70041 -2.53891,1.35878 -13.85521,2.0907 -19.07034,1.23344 -7.60607,-1.25028 -5.03453,-2.56318 5.19244,-2.65101 9.30715,-0.08 15.42466,-1.41793 14.35989,-3.14075 -0.28505,-0.46125 -4.90818,-0.61457 -10.27359,-0.34074 -8.76749,0.44747 -10.19215,0.28642 -14.06937,-1.59051 -4.12507,-1.99692 -5.63383,-3.81264 -3.14219,-3.7815 0.64453,0.008 3.70312,0.62583 6.79687,1.37285 6.69069,1.61553 10.78125,1.78933 10.78125,0.45808 0,-0.53181 -0.52734,-1.10704 -1.17187,-1.27831 -0.64454,-0.17126 -3.28125,-0.81604 -5.85938,-1.43285 -8.65987,-2.07187 -15.1342,-5.6454 -20.589,-11.36419 C 144.67979,363.27123 143.06093,360 145.41266,360 c 0.57071,0 3.20743,1.7295 5.85938,3.84334 2.65194,2.11384 8.82952,5.78482 13.72796,8.15774 7.31217,3.54218 9.85657,4.31972 14.21572,4.34416 6.43168,0.0361 8.40361,-1.43979 11.81851,-8.84524 1.9658,-4.26295 2.48632,-7.17052 3.00452,-16.78289 l 0.6268,-11.62664 -2.8387,-5.24109 c -4.85376,-8.96152 -15.97839,-18.34248 -14.29275,-12.0525 0.31092,1.16015 0.57106,2.63671 0.5781,3.28125 0.007,0.64453 0.79923,1.17187 1.76043,1.17187 3.3245,0 6.3103,11.86299 3.24011,12.87337 -0.68637,0.22587 -1.34924,-1.25801 -1.74707,-3.91095 -0.85589,-5.70744 -2.30317,-5.44817 -2.30317,0.41258 0,3.31324 -0.37154,4.6875 -1.26729,4.6875 -0.90689,0 -1.42871,-2.06626 -1.83485,-7.26563 -0.31215,-3.99609 -1.1887,-8.95312 -1.9479,-11.01562 -1.66274,-4.5172 -1.75446,-3.80494 -0.5671,4.40437 0.88273,6.10323 0.56432,9.18938 -0.94809,9.18938 -0.40679,0 -1.03213,-3.26953 -1.38964,-7.26563 -0.3575,-3.99609 -1.24097,-8.53125 -1.96327,-10.07812 -1.01133,-2.16586 -1.16467,-2.27363 -0.66696,-0.46875 0.76083,2.75903 0.62142,26.21367 -0.16045,26.99555 -1.55512,1.55512 -2.50133,-2.63915 -3.21098,-14.23333 -0.85414,-13.95487 -2.24043,-18.06853 -3.2939,-9.77425 -0.34794,2.73942 -1.07134,6.35187 -1.60755,8.02766 -1.0915,3.4112 -3.2805,4.29585 -2.31976,0.9375 0.33188,-1.16016 0.86415,-4.95704 1.18281,-8.4375 0.5103,-5.57358 0.38803,-6.32813 -1.02539,-6.32813 -0.88263,0 -2.94773,1.0065 -4.58911,2.23667 -7.67148,5.74956 -14.79062,7.63161 -15.4659,4.08862 -0.31855,-1.67129 0.17565,-1.98189 4.74721,-2.9836 1.41796,-0.31071 2.57812,-1.13695 2.57812,-1.83611 0,-0.69916 1.21899,-1.515 2.70888,-1.81298 1.48988,-0.29798 3.91566,-1.58699 5.39062,-2.86447 2.1521,-1.86396 2.4503,-2.55776 1.50988,-3.51292 -0.64454,-0.65462 -1.17188,-2.07615 -1.17188,-3.15896 0,-2.0359 -1.60731,-4.21875 -3.10641,-4.21875 -0.81744,0 -0.61562,1.89095 0.83853,7.85673 0.50751,2.08208 0.3595,2.601 -0.64631,2.26606 -0.71751,-0.23892 -1.45542,-1.2432 -1.63982,-2.23173 -0.39146,-2.0986 -1.89225,-4.14106 -3.04284,-4.14106 -0.44263,0 -0.57166,2.00391 -0.28675,4.45312 l 0.51805,4.45313 -1.94223,-2.21323 C 143.374,310.16323 142.5,308.5812 142.5,307.86489 c 0,-0.71631 -0.49971,-1.30239 -1.11047,-1.30239 -1.81551,0 -11.90014,6.90546 -12.46865,8.53793 -0.3561,1.02251 -1.2712,1.36395 -2.84779,1.06258 -2.19804,-0.42019 -2.86923,0.42189 -2.37948,2.98527 0.0911,0.47686 0.76648,3.85186 1.50081,7.5 0.73434,3.64813 1.49885,8.74234 1.69893,11.32047 0.20007,2.57812 1.26217,7.31091 2.36021,10.5173 1.09804,3.20639 1.99644,7.12229 1.99644,8.70198 0,1.57971 0.63281,4.38673 1.40625,6.23782 0.77344,1.8511 1.40625,3.98863 1.40625,4.75008 0,0.76145 0.5953,2.71384 1.3229,4.33864 2.52271,5.63347 6.17726,15.46767 6.20891,16.70783 0.0175,0.68549 0.84693,2.93385 1.84319,4.99635 0.99626,2.0625 1.8257,4.26762 1.84319,4.90027 0.0175,0.63264 1.0865,1.84131 2.37556,2.68594 1.28906,0.84462 2.34375,2.3963 2.34375,3.44816 0,6.75855 -10.52866,-13.52013 -14.97725,-28.84687 -1.64626,-5.67188 -4.18533,-14.32031 -5.64238,-19.21875 -2.51117,-8.44227 -5.14478,-19.83645 -7.47584,-32.34375 -1.881,-10.09253 -2.1163,-10.86707 -3.18878,-10.49603 -1.16476,0.40298 -1.16803,0.15707 0.25331,19.07179 1.34936,17.95693 7.95246,49.55751 13.97763,66.89299 3.62198,10.42108 3.93027,10.93442 9.22836,15.3661 3.01466,2.52167 5.869,5.26386 6.34297,6.09375 2.00612,3.51255 18.59792,19.05371 21.8476,20.46416 1.94735,0.84519 5.43907,1.80117 7.75938,2.12439 3.63626,0.50653 4.57172,0.26784 6.7752,-1.72875 1.40605,-1.27403 3.02899,-3.74821 3.60653,-5.49817 z m -16.94423,-1.93204 c 0,-0.51636 0.52734,-1.1566 1.17187,-1.42275 0.64454,-0.26616 2.75391,-1.1607 4.6875,-1.98789 3.8355,-1.6408 4.79206,-0.47263 1.40625,1.71734 -2.85274,1.8452 -7.26562,2.87365 -7.26562,1.6933 z m 11.84847,-0.67069 c 0.2968,-0.77344 0.96803,-1.40625 1.49162,-1.40625 0.54873,0 0.45761,0.5957 -0.21509,1.40625 -0.6419,0.77344 -1.31313,1.40625 -1.49162,1.40625 -0.17849,0 -0.0817,-0.63281 0.21509,-1.40625 z m -14.62749,-24.30662 c 1.77115,-1.72611 8.40402,-2.99835 8.40402,-1.61195 0,1.52114 -3.24585,2.94982 -6.70176,2.94982 -2.6798,0 -2.89859,-0.17195 -1.70226,-1.33787 z m -1.92911,-6.98696 c 1.8462,-1.27415 13.92171,-3.39909 14.72894,-2.59186 1.5185,1.5185 -2.0125,2.78308 -8.79903,3.15126 -5.15097,0.27945 -6.90554,0.11393 -5.92991,-0.5594 z m -3.00075,-5.2952 c -1.59195,-1.65386 0.81928,-2.31747 8.42046,-2.31747 5.376,0 7.787,0.31392 7.16768,0.93324 -1.15412,1.15412 -14.65559,2.35304 -15.58814,1.38423 z m 18.7831,-2.95789 c 0.67675,-0.27081 1.48535,-0.23751 1.79688,0.074 0.31152,0.31152 -0.2422,0.5331 -1.23047,0.4924 -1.09214,-0.045 -1.31428,-0.26713 -0.56641,-0.5664 z m -12.81505,-34.5494 c -5.39057,-2.34054 -19.61303,-14.38549 -25.26287,-21.39505 -5.61488,-6.96618 -6.47969,-8.15205 -11.90443,-16.32396 -3.64847,-5.4961 -3.78156,-5.86191 -2.10749,-5.79279 1.18872,0.0491 3.77896,3.1603 10.54687,12.66811 8.72026,12.25055 15.70037,18.78886 25.64208,24.01908 8.00271,4.21015 12.67718,3.07423 17.4737,-4.24618 3.69103,-5.63321 5.92149,-0.46162 2.52906,5.86392 -1.16212,2.1669 -3.01345,3.70085 -5.85937,4.85486 -5.07268,2.05696 -6.99021,2.118 -11.05755,0.35201 z m 2.05567,-18.77945 c -0.3101,-0.8081 -0.0859,-1.94716 0.49818,-2.53125 0.79098,-0.79098 1.06198,-0.41603 1.06198,1.46927 0,2.82066 -0.70194,3.29846 -1.56016,1.06198 z m -23.96911,84.77236 c -3.23234,-3.32018 -7.85387,-7.73619 -10.27006,-9.81336 -2.76169,-2.37419 -4.97569,-5.31904 -5.96197,-7.93007 -0.86289,-2.28437 -2.12125,-5.41903 -2.79635,-6.96591 -1.62353,-3.72 -5.69703,-18.36217 -6.91162,-24.84375 -0.53142,-2.83594 -2.02409,-10.64062 -3.31703,-17.34375 -1.29294,-6.70312 -2.81694,-15.76152 -3.38667,-20.12977 -0.56972,-4.36826 -1.23507,-8.26462 -1.47855,-8.65859 -0.24349,-0.39397 -0.49336,-4.41369 -0.55527,-8.93272 -0.0862,-6.29101 -0.45822,-8.47231 -1.58758,-9.30838 -1.95252,-1.44547 -2.8598,-0.0159 -2.87878,4.53606 -0.007,1.89426 -0.41926,5.4802 -0.91413,7.96875 -0.85339,4.29134 -3.13572,27.26049 -4.22236,42.4934 -0.8165,11.44593 0.23397,15.20232 7.20964,25.78125 7.41525,11.24556 17.95766,21.8645 32.0509,32.2836 5.62768,4.16053 10.3817,7.41505 10.56449,7.23227 0.18278,-0.18279 -2.31231,-3.04885 -5.54466,-6.36903 z M 80.022886,414.60937 c -0.217044,-4.51171 -0.810244,-14.32031 -1.318223,-21.79687 -1.372421,-20.19962 -1.350758,-37.08951 0.06945,-54.15033 0.96686,-11.61478 1.00857,-15.50449 0.175197,-16.33786 -0.833375,-0.83337 -1.418218,-0.31729 -2.456509,2.16769 -1.638343,3.9211 -3.943447,16.48699 -4.779521,26.05476 -0.634625,7.26242 -2.114428,11.84983 -9.097795,28.20324 -6.631039,15.52834 -9.039469,22.57003 -9.647348,28.20659 -0.560755,5.1996 -0.537134,5.2629 3.236193,8.67188 3.435917,3.10413 4.318665,3.43639 9.188994,3.45861 3.294297,0.015 6.84509,0.71413 9.137924,1.79912 5.93586,2.80889 5.929091,2.81663 5.491636,-6.27683 z m 22.616454,-85.57766 c 0.70672,-6.02187 0.67679,-6.14366 -1.78565,-7.26562 -3.526649,-1.60685 -3.60644,-1.54503 -3.064912,2.37454 0.26715,1.93359 1.049747,8.36718 1.7391,14.29687 l 1.253372,10.78125 0.56965,-7.03125 c 0.31332,-3.86719 0.89311,-9.78729 1.28844,-13.15579 z M 81.529515,310.37413 C 82.063282,309.37678 82.5,306.87043 82.5,304.80446 c 0,-2.06597 0.506925,-4.0696 1.1265,-4.45252 2.159768,-1.33481 8.516862,-0.24374 13.754587,2.36069 5.092053,2.532 8.772643,3.43984 23.319763,5.75192 6.17349,0.9812 7.15902,0.90871 10.78125,-0.79303 2.19266,-1.03013 4.8969,-2.13901 6.00942,-2.46418 1.11252,-0.32517 2.25944,-1.20796 2.5487,-1.96178 0.28926,-0.75381 1.14709,-1.37056 1.90628,-1.37056 0.75919,0 1.62979,-0.40361 1.93466,-0.89692 0.53829,-0.87096 -3.37874,-9.39312 -5.62038,-12.22808 -0.61156,-0.77344 -2.28947,-4.68873 -3.72868,-8.70064 -2.6746,-7.4557 -3.75124,-9.01772 -5.21009,-7.55887 -0.47781,0.47781 0.15056,2.9373 1.48795,5.8239 1.27327,2.74823 2.31504,5.40044 2.31504,5.89378 0,0.49335 1.31191,3.51005 2.91536,6.70379 3.85237,7.67311 4.82496,10.96304 3.24098,10.96304 -0.66703,0 -2.37044,-2.63672 -3.78536,-5.85938 -1.41493,-3.22265 -3.53816,-7.96875 -4.71829,-10.54687 -1.18015,-2.57813 -2.80076,-6.26953 -3.60136,-8.20313 l -1.45566,-3.51562 -6.37595,-4.7e-4 c -4.10503,-3.1e-4 -8.13259,-0.66813 -11.3079,-1.875 -2.71257,-1.031 -5.94914,-1.87453 -7.1924,-1.87453 -2.397123,0 -11.082412,-7.57061 -12.099769,-10.54688 -0.308442,-0.90234 -1.474318,-1.64062 -2.590835,-1.64062 -1.116516,0 -3.661007,-0.48865 -5.654422,-1.0859 -2.711235,-0.8123 -4.514424,-0.81923 -7.156986,-0.0275 -4.13979,1.24032 -12.648134,-0.54617 -15.140648,-3.17907 -1.377145,-1.45471 -1.181853,-1.52563 2.73574,-0.99348 2.320313,0.31518 5.273438,0.84735 6.5625,1.18258 l 2.34375,0.60952 -2.070175,-2.00307 c -1.138596,-1.10173 -2.62144,-2.00311 -3.295208,-2.00311 -2.377189,0 -12.896373,-5.71184 -13.870173,-7.5314 -0.742839,-1.38801 -0.689322,-1.8436 0.216561,-1.8436 1.255335,0 16.274787,6.20496 22.768995,9.40651 2.0625,1.01678 5.17275,1.84753 6.911667,1.8461 2.703951,-0.002 2.992707,-0.2062 1.994583,-1.40886 -0.641896,-0.77344 -2.035788,-1.40625 -3.097538,-1.40625 -2.275836,0 -19.968398,-8.65436 -22.683712,-11.09579 -5.596722,-5.03221 -9.116371,-9.50441 -8.580024,-10.9021 0.528631,-1.37759 0.837277,-1.37414 3.641307,0.0409 1.685045,0.85033 4.118404,2.51603 5.407467,3.70154 4.112129,3.78181 17.736753,11.51489 23.902923,13.56686 3.688136,1.22733 7.672996,1.87416 10.446987,1.69576 4.408056,-0.28348 4.517171,-0.22307 6.395452,3.54078 3.218418,6.44931 5.954758,9.51265 10.434178,11.6811 7.86488,3.80732 18.76653,1.31373 29.23463,-6.68699 1.1731,-0.8966 5.18091,-2.1401 8.90625,-2.76335 8.31962,-1.39185 9.91899,-1.98507 22.17066,-8.2231 13.89812,-7.07633 19.23939,-11.85733 17.09069,-15.29795 -0.59497,-0.9527 -1.08177,-3.13384 -1.08177,-4.84697 0,-1.71313 -0.53617,-3.84805 -1.19149,-4.74425 -1.12957,-1.54478 -1.48279,-1.5457 -6.79687,-0.0177 -4.08698,1.17512 -9.88999,1.67967 -21.42242,1.86262 -14.90066,0.23637 -15.94621,0.37227 -18.04688,2.34573 -2.78959,2.62069 -2.77984,3.18743 0.11391,6.62647 2.48764,2.95639 3.21534,9.23883 1.3919,12.01653 -0.82058,1.24999 -1.02836,1.24999 -1.86998,0 -0.52075,-0.77344 -0.71969,-2.37128 -0.44208,-3.55076 0.75174,-3.1938 -1.19889,-9.31053 -3.47826,-10.90708 -2.71912,-1.90453 -3.81625,-0.95601 -3.00035,2.59396 0.86277,3.75395 0.62281,7.29609 -0.57545,8.49434 -0.61771,0.61767 -0.93203,-0.39864 -0.93203,-3.01362 0,-2.89088 -0.74727,-4.9772 -2.79545,-7.80461 -1.53749,-2.12245 -2.61827,-4.14567 -2.40173,-4.49604 0.70591,-1.14219 -10.99785,-5.50641 -20.25264,-7.55201 -5.411433,-1.1961 -10.682771,-3.02929 -13.124997,-4.56441 -8.748933,-5.4994 -18.410323,-10.32562 -21.943613,-10.96165 -2.035176,-0.36634 -4.333133,-1.00549 -5.10657,-1.42033 -2.291943,-1.22928 1.225968,-2.11875 6.409776,-1.62066 4.040349,0.38823 10.218496,3.36559 20.777724,10.01317 3.18116,2.0027 11.22963,4.56908 19.52692,6.22643 4.17546,0.83405 9.03272,2.63955 12.38221,4.60263 l 5.51155,3.23023 3.78012,-1.58793 c 4.55868,-1.915 4.67464,-2.92703 1.36089,-11.87724 -4.40987,-11.91083 -7.2753,-17.41009 -10.98595,-21.08402 -4.61972,-4.57399 -3.85362,-6.53125 1.40056,-3.57823 3.52981,1.98386 6.77358,5.24183 11.75854,11.81 1.14322,1.50631 3.11801,5.92291 4.38841,9.81467 1.27039,3.89176 2.99455,8.40005 3.83145,10.01845 1.38648,2.68117 1.87103,2.91714 5.45535,2.65673 l 3.9337,-0.28581 0.27907,-5.85788 c 0.35036,-7.3542 -1.11862,-10.60488 -8.1139,-17.95521 -9.93334,-10.43751 -22.21892,-18.72557 -25.74921,-17.37087 -1.63226,0.62635 -1.9305,1.34698 -3.46477,8.37146 -1.64961,7.55259 -2.78456,8.65551 -9.66519,9.39235 -5.18421,0.55519 -7.655741,0.18699 -18.344323,-2.73288 -17.596857,-4.80705 -21.955324,-7.32969 -18.613552,-10.77331 3.468922,-3.57465 -17.273772,10.71011 -22.309617,15.36384 -2.047961,1.89257 -8.657959,14.15958 -9.343536,17.33999 -0.388578,1.80263 -1.327716,4.58019 -2.086975,6.17237 -1.222175,2.56293 -1.207507,4.0679 0.12792,13.12467 1.324513,8.98277 1.93484,10.85886 5.006691,15.39013 4.904298,7.23432 13.922735,16.58861 19.464892,20.18979 6.316064,4.10404 8.269627,6.39291 11.577193,13.5643 3.292449,7.13861 5.209584,19.13035 2.729957,17.07597 -0.80012,-0.6629 -1.742032,-2.73655 -2.093139,-4.60812 -1.337737,-7.13075 -10.801321,-22.73956 -10.809714,-17.82906 -0.001,0.62835 0.912489,6.76214 2.030139,13.63064 1.721851,10.5816 2.437791,12.99869 4.689452,15.83204 1.461549,1.83912 2.657362,3.62627 2.657362,3.97146 0,0.93246 4.785822,2.65059 7.70139,2.76484 1.628211,0.0638 2.894774,-0.55357 3.515625,-1.71364 z M 64.577613,261.73796 c -2.222215,-1.57346 -2.204532,-1.58552 3.391137,-2.31249 9.394002,-1.22044 11.98797,-1.21586 12.410542,0.0218 0.497858,1.45826 -2.561526,2.61839 -8.770429,3.32576 -3.650913,0.41594 -5.331233,0.16856 -7.03125,-1.03515 z m 94.783267,44.12141 c -0.0212,-1.05684 -2.23805,-7.099 -3.09567,-8.4375 -0.41298,-0.64453 -1.38721,-1.17187 -2.16496,-1.17187 -1.72177,0 -0.81998,3.8009 1.1788,4.96846 0.7059,0.41234 1.28345,1.78343 1.28345,3.04687 0,1.41693 0.53886,2.29717 1.40625,2.29717 0.77344,0 1.39989,-0.31641 1.39213,-0.70313 z m 1.94334,-11.38305 c -0.54544,-1.01918 -0.99172,-2.72454 -0.99172,-3.78969 0,-1.58829 -0.59019,-1.93663 -3.28125,-1.93663 -3.32849,0 -4.40972,1.24136 -1.91503,2.19866 1.86215,0.71458 6.09729,7.58396 6.29137,10.20459 0.0867,1.1704 0.32203,0.56383 0.52298,-1.34793 0.20096,-1.91177 -0.0809,-4.30982 -0.62635,-5.329 z m -14.43158,-0.3357 c -0.5412,-3.00229 -0.52752,-3.01601 0.93466,-0.9375 0.81614,1.16016 2.06526,2.10938 2.7758,2.10938 1.60182,0 1.60317,0.0365 -0.15438,-4.16995 -1.31831,-3.15517 -1.6916,-3.40756 -4.21875,-2.85251 -2.35775,0.51785 -2.77247,0.3256 -2.77247,-1.28522 0,-1.04179 -0.38604,-2.13275 -0.85788,-2.42436 -0.85886,-0.5308 -5.31501,-11.74789 -5.8756,-14.79015 -0.21643,-1.17454 -0.67836,-1.37813 -1.6911,-0.7453 -1.19047,0.74387 -1.21388,1.32038 -0.16077,3.95969 0.6779,1.69897 2.27575,6.04218 3.55076,9.65155 4.04187,11.44197 5.75433,14.47412 8.19865,14.5169 0.45117,0.007 0.57316,-1.35674 0.27108,-3.03252 z m 19.05051,-3.18094 c 0.0143,-1.06428 -2.73664,-2.58369 -3.42732,-1.89302 -0.19843,0.19844 0.0971,1.56517 0.65677,3.03718 0.81235,2.13666 1.19287,2.39919 1.88687,1.3019 0.47812,-0.75597 0.87578,-1.8567 0.88368,-2.44606 z m 79.24486,-6.32851 c 1.69495,-3.14734 1.77917,-3.1799 7.882,-3.04688 l 6.16874,0.13446 0.28318,-6.01613 c 0.30272,-6.43123 -0.77331,-10.20794 -3.6501,-12.81139 -2.15733,-1.95236 -2.22913,-1.38359 -0.38308,3.03462 1.80653,4.32363 1.82128,7.82415 0.033,7.82415 -1.72318,0 -3.31425,-2.88607 -3.31425,-6.01174 0,-3.16139 -9.50364,-12.90226 -11.38631,-11.67052 -0.98871,0.64685 -0.62398,1.39916 1.64703,3.39718 3.90782,3.43808 8.69744,10.47528 9.01422,13.24424 0.40821,3.5682 -1.54525,3.26304 -3.72859,-0.58245 -1.10324,-1.94313 -3.30456,-5.00952 -4.89182,-6.81421 -1.58726,-1.80469 -3.38003,-3.87868 -3.98394,-4.60888 -0.88267,-1.06725 -1.17843,-1.08636 -1.50808,-0.0974 -0.22554,0.67662 0.47285,1.90687 1.55198,2.73387 2.65988,2.03845 4.84801,7.63542 4.84801,12.40062 l 0,3.92593 -2.36798,-2.72395 c -1.30239,-1.49817 -2.63647,-3.76367 -2.96461,-5.03446 -0.72413,-2.80421 -4.99815,-9.12771 -6.62556,-9.80265 -0.72063,-0.29886 -0.42797,0.97995 0.75488,3.29853 2.53618,4.9713 3.30193,11.84943 1.81934,16.3417 -1.04946,3.17989 -0.99173,3.70191 0.53264,4.81655 0.94031,0.68758 3.25009,1.25014 5.13285,1.25014 2.93014,0 3.66994,-0.4582 5.13645,-3.18133 z m -86.76206,-0.85596 c 2.43508,-0.83847 3.46507,-1.87301 4.10888,-4.12706 0.75443,-2.64141 1.35686,-3.08273 4.94191,-3.62034 5.35113,-0.80246 6.34998,-0.32635 9.90928,4.72327 2.84662,4.03854 3.21872,4.24892 7.51467,4.24892 2.48587,0 5.25231,-0.39108 6.14766,-0.86906 0.89535,-0.47799 2.37738,-1.10187 3.29342,-1.38639 1.42812,-0.44358 0.99525,-1.42214 -3.03688,-6.86531 -2.58632,-3.49139 -5.23424,-7.01857 -5.88427,-7.83817 -1.03205,-1.30128 -3.00105,-1.40343 -15.53231,-0.80581 -7.89274,0.3764 -14.59829,0.93222 -14.90121,1.23513 -0.95104,0.95104 -6.80666,14.12784 -6.82481,15.35773 -0.022,1.4949 5.85651,1.4646 10.26366,-0.0529 z m -12.33344,-5.98698 c 0.18067,-1.2631 -0.39475,-2.40351 -1.51535,-3.00324 -1.10787,-0.59291 -2.03734,-2.40967 -2.40312,-4.69714 -0.63219,-3.95349 -2.03898,-5.57791 -3.53503,-4.08186 -0.58181,0.58181 -0.0503,2.83789 1.48795,6.31621 1.31617,2.97611 2.39304,6.02236 2.39304,6.76944 0,2.16032 3.24651,0.97584 3.57251,-1.30341 z m 83.67662,0.61629 c 0.99735,-0.53377 1.81337,-1.37752 1.81337,-1.875 0,-1.04648 -6.8644,-1.0519 -10.3125,-0.008 l -2.34375,0.70945 2.8125,0.68535 c 1.54687,0.37694 3.23437,0.82608 3.75,0.99809 1.68928,0.56352 2.44265,0.4738 4.28038,-0.50972 z m -81.02517,-6.24579 c 0.39357,-1.5681 0.23355,-2.66248 -0.42121,-2.88073 -0.58073,-0.19358 -1.32713,-1.79782 -1.65865,-3.56498 -0.43377,-2.31215 -1.09923,-3.21302 -2.37343,-3.21302 -0.97387,0 -1.77067,0.26828 -1.77067,0.59618 0,1.44455 4.28689,11.56517 4.90402,11.57756 0.37689,0.007 0.97086,-1.12419 1.31994,-2.51501 z m 145.8895,1.67882 c 1.41572,-0.53825 2.54817,-1.51643 2.51653,-2.17372 -0.0316,-0.65729 -1.61463,-3.71077 -3.5178,-6.7855 l -3.46028,-5.59042 -10.8764,-0.0346 -10.8764,-0.0346 -2.94956,5.32428 c -3.28442,5.92875 -3.6103,7.80653 -1.55447,8.95703 2.12144,1.18722 27.74307,1.46871 30.71838,0.3375 z m 7.58905,-1.52383 c -0.794,-2.06911 -2.09986,-1.65495 -1.53941,0.48823 0.26817,1.02546 0.84306,1.64476 1.27754,1.37623 0.43449,-0.26852 0.55232,-1.10753 0.26187,-1.86446 z m -83.9248,-1.49063 c 4.98632,-0.57855 9.8068,-1.43846 10.71216,-1.91093 1.52302,-0.79477 1.53629,-1.0714 0.17749,-3.69904 -2.21451,-4.28238 -1.48753,-6.87327 2.02458,-7.21548 1.83967,-0.17926 4.06338,-1.47289 6.04329,-3.51563 3.601,-3.7153 5.0925,-4.01455 6.53888,-1.31195 0.69906,1.3062 1.59379,1.74034 2.79863,1.35794 2.35582,-0.74771 7.27072,1.84424 10.89745,5.74693 4.49224,4.83406 6.1202,4.26261 9.64558,-3.3858 2.87429,-6.23586 3.50778,-10.84476 1.47798,-10.753 -0.51563,0.0233 -4.10156,0.32176 -7.96875,0.66323 -8.53133,0.7533 -41.77338,2.83704 -48.28125,3.02646 -2.57813,0.075 -7.49003,0.21524 -10.91532,0.31156 -7.07711,0.199 -8.25923,1.3533 -5.95304,5.81295 1.60497,3.10368 1.83744,7.10592 0.46211,7.95592 -1.21625,0.75168 -1.19963,3.85223 0.033,6.15538 0.80772,1.50924 1.99949,1.81337 7.10584,1.81337 3.37444,0 10.21507,-0.47336 15.20139,-1.05191 z m -97.67343,-2.40632 c -0.35516,-0.35515 -3.09519,-0.67156 -6.08896,-0.70313 -5.20122,-0.0548 -11.38184,-2.23666 -13.73407,-4.84826 -0.51562,-0.57248 -1.78125,-1.33234 -2.8125,-1.68858 -1.812553,-0.62612 -1.8093,-0.58127 0.09752,1.34672 3.709881,3.75109 10.705921,6.38561 17.168111,6.46504 3.30859,0.0407 5.72504,-0.21664 5.3699,-0.57179 z m 6.63,-1.82539 c 2.20865,-0.84349 4.01572,-1.88318 4.01572,-2.31043 0,-0.68022 -8.19767,2.35422 -9.27766,3.43421 -0.83504,0.83503 1.36084,0.36607 5.26194,-1.12378 z m 33.54697,-3.54432 c 1.54687,-0.29173 8.08594,-0.73038 14.53125,-0.97477 11.27511,-0.42752 11.80097,-0.53904 13.89066,-2.94579 3.55758,-4.09738 1.85416,-4.52403 -13.13394,-3.28958 -15.80547,1.30176 -21.08794,2.48741 -22.45391,5.03975 -1.12258,2.09756 0.45628,3.74659 2.94719,3.07817 0.77344,-0.20754 2.67187,-0.61605 4.21875,-0.90778 z m 91.53677,-4.32825 c -2.61458,-2.17816 -3.88052,-2.34639 -3.88052,-0.51568 0,1.48037 1.40595,2.25243 4.21875,2.31666 1.75443,0.04 1.73267,-0.0758 -0.33823,-1.80098 z M 94.572122,256.5274 C 93.417333,253.99293 91.875,253.2113 91.875,255.16056 c 0,1.22374 2.912409,4.73953 3.466856,4.18509 0.194335,-0.19434 -0.152044,-1.46256 -0.769734,-2.81825 z M 287.625,252.9375 c 0.61875,-0.61875 1.125,-1.88437 1.125,-2.8125 0,-2.6153 -10.49909,-2.43841 -13.15919,0.22169 -1.05007,1.05007 -1.65798,2.31569 -1.35093,2.8125 0.80742,1.30644 12.04309,1.12034 13.38512,-0.22169 z m -107.23293,-1.31905 c 1.76485,-0.67723 2.05393,-5.99345 0.32591,-5.99345 -1.61363,0 -11.02553,5.0006 -11.02825,5.85937 -0.003,0.83926 8.58432,0.94684 10.70234,0.13408 z m 44.26578,-5.06285 c 10.24287,-0.56084 24.74059,-1.31607 32.21715,-1.67828 13.36192,-0.64734 13.5991,-0.69639 13.90749,-2.87608 0.17257,-1.21962 -0.0383,-2.56611 -0.46875,-2.99221 -0.99431,-0.98442 -74.65397,1.37439 -77.54343,2.48318 -1.42985,0.54868 -2.38449,3.88401 -1.69969,5.9384 0.3281,0.9843 2.0403,1.14129 7.69293,0.70539 3.99899,-0.30837 15.65143,-1.01956 25.8943,-1.5804 z m 65.54513,-1.25744 c 0.0257,-0.078 -0.39617,-23.76691 -0.9375,-52.64191 l -0.98423,-52.5 -4.31095,-0.27994 c -2.37102,-0.15396 -6.37884,0.077 -8.90625,0.51312 -3.79041,0.65415 -4.55539,1.11371 -4.36743,2.62369 0.25513,2.04968 0.87492,13.11862 1.67732,29.95563 0.29488,6.1875 0.8985,24.72819 1.34137,41.20154 0.93808,34.89274 0.30232,32.93283 10.34719,31.89773 3.35156,-0.34538 6.11478,-0.69181 6.14047,-0.76986 z m -85.13897,-7.93724 c 0.63677,-0.40446 1.42778,-2.0855 1.75781,-3.73565 0.46991,-2.34956 0.28288,-3.00027 -0.86235,-3.00027 -4.04927,0 -10.70747,4.69489 -9.47844,6.68351 0.6261,1.01304 7.00922,1.05201 8.58298,0.0524 z m 14.98311,-0.57966 c 0.11186,-0.0863 -0.13992,-1.40118 -0.55952,-2.92214 -0.68956,-2.49956 -1.10377,-2.74418 -4.30924,-2.54495 -1.95049,0.12122 -4.12449,0.70022 -4.83111,1.28667 -1.60622,1.33304 -1.67552,4.29759 -0.11287,4.82871 1.00621,0.34199 9.23313,-0.20152 9.81274,-0.64829 z m 13.77859,-0.66189 c 0.15576,-0.18596 0.0829,-1.9464 -0.16189,-3.91208 -0.35819,-2.87622 -0.74402,-3.44316 -1.97632,-2.90402 -0.84219,0.36848 -2.88756,0.86103 -4.54528,1.09457 -3.30063,0.465 -4.37069,1.41687 -5.41536,4.8172 -0.69009,2.2462 -0.6899,2.24627 5.56277,1.74437 3.43909,-0.27606 6.38032,-0.65408 6.53608,-0.84004 z m 26.79963,-1.27583 c 0.45561,-0.28158 0.25629,-1.87259 -0.44294,-3.53556 -1.11792,-2.65877 -1.64867,-2.98886 -4.39873,-2.73578 -5.00278,0.46041 -6.27101,1.07598 -6.58365,3.19557 -0.42664,2.89241 -2.3148,3.08316 -3.01225,0.30431 -0.50911,-2.02846 -1.12787,-2.38458 -4.14313,-2.38458 -4.08519,0 -5.79464,1.31978 -5.79464,4.47377 l 0,2.22377 11.77347,-0.51477 c 6.47542,-0.28311 12.14625,-0.74515 12.60187,-1.02673 z m 10.75517,-3.51542 c -0.84924,-5.13227 -0.98304,-5.31236 -3.49082,-4.69845 -3.2488,0.7953 -4.45219,2.1174 -4.45219,4.89137 0,3.35368 0.56881,3.79146 4.92615,3.79146 l 3.67616,0 -0.6593,-3.98438 z M 218.98501,226.64 c 1.24862,-1.24862 -7.5239,-0.68453 -9.20482,0.59189 -0.89432,0.67911 -1.41359,1.44722 -1.15391,1.70689 0.59857,0.59856 9.41874,-1.35879 10.35873,-2.29878 z m 26.16019,-10.54625 c -0.006,-5.67188 -0.28937,-16.03649 -0.62955,-23.03247 -0.5553,-11.42034 -0.051,-16.63475 1.38415,-14.31259 0.28005,0.45313 0.7654,6.93176 1.07855,14.39696 0.31315,7.4652 0.81017,17.89732 1.10447,23.18247 l 0.53511,9.60938 2.48791,-0.0103 c 1.36835,-0.006 4.06123,-0.2704 5.98418,-0.58827 l 3.49628,-0.57796 -0.50952,-23.55235 c -0.40256,-18.60842 -0.27191,-23.17504 0.62246,-21.75488 0.76192,1.20985 1.28473,8.94935 1.59923,23.67442 l 0.46724,21.87695 4.22025,-0.15963 4.22025,-0.15963 -0.67421,-23.50441 c -0.43334,-15.10725 -1.05193,-23.95952 -1.73148,-24.77835 -0.72974,-0.87927 -2.08733,-1.08143 -4.38203,-0.65255 -1.82861,0.34177 -10.27412,0.82649 -18.76781,1.07716 -8.49369,0.25067 -15.66556,0.75058 -15.9375,1.11092 -0.27193,0.36033 -3.94062,0.65515 -8.15263,0.65515 -4.21201,0 -7.89491,0.23758 -8.18421,0.52796 -1.0502,1.05409 0.6169,13.06579 1.8134,13.06579 0.64273,0 3.21844,-1.72017 5.72381,-3.8226 2.50536,-2.10243 5.50442,-4.20136 6.66457,-4.6643 1.16016,-0.46293 2.10938,-1.48495 2.10938,-2.27115 0,-0.78619 0.52734,-1.42555 1.17187,-1.42077 0.65866,0.005 2.6975,4.62377 4.65552,10.54688 1.91599,5.796 4.54382,13.49131 5.8396,17.10069 2.67892,7.46209 3.03854,12.81679 0.99783,14.8575 -0.76872,0.76873 -2.8781,1.88627 -4.6875,2.48342 -4.89493,1.61548 -3.98789,2.43107 2.1008,1.889 l 5.39063,-0.47992 -0.0111,-10.3125 z m -38.21725,4.89865 7.10359,-4.68357 5.13199,1.61771 c 2.82259,0.88975 6.45064,2.42181 8.06235,3.40459 1.6117,0.98277 4.26197,1.78844 5.88948,1.79036 2.49826,0.003 2.88274,-0.28849 2.46878,-1.87149 -0.30182,-1.15417 -1.27877,-1.875 -2.54119,-1.875 -3.35631,0 -12.95438,-6.65108 -11.58058,-8.02487 0.54952,-0.54952 10.04866,4.09829 12.80129,6.26351 3.05841,2.40575 8.54884,2.39803 8.54884,-0.012 0,-1.15696 -0.89614,-1.9922 -2.57813,-2.40296 -3.02653,-0.73909 -17.10937,-9.74541 -17.10937,-10.94187 0,-1.8257 4.54869,-0.63016 9.162,2.40806 2.69527,1.77505 4.9005,2.77406 4.9005,2.22003 0,-2.24595 -4.16546,-7.51816 -8.05335,-10.1931 C 226.86037,197.12739 225,195.39793 225,194.84856 c 0,-1.02391 3.7957,-0.6956 6.79687,0.5879 2.34612,1.00335 2.18655,-2.46431 -0.21333,-4.63617 -1.41539,-1.28091 -2.80148,-1.5539 -5.85938,-1.15396 -3.45154,0.45141 -4.74519,1.34392 -9.35534,6.45438 -4.24567,4.70645 -5.83184,5.86966 -7.6847,5.63558 -4.92477,-0.62216 -21.18412,13.00511 -21.18412,17.7548 0,1.13927 1.16016,3.24696 2.57812,4.68373 2.2107,2.24002 3.08892,2.53314 6.16218,2.05674 2.0001,-0.31005 6.72346,-2.62547 10.68765,-5.23916 z m -36.10316,-3.88802 c 4.4927,-0.72929 8.66656,-1.63377 9.27526,-2.00997 0.82972,-0.51279 0.92229,-5.04883 0.36985,-18.12357 -0.40527,-9.59178 -0.83545,-21.4474 -0.95595,-26.34584 -0.40081,-16.29322 -1.52324,-27.06937 -2.94215,-28.24696 -1.56366,-1.29771 -18.8444,0.45692 -20.46512,2.07797 -0.85647,0.85665 -0.82048,42.96291 0.046,53.82524 0.16453,2.0625 0.32404,7.44141 0.35448,11.95312 l 0.0553,8.20313 3.04687,-0.004 c 1.67579,-0.002 6.72272,-0.60025 11.21542,-1.32954 z m -3.48939,-19.59265 c -0.20202,-0.60801 -0.58155,-6.16798 -0.84341,-12.35548 -0.26185,-6.1875 -0.77111,-14.37114 -1.13167,-18.18588 -0.5782,-6.1173 -0.45103,-7.08545 1.07749,-8.20312 0.95318,-0.69699 2.49617,-1.26725 3.42887,-1.26725 1.3785,0 1.69582,0.76992 1.69582,4.11458 0,3.34326 -0.30756,4.09018 -1.64063,3.98438 -1.50118,-0.11915 -1.61988,0.98534 -1.39663,12.99479 0.1342,7.21875 0.51535,13.75781 0.84701,14.53125 1.16597,2.71906 2.07362,-6.04521 1.60199,-15.46875 -0.3105,-6.20408 -0.16321,-8.89936 0.43548,-7.96875 0.49756,0.77344 1.0519,7.27691 1.23185,14.45216 l 0.32718,13.04591 -2.63303,0.71581 c -1.7529,0.47655 -2.7558,0.34631 -3.00032,-0.38965 z m 25.71619,9.51282 c 4.04214,-2.97261 4.04544,-2.97996 3.4741,-7.73437 -0.31454,-2.61741 -0.57556,-7.98598 -0.58004,-11.93016 l -0.008,-7.17122 -4.21875,-0.33553 -4.21875,-0.33553 -0.14769,5.163 c -0.0812,2.83966 -0.0323,5.79582 0.10892,6.56926 0.14114,0.77344 0.20893,5.30859 0.15065,10.07812 -0.0583,4.76954 0.23148,8.67188 0.64389,8.67188 0.41242,0 2.57054,-1.33895 4.79582,-2.97545 z m 18.32245,-19.33383 0.0323,-8.62796 -4.6875,0.11079 c -4.34257,0.10263 -11.62925,1.40222 -9.26837,1.65303 0.64806,0.0688 1.2182,3.43881 1.50303,8.88405 0.25239,4.82522 0.73442,9.21895 1.07118,9.76383 0.40603,0.65697 2.4153,0.29231 5.96475,-1.08255 l 5.35248,-2.07324 0.0323,-8.62795 z M 107.5482,185.72074 c 1.2755,-1.89928 2.1393,-4.59719 2.1393,-6.68169 0,-3.24858 -0.46614,-3.83628 -6.58241,-8.29886 -5.802856,-4.2339 -7.127984,-4.80269 -11.188975,-4.80269 -2.533604,0 -5.656026,-0.39901 -6.938714,-0.88669 -2.669068,-1.01478 -3.383099,-0.38677 -5.271874,4.63669 -0.678545,1.80469 -2.496519,5.30977 -4.039942,7.78906 -1.723078,2.76788 -2.470851,4.84317 -1.937338,5.37668 0.477886,0.47789 2.963436,1.31251 5.523444,1.85473 2.560008,0.5422 8.240496,1.78138 12.623309,2.75372 10.89575,2.41726 13.04066,2.17901 15.6732,-1.74095 z m 94.0143,-11.28039 c 10.0314,-1.03001 30.22643,-2.30976 54.05155,-3.42522 l 13.2703,-0.6213 0.32345,-2.93129 c 0.78515,-7.11549 0.57404,-7.29401 -7.95053,-6.72319 -4.21494,0.28225 -16.5229,0.91943 -27.35102,1.41596 -10.82813,0.49653 -25.48828,1.17199 -32.57813,1.50103 -8.81045,0.40889 -12.89062,0.28455 -12.89062,-0.39282 0,-0.54509 1.51703,-1.27565 3.37118,-1.62349 l 3.37119,-0.63244 -0.54472,-8.08192 c -1.23382,-18.30629 -1.6804,-33.72486 -1.03562,-35.75638 1.53559,-4.83824 2.38675,1.456 2.94262,21.76052 0.31491,11.50267 0.69364,21.0538 0.84162,21.22473 0.14798,0.17093 7.03198,0.007 15.29777,-0.36254 10.46362,-0.4688 15.16258,-1.02218 15.46943,-1.82178 0.24238,-0.63165 -0.0196,-5.89133 -0.5822,-11.68819 -0.75491,-7.77852 -0.7458,-10.98342 0.0348,-12.23332 0.91586,-1.46652 0.19505,-2.38568 -5.37642,-6.8557 -3.53875,-2.83917 -7.31565,-5.63391 -8.39311,-6.21055 -2.37342,-1.27022 -2.30109,-2.80698 -0.8941,18.99324 0.79863,12.37437 0.8043,16.96759 0.0219,17.74999 -0.58055,0.58056 -1.37899,0.7323 -1.7743,0.3372 -0.39532,-0.3951 -0.98884,-9.64725 -1.31894,-20.56034 l -0.60019,-19.84198 -4.55606,-4.08323 c -2.50583,-2.24578 -5.82169,-4.64729 -7.36856,-5.33669 -1.54688,-0.68939 -4.86235,-2.9662 -7.3677,-5.05955 -2.50542,-2.09335 -4.92132,-3.8061 -5.36873,-3.8061 -0.44741,0 -0.6114,4.53516 -0.36442,10.07813 1.6106,36.14792 2.3903,63.11144 1.85024,63.98528 -1.11473,1.80366 1.33052,3.73153 3.58738,2.82835 1.121,-0.44862 6.46787,-1.2705 11.88193,-1.82641 z m -168.051039,0.86943 c 11.937272,-1.55057 14.159493,-3.73934 16.178283,-15.93478 1.806557,-10.91335 6.191198,-31.76004 7.944375,-37.77138 1.687114,-5.78481 7.900375,-15.72762 14.995984,-23.997411 5.206509,-6.068085 5.210647,-7.957093 0.01835,-8.379132 -2.058211,-0.167295 -4.079573,-0.905576 -4.491912,-1.640625 -1.136406,-2.025786 -2.647835,-1.67308 -10.647913,2.484784 -8.299848,4.313667 -15.880411,9.74437 -21.423655,15.347874 -2.067327,2.0898 -5.020452,4.87295 -6.5625,6.18477 -3.154388,2.68344 -6.616111,6.97337 -12.827237,15.89612 -5.889434,8.46062 -7.88525,12.67519 -10.1623401,21.45984 -4.0899904,15.77853 -1.4435894,16.46154 16.4251321,4.23913 5.49012,-3.7553 8.000737,-3.94336 14.546348,-1.0896 4.779322,2.0837 4.832594,2.15261 4.376339,5.66072 -0.539922,4.15142 -2.913504,8.16741 -4.827208,8.16741 -0.737422,0 -2.162032,-1.85661 -3.165801,-4.12579 -2.037751,-4.60668 -4.223065,-5.74672 -9.2191,-4.80946 -2.82,0.52903 -3.214387,0.91242 -2.743796,2.66717 0.302273,1.12713 0.555348,3.20949 0.562389,4.62745 0.01179,2.3753 0.30419,2.57813 3.716657,2.57813 4.730207,0 12.987884,1.75752 13.704333,2.91677 0.335982,0.54363 -2.741069,0.78774 -7.906305,0.62724 -9.108243,-0.28302 -10.725835,0.3551 -9.434145,3.72161 0.905438,2.35983 1.383749,2.41094 10.943722,1.16916 z M 34.6875,132.19947 c 0,-4.04072 13.70221,-24.36995 21.009986,-31.1714 4.875565,-4.537748 8.041637,-6.161986 4.592851,-2.356195 -1.051325,1.160156 -2.706895,3.118805 -3.679044,4.352565 -0.972148,1.23376 -2.87727,3.55408 -4.233605,5.15625 -1.356334,1.60218 -5.709612,7.75853 -9.673953,13.68076 -8.175047,12.21252 -8.016235,12.00771 -8.016235,10.33802 z m 85.12593,35.94714 c 1.43206,-0.38357 2.34349,-1.50933 2.71143,-3.34903 0.30483,-1.52417 1.12707,-2.99104 1.82719,-3.25971 0.70013,-0.26866 1.27295,-1.10314 1.27295,-1.8544 0,-0.97641 -0.86884,-1.28198 -3.04687,-1.07157 -2.82584,0.27299 -3.04688,0.0903 -3.04688,-2.51815 0,-2.68575 0.19855,-2.82529 4.40564,-3.0963 3.38709,-0.21819 4.53897,-0.70392 4.98238,-2.10098 0.69425,-2.18736 -0.10302,-3.70897 -1.94335,-3.70897 -2.04025,0 -1.61916,-3.54047 0.55978,-4.70661 1.11532,-0.59689 3.60645,-0.76828 5.98433,-0.41169 l 4.07364,0.61088 -0.69345,-3.60567 c -1.10768,-5.75952 -2.9254,-11.83245 -4.39018,-14.66744 -1.23141,-2.38328 -1.17934,-2.90999 0.56702,-5.73565 2.9262,-4.73469 2.52391,-5.84743 -2.53019,-6.99857 -3.35182,-0.76342 -7.35127,-0.68982 -16.17187,0.29758 -16.790166,1.87955 -15.522919,1.28979 -15.158503,7.05461 0.304762,4.82128 -1.116572,10.14986 -3.069525,11.50758 -0.544894,0.37883 -2.960125,0.69523 -5.367172,0.70313 -2.407046,0.008 -5.059368,0.27641 -5.894048,0.59671 -2.505801,0.96156 -4.497074,5.83275 -3.832491,9.37528 0.825979,4.40284 2.219151,3.95903 2.56471,-0.81701 0.28791,-3.97928 0.295485,-3.98671 5.913279,-5.80482 8.268459,-2.67595 10.89599,-5.54427 12.22796,-13.34855 l 1.0912,-6.39351 0.62413,4.21875 c 0.95544,6.45818 -1.16425,13.11383 -5.001106,15.70313 -1.71914,1.16015 -4.356684,2.10937 -5.861207,2.10937 -3.697857,0 -6.362227,1.56107 -6.362227,3.72766 0,2.52231 1.623384,3.22039 3.387228,1.45654 1.799516,-1.79952 4.822488,-1.13932 7.159647,1.56362 1.833216,2.12013 2.124066,7.04766 0.707512,11.98687 -1.359965,4.74193 -0.4194,6.41519 4.996373,8.88855 8.98021,4.10123 12.69734,4.88456 17.31267,3.64837 z m 0.28519,-32.55903 c -0.58766,-0.70809 -0.80512,-1.97371 -0.48324,-2.8125 0.7282,-1.89768 -0.48826,-1.93594 -3.96134,-0.12461 -1.47691,0.77026 -3.3181,1.38593 -4.09154,1.36816 -1.83146,-0.0421 4.01642,-5.13038 8.67188,-7.54546 3.45054,-1.79002 4.13452,-2.72927 2.89219,-3.9716 -0.7847,-0.78471 -8.37954,3.52852 -11.78867,6.69497 -1.41258,1.31204 -2.85463,2.09923 -3.20453,1.74933 -2.30868,-2.30867 8.92108,-11.52326 15.30606,-12.55939 5.61502,-0.9112 7.38471,3.46248 4.61777,11.41246 -1.17749,3.38317 -4.39818,7.07606 -6.17127,7.07606 -0.39536,0 -1.19965,-0.57934 -1.78731,-1.28742 z m -44.447774,27.09829 c 3.002123,-2.64114 1.587961,-3.09445 -2.713822,-0.86991 -1.993451,1.03085 -4.115375,1.32591 -6.750319,0.93866 -3.550802,-0.52185 -3.704608,-0.45797 -2.023146,0.84029 2.871058,2.21677 8.434728,1.77649 11.487287,-0.90904 z M 87.1875,160.3125 c 0,-0.51563 -0.396977,-0.9375 -0.882172,-0.9375 -0.485194,0 -1.142904,0.42187 -1.461578,0.9375 -0.318674,0.51562 0.0783,0.9375 0.882172,0.9375 0.803867,0 1.461578,-0.42188 1.461578,-0.9375 z m 156.78976,-1.64063 c 0.18585,-0.38671 0.10528,-3.95311 -0.17905,-7.92533 l -0.51696,-7.2222 -6.09375,-4.72254 c -3.35156,-2.59739 -6.52017,-4.72631 -7.04135,-4.73092 -0.93398,-0.008 -0.14407,21.39108 0.88898,24.08317 0.50936,1.32737 12.32585,1.80017 12.94213,0.51782 z m 14.65555,0.11719 c 1.61133,-0.32226 2.92969,-0.91514 2.92969,-1.3175 0,-0.94835 -12.58147,-10.28406 -13.85952,-10.28406 -0.91934,0 -2.05249,10.97243 -1.2186,11.79989 0.59942,0.5948 8.85681,0.45999 12.14843,-0.19833 z M 73.150777,156.06269 c 1.906584,-2.2973 -2.778603,-10.17967 -6.293345,-10.58796 -1.451275,-0.16858 -3.039463,-0.69592 -3.529307,-1.17187 -0.489844,-0.47595 -1.703675,-0.86536 -2.697402,-0.86536 -1.612059,0 -1.756381,0.52449 -1.339149,4.86671 0.362956,3.77735 1.030904,5.35122 2.984056,7.03125 2.970174,2.55484 9.022479,2.95956 10.875147,0.72723 z m 14.663341,-2.64768 c 1.285425,-1.25713 2.037511,-5.17788 1.00979,-5.26421 -0.389039,-0.0327 -1.763206,0.2056 -3.053705,0.52949 -5.542191,1.39101 -10.242204,-6.28943 -8.002215,-13.07667 1.459729,-4.42302 4.765553,-6.92203 10.188618,-7.702 5.925338,-0.85221 7.668394,-2.55954 7.668394,-7.51121 0,-4.54669 -1.978942,-7.20496 -5.038731,-6.76843 -1.618984,0.23098 -2.046598,1.03194 -2.280989,4.27254 -0.319037,4.4109 -2.305508,6.05145 -8.803429,7.27048 -6.580838,1.23456 -8.761228,5.1035 -8.07152,14.32229 0.830868,11.10556 10.695178,19.49112 16.383787,13.92772 z m 7.37261,-5.97109 c -0.842381,-3.35632 -2.706447,-2.62065 -2.022666,0.79827 0.322266,1.61133 0.612675,3.61523 0.645366,4.45312 0.03647,0.93479 0.417384,0.62635 0.985838,-0.79827 0.509522,-1.27695 0.685687,-3.28086 0.391462,-4.45312 z m 173.294682,-0.49079 0.61759,-4.92188 -4.49349,-4.21875 c -2.47142,-2.32031 -3.8175,-3.69141 -2.9913,-3.04687 1.68577,1.31509 3.9673,1.52786 5.02642,0.46875 0.82254,-0.82255 2.57728,-0.99014 14.81657,-1.41507 8.06391,-0.27996 9.38648,-0.57291 11.48437,-2.54377 4.32982,-4.06766 3.32284,-4.71304 -7.35364,-4.71304 -7.81203,0 -10.59177,0.3836 -14.13386,1.95043 -2.99643,1.32547 -4.24564,2.37686 -3.8986,3.28125 0.28087,0.73195 0.1537,1.33082 -0.2826,1.33082 -1.88644,0 -3.26342,-3.36464 -3.76514,-9.2001 -0.46071,-5.3583 -0.79916,-6.26865 -2.33054,-6.26865 -1.62788,0 -1.77218,0.66379 -1.57941,7.26563 0.2869,9.82545 1.0025,9.94318 -15.49102,-2.54864 -6.90073,-5.22646 -9.88521,-7.58232 -15.45732,-12.2016 -1.23376,-1.02278 -7.72757,-6.20685 -14.43069,-11.520146 C 207.51562,93.338188 198.94476,86.475791 195.17238,83.40172 191.4,80.327649 187.49766,77.8125 186.5005,77.8125 c -1.62021,0 -1.813,0.700036 -1.813,6.583147 l 0,6.583148 3.99974,2.557477 c 2.19986,1.406612 5.46939,3.644706 7.26563,4.973528 1.79624,1.328831 6.00807,4.39937 9.35963,6.82343 7.16532,5.18238 13.17756,9.87787 24.25464,18.94258 4.44901,3.64075 10.19848,8.0572 12.77661,9.81433 2.57812,1.75713 7.00781,5.14044 9.84375,7.51848 7.16557,6.00857 13.19633,10.26638 14.54133,10.26638 0.66578,0 1.39031,-2.03473 1.75258,-4.92188 z m -93.63766,-8.9917 c 3.21803,-0.879 3.06477,0.82802 2.03879,-22.70875 -0.32734,-7.50946 -0.64957,-21.642274 -0.71607,-31.406248 -0.0667,-9.788478 -0.54211,-18.547889 -1.05979,-19.525245 -0.84428,-1.593977 -1.70767,-1.714755 -8.56965,-1.198785 -4.19693,0.315577 -9.26681,1.042502 -11.26641,1.615388 l -3.63563,1.041612 0.63276,5.313423 c 1.51137,12.691484 2.36696,30.147685 2.3924,48.811175 l 0.0274,20.06025 8.67187,-0.61729 c 4.76953,-0.33951 9.9375,-0.963 11.48438,-1.38553 z m -9.74312,-29.1294 c -0.81381,-0.51532 -1.40644,-2.89363 -1.57327,-6.31376 -0.14723,-3.017861 -0.54176,-9.586635 -0.87675,-14.597277 -0.6,-8.974566 -0.572,-9.14733 1.88011,-11.599431 1.8495,-1.849509 2.76124,-2.217096 3.54793,-1.430414 0.62968,0.629676 1.38589,7.406564 1.86596,16.721895 0.74286,14.414757 0.67579,15.759227 -0.84164,16.868797 -1.93655,1.41604 -2.2727,1.44545 -4.00234,0.35019 z m 3.31731,-10.62418 c 0.38133,-7.395262 -0.48184,-13.661833 -1.63174,-11.846276 -0.95489,1.507676 -1.14839,17.088736 -0.2237,18.013426 1.13637,1.13637 1.54966,-0.23737 1.85544,-6.16715 z M 65.625,136.09822 c 0,-1.85641 4.766262,-9.53095 7.145527,-11.50557 0.806215,-0.66909 3.852505,-1.6931 6.769533,-2.27557 4.994386,-0.99728 5.30369,-1.21873 5.30369,-3.79743 0,-2.43466 -0.288822,-2.70802 -2.603903,-2.4645 -3.620199,0.3808 -11.129789,4.98697 -15.107283,9.26637 -2.833273,3.04833 -3.335627,4.25107 -3.357197,8.03785 -0.01395,2.44922 0.396508,4.45313 0.912133,4.45313 0.515625,0 0.9375,-0.77142 0.9375,-1.71428 z m 189.48283,-10.70759 c 0.0593,-0.64454 0.0231,-3.91407 -0.0805,-7.26563 -0.21776,-7.0441 -1.38606,-8.99311 -3.51229,-5.85937 -2.09822,3.09245 -3.0775,2.588 -3.0775,-1.5853 0,-3.50947 -1.28813,-5.6422 -2.60962,-4.32071 -0.33542,0.33543 -0.50737,3.6472 -0.38209,7.3595 0.21808,6.46249 0.37297,6.87925 3.64094,9.79651 3.55216,3.17095 5.83639,3.88227 6.0211,1.875 z m 39.45027,-2.46224 c 0.35852,-0.32155 0.33573,-3.88364 -0.0506,-7.91575 -0.76682,-8.00249 -1.50476,-9.03743 -6.4606,-9.06079 L 285,105.9375 l 0,7.09645 c 0,6.82305 -0.0813,7.08492 -2.10938,6.79688 -1.83835,-0.26109 -2.14583,-0.93334 -2.39311,-5.23219 -0.3346,-5.81676 -2.05607,-7.38967 -8.62251,-7.87839 l -4.21875,-0.314 -0.78848,6.5625 c -0.51805,4.31167 -0.44242,7.45516 0.22049,9.16511 l 1.00895,2.60262 12.90452,-0.61172 c 7.09749,-0.33645 13.19785,-0.87482 13.55637,-1.19637 z m -53.10096,-16.73633 c -0.37056,-5.53187 -0.87491,-10.383432 -1.12076,-10.781251 -1.1345,-1.835655 -3.05208,-0.49515 -3.32386,2.323566 -0.43605,4.522595 -2.98333,4.028075 -3.57502,-0.69405 -0.33867,-2.702794 -0.95992,-3.834466 -2.23867,-4.078014 -1.6388,-0.312121 -1.73651,0.183682 -1.3188,6.692355 0.39461,6.148884 0.81959,7.476454 3.39254,10.597894 2.77572,3.36743 6.17085,5.89001 8.02725,5.96422 0.47367,0.0189 0.54133,-4.29208 0.15732,-10.02472 z M 79.896237,112.0887 c 17.665357,-5.91069 19.745951,-6.27424 39.038733,-6.82136 l 18.15371,-0.51482 -0.50161,-3.73977 c -0.27588,-2.056888 -0.92993,-4.168109 -1.45343,-4.691609 -1.52527,-1.525266 -22.07803,-2.051447 -28.12522,-0.720057 -20.375556,4.486046 -33.19247,9.460026 -36.461545,14.149986 -2.21889,3.18333 -2.730955,5.56143 -1.197513,5.56143 0.501524,0 5.247618,-1.45071 10.546875,-3.2238 z m 209.185103,-8.98253 c 0.25164,-0.25165 0.17456,-2.77051 -0.17128,-5.597489 -0.48878,-3.99529 -1.02135,-5.215469 -2.39147,-5.479059 -2.01373,-0.387412 -3.35831,1.277268 -3.37924,4.183715 -0.018,2.507822 -2.11355,4.314033 -4.11427,3.546282 C 277.94563,99.345403 277.5,98.002931 277.5,95.165288 c 0,-3.282146 -0.35638,-4.102301 -1.96542,-4.523074 -3.79303,-0.991899 -4.59708,0.131714 -4.59708,6.424136 0,5.38895 0.19189,5.96933 2.10937,6.38001 2.60738,0.55842 15.40742,0.28684 16.03447,-0.34019 z m -63.21333,-6.778045 c -0.0906,-8.861686 -1.06048,-14.990117 -2.44499,-15.449352 -0.66924,-0.221982 -1.22629,0.86188 -1.40625,2.736191 -0.22847,2.379446 -0.7356,3.103786 -2.17302,3.103786 -1.54781,0 -2.06167,-0.981563 -2.94469,-5.625 -0.58833,-3.09375 -1.11568,-5.814844 -1.17187,-6.046875 -0.0563,-0.232031 -0.56657,0.04251 -1.13415,0.610092 -0.70737,0.70737 -0.81557,3.918409 -0.34397,10.208628 l 0.688,9.176664 4.09941,4.041366 c 5.96271,5.878305 6.91587,5.493855 6.83153,-2.7555 z M 80.695704,99.807187 c 1.53455,-0.793546 7.525319,-3.171271 13.312821,-5.283825 10.012215,-3.654669 11.057145,-3.844092 21.538355,-3.904411 9.79043,-0.05634 11.01562,-0.243672 11.01562,-1.684247 0,-1.589982 -0.62616,-1.918449 -5.89772,-3.093803 -1.55642,-0.347022 -2.36094,-0.996819 -1.98575,-1.603871 0.8959,-1.449612 8.03195,-0.302665 12.59246,2.023934 3.21735,1.641368 3.84361,1.717444 4.30211,0.522599 0.29514,-0.769126 -0.66239,-3.166677 -2.12786,-5.32789 -2.17957,-3.214342 -3.51758,-4.151824 -7.35199,-5.151202 -6.53927,-1.704356 -14.14053,-1.540283 -19.83651,0.428171 -6.03871,2.086902 -14.813152,8.036225 -18.033527,12.227259 -2.761205,3.593466 -3.97551,4.791252 -8.301838,8.188921 -4.639642,3.643728 -4.180674,5.220438 0.773829,2.658365 z M 209.67515,80.390625 c -0.7879,-12.415889 -1.55175,-16.798549 -2.85043,-16.354419 -0.5739,0.196271 -1.09211,1.583261 -1.15155,3.082201 -0.17351,4.374844 -0.31979,5.069927 -1.0638,5.054737 -1.98334,-0.04049 -3.40522,-2.074113 -3.65338,-5.225202 -0.30635,-3.890058 -1.70368,-5.978633 -3.04899,-4.557317 -0.46365,0.489844 -0.61648,5.015824 -0.33962,10.057733 l 0.50337,9.167107 5.26151,4.1853 c 2.89381,2.301915 5.642,4.188435 6.10709,4.192268 0.48723,0.004 0.58716,-4.065383 0.2358,-9.602408 z M 90.315656,83.406727 c 7.098281,-6.948009 13.740874,-10.229869 23.043094,-11.384745 7.54607,-0.936848 8.05941,-1.110816 7.23132,-2.450682 C 118.67992,66.480612 90.752799,64.949362 82.904456,67.504989 79.658118,68.562082 71.053447,74.711292 69.154981,77.330862 68.191085,78.660879 68.265983,82.5 69.255827,82.5 c 0.45008,0 2.805454,-0.879001 5.234165,-1.953336 2.428711,-1.074333 4.597621,-1.77155 4.819801,-1.54937 0.222181,0.222181 -0.445693,1.48413 -1.484164,2.804331 -2.322056,2.952017 -2.402898,4.992881 -0.247504,6.248282 3.858384,2.247303 6.789667,1.17877 12.737531,-4.64318 z M 193.65603,69.625132 c -0.36537,-4.503051 -1.10786,-8.721801 -1.64996,-9.375 -2.72048,-3.277965 -5.98586,0.278429 -6.87182,7.484243 -0.55838,4.541357 -0.43246,5.390625 0.7992,5.390625 0.8041,0 2.64568,1.041355 4.0924,2.314124 1.44672,1.272768 3.00482,2.327455 3.46245,2.34375 0.47201,0.01681 0.54459,-3.513111 0.16773,-8.157742 z M 177.89062,55.200966 C 179.05078,54.772208 180,53.77908 180,52.994013 180,51.758509 178.27667,51.640799 167.18092,52.11842 153.52417,52.706281 150,53.457724 150,55.781841 c 0,1.272617 1.60223,1.375279 12.89062,0.825964 7.08985,-0.345005 13.83985,-0.978083 15,-1.406839 z m -3.68464,-7.063655 c 6.59164,-0.401604 10.11214,-1.02686 11.04733,-1.96205 1.06367,-1.063666 1.31271,-3.513222 1.10652,-10.883308 l -0.26608,-9.510703 -5.625,0 -5.625,0 0,5.15625 c 0,2.835937 -0.34131,5.683594 -0.75846,6.328125 C 173.5723,38.058237 170.63197,38.4375 165,38.4375 c -5.63771,0 -8.56831,-0.378455 -9.07453,-1.171875 -0.41123,-0.644531 -0.75253,-3.28125 -0.75845,-5.859375 l -0.0108,-4.6875 -5.625,0.251695 c -10.16676,0.45492 -9.55514,-0.231006 -9.58183,10.745985 -0.0137,5.639834 0.40438,10.162501 1.00943,10.919452 1.05598,1.321082 4.13965,1.27484 33.24713,-0.498571 z m -3.49767,-14.621686 c 0.0458,-0.644531 0.0193,-3.086384 -0.059,-5.42634 -0.10792,-3.227069 0.32476,-4.677117 1.79169,-6.004676 1.6533,-1.496212 1.93397,-2.862911 1.93397,-9.41741 0,-4.2169594 -0.23763,-7.9048259 -0.52806,-8.1952589 -0.29043,-0.2904329 -1.66153,-0.2266809 -3.04687,0.1416712 -2.31165,0.6146469 -2.54195,1.1078749 -2.79998,5.9968107 l -0.28116,5.327078 -4.10473,0 -4.10473,0 -1.17518,-5.251255 -1.17518,-5.2512554 -3.26427,0.5297176 c -1.79535,0.2913446 -3.67663,0.9420765 -4.18062,1.4460706 -1.38867,1.3886733 -1.88524,9.5930162 -0.75723,12.5110972 0.89919,2.326118 1.44561,2.578125 5.59012,2.578125 4.39474,0 4.61887,0.126778 5.17945,2.929687 0.32227,1.611329 0.58594,4.072266 0.58594,5.46875 0,1.396485 0.28125,2.820313 0.625,3.164063 1.16979,1.169789 9.68264,0.693321 9.77081,-0.546875 z"
     id="path4164"
     inkscape:connector-curvature="0" />
</svg>
